<?xml version="1.0" encoding="utf-8" standalone="no"?>
<!DOCTYPE svg PUBLIC "-//W3C//DTD SVG 1.1//EN"
  "http://www.w3.org/Graphics/SVG/1.1/DTD/svg11.dtd">
<!-- Created with matplotlib (https://matplotlib.org/) -->
<svg height="390.091375pt" version="1.1" viewBox="0 0 1094.4 390.091375" width="1094.4pt" xmlns="http://www.w3.org/2000/svg" xmlns:xlink="http://www.w3.org/1999/xlink">
 <defs>
  <style type="text/css">
*{stroke-linecap:butt;stroke-linejoin:round;}
  </style>
 </defs>
 <g id="figure_1">
  <g id="patch_1">
   <path d="M 0 390.091375 
L 1094.4 390.091375 
L 1094.4 0 
L 0 0 
z
" style="fill:#ffffff;"/>
  </g>
  <g id="axes_1">
   <g id="patch_2">
    <path d="M 61.18 168.87075 
L 552.6 168.87075 
L 552.6 77.01695 
L 61.18 77.01695 
z
" style="fill:#ffffff;"/>
   </g>
   <g id="patch_3">
    <path clip-path="url(#p674bdbd111)" d="M 82.860294 168.87075 
L 126.220882 168.87075 
L 126.220882 154.813655 
L 82.860294 154.813655 
z
" style="fill:#b2182b;stroke:#000000;stroke-linejoin:miter;"/>
   </g>
   <g id="patch_4">
    <path clip-path="url(#p674bdbd111)" d="M 184.035 168.87075 
L 227.395588 168.87075 
L 227.395588 146.394481 
L 184.035 146.394481 
z
" style="fill:#f4a582;stroke:#000000;stroke-linejoin:miter;"/>
   </g>
   <g id="patch_5">
    <path clip-path="url(#p674bdbd111)" d="M 285.209706 168.87075 
L 328.570294 168.87075 
L 328.570294 153.944383 
L 285.209706 153.944383 
z
" style="fill:#d1e5f0;stroke:#000000;stroke-linejoin:miter;"/>
   </g>
   <g id="patch_6">
    <path clip-path="url(#p674bdbd111)" d="M 386.384412 168.87075 
L 429.745 168.87075 
L 429.745 140.14512 
L 386.384412 140.14512 
z
" style="fill:#92c5de;stroke:#000000;stroke-linejoin:miter;"/>
   </g>
   <g id="patch_7">
    <path clip-path="url(#p674bdbd111)" d="M 487.559118 168.87075 
L 530.919706 168.87075 
L 530.919706 96.470554 
L 487.559118 96.470554 
z
" style="fill:#2166ac;stroke:#000000;stroke-linejoin:miter;"/>
   </g>
   <g id="matplotlib.axis_1">
    <g id="xtick_1">
     <g id="line2d_1">
      <defs>
       <path d="M 0 0 
L 0 3.5 
" id="m736159b02e" style="stroke:#000000;stroke-width:0.8;"/>
      </defs>
      <g>
       <use style="stroke:#000000;stroke-width:0.8;" x="104.540588" xlink:href="#m736159b02e" y="168.87075"/>
      </g>
     </g>
    </g>
    <g id="xtick_2">
     <g id="line2d_2">
      <g>
       <use style="stroke:#000000;stroke-width:0.8;" x="205.715294" xlink:href="#m736159b02e" y="168.87075"/>
      </g>
     </g>
    </g>
    <g id="xtick_3">
     <g id="line2d_3">
      <g>
       <use style="stroke:#000000;stroke-width:0.8;" x="306.89" xlink:href="#m736159b02e" y="168.87075"/>
      </g>
     </g>
    </g>
    <g id="xtick_4">
     <g id="line2d_4">
      <g>
       <use style="stroke:#000000;stroke-width:0.8;" x="408.064706" xlink:href="#m736159b02e" y="168.87075"/>
      </g>
     </g>
    </g>
    <g id="xtick_5">
     <g id="line2d_5">
      <g>
       <use style="stroke:#000000;stroke-width:0.8;" x="509.239412" xlink:href="#m736159b02e" y="168.87075"/>
      </g>
     </g>
    </g>
    <g id="text_1">
     <!-- Mixtral-CS -->
     <defs>
      <path d="M 9.8125 72.90625 
L 24.515625 72.90625 
L 43.109375 23.296875 
L 61.8125 72.90625 
L 76.515625 72.90625 
L 76.515625 0 
L 66.890625 0 
L 66.890625 64.015625 
L 48.09375 14.015625 
L 38.1875 14.015625 
L 19.390625 64.015625 
L 19.390625 0 
L 9.8125 0 
z
" id="DejaVuSans-77"/>
      <path d="M 9.421875 54.6875 
L 18.40625 54.6875 
L 18.40625 0 
L 9.421875 0 
z
M 9.421875 75.984375 
L 18.40625 75.984375 
L 18.40625 64.59375 
L 9.421875 64.59375 
z
" id="DejaVuSans-105"/>
      <path d="M 54.890625 54.6875 
L 35.109375 28.078125 
L 55.90625 0 
L 45.3125 0 
L 29.390625 21.484375 
L 13.484375 0 
L 2.875 0 
L 24.125 28.609375 
L 4.6875 54.6875 
L 15.28125 54.6875 
L 29.78125 35.203125 
L 44.28125 54.6875 
z
" id="DejaVuSans-120"/>
      <path d="M 18.3125 70.21875 
L 18.3125 54.6875 
L 36.8125 54.6875 
L 36.8125 47.703125 
L 18.3125 47.703125 
L 18.3125 18.015625 
Q 18.3125 11.328125 20.140625 9.421875 
Q 21.96875 7.515625 27.59375 7.515625 
L 36.8125 7.515625 
L 36.8125 0 
L 27.59375 0 
Q 17.1875 0 13.234375 3.875 
Q 9.28125 7.765625 9.28125 18.015625 
L 9.28125 47.703125 
L 2.6875 47.703125 
L 2.6875 54.6875 
L 9.28125 54.6875 
L 9.28125 70.21875 
z
" id="DejaVuSans-116"/>
      <path d="M 41.109375 46.296875 
Q 39.59375 47.171875 37.8125 47.578125 
Q 36.03125 48 33.890625 48 
Q 26.265625 48 22.1875 43.046875 
Q 18.109375 38.09375 18.109375 28.8125 
L 18.109375 0 
L 9.078125 0 
L 9.078125 54.6875 
L 18.109375 54.6875 
L 18.109375 46.1875 
Q 20.953125 51.171875 25.484375 53.578125 
Q 30.03125 56 36.53125 56 
Q 37.453125 56 38.578125 55.875 
Q 39.703125 55.765625 41.0625 55.515625 
z
" id="DejaVuSans-114"/>
      <path d="M 34.28125 27.484375 
Q 23.390625 27.484375 19.1875 25 
Q 14.984375 22.515625 14.984375 16.5 
Q 14.984375 11.71875 18.140625 8.90625 
Q 21.296875 6.109375 26.703125 6.109375 
Q 34.1875 6.109375 38.703125 11.40625 
Q 43.21875 16.703125 43.21875 25.484375 
L 43.21875 27.484375 
z
M 52.203125 31.203125 
L 52.203125 0 
L 43.21875 0 
L 43.21875 8.296875 
Q 40.140625 3.328125 35.546875 0.953125 
Q 30.953125 -1.421875 24.3125 -1.421875 
Q 15.921875 -1.421875 10.953125 3.296875 
Q 6 8.015625 6 15.921875 
Q 6 25.140625 12.171875 29.828125 
Q 18.359375 34.515625 30.609375 34.515625 
L 43.21875 34.515625 
L 43.21875 35.40625 
Q 43.21875 41.609375 39.140625 45 
Q 35.0625 48.390625 27.6875 48.390625 
Q 23 48.390625 18.546875 47.265625 
Q 14.109375 46.140625 10.015625 43.890625 
L 10.015625 52.203125 
Q 14.9375 54.109375 19.578125 55.046875 
Q 24.21875 56 28.609375 56 
Q 40.484375 56 46.34375 49.84375 
Q 52.203125 43.703125 52.203125 31.203125 
z
" id="DejaVuSans-97"/>
      <path d="M 9.421875 75.984375 
L 18.40625 75.984375 
L 18.40625 0 
L 9.421875 0 
z
" id="DejaVuSans-108"/>
      <path d="M 4.890625 31.390625 
L 31.203125 31.390625 
L 31.203125 23.390625 
L 4.890625 23.390625 
z
" id="DejaVuSans-45"/>
      <path d="M 64.40625 67.28125 
L 64.40625 56.890625 
Q 59.421875 61.53125 53.78125 63.8125 
Q 48.140625 66.109375 41.796875 66.109375 
Q 29.296875 66.109375 22.65625 58.46875 
Q 16.015625 50.828125 16.015625 36.375 
Q 16.015625 21.96875 22.65625 14.328125 
Q 29.296875 6.6875 41.796875 6.6875 
Q 48.140625 6.6875 53.78125 8.984375 
Q 59.421875 11.28125 64.40625 15.921875 
L 64.40625 5.609375 
Q 59.234375 2.09375 53.4375 0.328125 
Q 47.65625 -1.421875 41.21875 -1.421875 
Q 24.65625 -1.421875 15.125 8.703125 
Q 5.609375 18.84375 5.609375 36.375 
Q 5.609375 53.953125 15.125 64.078125 
Q 24.65625 74.21875 41.21875 74.21875 
Q 47.75 74.21875 53.53125 72.484375 
Q 59.328125 70.75 64.40625 67.28125 
z
" id="DejaVuSans-67"/>
      <path d="M 53.515625 70.515625 
L 53.515625 60.890625 
Q 47.90625 63.578125 42.921875 64.890625 
Q 37.9375 66.21875 33.296875 66.21875 
Q 25.25 66.21875 20.875 63.09375 
Q 16.5 59.96875 16.5 54.203125 
Q 16.5 49.359375 19.40625 46.890625 
Q 22.3125 44.4375 30.421875 42.921875 
L 36.375 41.703125 
Q 47.40625 39.59375 52.65625 34.296875 
Q 57.90625 29 57.90625 20.125 
Q 57.90625 9.515625 50.796875 4.046875 
Q 43.703125 -1.421875 29.984375 -1.421875 
Q 24.8125 -1.421875 18.96875 -0.25 
Q 13.140625 0.921875 6.890625 3.21875 
L 6.890625 13.375 
Q 12.890625 10.015625 18.65625 8.296875 
Q 24.421875 6.59375 29.984375 6.59375 
Q 38.421875 6.59375 43.015625 9.90625 
Q 47.609375 13.234375 47.609375 19.390625 
Q 47.609375 24.75 44.3125 27.78125 
Q 41.015625 30.8125 33.5 32.328125 
L 27.484375 33.5 
Q 16.453125 35.6875 11.515625 40.375 
Q 6.59375 45.0625 6.59375 53.421875 
Q 6.59375 63.09375 13.40625 68.65625 
Q 20.21875 74.21875 32.171875 74.21875 
Q 37.3125 74.21875 42.625 73.28125 
Q 47.953125 72.359375 53.515625 70.515625 
z
" id="DejaVuSans-83"/>
     </defs>
     <g transform="translate(260.808594 186.547937)scale(0.18 -0.18)">
      <use xlink:href="#DejaVuSans-77"/>
      <use x="86.279297" xlink:href="#DejaVuSans-105"/>
      <use x="114.0625" xlink:href="#DejaVuSans-120"/>
      <use x="173.242188" xlink:href="#DejaVuSans-116"/>
      <use x="212.451172" xlink:href="#DejaVuSans-114"/>
      <use x="253.564453" xlink:href="#DejaVuSans-97"/>
      <use x="314.84375" xlink:href="#DejaVuSans-108"/>
      <use x="342.626953" xlink:href="#DejaVuSans-45"/>
      <use x="378.710938" xlink:href="#DejaVuSans-67"/>
      <use x="448.535156" xlink:href="#DejaVuSans-83"/>
     </g>
    </g>
   </g>
   <g id="matplotlib.axis_2">
    <g id="ytick_1">
     <g id="line2d_6">
      <defs>
       <path d="M 0 0 
L -3.5 0 
" id="m9536b6ff75" style="stroke:#000000;stroke-width:0.8;"/>
      </defs>
      <g>
       <use style="stroke:#000000;stroke-width:0.8;" x="61.18" xlink:href="#m9536b6ff75" y="168.87075"/>
      </g>
     </g>
     <g id="text_2">
      <!-- 0.0 -->
      <defs>
       <path d="M 31.78125 66.40625 
Q 24.171875 66.40625 20.328125 58.90625 
Q 16.5 51.421875 16.5 36.375 
Q 16.5 21.390625 20.328125 13.890625 
Q 24.171875 6.390625 31.78125 6.390625 
Q 39.453125 6.390625 43.28125 13.890625 
Q 47.125 21.390625 47.125 36.375 
Q 47.125 51.421875 43.28125 58.90625 
Q 39.453125 66.40625 31.78125 66.40625 
z
M 31.78125 74.21875 
Q 44.046875 74.21875 50.515625 64.515625 
Q 56.984375 54.828125 56.984375 36.375 
Q 56.984375 17.96875 50.515625 8.265625 
Q 44.046875 -1.421875 31.78125 -1.421875 
Q 19.53125 -1.421875 13.0625 8.265625 
Q 6.59375 17.96875 6.59375 36.375 
Q 6.59375 54.828125 13.0625 64.515625 
Q 19.53125 74.21875 31.78125 74.21875 
z
" id="DejaVuSans-48"/>
       <path d="M 10.6875 12.40625 
L 21 12.40625 
L 21 0 
L 10.6875 0 
z
" id="DejaVuSans-46"/>
      </defs>
      <g transform="translate(28.735 174.9495)scale(0.16 -0.16)">
       <use xlink:href="#DejaVuSans-48"/>
       <use x="63.623047" xlink:href="#DejaVuSans-46"/>
       <use x="95.410156" xlink:href="#DejaVuSans-48"/>
      </g>
     </g>
    </g>
    <g id="ytick_2">
     <g id="line2d_7">
      <g>
       <use style="stroke:#000000;stroke-width:0.8;" x="61.18" xlink:href="#m9536b6ff75" y="147.000797"/>
      </g>
     </g>
     <g id="text_3">
      <!-- 0.5 -->
      <defs>
       <path d="M 10.796875 72.90625 
L 49.515625 72.90625 
L 49.515625 64.59375 
L 19.828125 64.59375 
L 19.828125 46.734375 
Q 21.96875 47.46875 24.109375 47.828125 
Q 26.265625 48.1875 28.421875 48.1875 
Q 40.625 48.1875 47.75 41.5 
Q 54.890625 34.8125 54.890625 23.390625 
Q 54.890625 11.625 47.5625 5.09375 
Q 40.234375 -1.421875 26.90625 -1.421875 
Q 22.3125 -1.421875 17.546875 -0.640625 
Q 12.796875 0.140625 7.71875 1.703125 
L 7.71875 11.625 
Q 12.109375 9.234375 16.796875 8.0625 
Q 21.484375 6.890625 26.703125 6.890625 
Q 35.15625 6.890625 40.078125 11.328125 
Q 45.015625 15.765625 45.015625 23.390625 
Q 45.015625 31 40.078125 35.4375 
Q 35.15625 39.890625 26.703125 39.890625 
Q 22.75 39.890625 18.8125 39.015625 
Q 14.890625 38.140625 10.796875 36.28125 
z
" id="DejaVuSans-53"/>
      </defs>
      <g transform="translate(28.735 153.079547)scale(0.16 -0.16)">
       <use xlink:href="#DejaVuSans-48"/>
       <use x="63.623047" xlink:href="#DejaVuSans-46"/>
       <use x="95.410156" xlink:href="#DejaVuSans-53"/>
      </g>
     </g>
    </g>
    <g id="ytick_3">
     <g id="line2d_8">
      <g>
       <use style="stroke:#000000;stroke-width:0.8;" x="61.18" xlink:href="#m9536b6ff75" y="125.130845"/>
      </g>
     </g>
     <g id="text_4">
      <!-- 1.0 -->
      <defs>
       <path d="M 12.40625 8.296875 
L 28.515625 8.296875 
L 28.515625 63.921875 
L 10.984375 60.40625 
L 10.984375 69.390625 
L 28.421875 72.90625 
L 38.28125 72.90625 
L 38.28125 8.296875 
L 54.390625 8.296875 
L 54.390625 0 
L 12.40625 0 
z
" id="DejaVuSans-49"/>
      </defs>
      <g transform="translate(28.735 131.209595)scale(0.16 -0.16)">
       <use xlink:href="#DejaVuSans-49"/>
       <use x="63.623047" xlink:href="#DejaVuSans-46"/>
       <use x="95.410156" xlink:href="#DejaVuSans-48"/>
      </g>
     </g>
    </g>
    <g id="ytick_4">
     <g id="line2d_9">
      <g>
       <use style="stroke:#000000;stroke-width:0.8;" x="61.18" xlink:href="#m9536b6ff75" y="103.260892"/>
      </g>
     </g>
     <g id="text_5">
      <!-- 1.5 -->
      <g transform="translate(28.735 109.339642)scale(0.16 -0.16)">
       <use xlink:href="#DejaVuSans-49"/>
       <use x="63.623047" xlink:href="#DejaVuSans-46"/>
       <use x="95.410156" xlink:href="#DejaVuSans-53"/>
      </g>
     </g>
    </g>
    <g id="ytick_5">
     <g id="line2d_10">
      <g>
       <use style="stroke:#000000;stroke-width:0.8;" x="61.18" xlink:href="#m9536b6ff75" y="81.39094"/>
      </g>
     </g>
     <g id="text_6">
      <!-- 2.0 -->
      <defs>
       <path d="M 19.1875 8.296875 
L 53.609375 8.296875 
L 53.609375 0 
L 7.328125 0 
L 7.328125 8.296875 
Q 12.9375 14.109375 22.625 23.890625 
Q 32.328125 33.6875 34.8125 36.53125 
Q 39.546875 41.84375 41.421875 45.53125 
Q 43.3125 49.21875 43.3125 52.78125 
Q 43.3125 58.59375 39.234375 62.25 
Q 35.15625 65.921875 28.609375 65.921875 
Q 23.96875 65.921875 18.8125 64.3125 
Q 13.671875 62.703125 7.8125 59.421875 
L 7.8125 69.390625 
Q 13.765625 71.78125 18.9375 73 
Q 24.125 74.21875 28.421875 74.21875 
Q 39.75 74.21875 46.484375 68.546875 
Q 53.21875 62.890625 53.21875 53.421875 
Q 53.21875 48.921875 51.53125 44.890625 
Q 49.859375 40.875 45.40625 35.40625 
Q 44.1875 33.984375 37.640625 27.21875 
Q 31.109375 20.453125 19.1875 8.296875 
z
" id="DejaVuSans-50"/>
      </defs>
      <g transform="translate(28.735 87.46969)scale(0.16 -0.16)">
       <use xlink:href="#DejaVuSans-50"/>
       <use x="63.623047" xlink:href="#DejaVuSans-46"/>
       <use x="95.410156" xlink:href="#DejaVuSans-48"/>
      </g>
     </g>
    </g>
   </g>
   <g id="line2d_11">
    <path clip-path="url(#p674bdbd111)" d="M 61.18 147.000797 
L 552.6 147.000797 
" style="fill:none;stroke:#808080;stroke-dasharray:5.55,2.4;stroke-dashoffset:0;stroke-width:1.5;"/>
   </g>
   <g id="line2d_12">
    <path clip-path="url(#p674bdbd111)" d="M 61.18 125.130845 
L 552.6 125.130845 
" style="fill:none;stroke:#808080;stroke-dasharray:5.55,2.4;stroke-dashoffset:0;stroke-width:1.5;"/>
   </g>
   <g id="line2d_13">
    <path clip-path="url(#p674bdbd111)" d="M 61.18 103.260892 
L 552.6 103.260892 
" style="fill:none;stroke:#808080;stroke-dasharray:5.55,2.4;stroke-dashoffset:0;stroke-width:1.5;"/>
   </g>
   <g id="line2d_14">
    <path clip-path="url(#p674bdbd111)" d="M 61.18 81.39094 
L 552.6 81.39094 
" style="fill:none;stroke:#808080;stroke-dasharray:5.55,2.4;stroke-dashoffset:0;stroke-width:1.5;"/>
   </g>
   <g id="patch_8">
    <path d="M 61.18 168.87075 
L 61.18 77.01695 
" style="fill:none;stroke:#000000;stroke-linecap:square;stroke-linejoin:miter;stroke-width:0.8;"/>
   </g>
   <g id="patch_9">
    <path d="M 552.6 168.87075 
L 552.6 77.01695 
" style="fill:none;stroke:#000000;stroke-linecap:square;stroke-linejoin:miter;stroke-width:0.8;"/>
   </g>
   <g id="patch_10">
    <path d="M 61.18 168.87075 
L 552.6 168.87075 
" style="fill:none;stroke:#000000;stroke-linecap:square;stroke-linejoin:miter;stroke-width:0.8;"/>
   </g>
   <g id="patch_11">
    <path d="M 61.18 77.01695 
L 552.6 77.01695 
" style="fill:none;stroke:#000000;stroke-linecap:square;stroke-linejoin:miter;stroke-width:0.8;"/>
   </g>
   <g id="text_7">
    <!-- 0.3 -->
    <defs>
     <path d="M 40.578125 39.3125 
Q 47.65625 37.796875 51.625 33 
Q 55.609375 28.21875 55.609375 21.1875 
Q 55.609375 10.40625 48.1875 4.484375 
Q 40.765625 -1.421875 27.09375 -1.421875 
Q 22.515625 -1.421875 17.65625 -0.515625 
Q 12.796875 0.390625 7.625 2.203125 
L 7.625 11.71875 
Q 11.71875 9.328125 16.59375 8.109375 
Q 21.484375 6.890625 26.8125 6.890625 
Q 36.078125 6.890625 40.9375 10.546875 
Q 45.796875 14.203125 45.796875 21.1875 
Q 45.796875 27.640625 41.28125 31.265625 
Q 36.765625 34.90625 28.71875 34.90625 
L 20.21875 34.90625 
L 20.21875 43.015625 
L 29.109375 43.015625 
Q 36.375 43.015625 40.234375 45.921875 
Q 44.09375 48.828125 44.09375 54.296875 
Q 44.09375 59.90625 40.109375 62.90625 
Q 36.140625 65.921875 28.71875 65.921875 
Q 24.65625 65.921875 20.015625 65.03125 
Q 15.375 64.15625 9.8125 62.3125 
L 9.8125 71.09375 
Q 15.4375 72.65625 20.34375 73.4375 
Q 25.25 74.21875 29.59375 74.21875 
Q 40.828125 74.21875 47.359375 69.109375 
Q 53.90625 64.015625 53.90625 55.328125 
Q 53.90625 49.265625 50.4375 45.09375 
Q 46.96875 40.921875 40.578125 39.3125 
z
" id="DejaVuSans-51"/>
    </defs>
    <g transform="translate(89.797988 150.439664)scale(0.18 -0.18)">
     <use xlink:href="#DejaVuSans-48"/>
     <use x="63.623047" xlink:href="#DejaVuSans-46"/>
     <use x="95.410156" xlink:href="#DejaVuSans-51"/>
    </g>
   </g>
   <g id="text_8">
    <!-- 0.5 -->
    <g transform="translate(190.972694 142.02049)scale(0.18 -0.18)">
     <use xlink:href="#DejaVuSans-48"/>
     <use x="63.623047" xlink:href="#DejaVuSans-46"/>
     <use x="95.410156" xlink:href="#DejaVuSans-53"/>
    </g>
   </g>
   <g id="text_9">
    <!-- 0.3 -->
    <g transform="translate(292.1474 149.570392)scale(0.18 -0.18)">
     <use xlink:href="#DejaVuSans-48"/>
     <use x="63.623047" xlink:href="#DejaVuSans-46"/>
     <use x="95.410156" xlink:href="#DejaVuSans-51"/>
    </g>
   </g>
   <g id="text_10">
    <!-- 0.7 -->
    <defs>
     <path d="M 8.203125 72.90625 
L 55.078125 72.90625 
L 55.078125 68.703125 
L 28.609375 0 
L 18.3125 0 
L 43.21875 64.59375 
L 8.203125 64.59375 
z
" id="DejaVuSans-55"/>
    </defs>
    <g transform="translate(393.322106 137.958124)scale(0.18 -0.18)">
     <use xlink:href="#DejaVuSans-48"/>
     <use x="63.623047" xlink:href="#DejaVuSans-46"/>
     <use x="95.410156" xlink:href="#DejaVuSans-55"/>
    </g>
   </g>
   <g id="text_11">
    <!-- 1.7 -->
    <g transform="translate(494.496812 94.283559)scale(0.18 -0.18)">
     <use xlink:href="#DejaVuSans-49"/>
     <use x="63.623047" xlink:href="#DejaVuSans-46"/>
     <use x="95.410156" xlink:href="#DejaVuSans-55"/>
    </g>
   </g>
   <g id="legend_1">
    <g id="patch_12">
     <path d="M 147.78 73.048125 
L 466 73.048125 
Q 468.8 73.048125 468.8 70.248125 
L 468.8 10 
Q 468.8 7.2 466 7.2 
L 147.78 7.2 
Q 144.98 7.2 144.98 10 
L 144.98 70.248125 
Q 144.98 73.048125 147.78 73.048125 
z
" style="fill:#ffffff;opacity:0.8;stroke:#cccccc;stroke-linejoin:miter;"/>
    </g>
    <g id="patch_13">
     <path d="M 150.58 23.437812 
L 178.58 23.437812 
L 178.58 13.637812 
L 150.58 13.637812 
z
" style="fill:#b2182b;stroke:#000000;stroke-linejoin:miter;"/>
    </g>
    <g id="text_12">
     <!-- Dense(bsz=1) -->
     <defs>
      <path d="M 19.671875 64.796875 
L 19.671875 8.109375 
L 31.59375 8.109375 
Q 46.6875 8.109375 53.6875 14.9375 
Q 60.6875 21.78125 60.6875 36.53125 
Q 60.6875 51.171875 53.6875 57.984375 
Q 46.6875 64.796875 31.59375 64.796875 
z
M 9.8125 72.90625 
L 30.078125 72.90625 
Q 51.265625 72.90625 61.171875 64.09375 
Q 71.09375 55.28125 71.09375 36.53125 
Q 71.09375 17.671875 61.125 8.828125 
Q 51.171875 0 30.078125 0 
L 9.8125 0 
z
" id="DejaVuSans-68"/>
      <path d="M 56.203125 29.59375 
L 56.203125 25.203125 
L 14.890625 25.203125 
Q 15.484375 15.921875 20.484375 11.0625 
Q 25.484375 6.203125 34.421875 6.203125 
Q 39.59375 6.203125 44.453125 7.46875 
Q 49.3125 8.734375 54.109375 11.28125 
L 54.109375 2.78125 
Q 49.265625 0.734375 44.1875 -0.34375 
Q 39.109375 -1.421875 33.890625 -1.421875 
Q 20.796875 -1.421875 13.15625 6.1875 
Q 5.515625 13.8125 5.515625 26.8125 
Q 5.515625 40.234375 12.765625 48.109375 
Q 20.015625 56 32.328125 56 
Q 43.359375 56 49.78125 48.890625 
Q 56.203125 41.796875 56.203125 29.59375 
z
M 47.21875 32.234375 
Q 47.125 39.59375 43.09375 43.984375 
Q 39.0625 48.390625 32.421875 48.390625 
Q 24.90625 48.390625 20.390625 44.140625 
Q 15.875 39.890625 15.1875 32.171875 
z
" id="DejaVuSans-101"/>
      <path d="M 54.890625 33.015625 
L 54.890625 0 
L 45.90625 0 
L 45.90625 32.71875 
Q 45.90625 40.484375 42.875 44.328125 
Q 39.84375 48.1875 33.796875 48.1875 
Q 26.515625 48.1875 22.3125 43.546875 
Q 18.109375 38.921875 18.109375 30.90625 
L 18.109375 0 
L 9.078125 0 
L 9.078125 54.6875 
L 18.109375 54.6875 
L 18.109375 46.1875 
Q 21.34375 51.125 25.703125 53.5625 
Q 30.078125 56 35.796875 56 
Q 45.21875 56 50.046875 50.171875 
Q 54.890625 44.34375 54.890625 33.015625 
z
" id="DejaVuSans-110"/>
      <path d="M 44.28125 53.078125 
L 44.28125 44.578125 
Q 40.484375 46.53125 36.375 47.5 
Q 32.28125 48.484375 27.875 48.484375 
Q 21.1875 48.484375 17.84375 46.4375 
Q 14.5 44.390625 14.5 40.28125 
Q 14.5 37.15625 16.890625 35.375 
Q 19.28125 33.59375 26.515625 31.984375 
L 29.59375 31.296875 
Q 39.15625 29.25 43.1875 25.515625 
Q 47.21875 21.78125 47.21875 15.09375 
Q 47.21875 7.46875 41.1875 3.015625 
Q 35.15625 -1.421875 24.609375 -1.421875 
Q 20.21875 -1.421875 15.453125 -0.5625 
Q 10.6875 0.296875 5.421875 2 
L 5.421875 11.28125 
Q 10.40625 8.6875 15.234375 7.390625 
Q 20.0625 6.109375 24.8125 6.109375 
Q 31.15625 6.109375 34.5625 8.28125 
Q 37.984375 10.453125 37.984375 14.40625 
Q 37.984375 18.0625 35.515625 20.015625 
Q 33.0625 21.96875 24.703125 23.78125 
L 21.578125 24.515625 
Q 13.234375 26.265625 9.515625 29.90625 
Q 5.8125 33.546875 5.8125 39.890625 
Q 5.8125 47.609375 11.28125 51.796875 
Q 16.75 56 26.8125 56 
Q 31.78125 56 36.171875 55.265625 
Q 40.578125 54.546875 44.28125 53.078125 
z
" id="DejaVuSans-115"/>
      <path d="M 31 75.875 
Q 24.46875 64.65625 21.28125 53.65625 
Q 18.109375 42.671875 18.109375 31.390625 
Q 18.109375 20.125 21.3125 9.0625 
Q 24.515625 -2 31 -13.1875 
L 23.1875 -13.1875 
Q 15.875 -1.703125 12.234375 9.375 
Q 8.59375 20.453125 8.59375 31.390625 
Q 8.59375 42.28125 12.203125 53.3125 
Q 15.828125 64.359375 23.1875 75.875 
z
" id="DejaVuSans-40"/>
      <path d="M 48.6875 27.296875 
Q 48.6875 37.203125 44.609375 42.84375 
Q 40.53125 48.484375 33.40625 48.484375 
Q 26.265625 48.484375 22.1875 42.84375 
Q 18.109375 37.203125 18.109375 27.296875 
Q 18.109375 17.390625 22.1875 11.75 
Q 26.265625 6.109375 33.40625 6.109375 
Q 40.53125 6.109375 44.609375 11.75 
Q 48.6875 17.390625 48.6875 27.296875 
z
M 18.109375 46.390625 
Q 20.953125 51.265625 25.265625 53.625 
Q 29.59375 56 35.59375 56 
Q 45.5625 56 51.78125 48.09375 
Q 58.015625 40.1875 58.015625 27.296875 
Q 58.015625 14.40625 51.78125 6.484375 
Q 45.5625 -1.421875 35.59375 -1.421875 
Q 29.59375 -1.421875 25.265625 0.953125 
Q 20.953125 3.328125 18.109375 8.203125 
L 18.109375 0 
L 9.078125 0 
L 9.078125 75.984375 
L 18.109375 75.984375 
z
" id="DejaVuSans-98"/>
      <path d="M 5.515625 54.6875 
L 48.1875 54.6875 
L 48.1875 46.484375 
L 14.40625 7.171875 
L 48.1875 7.171875 
L 48.1875 0 
L 4.296875 0 
L 4.296875 8.203125 
L 38.09375 47.515625 
L 5.515625 47.515625 
z
" id="DejaVuSans-122"/>
      <path d="M 10.59375 45.40625 
L 73.1875 45.40625 
L 73.1875 37.203125 
L 10.59375 37.203125 
z
M 10.59375 25.484375 
L 73.1875 25.484375 
L 73.1875 17.1875 
L 10.59375 17.1875 
z
" id="DejaVuSans-61"/>
      <path d="M 8.015625 75.875 
L 15.828125 75.875 
Q 23.140625 64.359375 26.78125 53.3125 
Q 30.421875 42.28125 30.421875 31.390625 
Q 30.421875 20.453125 26.78125 9.375 
Q 23.140625 -1.703125 15.828125 -13.1875 
L 8.015625 -13.1875 
Q 14.5 -2 17.703125 9.0625 
Q 20.90625 20.125 20.90625 31.390625 
Q 20.90625 42.671875 17.703125 53.65625 
Q 14.5 64.65625 8.015625 75.875 
z
" id="DejaVuSans-41"/>
     </defs>
     <g transform="translate(189.78 23.437812)scale(0.14 -0.14)">
      <use xlink:href="#DejaVuSans-68"/>
      <use x="77.001953" xlink:href="#DejaVuSans-101"/>
      <use x="138.525391" xlink:href="#DejaVuSans-110"/>
      <use x="201.904297" xlink:href="#DejaVuSans-115"/>
      <use x="254.003906" xlink:href="#DejaVuSans-101"/>
      <use x="315.527344" xlink:href="#DejaVuSans-40"/>
      <use x="354.541016" xlink:href="#DejaVuSans-98"/>
      <use x="418.017578" xlink:href="#DejaVuSans-115"/>
      <use x="470.117188" xlink:href="#DejaVuSans-122"/>
      <use x="522.607422" xlink:href="#DejaVuSans-61"/>
      <use x="606.396484" xlink:href="#DejaVuSans-49"/>
      <use x="670.019531" xlink:href="#DejaVuSans-41"/>
     </g>
    </g>
    <g id="patch_14">
     <path d="M 150.58 43.987187 
L 178.58 43.987187 
L 178.58 34.187187 
L 150.58 34.187187 
z
" style="fill:#f4a582;stroke:#000000;stroke-linejoin:miter;"/>
    </g>
    <g id="text_13">
     <!-- Dense(bsz=2) -->
     <g transform="translate(189.78 43.987187)scale(0.14 -0.14)">
      <use xlink:href="#DejaVuSans-68"/>
      <use x="77.001953" xlink:href="#DejaVuSans-101"/>
      <use x="138.525391" xlink:href="#DejaVuSans-110"/>
      <use x="201.904297" xlink:href="#DejaVuSans-115"/>
      <use x="254.003906" xlink:href="#DejaVuSans-101"/>
      <use x="315.527344" xlink:href="#DejaVuSans-40"/>
      <use x="354.541016" xlink:href="#DejaVuSans-98"/>
      <use x="418.017578" xlink:href="#DejaVuSans-115"/>
      <use x="470.117188" xlink:href="#DejaVuSans-122"/>
      <use x="522.607422" xlink:href="#DejaVuSans-61"/>
      <use x="606.396484" xlink:href="#DejaVuSans-50"/>
      <use x="670.019531" xlink:href="#DejaVuSans-41"/>
     </g>
    </g>
    <g id="patch_15">
     <path d="M 150.58 64.536562 
L 178.58 64.536562 
L 178.58 54.736562 
L 150.58 54.736562 
z
" style="fill:#d1e5f0;stroke:#000000;stroke-linejoin:miter;"/>
    </g>
    <g id="text_14">
     <!-- Sparse(bsz=1) -->
     <defs>
      <path d="M 18.109375 8.203125 
L 18.109375 -20.796875 
L 9.078125 -20.796875 
L 9.078125 54.6875 
L 18.109375 54.6875 
L 18.109375 46.390625 
Q 20.953125 51.265625 25.265625 53.625 
Q 29.59375 56 35.59375 56 
Q 45.5625 56 51.78125 48.09375 
Q 58.015625 40.1875 58.015625 27.296875 
Q 58.015625 14.40625 51.78125 6.484375 
Q 45.5625 -1.421875 35.59375 -1.421875 
Q 29.59375 -1.421875 25.265625 0.953125 
Q 20.953125 3.328125 18.109375 8.203125 
z
M 48.6875 27.296875 
Q 48.6875 37.203125 44.609375 42.84375 
Q 40.53125 48.484375 33.40625 48.484375 
Q 26.265625 48.484375 22.1875 42.84375 
Q 18.109375 37.203125 18.109375 27.296875 
Q 18.109375 17.390625 22.1875 11.75 
Q 26.265625 6.109375 33.40625 6.109375 
Q 40.53125 6.109375 44.609375 11.75 
Q 48.6875 17.390625 48.6875 27.296875 
z
" id="DejaVuSans-112"/>
     </defs>
     <g transform="translate(189.78 64.536562)scale(0.14 -0.14)">
      <use xlink:href="#DejaVuSans-83"/>
      <use x="63.476562" xlink:href="#DejaVuSans-112"/>
      <use x="126.953125" xlink:href="#DejaVuSans-97"/>
      <use x="188.232422" xlink:href="#DejaVuSans-114"/>
      <use x="229.345703" xlink:href="#DejaVuSans-115"/>
      <use x="281.445312" xlink:href="#DejaVuSans-101"/>
      <use x="342.96875" xlink:href="#DejaVuSans-40"/>
      <use x="381.982422" xlink:href="#DejaVuSans-98"/>
      <use x="445.458984" xlink:href="#DejaVuSans-115"/>
      <use x="497.558594" xlink:href="#DejaVuSans-122"/>
      <use x="550.048828" xlink:href="#DejaVuSans-61"/>
      <use x="633.837891" xlink:href="#DejaVuSans-49"/>
      <use x="697.460938" xlink:href="#DejaVuSans-41"/>
     </g>
    </g>
    <g id="patch_16">
     <path d="M 320.89 23.437812 
L 348.89 23.437812 
L 348.89 13.637812 
L 320.89 13.637812 
z
" style="fill:#92c5de;stroke:#000000;stroke-linejoin:miter;"/>
    </g>
    <g id="text_15">
     <!-- Sparse(bsz=2) -->
     <g transform="translate(360.09 23.437812)scale(0.14 -0.14)">
      <use xlink:href="#DejaVuSans-83"/>
      <use x="63.476562" xlink:href="#DejaVuSans-112"/>
      <use x="126.953125" xlink:href="#DejaVuSans-97"/>
      <use x="188.232422" xlink:href="#DejaVuSans-114"/>
      <use x="229.345703" xlink:href="#DejaVuSans-115"/>
      <use x="281.445312" xlink:href="#DejaVuSans-101"/>
      <use x="342.96875" xlink:href="#DejaVuSans-40"/>
      <use x="381.982422" xlink:href="#DejaVuSans-98"/>
      <use x="445.458984" xlink:href="#DejaVuSans-115"/>
      <use x="497.558594" xlink:href="#DejaVuSans-122"/>
      <use x="550.048828" xlink:href="#DejaVuSans-61"/>
      <use x="633.837891" xlink:href="#DejaVuSans-50"/>
      <use x="697.460938" xlink:href="#DejaVuSans-41"/>
     </g>
    </g>
    <g id="patch_17">
     <path d="M 320.89 43.987187 
L 348.89 43.987187 
L 348.89 34.187187 
L 320.89 34.187187 
z
" style="fill:#2166ac;stroke:#000000;stroke-linejoin:miter;"/>
    </g>
    <g id="text_16">
     <!-- Sparse(bsz=8) -->
     <defs>
      <path d="M 31.78125 34.625 
Q 24.75 34.625 20.71875 30.859375 
Q 16.703125 27.09375 16.703125 20.515625 
Q 16.703125 13.921875 20.71875 10.15625 
Q 24.75 6.390625 31.78125 6.390625 
Q 38.8125 6.390625 42.859375 10.171875 
Q 46.921875 13.96875 46.921875 20.515625 
Q 46.921875 27.09375 42.890625 30.859375 
Q 38.875 34.625 31.78125 34.625 
z
M 21.921875 38.8125 
Q 15.578125 40.375 12.03125 44.71875 
Q 8.5 49.078125 8.5 55.328125 
Q 8.5 64.0625 14.71875 69.140625 
Q 20.953125 74.21875 31.78125 74.21875 
Q 42.671875 74.21875 48.875 69.140625 
Q 55.078125 64.0625 55.078125 55.328125 
Q 55.078125 49.078125 51.53125 44.71875 
Q 48 40.375 41.703125 38.8125 
Q 48.828125 37.15625 52.796875 32.3125 
Q 56.78125 27.484375 56.78125 20.515625 
Q 56.78125 9.90625 50.3125 4.234375 
Q 43.84375 -1.421875 31.78125 -1.421875 
Q 19.734375 -1.421875 13.25 4.234375 
Q 6.78125 9.90625 6.78125 20.515625 
Q 6.78125 27.484375 10.78125 32.3125 
Q 14.796875 37.15625 21.921875 38.8125 
z
M 18.3125 54.390625 
Q 18.3125 48.734375 21.84375 45.5625 
Q 25.390625 42.390625 31.78125 42.390625 
Q 38.140625 42.390625 41.71875 45.5625 
Q 45.3125 48.734375 45.3125 54.390625 
Q 45.3125 60.0625 41.71875 63.234375 
Q 38.140625 66.40625 31.78125 66.40625 
Q 25.390625 66.40625 21.84375 63.234375 
Q 18.3125 60.0625 18.3125 54.390625 
z
" id="DejaVuSans-56"/>
     </defs>
     <g transform="translate(360.09 43.987187)scale(0.14 -0.14)">
      <use xlink:href="#DejaVuSans-83"/>
      <use x="63.476562" xlink:href="#DejaVuSans-112"/>
      <use x="126.953125" xlink:href="#DejaVuSans-97"/>
      <use x="188.232422" xlink:href="#DejaVuSans-114"/>
      <use x="229.345703" xlink:href="#DejaVuSans-115"/>
      <use x="281.445312" xlink:href="#DejaVuSans-101"/>
      <use x="342.96875" xlink:href="#DejaVuSans-40"/>
      <use x="381.982422" xlink:href="#DejaVuSans-98"/>
      <use x="445.458984" xlink:href="#DejaVuSans-115"/>
      <use x="497.558594" xlink:href="#DejaVuSans-122"/>
      <use x="550.048828" xlink:href="#DejaVuSans-61"/>
      <use x="633.837891" xlink:href="#DejaVuSans-56"/>
      <use x="697.460938" xlink:href="#DejaVuSans-41"/>
     </g>
    </g>
   </g>
  </g>
  <g id="axes_2">
   <g id="patch_18">
    <path d="M 595.78 168.87075 
L 1087.2 168.87075 
L 1087.2 77.01695 
L 595.78 77.01695 
z
" style="fill:#ffffff;"/>
   </g>
   <g id="patch_19">
    <path clip-path="url(#p7b79b37c77)" d="M 718.635 168.87075 
L 761.995588 168.87075 
L 761.995588 156.476664 
L 718.635 156.476664 
z
" style="fill:#f4a582;stroke:#000000;stroke-linejoin:miter;"/>
   </g>
   <g id="patch_20">
    <path clip-path="url(#p7b79b37c77)" d="M 819.809706 168.87075 
L 863.170294 168.87075 
L 863.170294 154.200052 
L 819.809706 154.200052 
z
" style="fill:#d1e5f0;stroke:#000000;stroke-linejoin:miter;"/>
   </g>
   <g id="patch_21">
    <path clip-path="url(#p7b79b37c77)" d="M 920.984412 168.87075 
L 964.345 168.87075 
L 964.345 124.891284 
L 920.984412 124.891284 
z
" style="fill:#92c5de;stroke:#000000;stroke-linejoin:miter;"/>
   </g>
   <g id="matplotlib.axis_3">
    <g id="xtick_6">
     <g id="line2d_15">
      <g>
       <use style="stroke:#000000;stroke-width:0.8;" x="740.315294" xlink:href="#m736159b02e" y="168.87075"/>
      </g>
     </g>
    </g>
    <g id="xtick_7">
     <g id="line2d_16">
      <g>
       <use style="stroke:#000000;stroke-width:0.8;" x="841.49" xlink:href="#m736159b02e" y="168.87075"/>
      </g>
     </g>
    </g>
    <g id="xtick_8">
     <g id="line2d_17">
      <g>
       <use style="stroke:#000000;stroke-width:0.8;" x="942.664706" xlink:href="#m736159b02e" y="168.87075"/>
      </g>
     </g>
    </g>
    <g id="text_17">
     <!-- Mixtral-MATH -->
     <defs>
      <path d="M 34.1875 63.1875 
L 20.796875 26.90625 
L 47.609375 26.90625 
z
M 28.609375 72.90625 
L 39.796875 72.90625 
L 67.578125 0 
L 57.328125 0 
L 50.6875 18.703125 
L 17.828125 18.703125 
L 11.1875 0 
L 0.78125 0 
z
" id="DejaVuSans-65"/>
      <path d="M -0.296875 72.90625 
L 61.375 72.90625 
L 61.375 64.59375 
L 35.5 64.59375 
L 35.5 0 
L 25.59375 0 
L 25.59375 64.59375 
L -0.296875 64.59375 
z
" id="DejaVuSans-84"/>
      <path d="M 9.8125 72.90625 
L 19.671875 72.90625 
L 19.671875 43.015625 
L 55.515625 43.015625 
L 55.515625 72.90625 
L 65.375 72.90625 
L 65.375 0 
L 55.515625 0 
L 55.515625 34.71875 
L 19.671875 34.71875 
L 19.671875 0 
L 9.8125 0 
z
" id="DejaVuSans-72"/>
     </defs>
     <g transform="translate(781.917031 186.547937)scale(0.18 -0.18)">
      <use xlink:href="#DejaVuSans-77"/>
      <use x="86.279297" xlink:href="#DejaVuSans-105"/>
      <use x="114.0625" xlink:href="#DejaVuSans-120"/>
      <use x="173.242188" xlink:href="#DejaVuSans-116"/>
      <use x="212.451172" xlink:href="#DejaVuSans-114"/>
      <use x="253.564453" xlink:href="#DejaVuSans-97"/>
      <use x="314.84375" xlink:href="#DejaVuSans-108"/>
      <use x="342.626953" xlink:href="#DejaVuSans-45"/>
      <use x="378.710938" xlink:href="#DejaVuSans-77"/>
      <use x="464.990234" xlink:href="#DejaVuSans-65"/>
      <use x="525.648438" xlink:href="#DejaVuSans-84"/>
      <use x="586.732422" xlink:href="#DejaVuSans-72"/>
     </g>
    </g>
   </g>
   <g id="matplotlib.axis_4">
    <g id="ytick_6">
     <g id="line2d_18">
      <g>
       <use style="stroke:#000000;stroke-width:0.8;" x="595.78" xlink:href="#m9536b6ff75" y="168.87075"/>
      </g>
     </g>
     <g id="text_18">
      <!-- 0.0 -->
      <g transform="translate(563.335 174.9495)scale(0.16 -0.16)">
       <use xlink:href="#DejaVuSans-48"/>
       <use x="63.623047" xlink:href="#DejaVuSans-46"/>
       <use x="95.410156" xlink:href="#DejaVuSans-48"/>
      </g>
     </g>
    </g>
    <g id="ytick_7">
     <g id="line2d_19">
      <g>
       <use style="stroke:#000000;stroke-width:0.8;" x="595.78" xlink:href="#m9536b6ff75" y="147.000797"/>
      </g>
     </g>
     <g id="text_19">
      <!-- 0.5 -->
      <g transform="translate(563.335 153.079547)scale(0.16 -0.16)">
       <use xlink:href="#DejaVuSans-48"/>
       <use x="63.623047" xlink:href="#DejaVuSans-46"/>
       <use x="95.410156" xlink:href="#DejaVuSans-53"/>
      </g>
     </g>
    </g>
    <g id="ytick_8">
     <g id="line2d_20">
      <g>
       <use style="stroke:#000000;stroke-width:0.8;" x="595.78" xlink:href="#m9536b6ff75" y="125.130845"/>
      </g>
     </g>
     <g id="text_20">
      <!-- 1.0 -->
      <g transform="translate(563.335 131.209595)scale(0.16 -0.16)">
       <use xlink:href="#DejaVuSans-49"/>
       <use x="63.623047" xlink:href="#DejaVuSans-46"/>
       <use x="95.410156" xlink:href="#DejaVuSans-48"/>
      </g>
     </g>
    </g>
    <g id="ytick_9">
     <g id="line2d_21">
      <g>
       <use style="stroke:#000000;stroke-width:0.8;" x="595.78" xlink:href="#m9536b6ff75" y="103.260892"/>
      </g>
     </g>
     <g id="text_21">
      <!-- 1.5 -->
      <g transform="translate(563.335 109.339642)scale(0.16 -0.16)">
       <use xlink:href="#DejaVuSans-49"/>
       <use x="63.623047" xlink:href="#DejaVuSans-46"/>
       <use x="95.410156" xlink:href="#DejaVuSans-53"/>
      </g>
     </g>
    </g>
    <g id="ytick_10">
     <g id="line2d_22">
      <g>
       <use style="stroke:#000000;stroke-width:0.8;" x="595.78" xlink:href="#m9536b6ff75" y="81.39094"/>
      </g>
     </g>
     <g id="text_22">
      <!-- 2.0 -->
      <g transform="translate(563.335 87.46969)scale(0.16 -0.16)">
       <use xlink:href="#DejaVuSans-50"/>
       <use x="63.623047" xlink:href="#DejaVuSans-46"/>
       <use x="95.410156" xlink:href="#DejaVuSans-48"/>
      </g>
     </g>
    </g>
   </g>
   <g id="line2d_23">
    <path clip-path="url(#p7b79b37c77)" d="M 595.78 147.000797 
L 1087.2 147.000797 
" style="fill:none;stroke:#808080;stroke-dasharray:5.55,2.4;stroke-dashoffset:0;stroke-width:1.5;"/>
   </g>
   <g id="line2d_24">
    <path clip-path="url(#p7b79b37c77)" d="M 595.78 125.130845 
L 1087.2 125.130845 
" style="fill:none;stroke:#808080;stroke-dasharray:5.55,2.4;stroke-dashoffset:0;stroke-width:1.5;"/>
   </g>
   <g id="line2d_25">
    <path clip-path="url(#p7b79b37c77)" d="M 595.78 103.260892 
L 1087.2 103.260892 
" style="fill:none;stroke:#808080;stroke-dasharray:5.55,2.4;stroke-dashoffset:0;stroke-width:1.5;"/>
   </g>
   <g id="line2d_26">
    <path clip-path="url(#p7b79b37c77)" d="M 595.78 81.39094 
L 1087.2 81.39094 
" style="fill:none;stroke:#808080;stroke-dasharray:5.55,2.4;stroke-dashoffset:0;stroke-width:1.5;"/>
   </g>
   <g id="patch_22">
    <path d="M 595.78 168.87075 
L 595.78 77.01695 
" style="fill:none;stroke:#000000;stroke-linecap:square;stroke-linejoin:miter;stroke-width:0.8;"/>
   </g>
   <g id="patch_23">
    <path d="M 1087.2 168.87075 
L 1087.2 77.01695 
" style="fill:none;stroke:#000000;stroke-linecap:square;stroke-linejoin:miter;stroke-width:0.8;"/>
   </g>
   <g id="patch_24">
    <path d="M 595.78 168.87075 
L 1087.2 168.87075 
" style="fill:none;stroke:#000000;stroke-linecap:square;stroke-linejoin:miter;stroke-width:0.8;"/>
   </g>
   <g id="patch_25">
    <path d="M 595.78 77.01695 
L 1087.2 77.01695 
" style="fill:none;stroke:#000000;stroke-linecap:square;stroke-linejoin:miter;stroke-width:0.8;"/>
   </g>
   <g id="text_23">
    <!-- 0.3 -->
    <g transform="translate(725.572694 152.102673)scale(0.18 -0.18)">
     <use xlink:href="#DejaVuSans-48"/>
     <use x="63.623047" xlink:href="#DejaVuSans-46"/>
     <use x="95.410156" xlink:href="#DejaVuSans-51"/>
    </g>
   </g>
   <g id="text_24">
    <!-- 0.3 -->
    <g transform="translate(826.7474 149.826061)scale(0.18 -0.18)">
     <use xlink:href="#DejaVuSans-48"/>
     <use x="63.623047" xlink:href="#DejaVuSans-46"/>
     <use x="95.410156" xlink:href="#DejaVuSans-51"/>
    </g>
   </g>
   <g id="text_25">
    <!-- 1.0 -->
    <g transform="translate(927.922106 120.517294)scale(0.18 -0.18)">
     <use xlink:href="#DejaVuSans-49"/>
     <use x="63.623047" xlink:href="#DejaVuSans-46"/>
     <use x="95.410156" xlink:href="#DejaVuSans-48"/>
    </g>
   </g>
   <g id="legend_2">
    <g id="patch_26">
     <path d="M 682.38 73.048125 
L 1000.6 73.048125 
Q 1003.4 73.048125 1003.4 70.248125 
L 1003.4 30.549375 
Q 1003.4 27.749375 1000.6 27.749375 
L 682.38 27.749375 
Q 679.58 27.749375 679.58 30.549375 
L 679.58 70.248125 
Q 679.58 73.048125 682.38 73.048125 
z
" style="fill:#ffffff;opacity:0.8;stroke:#cccccc;stroke-linejoin:miter;"/>
    </g>
    <g id="patch_27">
     <path d="M 685.18 43.987187 
L 713.18 43.987187 
L 713.18 34.187187 
L 685.18 34.187187 
z
" style="fill:#f4a582;stroke:#000000;stroke-linejoin:miter;"/>
    </g>
    <g id="text_26">
     <!-- Dense(bsz=1) -->
     <g transform="translate(724.38 43.987187)scale(0.14 -0.14)">
      <use xlink:href="#DejaVuSans-68"/>
      <use x="77.001953" xlink:href="#DejaVuSans-101"/>
      <use x="138.525391" xlink:href="#DejaVuSans-110"/>
      <use x="201.904297" xlink:href="#DejaVuSans-115"/>
      <use x="254.003906" xlink:href="#DejaVuSans-101"/>
      <use x="315.527344" xlink:href="#DejaVuSans-40"/>
      <use x="354.541016" xlink:href="#DejaVuSans-98"/>
      <use x="418.017578" xlink:href="#DejaVuSans-115"/>
      <use x="470.117188" xlink:href="#DejaVuSans-122"/>
      <use x="522.607422" xlink:href="#DejaVuSans-61"/>
      <use x="606.396484" xlink:href="#DejaVuSans-49"/>
      <use x="670.019531" xlink:href="#DejaVuSans-41"/>
     </g>
    </g>
    <g id="patch_28">
     <path d="M 685.18 64.536562 
L 713.18 64.536562 
L 713.18 54.736562 
L 685.18 54.736562 
z
" style="fill:#d1e5f0;stroke:#000000;stroke-linejoin:miter;"/>
    </g>
    <g id="text_27">
     <!-- Sparse(bsz=1) -->
     <g transform="translate(724.38 64.536562)scale(0.14 -0.14)">
      <use xlink:href="#DejaVuSans-83"/>
      <use x="63.476562" xlink:href="#DejaVuSans-112"/>
      <use x="126.953125" xlink:href="#DejaVuSans-97"/>
      <use x="188.232422" xlink:href="#DejaVuSans-114"/>
      <use x="229.345703" xlink:href="#DejaVuSans-115"/>
      <use x="281.445312" xlink:href="#DejaVuSans-101"/>
      <use x="342.96875" xlink:href="#DejaVuSans-40"/>
      <use x="381.982422" xlink:href="#DejaVuSans-98"/>
      <use x="445.458984" xlink:href="#DejaVuSans-115"/>
      <use x="497.558594" xlink:href="#DejaVuSans-122"/>
      <use x="550.048828" xlink:href="#DejaVuSans-61"/>
      <use x="633.837891" xlink:href="#DejaVuSans-49"/>
      <use x="697.460938" xlink:href="#DejaVuSans-41"/>
     </g>
    </g>
    <g id="patch_29">
     <path d="M 855.49 43.987187 
L 883.49 43.987187 
L 883.49 34.187187 
L 855.49 34.187187 
z
" style="fill:#92c5de;stroke:#000000;stroke-linejoin:miter;"/>
    </g>
    <g id="text_28">
     <!-- Sparse(bsz=3) -->
     <g transform="translate(894.69 43.987187)scale(0.14 -0.14)">
      <use xlink:href="#DejaVuSans-83"/>
      <use x="63.476562" xlink:href="#DejaVuSans-112"/>
      <use x="126.953125" xlink:href="#DejaVuSans-97"/>
      <use x="188.232422" xlink:href="#DejaVuSans-114"/>
      <use x="229.345703" xlink:href="#DejaVuSans-115"/>
      <use x="281.445312" xlink:href="#DejaVuSans-101"/>
      <use x="342.96875" xlink:href="#DejaVuSans-40"/>
      <use x="381.982422" xlink:href="#DejaVuSans-98"/>
      <use x="445.458984" xlink:href="#DejaVuSans-115"/>
      <use x="497.558594" xlink:href="#DejaVuSans-122"/>
      <use x="550.048828" xlink:href="#DejaVuSans-61"/>
      <use x="633.837891" xlink:href="#DejaVuSans-51"/>
      <use x="697.460938" xlink:href="#DejaVuSans-41"/>
     </g>
    </g>
   </g>
  </g>
  <g id="axes_3">
   <g id="patch_30">
    <path d="M 61.18 361.47075 
L 552.6 361.47075 
L 552.6 269.61695 
L 61.18 269.61695 
z
" style="fill:#ffffff;"/>
   </g>
   <g id="patch_31">
    <path clip-path="url(#pe695f0d5a2)" d="M 82.860294 361.47075 
L 126.220882 361.47075 
L 126.220882 351.304537 
L 82.860294 351.304537 
z
" style="fill:#b2182b;stroke:#000000;stroke-linejoin:miter;"/>
   </g>
   <g id="patch_32">
    <path clip-path="url(#pe695f0d5a2)" d="M 184.035 361.47075 
L 227.395588 361.47075 
L 227.395588 327.013872 
L 184.035 327.013872 
z
" style="fill:#f4a582;stroke:#000000;stroke-linejoin:miter;"/>
   </g>
   <g id="patch_33">
    <path clip-path="url(#pe695f0d5a2)" d="M 285.209706 361.47075 
L 328.570294 361.47075 
L 328.570294 350.939961 
L 285.209706 350.939961 
z
" style="fill:#d1e5f0;stroke:#000000;stroke-linejoin:miter;"/>
   </g>
   <g id="patch_34">
    <path clip-path="url(#pe695f0d5a2)" d="M 386.384412 361.47075 
L 429.745 361.47075 
L 429.745 315.708473 
L 386.384412 315.708473 
z
" style="fill:#92c5de;stroke:#000000;stroke-linejoin:miter;"/>
   </g>
   <g id="patch_35">
    <path clip-path="url(#pe695f0d5a2)" d="M 487.559118 361.47075 
L 530.919706 361.47075 
L 530.919706 296.411328 
L 487.559118 296.411328 
z
" style="fill:#2166ac;stroke:#000000;stroke-linejoin:miter;"/>
   </g>
   <g id="matplotlib.axis_5">
    <g id="xtick_9">
     <g id="line2d_27">
      <g>
       <use style="stroke:#000000;stroke-width:0.8;" x="104.540588" xlink:href="#m736159b02e" y="361.47075"/>
      </g>
     </g>
    </g>
    <g id="xtick_10">
     <g id="line2d_28">
      <g>
       <use style="stroke:#000000;stroke-width:0.8;" x="205.715294" xlink:href="#m736159b02e" y="361.47075"/>
      </g>
     </g>
    </g>
    <g id="xtick_11">
     <g id="line2d_29">
      <g>
       <use style="stroke:#000000;stroke-width:0.8;" x="306.89" xlink:href="#m736159b02e" y="361.47075"/>
      </g>
     </g>
    </g>
    <g id="xtick_12">
     <g id="line2d_30">
      <g>
       <use style="stroke:#000000;stroke-width:0.8;" x="408.064706" xlink:href="#m736159b02e" y="361.47075"/>
      </g>
     </g>
    </g>
    <g id="xtick_13">
     <g id="line2d_31">
      <g>
       <use style="stroke:#000000;stroke-width:0.8;" x="509.239412" xlink:href="#m736159b02e" y="361.47075"/>
      </g>
     </g>
    </g>
    <g id="text_29">
     <!-- Blackmamba-CS -->
     <defs>
      <path d="M 19.671875 34.8125 
L 19.671875 8.109375 
L 35.5 8.109375 
Q 43.453125 8.109375 47.28125 11.40625 
Q 51.125 14.703125 51.125 21.484375 
Q 51.125 28.328125 47.28125 31.5625 
Q 43.453125 34.8125 35.5 34.8125 
z
M 19.671875 64.796875 
L 19.671875 42.828125 
L 34.28125 42.828125 
Q 41.5 42.828125 45.03125 45.53125 
Q 48.578125 48.25 48.578125 53.8125 
Q 48.578125 59.328125 45.03125 62.0625 
Q 41.5 64.796875 34.28125 64.796875 
z
M 9.8125 72.90625 
L 35.015625 72.90625 
Q 46.296875 72.90625 52.390625 68.21875 
Q 58.5 63.53125 58.5 54.890625 
Q 58.5 48.1875 55.375 44.234375 
Q 52.25 40.28125 46.1875 39.3125 
Q 53.46875 37.75 57.5 32.78125 
Q 61.53125 27.828125 61.53125 20.40625 
Q 61.53125 10.640625 54.890625 5.3125 
Q 48.25 0 35.984375 0 
L 9.8125 0 
z
" id="DejaVuSans-66"/>
      <path d="M 48.78125 52.59375 
L 48.78125 44.1875 
Q 44.96875 46.296875 41.140625 47.34375 
Q 37.3125 48.390625 33.40625 48.390625 
Q 24.65625 48.390625 19.8125 42.84375 
Q 14.984375 37.3125 14.984375 27.296875 
Q 14.984375 17.28125 19.8125 11.734375 
Q 24.65625 6.203125 33.40625 6.203125 
Q 37.3125 6.203125 41.140625 7.25 
Q 44.96875 8.296875 48.78125 10.40625 
L 48.78125 2.09375 
Q 45.015625 0.34375 40.984375 -0.53125 
Q 36.96875 -1.421875 32.421875 -1.421875 
Q 20.0625 -1.421875 12.78125 6.34375 
Q 5.515625 14.109375 5.515625 27.296875 
Q 5.515625 40.671875 12.859375 48.328125 
Q 20.21875 56 33.015625 56 
Q 37.15625 56 41.109375 55.140625 
Q 45.0625 54.296875 48.78125 52.59375 
z
" id="DejaVuSans-99"/>
      <path d="M 9.078125 75.984375 
L 18.109375 75.984375 
L 18.109375 31.109375 
L 44.921875 54.6875 
L 56.390625 54.6875 
L 27.390625 29.109375 
L 57.625 0 
L 45.90625 0 
L 18.109375 26.703125 
L 18.109375 0 
L 9.078125 0 
z
" id="DejaVuSans-107"/>
      <path d="M 52 44.1875 
Q 55.375 50.25 60.0625 53.125 
Q 64.75 56 71.09375 56 
Q 79.640625 56 84.28125 50.015625 
Q 88.921875 44.046875 88.921875 33.015625 
L 88.921875 0 
L 79.890625 0 
L 79.890625 32.71875 
Q 79.890625 40.578125 77.09375 44.375 
Q 74.3125 48.1875 68.609375 48.1875 
Q 61.625 48.1875 57.5625 43.546875 
Q 53.515625 38.921875 53.515625 30.90625 
L 53.515625 0 
L 44.484375 0 
L 44.484375 32.71875 
Q 44.484375 40.625 41.703125 44.40625 
Q 38.921875 48.1875 33.109375 48.1875 
Q 26.21875 48.1875 22.15625 43.53125 
Q 18.109375 38.875 18.109375 30.90625 
L 18.109375 0 
L 9.078125 0 
L 9.078125 54.6875 
L 18.109375 54.6875 
L 18.109375 46.1875 
Q 21.1875 51.21875 25.484375 53.609375 
Q 29.78125 56 35.6875 56 
Q 41.65625 56 45.828125 52.96875 
Q 50 49.953125 52 44.1875 
z
" id="DejaVuSans-109"/>
     </defs>
     <g transform="translate(233.016875 379.147937)scale(0.18 -0.18)">
      <use xlink:href="#DejaVuSans-66"/>
      <use x="68.603516" xlink:href="#DejaVuSans-108"/>
      <use x="96.386719" xlink:href="#DejaVuSans-97"/>
      <use x="157.666016" xlink:href="#DejaVuSans-99"/>
      <use x="212.646484" xlink:href="#DejaVuSans-107"/>
      <use x="270.556641" xlink:href="#DejaVuSans-109"/>
      <use x="367.96875" xlink:href="#DejaVuSans-97"/>
      <use x="429.248047" xlink:href="#DejaVuSans-109"/>
      <use x="526.660156" xlink:href="#DejaVuSans-98"/>
      <use x="590.136719" xlink:href="#DejaVuSans-97"/>
      <use x="651.416016" xlink:href="#DejaVuSans-45"/>
      <use x="687.5" xlink:href="#DejaVuSans-67"/>
      <use x="757.324219" xlink:href="#DejaVuSans-83"/>
     </g>
    </g>
   </g>
   <g id="matplotlib.axis_6">
    <g id="ytick_11">
     <g id="line2d_32">
      <g>
       <use style="stroke:#000000;stroke-width:0.8;" x="61.18" xlink:href="#m9536b6ff75" y="361.47075"/>
      </g>
     </g>
     <g id="text_30">
      <!-- 0 -->
      <g transform="translate(44 367.5495)scale(0.16 -0.16)">
       <use xlink:href="#DejaVuSans-48"/>
      </g>
     </g>
    </g>
    <g id="ytick_12">
     <g id="line2d_33">
      <g>
       <use style="stroke:#000000;stroke-width:0.8;" x="61.18" xlink:href="#m9536b6ff75" y="339.600797"/>
      </g>
     </g>
     <g id="text_31">
      <!-- 5 -->
      <g transform="translate(44 345.679547)scale(0.16 -0.16)">
       <use xlink:href="#DejaVuSans-53"/>
      </g>
     </g>
    </g>
    <g id="ytick_13">
     <g id="line2d_34">
      <g>
       <use style="stroke:#000000;stroke-width:0.8;" x="61.18" xlink:href="#m9536b6ff75" y="317.730845"/>
      </g>
     </g>
     <g id="text_32">
      <!-- 10 -->
      <g transform="translate(33.82 323.809595)scale(0.16 -0.16)">
       <use xlink:href="#DejaVuSans-49"/>
       <use x="63.623047" xlink:href="#DejaVuSans-48"/>
      </g>
     </g>
    </g>
    <g id="ytick_14">
     <g id="line2d_35">
      <g>
       <use style="stroke:#000000;stroke-width:0.8;" x="61.18" xlink:href="#m9536b6ff75" y="295.860892"/>
      </g>
     </g>
     <g id="text_33">
      <!-- 15 -->
      <g transform="translate(33.82 301.939642)scale(0.16 -0.16)">
       <use xlink:href="#DejaVuSans-49"/>
       <use x="63.623047" xlink:href="#DejaVuSans-53"/>
      </g>
     </g>
    </g>
    <g id="ytick_15">
     <g id="line2d_36">
      <g>
       <use style="stroke:#000000;stroke-width:0.8;" x="61.18" xlink:href="#m9536b6ff75" y="273.99094"/>
      </g>
     </g>
     <g id="text_34">
      <!-- 20 -->
      <g transform="translate(33.82 280.06969)scale(0.16 -0.16)">
       <use xlink:href="#DejaVuSans-50"/>
       <use x="63.623047" xlink:href="#DejaVuSans-48"/>
      </g>
     </g>
    </g>
   </g>
   <g id="line2d_37">
    <path clip-path="url(#pe695f0d5a2)" d="M 61.18 339.600797 
L 552.6 339.600797 
" style="fill:none;stroke:#808080;stroke-dasharray:5.55,2.4;stroke-dashoffset:0;stroke-width:1.5;"/>
   </g>
   <g id="line2d_38">
    <path clip-path="url(#pe695f0d5a2)" d="M 61.18 317.730845 
L 552.6 317.730845 
" style="fill:none;stroke:#808080;stroke-dasharray:5.55,2.4;stroke-dashoffset:0;stroke-width:1.5;"/>
   </g>
   <g id="line2d_39">
    <path clip-path="url(#pe695f0d5a2)" d="M 61.18 295.860892 
L 552.6 295.860892 
" style="fill:none;stroke:#808080;stroke-dasharray:5.55,2.4;stroke-dashoffset:0;stroke-width:1.5;"/>
   </g>
   <g id="line2d_40">
    <path clip-path="url(#pe695f0d5a2)" d="M 61.18 273.99094 
L 552.6 273.99094 
" style="fill:none;stroke:#808080;stroke-dasharray:5.55,2.4;stroke-dashoffset:0;stroke-width:1.5;"/>
   </g>
   <g id="patch_36">
    <path d="M 61.18 361.47075 
L 61.18 269.61695 
" style="fill:none;stroke:#000000;stroke-linecap:square;stroke-linejoin:miter;stroke-width:0.8;"/>
   </g>
   <g id="patch_37">
    <path d="M 552.6 361.47075 
L 552.6 269.61695 
" style="fill:none;stroke:#000000;stroke-linecap:square;stroke-linejoin:miter;stroke-width:0.8;"/>
   </g>
   <g id="patch_38">
    <path d="M 61.18 361.47075 
L 552.6 361.47075 
" style="fill:none;stroke:#000000;stroke-linecap:square;stroke-linejoin:miter;stroke-width:0.8;"/>
   </g>
   <g id="patch_39">
    <path d="M 61.18 269.61695 
L 552.6 269.61695 
" style="fill:none;stroke:#000000;stroke-linecap:square;stroke-linejoin:miter;stroke-width:0.8;"/>
   </g>
   <g id="text_35">
    <!-- 2.3 -->
    <g transform="translate(89.797988 348.680143)scale(0.18 -0.18)">
     <use xlink:href="#DejaVuSans-50"/>
     <use x="63.623047" xlink:href="#DejaVuSans-46"/>
     <use x="95.410156" xlink:href="#DejaVuSans-51"/>
    </g>
   </g>
   <g id="text_36">
    <!-- 7.9 -->
    <defs>
     <path d="M 10.984375 1.515625 
L 10.984375 10.5 
Q 14.703125 8.734375 18.5 7.8125 
Q 22.3125 6.890625 25.984375 6.890625 
Q 35.75 6.890625 40.890625 13.453125 
Q 46.046875 20.015625 46.78125 33.40625 
Q 43.953125 29.203125 39.59375 26.953125 
Q 35.25 24.703125 29.984375 24.703125 
Q 19.046875 24.703125 12.671875 31.3125 
Q 6.296875 37.9375 6.296875 49.421875 
Q 6.296875 60.640625 12.9375 67.421875 
Q 19.578125 74.21875 30.609375 74.21875 
Q 43.265625 74.21875 49.921875 64.515625 
Q 56.59375 54.828125 56.59375 36.375 
Q 56.59375 19.140625 48.40625 8.859375 
Q 40.234375 -1.421875 26.421875 -1.421875 
Q 22.703125 -1.421875 18.890625 -0.6875 
Q 15.09375 0.046875 10.984375 1.515625 
z
M 30.609375 32.421875 
Q 37.25 32.421875 41.125 36.953125 
Q 45.015625 41.5 45.015625 49.421875 
Q 45.015625 57.28125 41.125 61.84375 
Q 37.25 66.40625 30.609375 66.40625 
Q 23.96875 66.40625 20.09375 61.84375 
Q 16.21875 57.28125 16.21875 49.421875 
Q 16.21875 41.5 20.09375 36.953125 
Q 23.96875 32.421875 30.609375 32.421875 
z
" id="DejaVuSans-57"/>
    </defs>
    <g transform="translate(190.972694 324.389478)scale(0.18 -0.18)">
     <use xlink:href="#DejaVuSans-55"/>
     <use x="63.623047" xlink:href="#DejaVuSans-46"/>
     <use x="95.410156" xlink:href="#DejaVuSans-57"/>
    </g>
   </g>
   <g id="text_37">
    <!-- 2.4 -->
    <defs>
     <path d="M 37.796875 64.3125 
L 12.890625 25.390625 
L 37.796875 25.390625 
z
M 35.203125 72.90625 
L 47.609375 72.90625 
L 47.609375 25.390625 
L 58.015625 25.390625 
L 58.015625 17.1875 
L 47.609375 17.1875 
L 47.609375 0 
L 37.796875 0 
L 37.796875 17.1875 
L 4.890625 17.1875 
L 4.890625 26.703125 
z
" id="DejaVuSans-52"/>
    </defs>
    <g transform="translate(292.1474 348.315567)scale(0.18 -0.18)">
     <use xlink:href="#DejaVuSans-50"/>
     <use x="63.623047" xlink:href="#DejaVuSans-46"/>
     <use x="95.410156" xlink:href="#DejaVuSans-52"/>
    </g>
   </g>
   <g id="text_38">
    <!-- 10.5 -->
    <g transform="translate(388.696976 313.084078)scale(0.18 -0.18)">
     <use xlink:href="#DejaVuSans-49"/>
     <use x="63.623047" xlink:href="#DejaVuSans-48"/>
     <use x="127.246094" xlink:href="#DejaVuSans-46"/>
     <use x="159.033203" xlink:href="#DejaVuSans-53"/>
    </g>
   </g>
   <g id="text_39">
    <!-- 14.9 -->
    <g transform="translate(489.871682 293.786933)scale(0.18 -0.18)">
     <use xlink:href="#DejaVuSans-49"/>
     <use x="63.623047" xlink:href="#DejaVuSans-52"/>
     <use x="127.246094" xlink:href="#DejaVuSans-46"/>
     <use x="159.033203" xlink:href="#DejaVuSans-57"/>
    </g>
   </g>
   <g id="legend_3">
    <g id="patch_40">
     <path d="M 143.32625 265.648125 
L 470.45375 265.648125 
Q 473.25375 265.648125 473.25375 262.848125 
L 473.25375 202.6 
Q 473.25375 199.8 470.45375 199.8 
L 143.32625 199.8 
Q 140.52625 199.8 140.52625 202.6 
L 140.52625 262.848125 
Q 140.52625 265.648125 143.32625 265.648125 
z
" style="fill:#ffffff;opacity:0.8;stroke:#cccccc;stroke-linejoin:miter;"/>
    </g>
    <g id="patch_41">
     <path d="M 146.12625 216.037812 
L 174.12625 216.037812 
L 174.12625 206.237812 
L 146.12625 206.237812 
z
" style="fill:#b2182b;stroke:#000000;stroke-linejoin:miter;"/>
    </g>
    <g id="text_40">
     <!-- Dense(bsz=1) -->
     <g transform="translate(185.32625 216.037812)scale(0.14 -0.14)">
      <use xlink:href="#DejaVuSans-68"/>
      <use x="77.001953" xlink:href="#DejaVuSans-101"/>
      <use x="138.525391" xlink:href="#DejaVuSans-110"/>
      <use x="201.904297" xlink:href="#DejaVuSans-115"/>
      <use x="254.003906" xlink:href="#DejaVuSans-101"/>
      <use x="315.527344" xlink:href="#DejaVuSans-40"/>
      <use x="354.541016" xlink:href="#DejaVuSans-98"/>
      <use x="418.017578" xlink:href="#DejaVuSans-115"/>
      <use x="470.117188" xlink:href="#DejaVuSans-122"/>
      <use x="522.607422" xlink:href="#DejaVuSans-61"/>
      <use x="606.396484" xlink:href="#DejaVuSans-49"/>
      <use x="670.019531" xlink:href="#DejaVuSans-41"/>
     </g>
    </g>
    <g id="patch_42">
     <path d="M 146.12625 236.587187 
L 174.12625 236.587187 
L 174.12625 226.787187 
L 146.12625 226.787187 
z
" style="fill:#f4a582;stroke:#000000;stroke-linejoin:miter;"/>
    </g>
    <g id="text_41">
     <!-- Dense(bsz=6) -->
     <defs>
      <path d="M 33.015625 40.375 
Q 26.375 40.375 22.484375 35.828125 
Q 18.609375 31.296875 18.609375 23.390625 
Q 18.609375 15.53125 22.484375 10.953125 
Q 26.375 6.390625 33.015625 6.390625 
Q 39.65625 6.390625 43.53125 10.953125 
Q 47.40625 15.53125 47.40625 23.390625 
Q 47.40625 31.296875 43.53125 35.828125 
Q 39.65625 40.375 33.015625 40.375 
z
M 52.59375 71.296875 
L 52.59375 62.3125 
Q 48.875 64.0625 45.09375 64.984375 
Q 41.3125 65.921875 37.59375 65.921875 
Q 27.828125 65.921875 22.671875 59.328125 
Q 17.53125 52.734375 16.796875 39.40625 
Q 19.671875 43.65625 24.015625 45.921875 
Q 28.375 48.1875 33.59375 48.1875 
Q 44.578125 48.1875 50.953125 41.515625 
Q 57.328125 34.859375 57.328125 23.390625 
Q 57.328125 12.15625 50.6875 5.359375 
Q 44.046875 -1.421875 33.015625 -1.421875 
Q 20.359375 -1.421875 13.671875 8.265625 
Q 6.984375 17.96875 6.984375 36.375 
Q 6.984375 53.65625 15.1875 63.9375 
Q 23.390625 74.21875 37.203125 74.21875 
Q 40.921875 74.21875 44.703125 73.484375 
Q 48.484375 72.75 52.59375 71.296875 
z
" id="DejaVuSans-54"/>
     </defs>
     <g transform="translate(185.32625 236.587187)scale(0.14 -0.14)">
      <use xlink:href="#DejaVuSans-68"/>
      <use x="77.001953" xlink:href="#DejaVuSans-101"/>
      <use x="138.525391" xlink:href="#DejaVuSans-110"/>
      <use x="201.904297" xlink:href="#DejaVuSans-115"/>
      <use x="254.003906" xlink:href="#DejaVuSans-101"/>
      <use x="315.527344" xlink:href="#DejaVuSans-40"/>
      <use x="354.541016" xlink:href="#DejaVuSans-98"/>
      <use x="418.017578" xlink:href="#DejaVuSans-115"/>
      <use x="470.117188" xlink:href="#DejaVuSans-122"/>
      <use x="522.607422" xlink:href="#DejaVuSans-61"/>
      <use x="606.396484" xlink:href="#DejaVuSans-54"/>
      <use x="670.019531" xlink:href="#DejaVuSans-41"/>
     </g>
    </g>
    <g id="patch_43">
     <path d="M 146.12625 257.136562 
L 174.12625 257.136562 
L 174.12625 247.336562 
L 146.12625 247.336562 
z
" style="fill:#d1e5f0;stroke:#000000;stroke-linejoin:miter;"/>
    </g>
    <g id="text_42">
     <!-- Sparse(bsz=1) -->
     <g transform="translate(185.32625 257.136562)scale(0.14 -0.14)">
      <use xlink:href="#DejaVuSans-83"/>
      <use x="63.476562" xlink:href="#DejaVuSans-112"/>
      <use x="126.953125" xlink:href="#DejaVuSans-97"/>
      <use x="188.232422" xlink:href="#DejaVuSans-114"/>
      <use x="229.345703" xlink:href="#DejaVuSans-115"/>
      <use x="281.445312" xlink:href="#DejaVuSans-101"/>
      <use x="342.96875" xlink:href="#DejaVuSans-40"/>
      <use x="381.982422" xlink:href="#DejaVuSans-98"/>
      <use x="445.458984" xlink:href="#DejaVuSans-115"/>
      <use x="497.558594" xlink:href="#DejaVuSans-122"/>
      <use x="550.048828" xlink:href="#DejaVuSans-61"/>
      <use x="633.837891" xlink:href="#DejaVuSans-49"/>
      <use x="697.460938" xlink:href="#DejaVuSans-41"/>
     </g>
    </g>
    <g id="patch_44">
     <path d="M 316.43625 216.037812 
L 344.43625 216.037812 
L 344.43625 206.237812 
L 316.43625 206.237812 
z
" style="fill:#92c5de;stroke:#000000;stroke-linejoin:miter;"/>
    </g>
    <g id="text_43">
     <!-- Sparse(bsz=6) -->
     <g transform="translate(355.63625 216.037812)scale(0.14 -0.14)">
      <use xlink:href="#DejaVuSans-83"/>
      <use x="63.476562" xlink:href="#DejaVuSans-112"/>
      <use x="126.953125" xlink:href="#DejaVuSans-97"/>
      <use x="188.232422" xlink:href="#DejaVuSans-114"/>
      <use x="229.345703" xlink:href="#DejaVuSans-115"/>
      <use x="281.445312" xlink:href="#DejaVuSans-101"/>
      <use x="342.96875" xlink:href="#DejaVuSans-40"/>
      <use x="381.982422" xlink:href="#DejaVuSans-98"/>
      <use x="445.458984" xlink:href="#DejaVuSans-115"/>
      <use x="497.558594" xlink:href="#DejaVuSans-122"/>
      <use x="550.048828" xlink:href="#DejaVuSans-61"/>
      <use x="633.837891" xlink:href="#DejaVuSans-54"/>
      <use x="697.460938" xlink:href="#DejaVuSans-41"/>
     </g>
    </g>
    <g id="patch_45">
     <path d="M 316.43625 236.587187 
L 344.43625 236.587187 
L 344.43625 226.787187 
L 316.43625 226.787187 
z
" style="fill:#2166ac;stroke:#000000;stroke-linejoin:miter;"/>
    </g>
    <g id="text_44">
     <!-- Sparse(bsz=20) -->
     <g transform="translate(355.63625 236.587187)scale(0.14 -0.14)">
      <use xlink:href="#DejaVuSans-83"/>
      <use x="63.476562" xlink:href="#DejaVuSans-112"/>
      <use x="126.953125" xlink:href="#DejaVuSans-97"/>
      <use x="188.232422" xlink:href="#DejaVuSans-114"/>
      <use x="229.345703" xlink:href="#DejaVuSans-115"/>
      <use x="281.445312" xlink:href="#DejaVuSans-101"/>
      <use x="342.96875" xlink:href="#DejaVuSans-40"/>
      <use x="381.982422" xlink:href="#DejaVuSans-98"/>
      <use x="445.458984" xlink:href="#DejaVuSans-115"/>
      <use x="497.558594" xlink:href="#DejaVuSans-122"/>
      <use x="550.048828" xlink:href="#DejaVuSans-61"/>
      <use x="633.837891" xlink:href="#DejaVuSans-50"/>
      <use x="697.460938" xlink:href="#DejaVuSans-48"/>
      <use x="761.083984" xlink:href="#DejaVuSans-41"/>
     </g>
    </g>
   </g>
  </g>
  <g id="axes_4">
   <g id="patch_46">
    <path d="M 595.78 361.47075 
L 1087.2 361.47075 
L 1087.2 269.61695 
L 595.78 269.61695 
z
" style="fill:#ffffff;"/>
   </g>
   <g id="patch_47">
    <path clip-path="url(#pcb79a76580)" d="M 617.460294 361.47075 
L 660.820882 361.47075 
L 660.820882 351.765938 
L 617.460294 351.765938 
z
" style="fill:#b2182b;stroke:#000000;stroke-linejoin:miter;"/>
   </g>
   <g id="patch_48">
    <path clip-path="url(#pcb79a76580)" d="M 718.635 361.47075 
L 761.995588 361.47075 
L 761.995588 338.194963 
L 718.635 338.194963 
z
" style="fill:#f4a582;stroke:#000000;stroke-linejoin:miter;"/>
   </g>
   <g id="patch_49">
    <path clip-path="url(#pcb79a76580)" d="M 819.809706 361.47075 
L 863.170294 361.47075 
L 863.170294 351.962306 
L 819.809706 351.962306 
z
" style="fill:#d1e5f0;stroke:#000000;stroke-linejoin:miter;"/>
   </g>
   <g id="patch_50">
    <path clip-path="url(#pcb79a76580)" d="M 920.984412 361.47075 
L 964.345 361.47075 
L 964.345 333.245319 
L 920.984412 333.245319 
z
" style="fill:#92c5de;stroke:#000000;stroke-linejoin:miter;"/>
   </g>
   <g id="patch_51">
    <path clip-path="url(#pcb79a76580)" d="M 1022.159118 361.47075 
L 1065.519706 361.47075 
L 1065.519706 310.680203 
L 1022.159118 310.680203 
z
" style="fill:#2166ac;stroke:#000000;stroke-linejoin:miter;"/>
   </g>
   <g id="matplotlib.axis_7">
    <g id="xtick_14">
     <g id="line2d_41">
      <g>
       <use style="stroke:#000000;stroke-width:0.8;" x="639.140588" xlink:href="#m736159b02e" y="361.47075"/>
      </g>
     </g>
    </g>
    <g id="xtick_15">
     <g id="line2d_42">
      <g>
       <use style="stroke:#000000;stroke-width:0.8;" x="740.315294" xlink:href="#m736159b02e" y="361.47075"/>
      </g>
     </g>
    </g>
    <g id="xtick_16">
     <g id="line2d_43">
      <g>
       <use style="stroke:#000000;stroke-width:0.8;" x="841.49" xlink:href="#m736159b02e" y="361.47075"/>
      </g>
     </g>
    </g>
    <g id="xtick_17">
     <g id="line2d_44">
      <g>
       <use style="stroke:#000000;stroke-width:0.8;" x="942.664706" xlink:href="#m736159b02e" y="361.47075"/>
      </g>
     </g>
    </g>
    <g id="xtick_18">
     <g id="line2d_45">
      <g>
       <use style="stroke:#000000;stroke-width:0.8;" x="1043.839412" xlink:href="#m736159b02e" y="361.47075"/>
      </g>
     </g>
    </g>
    <g id="text_45">
     <!-- Blackmamba-MATH -->
     <g transform="translate(754.125313 379.147937)scale(0.18 -0.18)">
      <use xlink:href="#DejaVuSans-66"/>
      <use x="68.603516" xlink:href="#DejaVuSans-108"/>
      <use x="96.386719" xlink:href="#DejaVuSans-97"/>
      <use x="157.666016" xlink:href="#DejaVuSans-99"/>
      <use x="212.646484" xlink:href="#DejaVuSans-107"/>
      <use x="270.556641" xlink:href="#DejaVuSans-109"/>
      <use x="367.96875" xlink:href="#DejaVuSans-97"/>
      <use x="429.248047" xlink:href="#DejaVuSans-109"/>
      <use x="526.660156" xlink:href="#DejaVuSans-98"/>
      <use x="590.136719" xlink:href="#DejaVuSans-97"/>
      <use x="651.416016" xlink:href="#DejaVuSans-45"/>
      <use x="687.5" xlink:href="#DejaVuSans-77"/>
      <use x="773.779297" xlink:href="#DejaVuSans-65"/>
      <use x="834.4375" xlink:href="#DejaVuSans-84"/>
      <use x="895.521484" xlink:href="#DejaVuSans-72"/>
     </g>
    </g>
   </g>
   <g id="matplotlib.axis_8">
    <g id="ytick_16">
     <g id="line2d_46">
      <g>
       <use style="stroke:#000000;stroke-width:0.8;" x="595.78" xlink:href="#m9536b6ff75" y="361.47075"/>
      </g>
     </g>
     <g id="text_46">
      <!-- 0 -->
      <g transform="translate(578.6 367.5495)scale(0.16 -0.16)">
       <use xlink:href="#DejaVuSans-48"/>
      </g>
     </g>
    </g>
    <g id="ytick_17">
     <g id="line2d_47">
      <g>
       <use style="stroke:#000000;stroke-width:0.8;" x="595.78" xlink:href="#m9536b6ff75" y="339.600797"/>
      </g>
     </g>
     <g id="text_47">
      <!-- 5 -->
      <g transform="translate(578.6 345.679547)scale(0.16 -0.16)">
       <use xlink:href="#DejaVuSans-53"/>
      </g>
     </g>
    </g>
    <g id="ytick_18">
     <g id="line2d_48">
      <g>
       <use style="stroke:#000000;stroke-width:0.8;" x="595.78" xlink:href="#m9536b6ff75" y="317.730845"/>
      </g>
     </g>
     <g id="text_48">
      <!-- 10 -->
      <g transform="translate(568.42 323.809595)scale(0.16 -0.16)">
       <use xlink:href="#DejaVuSans-49"/>
       <use x="63.623047" xlink:href="#DejaVuSans-48"/>
      </g>
     </g>
    </g>
    <g id="ytick_19">
     <g id="line2d_49">
      <g>
       <use style="stroke:#000000;stroke-width:0.8;" x="595.78" xlink:href="#m9536b6ff75" y="295.860892"/>
      </g>
     </g>
     <g id="text_49">
      <!-- 15 -->
      <g transform="translate(568.42 301.939642)scale(0.16 -0.16)">
       <use xlink:href="#DejaVuSans-49"/>
       <use x="63.623047" xlink:href="#DejaVuSans-53"/>
      </g>
     </g>
    </g>
    <g id="ytick_20">
     <g id="line2d_50">
      <g>
       <use style="stroke:#000000;stroke-width:0.8;" x="595.78" xlink:href="#m9536b6ff75" y="273.99094"/>
      </g>
     </g>
     <g id="text_50">
      <!-- 20 -->
      <g transform="translate(568.42 280.06969)scale(0.16 -0.16)">
       <use xlink:href="#DejaVuSans-50"/>
       <use x="63.623047" xlink:href="#DejaVuSans-48"/>
      </g>
     </g>
    </g>
   </g>
   <g id="line2d_51">
    <path clip-path="url(#pcb79a76580)" d="M 595.78 339.600797 
L 1087.2 339.600797 
" style="fill:none;stroke:#808080;stroke-dasharray:5.55,2.4;stroke-dashoffset:0;stroke-width:1.5;"/>
   </g>
   <g id="line2d_52">
    <path clip-path="url(#pcb79a76580)" d="M 595.78 317.730845 
L 1087.2 317.730845 
" style="fill:none;stroke:#808080;stroke-dasharray:5.55,2.4;stroke-dashoffset:0;stroke-width:1.5;"/>
   </g>
   <g id="line2d_53">
    <path clip-path="url(#pcb79a76580)" d="M 595.78 295.860892 
L 1087.2 295.860892 
" style="fill:none;stroke:#808080;stroke-dasharray:5.55,2.4;stroke-dashoffset:0;stroke-width:1.5;"/>
   </g>
   <g id="line2d_54">
    <path clip-path="url(#pcb79a76580)" d="M 595.78 273.99094 
L 1087.2 273.99094 
" style="fill:none;stroke:#808080;stroke-dasharray:5.55,2.4;stroke-dashoffset:0;stroke-width:1.5;"/>
   </g>
   <g id="patch_52">
    <path d="M 595.78 361.47075 
L 595.78 269.61695 
" style="fill:none;stroke:#000000;stroke-linecap:square;stroke-linejoin:miter;stroke-width:0.8;"/>
   </g>
   <g id="patch_53">
    <path d="M 1087.2 361.47075 
L 1087.2 269.61695 
" style="fill:none;stroke:#000000;stroke-linecap:square;stroke-linejoin:miter;stroke-width:0.8;"/>
   </g>
   <g id="patch_54">
    <path d="M 595.78 361.47075 
L 1087.2 361.47075 
" style="fill:none;stroke:#000000;stroke-linecap:square;stroke-linejoin:miter;stroke-width:0.8;"/>
   </g>
   <g id="patch_55">
    <path d="M 595.78 269.61695 
L 1087.2 269.61695 
" style="fill:none;stroke:#000000;stroke-linecap:square;stroke-linejoin:miter;stroke-width:0.8;"/>
   </g>
   <g id="text_51">
    <!-- 2.2 -->
    <g transform="translate(624.397988 349.141544)scale(0.18 -0.18)">
     <use xlink:href="#DejaVuSans-50"/>
     <use x="63.623047" xlink:href="#DejaVuSans-46"/>
     <use x="95.410156" xlink:href="#DejaVuSans-50"/>
    </g>
   </g>
   <g id="text_52">
    <!-- 5.3 -->
    <g transform="translate(725.572694 335.570569)scale(0.18 -0.18)">
     <use xlink:href="#DejaVuSans-53"/>
     <use x="63.623047" xlink:href="#DejaVuSans-46"/>
     <use x="95.410156" xlink:href="#DejaVuSans-51"/>
    </g>
   </g>
   <g id="text_53">
    <!-- 2.2 -->
    <g transform="translate(826.7474 349.337912)scale(0.18 -0.18)">
     <use xlink:href="#DejaVuSans-50"/>
     <use x="63.623047" xlink:href="#DejaVuSans-46"/>
     <use x="95.410156" xlink:href="#DejaVuSans-50"/>
    </g>
   </g>
   <g id="text_54">
    <!-- 6.5 -->
    <g transform="translate(927.922106 330.620925)scale(0.18 -0.18)">
     <use xlink:href="#DejaVuSans-54"/>
     <use x="63.623047" xlink:href="#DejaVuSans-46"/>
     <use x="95.410156" xlink:href="#DejaVuSans-53"/>
    </g>
   </g>
   <g id="text_55">
    <!-- 11.6 -->
    <g transform="translate(1024.471682 308.055808)scale(0.18 -0.18)">
     <use xlink:href="#DejaVuSans-49"/>
     <use x="63.623047" xlink:href="#DejaVuSans-49"/>
     <use x="127.246094" xlink:href="#DejaVuSans-46"/>
     <use x="159.033203" xlink:href="#DejaVuSans-54"/>
    </g>
   </g>
   <g id="legend_4">
    <g id="patch_56">
     <path d="M 682.38 265.648125 
L 1000.6 265.648125 
Q 1003.4 265.648125 1003.4 262.848125 
L 1003.4 202.6 
Q 1003.4 199.8 1000.6 199.8 
L 682.38 199.8 
Q 679.58 199.8 679.58 202.6 
L 679.58 262.848125 
Q 679.58 265.648125 682.38 265.648125 
z
" style="fill:#ffffff;opacity:0.8;stroke:#cccccc;stroke-linejoin:miter;"/>
    </g>
    <g id="patch_57">
     <path d="M 685.18 216.037812 
L 713.18 216.037812 
L 713.18 206.237812 
L 685.18 206.237812 
z
" style="fill:#b2182b;stroke:#000000;stroke-linejoin:miter;"/>
    </g>
    <g id="text_56">
     <!-- Dense(bsz=1) -->
     <g transform="translate(724.38 216.037812)scale(0.14 -0.14)">
      <use xlink:href="#DejaVuSans-68"/>
      <use x="77.001953" xlink:href="#DejaVuSans-101"/>
      <use x="138.525391" xlink:href="#DejaVuSans-110"/>
      <use x="201.904297" xlink:href="#DejaVuSans-115"/>
      <use x="254.003906" xlink:href="#DejaVuSans-101"/>
      <use x="315.527344" xlink:href="#DejaVuSans-40"/>
      <use x="354.541016" xlink:href="#DejaVuSans-98"/>
      <use x="418.017578" xlink:href="#DejaVuSans-115"/>
      <use x="470.117188" xlink:href="#DejaVuSans-122"/>
      <use x="522.607422" xlink:href="#DejaVuSans-61"/>
      <use x="606.396484" xlink:href="#DejaVuSans-49"/>
      <use x="670.019531" xlink:href="#DejaVuSans-41"/>
     </g>
    </g>
    <g id="patch_58">
     <path d="M 685.18 236.587187 
L 713.18 236.587187 
L 713.18 226.787187 
L 685.18 226.787187 
z
" style="fill:#f4a582;stroke:#000000;stroke-linejoin:miter;"/>
    </g>
    <g id="text_57">
     <!-- Dense(bsz=2) -->
     <g transform="translate(724.38 236.587187)scale(0.14 -0.14)">
      <use xlink:href="#DejaVuSans-68"/>
      <use x="77.001953" xlink:href="#DejaVuSans-101"/>
      <use x="138.525391" xlink:href="#DejaVuSans-110"/>
      <use x="201.904297" xlink:href="#DejaVuSans-115"/>
      <use x="254.003906" xlink:href="#DejaVuSans-101"/>
      <use x="315.527344" xlink:href="#DejaVuSans-40"/>
      <use x="354.541016" xlink:href="#DejaVuSans-98"/>
      <use x="418.017578" xlink:href="#DejaVuSans-115"/>
      <use x="470.117188" xlink:href="#DejaVuSans-122"/>
      <use x="522.607422" xlink:href="#DejaVuSans-61"/>
      <use x="606.396484" xlink:href="#DejaVuSans-50"/>
      <use x="670.019531" xlink:href="#DejaVuSans-41"/>
     </g>
    </g>
    <g id="patch_59">
     <path d="M 685.18 257.136562 
L 713.18 257.136562 
L 713.18 247.336562 
L 685.18 247.336562 
z
" style="fill:#d1e5f0;stroke:#000000;stroke-linejoin:miter;"/>
    </g>
    <g id="text_58">
     <!-- Sparse(bsz=1) -->
     <g transform="translate(724.38 257.136562)scale(0.14 -0.14)">
      <use xlink:href="#DejaVuSans-83"/>
      <use x="63.476562" xlink:href="#DejaVuSans-112"/>
      <use x="126.953125" xlink:href="#DejaVuSans-97"/>
      <use x="188.232422" xlink:href="#DejaVuSans-114"/>
      <use x="229.345703" xlink:href="#DejaVuSans-115"/>
      <use x="281.445312" xlink:href="#DejaVuSans-101"/>
      <use x="342.96875" xlink:href="#DejaVuSans-40"/>
      <use x="381.982422" xlink:href="#DejaVuSans-98"/>
      <use x="445.458984" xlink:href="#DejaVuSans-115"/>
      <use x="497.558594" xlink:href="#DejaVuSans-122"/>
      <use x="550.048828" xlink:href="#DejaVuSans-61"/>
      <use x="633.837891" xlink:href="#DejaVuSans-49"/>
      <use x="697.460938" xlink:href="#DejaVuSans-41"/>
     </g>
    </g>
    <g id="patch_60">
     <path d="M 855.49 216.037812 
L 883.49 216.037812 
L 883.49 206.237812 
L 855.49 206.237812 
z
" style="fill:#92c5de;stroke:#000000;stroke-linejoin:miter;"/>
    </g>
    <g id="text_59">
     <!-- Sparse(bsz=2) -->
     <g transform="translate(894.69 216.037812)scale(0.14 -0.14)">
      <use xlink:href="#DejaVuSans-83"/>
      <use x="63.476562" xlink:href="#DejaVuSans-112"/>
      <use x="126.953125" xlink:href="#DejaVuSans-97"/>
      <use x="188.232422" xlink:href="#DejaVuSans-114"/>
      <use x="229.345703" xlink:href="#DejaVuSans-115"/>
      <use x="281.445312" xlink:href="#DejaVuSans-101"/>
      <use x="342.96875" xlink:href="#DejaVuSans-40"/>
      <use x="381.982422" xlink:href="#DejaVuSans-98"/>
      <use x="445.458984" xlink:href="#DejaVuSans-115"/>
      <use x="497.558594" xlink:href="#DejaVuSans-122"/>
      <use x="550.048828" xlink:href="#DejaVuSans-61"/>
      <use x="633.837891" xlink:href="#DejaVuSans-50"/>
      <use x="697.460938" xlink:href="#DejaVuSans-41"/>
     </g>
    </g>
    <g id="patch_61">
     <path d="M 855.49 236.587187 
L 883.49 236.587187 
L 883.49 226.787187 
L 855.49 226.787187 
z
" style="fill:#2166ac;stroke:#000000;stroke-linejoin:miter;"/>
    </g>
    <g id="text_60">
     <!-- Sparse(bsz=8) -->
     <g transform="translate(894.69 236.587187)scale(0.14 -0.14)">
      <use xlink:href="#DejaVuSans-83"/>
      <use x="63.476562" xlink:href="#DejaVuSans-112"/>
      <use x="126.953125" xlink:href="#DejaVuSans-97"/>
      <use x="188.232422" xlink:href="#DejaVuSans-114"/>
      <use x="229.345703" xlink:href="#DejaVuSans-115"/>
      <use x="281.445312" xlink:href="#DejaVuSans-101"/>
      <use x="342.96875" xlink:href="#DejaVuSans-40"/>
      <use x="381.982422" xlink:href="#DejaVuSans-98"/>
      <use x="445.458984" xlink:href="#DejaVuSans-115"/>
      <use x="497.558594" xlink:href="#DejaVuSans-122"/>
      <use x="550.048828" xlink:href="#DejaVuSans-61"/>
      <use x="633.837891" xlink:href="#DejaVuSans-56"/>
      <use x="697.460938" xlink:href="#DejaVuSans-41"/>
     </g>
    </g>
   </g>
  </g>
  <g id="text_61">
   <!--       Throughput (quries/second) -->
   <defs>
    <path id="DejaVuSans-32"/>
    <path d="M 54.890625 33.015625 
L 54.890625 0 
L 45.90625 0 
L 45.90625 32.71875 
Q 45.90625 40.484375 42.875 44.328125 
Q 39.84375 48.1875 33.796875 48.1875 
Q 26.515625 48.1875 22.3125 43.546875 
Q 18.109375 38.921875 18.109375 30.90625 
L 18.109375 0 
L 9.078125 0 
L 9.078125 75.984375 
L 18.109375 75.984375 
L 18.109375 46.1875 
Q 21.34375 51.125 25.703125 53.5625 
Q 30.078125 56 35.796875 56 
Q 45.21875 56 50.046875 50.171875 
Q 54.890625 44.34375 54.890625 33.015625 
z
" id="DejaVuSans-104"/>
    <path d="M 30.609375 48.390625 
Q 23.390625 48.390625 19.1875 42.75 
Q 14.984375 37.109375 14.984375 27.296875 
Q 14.984375 17.484375 19.15625 11.84375 
Q 23.34375 6.203125 30.609375 6.203125 
Q 37.796875 6.203125 41.984375 11.859375 
Q 46.1875 17.53125 46.1875 27.296875 
Q 46.1875 37.015625 41.984375 42.703125 
Q 37.796875 48.390625 30.609375 48.390625 
z
M 30.609375 56 
Q 42.328125 56 49.015625 48.375 
Q 55.71875 40.765625 55.71875 27.296875 
Q 55.71875 13.875 49.015625 6.21875 
Q 42.328125 -1.421875 30.609375 -1.421875 
Q 18.84375 -1.421875 12.171875 6.21875 
Q 5.515625 13.875 5.515625 27.296875 
Q 5.515625 40.765625 12.171875 48.375 
Q 18.84375 56 30.609375 56 
z
" id="DejaVuSans-111"/>
    <path d="M 8.5 21.578125 
L 8.5 54.6875 
L 17.484375 54.6875 
L 17.484375 21.921875 
Q 17.484375 14.15625 20.5 10.265625 
Q 23.53125 6.390625 29.59375 6.390625 
Q 36.859375 6.390625 41.078125 11.03125 
Q 45.3125 15.671875 45.3125 23.6875 
L 45.3125 54.6875 
L 54.296875 54.6875 
L 54.296875 0 
L 45.3125 0 
L 45.3125 8.40625 
Q 42.046875 3.421875 37.71875 1 
Q 33.40625 -1.421875 27.6875 -1.421875 
Q 18.265625 -1.421875 13.375 4.4375 
Q 8.5 10.296875 8.5 21.578125 
z
M 31.109375 56 
z
" id="DejaVuSans-117"/>
    <path d="M 45.40625 27.984375 
Q 45.40625 37.75 41.375 43.109375 
Q 37.359375 48.484375 30.078125 48.484375 
Q 22.859375 48.484375 18.828125 43.109375 
Q 14.796875 37.75 14.796875 27.984375 
Q 14.796875 18.265625 18.828125 12.890625 
Q 22.859375 7.515625 30.078125 7.515625 
Q 37.359375 7.515625 41.375 12.890625 
Q 45.40625 18.265625 45.40625 27.984375 
z
M 54.390625 6.78125 
Q 54.390625 -7.171875 48.1875 -13.984375 
Q 42 -20.796875 29.203125 -20.796875 
Q 24.46875 -20.796875 20.265625 -20.09375 
Q 16.0625 -19.390625 12.109375 -17.921875 
L 12.109375 -9.1875 
Q 16.0625 -11.328125 19.921875 -12.34375 
Q 23.78125 -13.375 27.78125 -13.375 
Q 36.625 -13.375 41.015625 -8.765625 
Q 45.40625 -4.15625 45.40625 5.171875 
L 45.40625 9.625 
Q 42.625 4.78125 38.28125 2.390625 
Q 33.9375 0 27.875 0 
Q 17.828125 0 11.671875 7.65625 
Q 5.515625 15.328125 5.515625 27.984375 
Q 5.515625 40.671875 11.671875 48.328125 
Q 17.828125 56 27.875 56 
Q 33.9375 56 38.28125 53.609375 
Q 42.625 51.21875 45.40625 46.390625 
L 45.40625 54.6875 
L 54.390625 54.6875 
z
" id="DejaVuSans-103"/>
    <path d="M 14.796875 27.296875 
Q 14.796875 17.390625 18.875 11.75 
Q 22.953125 6.109375 30.078125 6.109375 
Q 37.203125 6.109375 41.296875 11.75 
Q 45.40625 17.390625 45.40625 27.296875 
Q 45.40625 37.203125 41.296875 42.84375 
Q 37.203125 48.484375 30.078125 48.484375 
Q 22.953125 48.484375 18.875 42.84375 
Q 14.796875 37.203125 14.796875 27.296875 
z
M 45.40625 8.203125 
Q 42.578125 3.328125 38.25 0.953125 
Q 33.9375 -1.421875 27.875 -1.421875 
Q 17.96875 -1.421875 11.734375 6.484375 
Q 5.515625 14.40625 5.515625 27.296875 
Q 5.515625 40.1875 11.734375 48.09375 
Q 17.96875 56 27.875 56 
Q 33.9375 56 38.25 53.625 
Q 42.578125 51.265625 45.40625 46.390625 
L 45.40625 54.6875 
L 54.390625 54.6875 
L 54.390625 -20.796875 
L 45.40625 -20.796875 
z
" id="DejaVuSans-113"/>
    <path d="M 25.390625 72.90625 
L 33.6875 72.90625 
L 8.296875 -9.28125 
L 0 -9.28125 
z
" id="DejaVuSans-47"/>
    <path d="M 45.40625 46.390625 
L 45.40625 75.984375 
L 54.390625 75.984375 
L 54.390625 0 
L 45.40625 0 
L 45.40625 8.203125 
Q 42.578125 3.328125 38.25 0.953125 
Q 33.9375 -1.421875 27.875 -1.421875 
Q 17.96875 -1.421875 11.734375 6.484375 
Q 5.515625 14.40625 5.515625 27.296875 
Q 5.515625 40.1875 11.734375 48.09375 
Q 17.96875 56 27.875 56 
Q 33.9375 56 38.25 53.625 
Q 42.578125 51.265625 45.40625 46.390625 
z
M 14.796875 27.296875 
Q 14.796875 17.390625 18.875 11.75 
Q 22.953125 6.109375 30.078125 6.109375 
Q 37.203125 6.109375 41.296875 11.75 
Q 45.40625 17.390625 45.40625 27.296875 
Q 45.40625 37.203125 41.296875 42.84375 
Q 37.203125 48.484375 30.078125 48.484375 
Q 22.953125 48.484375 18.875 42.84375 
Q 14.796875 37.203125 14.796875 27.296875 
z
" id="DejaVuSans-100"/>
   </defs>
   <g transform="translate(22.396875 381.372312)rotate(-90)scale(0.2 -0.2)">
    <use xlink:href="#DejaVuSans-32"/>
    <use x="31.787109" xlink:href="#DejaVuSans-32"/>
    <use x="63.574219" xlink:href="#DejaVuSans-32"/>
    <use x="95.361328" xlink:href="#DejaVuSans-32"/>
    <use x="127.148438" xlink:href="#DejaVuSans-32"/>
    <use x="158.935547" xlink:href="#DejaVuSans-32"/>
    <use x="190.722656" xlink:href="#DejaVuSans-84"/>
    <use x="251.806641" xlink:href="#DejaVuSans-104"/>
    <use x="315.185547" xlink:href="#DejaVuSans-114"/>
    <use x="354.048828" xlink:href="#DejaVuSans-111"/>
    <use x="415.230469" xlink:href="#DejaVuSans-117"/>
    <use x="478.609375" xlink:href="#DejaVuSans-103"/>
    <use x="542.085938" xlink:href="#DejaVuSans-104"/>
    <use x="605.464844" xlink:href="#DejaVuSans-112"/>
    <use x="668.941406" xlink:href="#DejaVuSans-117"/>
    <use x="732.320312" xlink:href="#DejaVuSans-116"/>
    <use x="771.529297" xlink:href="#DejaVuSans-32"/>
    <use x="803.316406" xlink:href="#DejaVuSans-40"/>
    <use x="842.330078" xlink:href="#DejaVuSans-113"/>
    <use x="905.806641" xlink:href="#DejaVuSans-117"/>
    <use x="969.185547" xlink:href="#DejaVuSans-114"/>
    <use x="1010.298828" xlink:href="#DejaVuSans-105"/>
    <use x="1038.082031" xlink:href="#DejaVuSans-101"/>
    <use x="1099.605469" xlink:href="#DejaVuSans-115"/>
    <use x="1151.705078" xlink:href="#DejaVuSans-47"/>
    <use x="1185.396484" xlink:href="#DejaVuSans-115"/>
    <use x="1237.496094" xlink:href="#DejaVuSans-101"/>
    <use x="1299.019531" xlink:href="#DejaVuSans-99"/>
    <use x="1354" xlink:href="#DejaVuSans-111"/>
    <use x="1415.181641" xlink:href="#DejaVuSans-110"/>
    <use x="1478.560547" xlink:href="#DejaVuSans-100"/>
    <use x="1542.037109" xlink:href="#DejaVuSans-41"/>
   </g>
  </g>
 </g>
 <defs>
  <clipPath id="p674bdbd111">
   <rect height="91.8538" width="491.42" x="61.18" y="77.01695"/>
  </clipPath>
  <clipPath id="p7b79b37c77">
   <rect height="91.8538" width="491.42" x="595.78" y="77.01695"/>
  </clipPath>
  <clipPath id="pe695f0d5a2">
   <rect height="91.8538" width="491.42" x="61.18" y="269.61695"/>
  </clipPath>
  <clipPath id="pcb79a76580">
   <rect height="91.8538" width="491.42" x="595.78" y="269.61695"/>
  </clipPath>
 </defs>
</svg>
