<?xml version="1.0" encoding="utf-8" standalone="no"?>
<!DOCTYPE svg PUBLIC "-//W3C//DTD SVG 1.1//EN"
  "http://www.w3.org/Graphics/SVG/1.1/DTD/svg11.dtd">
<!-- Created with matplotlib (https://matplotlib.org/) -->
<svg height="465.520842pt" version="1.1" viewBox="0 0 1087.398381 465.520842" width="1087.398381pt" xmlns="http://www.w3.org/2000/svg" xmlns:xlink="http://www.w3.org/1999/xlink">
 <defs>
  <style type="text/css">
*{stroke-linecap:butt;stroke-linejoin:round;}
  </style>
 </defs>
 <g id="figure_1">
  <g id="patch_1">
   <path d="M 0 465.520842 
L 1087.398381 465.520842 
L 1087.398381 0 
L 0 0 
z
" style="fill:#ffffff;"/>
  </g>
  <g id="axes_1">
   <g id="patch_2">
    <path d="M 75.76 172.447425 
L 1066.117639 172.447425 
L 1066.117639 59.27328 
L 75.76 59.27328 
z
" style="fill:#ffffff;"/>
   </g>
   <g id="patch_3">
    <path clip-path="url(#pdac0be6661)" d="M 94.516773 172.447425 
L 107.021289 172.447425 
L 107.021289 120.523127 
L 94.516773 120.523127 
z
" style="fill:#b2182b;stroke:#000000;stroke-linejoin:miter;"/>
   </g>
   <g id="patch_4">
    <path clip-path="url(#pdac0be6661)" d="M 182.048383 172.447425 
L 194.552899 172.447425 
L 194.552899 97.308847 
L 182.048383 97.308847 
z
" style="fill:#b2182b;stroke:#000000;stroke-linejoin:miter;"/>
   </g>
   <g id="patch_5">
    <path clip-path="url(#pdac0be6661)" d="M 269.579992 172.447425 
L 282.084508 172.447425 
L 282.084508 125.629545 
L 269.579992 125.629545 
z
" style="fill:#b2182b;stroke:#000000;stroke-linejoin:miter;"/>
   </g>
   <g id="patch_6">
    <path clip-path="url(#pdac0be6661)" d="M 357.111602 172.447425 
L 369.616118 172.447425 
L 369.616118 97.336008 
L 357.111602 97.336008 
z
" style="fill:#b2182b;stroke:#000000;stroke-linejoin:miter;"/>
   </g>
   <g id="patch_7">
    <path clip-path="url(#pdac0be6661)" d="M 444.643211 172.447425 
L 457.147727 172.447425 
L 457.147727 125.548059 
L 444.643211 125.548059 
z
" style="fill:#b2182b;stroke:#000000;stroke-linejoin:miter;"/>
   </g>
   <g id="patch_8">
    <path clip-path="url(#pdac0be6661)" d="M 532.174821 172.447425 
L 544.679337 172.447425 
L 544.679337 97.326954 
L 532.174821 97.326954 
z
" style="fill:#b2182b;stroke:#000000;stroke-linejoin:miter;"/>
   </g>
   <g id="patch_9">
    <path clip-path="url(#pdac0be6661)" d="M 619.70643 172.447425 
L 632.210946 172.447425 
L 632.210946 172.284454 
L 619.70643 172.284454 
z
" style="fill:#b2182b;stroke:#000000;stroke-linejoin:miter;"/>
   </g>
   <g id="patch_10">
    <path clip-path="url(#pdac0be6661)" d="M 707.23804 172.447425 
L 719.742555 172.447425 
L 719.742555 169.939486 
L 707.23804 169.939486 
z
" style="fill:#b2182b;stroke:#000000;stroke-linejoin:miter;"/>
   </g>
   <g id="patch_11">
    <path clip-path="url(#pdac0be6661)" d="M 794.769649 172.447425 
L 807.274165 172.447425 
L 807.274165 161.302035 
L 794.769649 161.302035 
z
" style="fill:#b2182b;stroke:#000000;stroke-linejoin:miter;"/>
   </g>
   <g id="patch_12">
    <path clip-path="url(#pdac0be6661)" d="M 882.301259 172.447425 
L 894.805774 172.447425 
L 894.805774 170.346913 
L 882.301259 170.346913 
z
" style="fill:#b2182b;stroke:#000000;stroke-linejoin:miter;"/>
   </g>
   <g id="patch_13">
    <path clip-path="url(#pdac0be6661)" d="M 989.840093 172.447425 
L 1002.344609 172.447425 
L 1002.344609 109.423007 
L 989.840093 109.423007 
z
" style="fill:#b2182b;stroke:#000000;stroke-linejoin:miter;"/>
   </g>
   <g id="patch_14">
    <path clip-path="url(#pdac0be6661)" d="M 107.021289 172.447425 
L 119.525805 172.447425 
L 119.525805 88.988283 
L 107.021289 88.988283 
z
" style="fill:#f4a582;stroke:#000000;stroke-linejoin:miter;"/>
   </g>
   <g id="patch_15">
    <path clip-path="url(#pdac0be6661)" d="M 194.552899 172.447425 
L 207.057414 172.447425 
L 207.057414 97.308847 
L 194.552899 97.308847 
z
" style="fill:#f4a582;stroke:#000000;stroke-linejoin:miter;"/>
   </g>
   <g id="patch_16">
    <path clip-path="url(#pdac0be6661)" d="M 282.084508 172.447425 
L 294.589024 172.447425 
L 294.589024 90.382589 
L 282.084508 90.382589 
z
" style="fill:#f4a582;stroke:#000000;stroke-linejoin:miter;"/>
   </g>
   <g id="patch_17">
    <path clip-path="url(#pdac0be6661)" d="M 369.616118 172.447425 
L 382.120633 172.447425 
L 382.120633 97.336008 
L 369.616118 97.336008 
z
" style="fill:#f4a582;stroke:#000000;stroke-linejoin:miter;"/>
   </g>
   <g id="patch_18">
    <path clip-path="url(#pdac0be6661)" d="M 457.147727 172.447425 
L 469.652243 172.447425 
L 469.652243 90.427859 
L 457.147727 90.427859 
z
" style="fill:#f4a582;stroke:#000000;stroke-linejoin:miter;"/>
   </g>
   <g id="patch_19">
    <path clip-path="url(#pdac0be6661)" d="M 544.679337 172.447425 
L 557.183852 172.447425 
L 557.183852 97.345062 
L 544.679337 97.345062 
z
" style="fill:#f4a582;stroke:#000000;stroke-linejoin:miter;"/>
   </g>
   <g id="patch_20">
    <path clip-path="url(#pdac0be6661)" d="M 632.210946 172.447425 
L 644.715462 172.447425 
L 644.715462 170.862987 
L 632.210946 170.862987 
z
" style="fill:#f4a582;stroke:#000000;stroke-linejoin:miter;"/>
   </g>
   <g id="patch_21">
    <path clip-path="url(#pdac0be6661)" d="M 719.742555 172.447425 
L 732.247071 172.447425 
L 732.247071 153.886865 
L 719.742555 153.886865 
z
" style="fill:#f4a582;stroke:#000000;stroke-linejoin:miter;"/>
   </g>
   <g id="patch_22">
    <path clip-path="url(#pdac0be6661)" d="M 807.274165 172.447425 
L 819.778681 172.447425 
L 819.778681 150.084214 
L 807.274165 150.084214 
z
" style="fill:#f4a582;stroke:#000000;stroke-linejoin:miter;"/>
   </g>
   <g id="patch_23">
    <path clip-path="url(#pdac0be6661)" d="M 894.805774 172.447425 
L 907.31029 172.447425 
L 907.31029 170.355967 
L 894.805774 170.355967 
z
" style="fill:#f4a582;stroke:#000000;stroke-linejoin:miter;"/>
   </g>
   <g id="patch_24">
    <path clip-path="url(#pdac0be6661)" d="M 1002.344609 172.447425 
L 1014.849125 172.447425 
L 1014.849125 93.198362 
L 1002.344609 93.198362 
z
" style="fill:#f4a582;stroke:#000000;stroke-linejoin:miter;"/>
   </g>
   <g id="patch_25">
    <path clip-path="url(#pdac0be6661)" d="M 119.525805 172.447425 
L 132.03032 172.447425 
L 132.03032 142.877284 
L 119.525805 142.877284 
z
" style="fill:#d1e5f0;stroke:#000000;stroke-linejoin:miter;"/>
   </g>
   <g id="patch_26">
    <path clip-path="url(#pdac0be6661)" d="M 207.057414 172.447425 
L 219.56193 172.447425 
L 219.56193 97.308847 
L 207.057414 97.308847 
z
" style="fill:#d1e5f0;stroke:#000000;stroke-linejoin:miter;"/>
   </g>
   <g id="patch_27">
    <path clip-path="url(#pdac0be6661)" d="M 294.589024 172.447425 
L 307.093539 172.447425 
L 307.093539 140.016242 
L 294.589024 140.016242 
z
" style="fill:#d1e5f0;stroke:#000000;stroke-linejoin:miter;"/>
   </g>
   <g id="patch_28">
    <path clip-path="url(#pdac0be6661)" d="M 382.120633 172.447425 
L 394.625149 172.447425 
L 394.625149 97.3179 
L 382.120633 97.3179 
z
" style="fill:#d1e5f0;stroke:#000000;stroke-linejoin:miter;"/>
   </g>
   <g id="patch_29">
    <path clip-path="url(#pdac0be6661)" d="M 469.652243 172.447425 
L 482.156758 172.447425 
L 482.156758 139.998134 
L 469.652243 139.998134 
z
" style="fill:#d1e5f0;stroke:#000000;stroke-linejoin:miter;"/>
   </g>
   <g id="patch_30">
    <path clip-path="url(#pdac0be6661)" d="M 557.183852 172.447425 
L 569.688368 172.447425 
L 569.688368 97.326954 
L 557.183852 97.326954 
z
" style="fill:#d1e5f0;stroke:#000000;stroke-linejoin:miter;"/>
   </g>
   <g id="patch_31">
    <path clip-path="url(#pdac0be6661)" d="M 644.715462 172.447425 
L 657.219977 172.447425 
L 657.219977 172.284454 
L 644.715462 172.284454 
z
" style="fill:#d1e5f0;stroke:#000000;stroke-linejoin:miter;"/>
   </g>
   <g id="patch_32">
    <path clip-path="url(#pdac0be6661)" d="M 732.247071 172.447425 
L 744.751587 172.447425 
L 744.751587 170.174888 
L 732.247071 170.174888 
z
" style="fill:#d1e5f0;stroke:#000000;stroke-linejoin:miter;"/>
   </g>
   <g id="patch_33">
    <path clip-path="url(#pdac0be6661)" d="M 819.778681 172.447425 
L 832.283196 172.447425 
L 832.283196 161.247711 
L 819.778681 161.247711 
z
" style="fill:#d1e5f0;stroke:#000000;stroke-linejoin:miter;"/>
   </g>
   <g id="patch_34">
    <path clip-path="url(#pdac0be6661)" d="M 907.31029 172.447425 
L 919.814806 172.447425 
L 919.814806 170.36502 
L 907.31029 170.36502 
z
" style="fill:#d1e5f0;stroke:#000000;stroke-linejoin:miter;"/>
   </g>
   <g id="patch_35">
    <path clip-path="url(#pdac0be6661)" d="M 1014.849125 172.447425 
L 1027.35364 172.447425 
L 1027.35364 115.543465 
L 1014.849125 115.543465 
z
" style="fill:#d1e5f0;stroke:#000000;stroke-linejoin:miter;"/>
   </g>
   <g id="patch_36">
    <path clip-path="url(#pdac0be6661)" d="M 132.03032 172.447425 
L 144.534836 172.447425 
L 144.534836 109.558816 
L 132.03032 109.558816 
z
" style="fill:#4393c3;stroke:#000000;stroke-linejoin:miter;"/>
   </g>
   <g id="patch_37">
    <path clip-path="url(#pdac0be6661)" d="M 219.56193 172.447425 
L 232.066446 172.447425 
L 232.066446 97.299793 
L 219.56193 97.299793 
z
" style="fill:#4393c3;stroke:#000000;stroke-linejoin:miter;"/>
   </g>
   <g id="patch_38">
    <path clip-path="url(#pdac0be6661)" d="M 307.093539 172.447425 
L 319.598055 172.447425 
L 319.598055 101.401224 
L 307.093539 101.401224 
z
" style="fill:#4393c3;stroke:#000000;stroke-linejoin:miter;"/>
   </g>
   <g id="patch_39">
    <path clip-path="url(#pdac0be6661)" d="M 394.625149 172.447425 
L 407.129664 172.447425 
L 407.129664 97.326954 
L 394.625149 97.326954 
z
" style="fill:#4393c3;stroke:#000000;stroke-linejoin:miter;"/>
   </g>
   <g id="patch_40">
    <path clip-path="url(#pdac0be6661)" d="M 482.156758 172.447425 
L 494.661274 172.447425 
L 494.661274 101.446493 
L 482.156758 101.446493 
z
" style="fill:#4393c3;stroke:#000000;stroke-linejoin:miter;"/>
   </g>
   <g id="patch_41">
    <path clip-path="url(#pdac0be6661)" d="M 569.688368 172.447425 
L 582.192883 172.447425 
L 582.192883 97.336008 
L 569.688368 97.336008 
z
" style="fill:#4393c3;stroke:#000000;stroke-linejoin:miter;"/>
   </g>
   <g id="patch_42">
    <path clip-path="url(#pdac0be6661)" d="M 657.219977 172.447425 
L 669.724493 172.447425 
L 669.724493 170.872041 
L 657.219977 170.872041 
z
" style="fill:#4393c3;stroke:#000000;stroke-linejoin:miter;"/>
   </g>
   <g id="patch_43">
    <path clip-path="url(#pdac0be6661)" d="M 744.751587 172.447425 
L 757.256102 172.447425 
L 757.256102 152.737016 
L 744.751587 152.737016 
z
" style="fill:#4393c3;stroke:#000000;stroke-linejoin:miter;"/>
   </g>
   <g id="patch_44">
    <path clip-path="url(#pdac0be6661)" d="M 832.283196 172.447425 
L 844.787712 172.447425 
L 844.787712 149.785434 
L 832.283196 149.785434 
z
" style="fill:#4393c3;stroke:#000000;stroke-linejoin:miter;"/>
   </g>
   <g id="patch_45">
    <path clip-path="url(#pdac0be6661)" d="M 919.814806 172.447425 
L 932.319321 172.447425 
L 932.319321 170.36502 
L 919.814806 170.36502 
z
" style="fill:#4393c3;stroke:#000000;stroke-linejoin:miter;"/>
   </g>
   <g id="patch_46">
    <path clip-path="url(#pdac0be6661)" d="M 1027.35364 172.447425 
L 1039.858156 172.447425 
L 1039.858156 102.91323 
L 1027.35364 102.91323 
z
" style="fill:#4393c3;stroke:#000000;stroke-linejoin:miter;"/>
   </g>
   <g id="patch_47">
    <path clip-path="url(#pdac0be6661)" d="M 144.534836 172.447425 
L 157.039352 172.447425 
L 157.039352 95.398467 
L 144.534836 95.398467 
z
" style="fill:#2166ac;stroke:#000000;stroke-linejoin:miter;"/>
   </g>
   <g id="patch_48">
    <path clip-path="url(#pdac0be6661)" d="M 232.066446 172.447425 
L 244.570961 172.447425 
L 244.570961 97.308847 
L 232.066446 97.308847 
z
" style="fill:#2166ac;stroke:#000000;stroke-linejoin:miter;"/>
   </g>
   <g id="patch_49">
    <path clip-path="url(#pdac0be6661)" d="M 319.598055 172.447425 
L 332.102571 172.447425 
L 332.102571 93.162146 
L 319.598055 93.162146 
z
" style="fill:#2166ac;stroke:#000000;stroke-linejoin:miter;"/>
   </g>
   <g id="patch_50">
    <path clip-path="url(#pdac0be6661)" d="M 407.129664 172.447425 
L 419.63418 172.447425 
L 419.63418 97.345062 
L 407.129664 97.345062 
z
" style="fill:#2166ac;stroke:#000000;stroke-linejoin:miter;"/>
   </g>
   <g id="patch_51">
    <path clip-path="url(#pdac0be6661)" d="M 494.661274 172.447425 
L 507.16579 172.447425 
L 507.16579 93.189308 
L 494.661274 93.189308 
z
" style="fill:#2166ac;stroke:#000000;stroke-linejoin:miter;"/>
   </g>
   <g id="patch_52">
    <path clip-path="url(#pdac0be6661)" d="M 582.192883 172.447425 
L 594.697399 172.447425 
L 594.697399 97.345062 
L 582.192883 97.345062 
z
" style="fill:#2166ac;stroke:#000000;stroke-linejoin:miter;"/>
   </g>
   <g id="patch_53">
    <path clip-path="url(#pdac0be6661)" d="M 669.724493 172.447425 
L 682.229009 172.447425 
L 682.229009 167.721272 
L 669.724493 167.721272 
z
" style="fill:#2166ac;stroke:#000000;stroke-linejoin:miter;"/>
   </g>
   <g id="patch_54">
    <path clip-path="url(#pdac0be6661)" d="M 757.256102 172.447425 
L 769.760618 172.447425 
L 769.760618 139.708408 
L 757.256102 139.708408 
z
" style="fill:#2166ac;stroke:#000000;stroke-linejoin:miter;"/>
   </g>
   <g id="patch_55">
    <path clip-path="url(#pdac0be6661)" d="M 844.787712 172.447425 
L 857.292228 172.447425 
L 857.292228 138.504235 
L 844.787712 138.504235 
z
" style="fill:#2166ac;stroke:#000000;stroke-linejoin:miter;"/>
   </g>
   <g id="patch_56">
    <path clip-path="url(#pdac0be6661)" d="M 932.319321 172.447425 
L 944.823837 172.447425 
L 944.823837 170.383128 
L 932.319321 170.383128 
z
" style="fill:#2166ac;stroke:#000000;stroke-linejoin:miter;"/>
   </g>
   <g id="patch_57">
    <path clip-path="url(#pdac0be6661)" d="M 1039.858156 172.447425 
L 1052.362672 172.447425 
L 1052.362672 96.702233 
L 1039.858156 96.702233 
z
" style="fill:#2166ac;stroke:#000000;stroke-linejoin:miter;"/>
   </g>
   <g id="matplotlib.axis_1">
    <g id="xtick_1">
     <g id="line2d_1">
      <defs>
       <path d="M 0 0 
L 0 3.5 
" id="mae4a961e0e" style="stroke:#000000;stroke-width:0.8;"/>
      </defs>
      <g>
       <use style="stroke:#000000;stroke-width:0.8;" x="125.778063" xlink:href="#mae4a961e0e" y="172.447425"/>
      </g>
     </g>
     <g id="text_1">
      <!-- matmul(w2) -->
      <defs>
       <path d="M 52 44.1875 
Q 55.375 50.25 60.0625 53.125 
Q 64.75 56 71.09375 56 
Q 79.640625 56 84.28125 50.015625 
Q 88.921875 44.046875 88.921875 33.015625 
L 88.921875 0 
L 79.890625 0 
L 79.890625 32.71875 
Q 79.890625 40.578125 77.09375 44.375 
Q 74.3125 48.1875 68.609375 48.1875 
Q 61.625 48.1875 57.5625 43.546875 
Q 53.515625 38.921875 53.515625 30.90625 
L 53.515625 0 
L 44.484375 0 
L 44.484375 32.71875 
Q 44.484375 40.625 41.703125 44.40625 
Q 38.921875 48.1875 33.109375 48.1875 
Q 26.21875 48.1875 22.15625 43.53125 
Q 18.109375 38.875 18.109375 30.90625 
L 18.109375 0 
L 9.078125 0 
L 9.078125 54.6875 
L 18.109375 54.6875 
L 18.109375 46.1875 
Q 21.1875 51.21875 25.484375 53.609375 
Q 29.78125 56 35.6875 56 
Q 41.65625 56 45.828125 52.96875 
Q 50 49.953125 52 44.1875 
z
" id="DejaVuSans-109"/>
       <path d="M 34.28125 27.484375 
Q 23.390625 27.484375 19.1875 25 
Q 14.984375 22.515625 14.984375 16.5 
Q 14.984375 11.71875 18.140625 8.90625 
Q 21.296875 6.109375 26.703125 6.109375 
Q 34.1875 6.109375 38.703125 11.40625 
Q 43.21875 16.703125 43.21875 25.484375 
L 43.21875 27.484375 
z
M 52.203125 31.203125 
L 52.203125 0 
L 43.21875 0 
L 43.21875 8.296875 
Q 40.140625 3.328125 35.546875 0.953125 
Q 30.953125 -1.421875 24.3125 -1.421875 
Q 15.921875 -1.421875 10.953125 3.296875 
Q 6 8.015625 6 15.921875 
Q 6 25.140625 12.171875 29.828125 
Q 18.359375 34.515625 30.609375 34.515625 
L 43.21875 34.515625 
L 43.21875 35.40625 
Q 43.21875 41.609375 39.140625 45 
Q 35.0625 48.390625 27.6875 48.390625 
Q 23 48.390625 18.546875 47.265625 
Q 14.109375 46.140625 10.015625 43.890625 
L 10.015625 52.203125 
Q 14.9375 54.109375 19.578125 55.046875 
Q 24.21875 56 28.609375 56 
Q 40.484375 56 46.34375 49.84375 
Q 52.203125 43.703125 52.203125 31.203125 
z
" id="DejaVuSans-97"/>
       <path d="M 18.3125 70.21875 
L 18.3125 54.6875 
L 36.8125 54.6875 
L 36.8125 47.703125 
L 18.3125 47.703125 
L 18.3125 18.015625 
Q 18.3125 11.328125 20.140625 9.421875 
Q 21.96875 7.515625 27.59375 7.515625 
L 36.8125 7.515625 
L 36.8125 0 
L 27.59375 0 
Q 17.1875 0 13.234375 3.875 
Q 9.28125 7.765625 9.28125 18.015625 
L 9.28125 47.703125 
L 2.6875 47.703125 
L 2.6875 54.6875 
L 9.28125 54.6875 
L 9.28125 70.21875 
z
" id="DejaVuSans-116"/>
       <path d="M 8.5 21.578125 
L 8.5 54.6875 
L 17.484375 54.6875 
L 17.484375 21.921875 
Q 17.484375 14.15625 20.5 10.265625 
Q 23.53125 6.390625 29.59375 6.390625 
Q 36.859375 6.390625 41.078125 11.03125 
Q 45.3125 15.671875 45.3125 23.6875 
L 45.3125 54.6875 
L 54.296875 54.6875 
L 54.296875 0 
L 45.3125 0 
L 45.3125 8.40625 
Q 42.046875 3.421875 37.71875 1 
Q 33.40625 -1.421875 27.6875 -1.421875 
Q 18.265625 -1.421875 13.375 4.4375 
Q 8.5 10.296875 8.5 21.578125 
z
M 31.109375 56 
z
" id="DejaVuSans-117"/>
       <path d="M 9.421875 75.984375 
L 18.40625 75.984375 
L 18.40625 0 
L 9.421875 0 
z
" id="DejaVuSans-108"/>
       <path d="M 31 75.875 
Q 24.46875 64.65625 21.28125 53.65625 
Q 18.109375 42.671875 18.109375 31.390625 
Q 18.109375 20.125 21.3125 9.0625 
Q 24.515625 -2 31 -13.1875 
L 23.1875 -13.1875 
Q 15.875 -1.703125 12.234375 9.375 
Q 8.59375 20.453125 8.59375 31.390625 
Q 8.59375 42.28125 12.203125 53.3125 
Q 15.828125 64.359375 23.1875 75.875 
z
" id="DejaVuSans-40"/>
       <path d="M 4.203125 54.6875 
L 13.1875 54.6875 
L 24.421875 12.015625 
L 35.59375 54.6875 
L 46.1875 54.6875 
L 57.421875 12.015625 
L 68.609375 54.6875 
L 77.59375 54.6875 
L 63.28125 0 
L 52.6875 0 
L 40.921875 44.828125 
L 29.109375 0 
L 18.5 0 
z
" id="DejaVuSans-119"/>
       <path d="M 19.1875 8.296875 
L 53.609375 8.296875 
L 53.609375 0 
L 7.328125 0 
L 7.328125 8.296875 
Q 12.9375 14.109375 22.625 23.890625 
Q 32.328125 33.6875 34.8125 36.53125 
Q 39.546875 41.84375 41.421875 45.53125 
Q 43.3125 49.21875 43.3125 52.78125 
Q 43.3125 58.59375 39.234375 62.25 
Q 35.15625 65.921875 28.609375 65.921875 
Q 23.96875 65.921875 18.8125 64.3125 
Q 13.671875 62.703125 7.8125 59.421875 
L 7.8125 69.390625 
Q 13.765625 71.78125 18.9375 73 
Q 24.125 74.21875 28.421875 74.21875 
Q 39.75 74.21875 46.484375 68.546875 
Q 53.21875 62.890625 53.21875 53.421875 
Q 53.21875 48.921875 51.53125 44.890625 
Q 49.859375 40.875 45.40625 35.40625 
Q 44.1875 33.984375 37.640625 27.21875 
Q 31.109375 20.453125 19.1875 8.296875 
z
" id="DejaVuSans-50"/>
       <path d="M 8.015625 75.875 
L 15.828125 75.875 
Q 23.140625 64.359375 26.78125 53.3125 
Q 30.421875 42.28125 30.421875 31.390625 
Q 30.421875 20.453125 26.78125 9.375 
Q 23.140625 -1.703125 15.828125 -13.1875 
L 8.015625 -13.1875 
Q 14.5 -2 17.703125 9.0625 
Q 20.90625 20.125 20.90625 31.390625 
Q 20.90625 42.671875 17.703125 53.65625 
Q 14.5 64.65625 8.015625 75.875 
z
" id="DejaVuSans-41"/>
      </defs>
      <g transform="translate(79.79202 216.446877)rotate(-15)scale(0.16 -0.16)">
       <use xlink:href="#DejaVuSans-109"/>
       <use x="97.412109" xlink:href="#DejaVuSans-97"/>
       <use x="158.691406" xlink:href="#DejaVuSans-116"/>
       <use x="197.900391" xlink:href="#DejaVuSans-109"/>
       <use x="295.3125" xlink:href="#DejaVuSans-117"/>
       <use x="358.691406" xlink:href="#DejaVuSans-108"/>
       <use x="386.474609" xlink:href="#DejaVuSans-40"/>
       <use x="425.488281" xlink:href="#DejaVuSans-119"/>
       <use x="507.275391" xlink:href="#DejaVuSans-50"/>
       <use x="570.898438" xlink:href="#DejaVuSans-41"/>
      </g>
     </g>
    </g>
    <g id="xtick_2">
     <g id="line2d_2">
      <g>
       <use style="stroke:#000000;stroke-width:0.8;" x="213.309672" xlink:href="#mae4a961e0e" y="172.447425"/>
      </g>
     </g>
     <g id="text_2">
      <!-- w2_dequant -->
      <defs>
       <path d="M 50.984375 -16.609375 
L 50.984375 -23.578125 
L -0.984375 -23.578125 
L -0.984375 -16.609375 
z
" id="DejaVuSans-95"/>
       <path d="M 45.40625 46.390625 
L 45.40625 75.984375 
L 54.390625 75.984375 
L 54.390625 0 
L 45.40625 0 
L 45.40625 8.203125 
Q 42.578125 3.328125 38.25 0.953125 
Q 33.9375 -1.421875 27.875 -1.421875 
Q 17.96875 -1.421875 11.734375 6.484375 
Q 5.515625 14.40625 5.515625 27.296875 
Q 5.515625 40.1875 11.734375 48.09375 
Q 17.96875 56 27.875 56 
Q 33.9375 56 38.25 53.625 
Q 42.578125 51.265625 45.40625 46.390625 
z
M 14.796875 27.296875 
Q 14.796875 17.390625 18.875 11.75 
Q 22.953125 6.109375 30.078125 6.109375 
Q 37.203125 6.109375 41.296875 11.75 
Q 45.40625 17.390625 45.40625 27.296875 
Q 45.40625 37.203125 41.296875 42.84375 
Q 37.203125 48.484375 30.078125 48.484375 
Q 22.953125 48.484375 18.875 42.84375 
Q 14.796875 37.203125 14.796875 27.296875 
z
" id="DejaVuSans-100"/>
       <path d="M 56.203125 29.59375 
L 56.203125 25.203125 
L 14.890625 25.203125 
Q 15.484375 15.921875 20.484375 11.0625 
Q 25.484375 6.203125 34.421875 6.203125 
Q 39.59375 6.203125 44.453125 7.46875 
Q 49.3125 8.734375 54.109375 11.28125 
L 54.109375 2.78125 
Q 49.265625 0.734375 44.1875 -0.34375 
Q 39.109375 -1.421875 33.890625 -1.421875 
Q 20.796875 -1.421875 13.15625 6.1875 
Q 5.515625 13.8125 5.515625 26.8125 
Q 5.515625 40.234375 12.765625 48.109375 
Q 20.015625 56 32.328125 56 
Q 43.359375 56 49.78125 48.890625 
Q 56.203125 41.796875 56.203125 29.59375 
z
M 47.21875 32.234375 
Q 47.125 39.59375 43.09375 43.984375 
Q 39.0625 48.390625 32.421875 48.390625 
Q 24.90625 48.390625 20.390625 44.140625 
Q 15.875 39.890625 15.1875 32.171875 
z
" id="DejaVuSans-101"/>
       <path d="M 14.796875 27.296875 
Q 14.796875 17.390625 18.875 11.75 
Q 22.953125 6.109375 30.078125 6.109375 
Q 37.203125 6.109375 41.296875 11.75 
Q 45.40625 17.390625 45.40625 27.296875 
Q 45.40625 37.203125 41.296875 42.84375 
Q 37.203125 48.484375 30.078125 48.484375 
Q 22.953125 48.484375 18.875 42.84375 
Q 14.796875 37.203125 14.796875 27.296875 
z
M 45.40625 8.203125 
Q 42.578125 3.328125 38.25 0.953125 
Q 33.9375 -1.421875 27.875 -1.421875 
Q 17.96875 -1.421875 11.734375 6.484375 
Q 5.515625 14.40625 5.515625 27.296875 
Q 5.515625 40.1875 11.734375 48.09375 
Q 17.96875 56 27.875 56 
Q 33.9375 56 38.25 53.625 
Q 42.578125 51.265625 45.40625 46.390625 
L 45.40625 54.6875 
L 54.390625 54.6875 
L 54.390625 -20.796875 
L 45.40625 -20.796875 
z
" id="DejaVuSans-113"/>
       <path d="M 54.890625 33.015625 
L 54.890625 0 
L 45.90625 0 
L 45.90625 32.71875 
Q 45.90625 40.484375 42.875 44.328125 
Q 39.84375 48.1875 33.796875 48.1875 
Q 26.515625 48.1875 22.3125 43.546875 
Q 18.109375 38.921875 18.109375 30.90625 
L 18.109375 0 
L 9.078125 0 
L 9.078125 54.6875 
L 18.109375 54.6875 
L 18.109375 46.1875 
Q 21.34375 51.125 25.703125 53.5625 
Q 30.078125 56 35.796875 56 
Q 45.21875 56 50.046875 50.171875 
Q 54.890625 44.34375 54.890625 33.015625 
z
" id="DejaVuSans-110"/>
      </defs>
      <g transform="translate(167.16945 216.498641)rotate(-15)scale(0.16 -0.16)">
       <use xlink:href="#DejaVuSans-119"/>
       <use x="81.787109" xlink:href="#DejaVuSans-50"/>
       <use x="145.410156" xlink:href="#DejaVuSans-95"/>
       <use x="195.410156" xlink:href="#DejaVuSans-100"/>
       <use x="258.886719" xlink:href="#DejaVuSans-101"/>
       <use x="320.410156" xlink:href="#DejaVuSans-113"/>
       <use x="383.886719" xlink:href="#DejaVuSans-117"/>
       <use x="447.265625" xlink:href="#DejaVuSans-97"/>
       <use x="508.544922" xlink:href="#DejaVuSans-110"/>
       <use x="571.923828" xlink:href="#DejaVuSans-116"/>
      </g>
     </g>
    </g>
    <g id="xtick_3">
     <g id="line2d_3">
      <g>
       <use style="stroke:#000000;stroke-width:0.8;" x="300.841282" xlink:href="#mae4a961e0e" y="172.447425"/>
      </g>
     </g>
     <g id="text_3">
      <!-- matmul(w3) -->
      <defs>
       <path d="M 40.578125 39.3125 
Q 47.65625 37.796875 51.625 33 
Q 55.609375 28.21875 55.609375 21.1875 
Q 55.609375 10.40625 48.1875 4.484375 
Q 40.765625 -1.421875 27.09375 -1.421875 
Q 22.515625 -1.421875 17.65625 -0.515625 
Q 12.796875 0.390625 7.625 2.203125 
L 7.625 11.71875 
Q 11.71875 9.328125 16.59375 8.109375 
Q 21.484375 6.890625 26.8125 6.890625 
Q 36.078125 6.890625 40.9375 10.546875 
Q 45.796875 14.203125 45.796875 21.1875 
Q 45.796875 27.640625 41.28125 31.265625 
Q 36.765625 34.90625 28.71875 34.90625 
L 20.21875 34.90625 
L 20.21875 43.015625 
L 29.109375 43.015625 
Q 36.375 43.015625 40.234375 45.921875 
Q 44.09375 48.828125 44.09375 54.296875 
Q 44.09375 59.90625 40.109375 62.90625 
Q 36.140625 65.921875 28.71875 65.921875 
Q 24.65625 65.921875 20.015625 65.03125 
Q 15.375 64.15625 9.8125 62.3125 
L 9.8125 71.09375 
Q 15.4375 72.65625 20.34375 73.4375 
Q 25.25 74.21875 29.59375 74.21875 
Q 40.828125 74.21875 47.359375 69.109375 
Q 53.90625 64.015625 53.90625 55.328125 
Q 53.90625 49.265625 50.4375 45.09375 
Q 46.96875 40.921875 40.578125 39.3125 
z
" id="DejaVuSans-51"/>
      </defs>
      <g transform="translate(254.855239 216.446877)rotate(-15)scale(0.16 -0.16)">
       <use xlink:href="#DejaVuSans-109"/>
       <use x="97.412109" xlink:href="#DejaVuSans-97"/>
       <use x="158.691406" xlink:href="#DejaVuSans-116"/>
       <use x="197.900391" xlink:href="#DejaVuSans-109"/>
       <use x="295.3125" xlink:href="#DejaVuSans-117"/>
       <use x="358.691406" xlink:href="#DejaVuSans-108"/>
       <use x="386.474609" xlink:href="#DejaVuSans-40"/>
       <use x="425.488281" xlink:href="#DejaVuSans-119"/>
       <use x="507.275391" xlink:href="#DejaVuSans-51"/>
       <use x="570.898438" xlink:href="#DejaVuSans-41"/>
      </g>
     </g>
    </g>
    <g id="xtick_4">
     <g id="line2d_4">
      <g>
       <use style="stroke:#000000;stroke-width:0.8;" x="388.372891" xlink:href="#mae4a961e0e" y="172.447425"/>
      </g>
     </g>
     <g id="text_4">
      <!-- w3_dequant -->
      <g transform="translate(342.232669 216.498641)rotate(-15)scale(0.16 -0.16)">
       <use xlink:href="#DejaVuSans-119"/>
       <use x="81.787109" xlink:href="#DejaVuSans-51"/>
       <use x="145.410156" xlink:href="#DejaVuSans-95"/>
       <use x="195.410156" xlink:href="#DejaVuSans-100"/>
       <use x="258.886719" xlink:href="#DejaVuSans-101"/>
       <use x="320.410156" xlink:href="#DejaVuSans-113"/>
       <use x="383.886719" xlink:href="#DejaVuSans-117"/>
       <use x="447.265625" xlink:href="#DejaVuSans-97"/>
       <use x="508.544922" xlink:href="#DejaVuSans-110"/>
       <use x="571.923828" xlink:href="#DejaVuSans-116"/>
      </g>
     </g>
    </g>
    <g id="xtick_5">
     <g id="line2d_5">
      <g>
       <use style="stroke:#000000;stroke-width:0.8;" x="475.9045" xlink:href="#mae4a961e0e" y="172.447425"/>
      </g>
     </g>
     <g id="text_5">
      <!-- matmul(w1) -->
      <defs>
       <path d="M 12.40625 8.296875 
L 28.515625 8.296875 
L 28.515625 63.921875 
L 10.984375 60.40625 
L 10.984375 69.390625 
L 28.421875 72.90625 
L 38.28125 72.90625 
L 38.28125 8.296875 
L 54.390625 8.296875 
L 54.390625 0 
L 12.40625 0 
z
" id="DejaVuSans-49"/>
      </defs>
      <g transform="translate(429.918458 216.446877)rotate(-15)scale(0.16 -0.16)">
       <use xlink:href="#DejaVuSans-109"/>
       <use x="97.412109" xlink:href="#DejaVuSans-97"/>
       <use x="158.691406" xlink:href="#DejaVuSans-116"/>
       <use x="197.900391" xlink:href="#DejaVuSans-109"/>
       <use x="295.3125" xlink:href="#DejaVuSans-117"/>
       <use x="358.691406" xlink:href="#DejaVuSans-108"/>
       <use x="386.474609" xlink:href="#DejaVuSans-40"/>
       <use x="425.488281" xlink:href="#DejaVuSans-119"/>
       <use x="507.275391" xlink:href="#DejaVuSans-49"/>
       <use x="570.898438" xlink:href="#DejaVuSans-41"/>
      </g>
     </g>
    </g>
    <g id="xtick_6">
     <g id="line2d_6">
      <g>
       <use style="stroke:#000000;stroke-width:0.8;" x="563.43611" xlink:href="#mae4a961e0e" y="172.447425"/>
      </g>
     </g>
     <g id="text_6">
      <!-- w1_dequant -->
      <g transform="translate(517.295888 216.498641)rotate(-15)scale(0.16 -0.16)">
       <use xlink:href="#DejaVuSans-119"/>
       <use x="81.787109" xlink:href="#DejaVuSans-49"/>
       <use x="145.410156" xlink:href="#DejaVuSans-95"/>
       <use x="195.410156" xlink:href="#DejaVuSans-100"/>
       <use x="258.886719" xlink:href="#DejaVuSans-101"/>
       <use x="320.410156" xlink:href="#DejaVuSans-113"/>
       <use x="383.886719" xlink:href="#DejaVuSans-117"/>
       <use x="447.265625" xlink:href="#DejaVuSans-97"/>
       <use x="508.544922" xlink:href="#DejaVuSans-110"/>
       <use x="571.923828" xlink:href="#DejaVuSans-116"/>
      </g>
     </g>
    </g>
    <g id="xtick_7">
     <g id="line2d_7">
      <g>
       <use style="stroke:#000000;stroke-width:0.8;" x="650.967719" xlink:href="#mae4a961e0e" y="172.447425"/>
      </g>
     </g>
     <g id="text_7">
      <!-- softmax -->
      <defs>
       <path d="M 44.28125 53.078125 
L 44.28125 44.578125 
Q 40.484375 46.53125 36.375 47.5 
Q 32.28125 48.484375 27.875 48.484375 
Q 21.1875 48.484375 17.84375 46.4375 
Q 14.5 44.390625 14.5 40.28125 
Q 14.5 37.15625 16.890625 35.375 
Q 19.28125 33.59375 26.515625 31.984375 
L 29.59375 31.296875 
Q 39.15625 29.25 43.1875 25.515625 
Q 47.21875 21.78125 47.21875 15.09375 
Q 47.21875 7.46875 41.1875 3.015625 
Q 35.15625 -1.421875 24.609375 -1.421875 
Q 20.21875 -1.421875 15.453125 -0.5625 
Q 10.6875 0.296875 5.421875 2 
L 5.421875 11.28125 
Q 10.40625 8.6875 15.234375 7.390625 
Q 20.0625 6.109375 24.8125 6.109375 
Q 31.15625 6.109375 34.5625 8.28125 
Q 37.984375 10.453125 37.984375 14.40625 
Q 37.984375 18.0625 35.515625 20.015625 
Q 33.0625 21.96875 24.703125 23.78125 
L 21.578125 24.515625 
Q 13.234375 26.265625 9.515625 29.90625 
Q 5.8125 33.546875 5.8125 39.890625 
Q 5.8125 47.609375 11.28125 51.796875 
Q 16.75 56 26.8125 56 
Q 31.78125 56 36.171875 55.265625 
Q 40.578125 54.546875 44.28125 53.078125 
z
" id="DejaVuSans-115"/>
       <path d="M 30.609375 48.390625 
Q 23.390625 48.390625 19.1875 42.75 
Q 14.984375 37.109375 14.984375 27.296875 
Q 14.984375 17.484375 19.15625 11.84375 
Q 23.34375 6.203125 30.609375 6.203125 
Q 37.796875 6.203125 41.984375 11.859375 
Q 46.1875 17.53125 46.1875 27.296875 
Q 46.1875 37.015625 41.984375 42.703125 
Q 37.796875 48.390625 30.609375 48.390625 
z
M 30.609375 56 
Q 42.328125 56 49.015625 48.375 
Q 55.71875 40.765625 55.71875 27.296875 
Q 55.71875 13.875 49.015625 6.21875 
Q 42.328125 -1.421875 30.609375 -1.421875 
Q 18.84375 -1.421875 12.171875 6.21875 
Q 5.515625 13.875 5.515625 27.296875 
Q 5.515625 40.765625 12.171875 48.375 
Q 18.84375 56 30.609375 56 
z
" id="DejaVuSans-111"/>
       <path d="M 37.109375 75.984375 
L 37.109375 68.5 
L 28.515625 68.5 
Q 23.6875 68.5 21.796875 66.546875 
Q 19.921875 64.59375 19.921875 59.515625 
L 19.921875 54.6875 
L 34.71875 54.6875 
L 34.71875 47.703125 
L 19.921875 47.703125 
L 19.921875 0 
L 10.890625 0 
L 10.890625 47.703125 
L 2.296875 47.703125 
L 2.296875 54.6875 
L 10.890625 54.6875 
L 10.890625 58.5 
Q 10.890625 67.625 15.140625 71.796875 
Q 19.390625 75.984375 28.609375 75.984375 
z
" id="DejaVuSans-102"/>
       <path d="M 54.890625 54.6875 
L 35.109375 28.078125 
L 55.90625 0 
L 45.3125 0 
L 29.390625 21.484375 
L 13.484375 0 
L 2.875 0 
L 24.125 28.609375 
L 4.6875 54.6875 
L 15.28125 54.6875 
L 29.78125 35.203125 
L 44.28125 54.6875 
z
" id="DejaVuSans-120"/>
      </defs>
      <g transform="translate(620.906172 207.912966)rotate(-15)scale(0.16 -0.16)">
       <use xlink:href="#DejaVuSans-115"/>
       <use x="52.099609" xlink:href="#DejaVuSans-111"/>
       <use x="113.28125" xlink:href="#DejaVuSans-102"/>
       <use x="146.736328" xlink:href="#DejaVuSans-116"/>
       <use x="185.945312" xlink:href="#DejaVuSans-109"/>
       <use x="283.357422" xlink:href="#DejaVuSans-97"/>
       <use x="344.636719" xlink:href="#DejaVuSans-120"/>
      </g>
     </g>
    </g>
    <g id="xtick_8">
     <g id="line2d_8">
      <g>
       <use style="stroke:#000000;stroke-width:0.8;" x="738.499329" xlink:href="#mae4a961e0e" y="172.447425"/>
      </g>
     </g>
     <g id="text_8">
      <!-- topk -->
      <defs>
       <path d="M 18.109375 8.203125 
L 18.109375 -20.796875 
L 9.078125 -20.796875 
L 9.078125 54.6875 
L 18.109375 54.6875 
L 18.109375 46.390625 
Q 20.953125 51.265625 25.265625 53.625 
Q 29.59375 56 35.59375 56 
Q 45.5625 56 51.78125 48.09375 
Q 58.015625 40.1875 58.015625 27.296875 
Q 58.015625 14.40625 51.78125 6.484375 
Q 45.5625 -1.421875 35.59375 -1.421875 
Q 29.59375 -1.421875 25.265625 0.953125 
Q 20.953125 3.328125 18.109375 8.203125 
z
M 48.6875 27.296875 
Q 48.6875 37.203125 44.609375 42.84375 
Q 40.53125 48.484375 33.40625 48.484375 
Q 26.265625 48.484375 22.1875 42.84375 
Q 18.109375 37.203125 18.109375 27.296875 
Q 18.109375 17.390625 22.1875 11.75 
Q 26.265625 6.109375 33.40625 6.109375 
Q 40.53125 6.109375 44.609375 11.75 
Q 48.6875 17.390625 48.6875 27.296875 
z
" id="DejaVuSans-112"/>
       <path d="M 9.078125 75.984375 
L 18.109375 75.984375 
L 18.109375 31.109375 
L 44.921875 54.6875 
L 56.390625 54.6875 
L 27.390625 29.109375 
L 57.625 0 
L 45.90625 0 
L 18.109375 26.703125 
L 18.109375 0 
L 9.078125 0 
z
" id="DejaVuSans-107"/>
      </defs>
      <g transform="translate(722.504076 200.374862)rotate(-15)scale(0.16 -0.16)">
       <use xlink:href="#DejaVuSans-116"/>
       <use x="39.208984" xlink:href="#DejaVuSans-111"/>
       <use x="100.390625" xlink:href="#DejaVuSans-112"/>
       <use x="163.867188" xlink:href="#DejaVuSans-107"/>
      </g>
     </g>
    </g>
    <g id="xtick_9">
     <g id="line2d_9">
      <g>
       <use style="stroke:#000000;stroke-width:0.8;" x="826.030938" xlink:href="#mae4a961e0e" y="172.447425"/>
      </g>
     </g>
     <g id="text_9">
      <!-- matmul(router) -->
      <defs>
       <path d="M 41.109375 46.296875 
Q 39.59375 47.171875 37.8125 47.578125 
Q 36.03125 48 33.890625 48 
Q 26.265625 48 22.1875 43.046875 
Q 18.109375 38.09375 18.109375 28.8125 
L 18.109375 0 
L 9.078125 0 
L 9.078125 54.6875 
L 18.109375 54.6875 
L 18.109375 46.1875 
Q 20.953125 51.171875 25.484375 53.578125 
Q 30.03125 56 36.53125 56 
Q 37.453125 56 38.578125 55.875 
Q 39.703125 55.765625 41.0625 55.515625 
z
" id="DejaVuSans-114"/>
      </defs>
      <g transform="translate(767.691912 223.066822)rotate(-15)scale(0.16 -0.16)">
       <use xlink:href="#DejaVuSans-109"/>
       <use x="97.412109" xlink:href="#DejaVuSans-97"/>
       <use x="158.691406" xlink:href="#DejaVuSans-116"/>
       <use x="197.900391" xlink:href="#DejaVuSans-109"/>
       <use x="295.3125" xlink:href="#DejaVuSans-117"/>
       <use x="358.691406" xlink:href="#DejaVuSans-108"/>
       <use x="386.474609" xlink:href="#DejaVuSans-40"/>
       <use x="425.488281" xlink:href="#DejaVuSans-114"/>
       <use x="464.351562" xlink:href="#DejaVuSans-111"/>
       <use x="525.533203" xlink:href="#DejaVuSans-117"/>
       <use x="588.912109" xlink:href="#DejaVuSans-116"/>
       <use x="628.121094" xlink:href="#DejaVuSans-101"/>
       <use x="689.644531" xlink:href="#DejaVuSans-114"/>
       <use x="730.757812" xlink:href="#DejaVuSans-41"/>
      </g>
     </g>
    </g>
    <g id="xtick_10">
     <g id="line2d_10">
      <g>
       <use style="stroke:#000000;stroke-width:0.8;" x="913.562548" xlink:href="#mae4a961e0e" y="172.447425"/>
      </g>
     </g>
     <g id="text_10">
      <!-- router_dequant -->
      <g transform="translate(855.069342 223.118585)rotate(-15)scale(0.16 -0.16)">
       <use xlink:href="#DejaVuSans-114"/>
       <use x="38.863281" xlink:href="#DejaVuSans-111"/>
       <use x="100.044922" xlink:href="#DejaVuSans-117"/>
       <use x="163.423828" xlink:href="#DejaVuSans-116"/>
       <use x="202.632812" xlink:href="#DejaVuSans-101"/>
       <use x="264.15625" xlink:href="#DejaVuSans-114"/>
       <use x="305.269531" xlink:href="#DejaVuSans-95"/>
       <use x="355.269531" xlink:href="#DejaVuSans-100"/>
       <use x="418.746094" xlink:href="#DejaVuSans-101"/>
       <use x="480.269531" xlink:href="#DejaVuSans-113"/>
       <use x="543.746094" xlink:href="#DejaVuSans-117"/>
       <use x="607.125" xlink:href="#DejaVuSans-97"/>
       <use x="668.404297" xlink:href="#DejaVuSans-110"/>
       <use x="731.783203" xlink:href="#DejaVuSans-116"/>
      </g>
     </g>
    </g>
    <g id="xtick_11">
     <g id="line2d_11">
      <g>
       <use style="stroke:#000000;stroke-width:0.8;" x="1021.101382" xlink:href="#mae4a961e0e" y="172.447425"/>
      </g>
     </g>
     <g id="text_11">
      <!-- time_weighted -->
      <defs>
       <path d="M 9.421875 54.6875 
L 18.40625 54.6875 
L 18.40625 0 
L 9.421875 0 
z
M 9.421875 75.984375 
L 18.40625 75.984375 
L 18.40625 64.59375 
L 9.421875 64.59375 
z
" id="DejaVuSans-105"/>
       <path d="M 45.40625 27.984375 
Q 45.40625 37.75 41.375 43.109375 
Q 37.359375 48.484375 30.078125 48.484375 
Q 22.859375 48.484375 18.828125 43.109375 
Q 14.796875 37.75 14.796875 27.984375 
Q 14.796875 18.265625 18.828125 12.890625 
Q 22.859375 7.515625 30.078125 7.515625 
Q 37.359375 7.515625 41.375 12.890625 
Q 45.40625 18.265625 45.40625 27.984375 
z
M 54.390625 6.78125 
Q 54.390625 -7.171875 48.1875 -13.984375 
Q 42 -20.796875 29.203125 -20.796875 
Q 24.46875 -20.796875 20.265625 -20.09375 
Q 16.0625 -19.390625 12.109375 -17.921875 
L 12.109375 -9.1875 
Q 16.0625 -11.328125 19.921875 -12.34375 
Q 23.78125 -13.375 27.78125 -13.375 
Q 36.625 -13.375 41.015625 -8.765625 
Q 45.40625 -4.15625 45.40625 5.171875 
L 45.40625 9.625 
Q 42.625 4.78125 38.28125 2.390625 
Q 33.9375 0 27.875 0 
Q 17.828125 0 11.671875 7.65625 
Q 5.515625 15.328125 5.515625 27.984375 
Q 5.515625 40.671875 11.671875 48.328125 
Q 17.828125 56 27.875 56 
Q 33.9375 56 38.28125 53.609375 
Q 42.625 51.21875 45.40625 46.390625 
L 45.40625 54.6875 
L 54.390625 54.6875 
z
" id="DejaVuSans-103"/>
       <path d="M 54.890625 33.015625 
L 54.890625 0 
L 45.90625 0 
L 45.90625 32.71875 
Q 45.90625 40.484375 42.875 44.328125 
Q 39.84375 48.1875 33.796875 48.1875 
Q 26.515625 48.1875 22.3125 43.546875 
Q 18.109375 38.921875 18.109375 30.90625 
L 18.109375 0 
L 9.078125 0 
L 9.078125 75.984375 
L 18.109375 75.984375 
L 18.109375 46.1875 
Q 21.34375 51.125 25.703125 53.5625 
Q 30.078125 56 35.796875 56 
Q 45.21875 56 50.046875 50.171875 
Q 54.890625 44.34375 54.890625 33.015625 
z
" id="DejaVuSans-104"/>
      </defs>
      <g transform="translate(965.150976 221.755903)rotate(-15)scale(0.16 -0.16)">
       <use xlink:href="#DejaVuSans-116"/>
       <use x="39.208984" xlink:href="#DejaVuSans-105"/>
       <use x="66.992188" xlink:href="#DejaVuSans-109"/>
       <use x="164.404297" xlink:href="#DejaVuSans-101"/>
       <use x="225.927734" xlink:href="#DejaVuSans-95"/>
       <use x="275.927734" xlink:href="#DejaVuSans-119"/>
       <use x="357.714844" xlink:href="#DejaVuSans-101"/>
       <use x="419.238281" xlink:href="#DejaVuSans-105"/>
       <use x="447.021484" xlink:href="#DejaVuSans-103"/>
       <use x="510.498047" xlink:href="#DejaVuSans-104"/>
       <use x="573.876953" xlink:href="#DejaVuSans-116"/>
       <use x="613.085938" xlink:href="#DejaVuSans-101"/>
       <use x="674.609375" xlink:href="#DejaVuSans-100"/>
      </g>
     </g>
    </g>
   </g>
   <g id="matplotlib.axis_2">
    <g id="ytick_1">
     <g id="line2d_12">
      <defs>
       <path d="M 0 0 
L -3.5 0 
" id="ma781064031" style="stroke:#000000;stroke-width:0.8;"/>
      </defs>
      <g>
       <use style="stroke:#000000;stroke-width:0.8;" x="75.76" xlink:href="#ma781064031" y="172.447425"/>
      </g>
     </g>
     <g id="text_12">
      <!-- 0 -->
      <defs>
       <path d="M 31.78125 66.40625 
Q 24.171875 66.40625 20.328125 58.90625 
Q 16.5 51.421875 16.5 36.375 
Q 16.5 21.390625 20.328125 13.890625 
Q 24.171875 6.390625 31.78125 6.390625 
Q 39.453125 6.390625 43.28125 13.890625 
Q 47.125 21.390625 47.125 36.375 
Q 47.125 51.421875 43.28125 58.90625 
Q 39.453125 66.40625 31.78125 66.40625 
z
M 31.78125 74.21875 
Q 44.046875 74.21875 50.515625 64.515625 
Q 56.984375 54.828125 56.984375 36.375 
Q 56.984375 17.96875 50.515625 8.265625 
Q 44.046875 -1.421875 31.78125 -1.421875 
Q 19.53125 -1.421875 13.0625 8.265625 
Q 6.59375 17.96875 6.59375 36.375 
Q 6.59375 54.828125 13.0625 64.515625 
Q 19.53125 74.21875 31.78125 74.21875 
z
" id="DejaVuSans-48"/>
      </defs>
      <g transform="translate(55.39875 180.425784)scale(0.21 -0.21)">
       <use xlink:href="#DejaVuSans-48"/>
      </g>
     </g>
    </g>
    <g id="ytick_2">
     <g id="line2d_13">
      <g>
       <use style="stroke:#000000;stroke-width:0.8;" x="75.76" xlink:href="#ma781064031" y="149.812596"/>
      </g>
     </g>
     <g id="text_13">
      <!-- 25 -->
      <defs>
       <path d="M 10.796875 72.90625 
L 49.515625 72.90625 
L 49.515625 64.59375 
L 19.828125 64.59375 
L 19.828125 46.734375 
Q 21.96875 47.46875 24.109375 47.828125 
Q 26.265625 48.1875 28.421875 48.1875 
Q 40.625 48.1875 47.75 41.5 
Q 54.890625 34.8125 54.890625 23.390625 
Q 54.890625 11.625 47.5625 5.09375 
Q 40.234375 -1.421875 26.90625 -1.421875 
Q 22.3125 -1.421875 17.546875 -0.640625 
Q 12.796875 0.140625 7.71875 1.703125 
L 7.71875 11.625 
Q 12.109375 9.234375 16.796875 8.0625 
Q 21.484375 6.890625 26.703125 6.890625 
Q 35.15625 6.890625 40.078125 11.328125 
Q 45.015625 15.765625 45.015625 23.390625 
Q 45.015625 31 40.078125 35.4375 
Q 35.15625 39.890625 26.703125 39.890625 
Q 22.75 39.890625 18.8125 39.015625 
Q 14.890625 38.140625 10.796875 36.28125 
z
" id="DejaVuSans-53"/>
      </defs>
      <g transform="translate(42.0375 157.790955)scale(0.21 -0.21)">
       <use xlink:href="#DejaVuSans-50"/>
       <use x="63.623047" xlink:href="#DejaVuSans-53"/>
      </g>
     </g>
    </g>
    <g id="ytick_3">
     <g id="line2d_14">
      <g>
       <use style="stroke:#000000;stroke-width:0.8;" x="75.76" xlink:href="#ma781064031" y="127.177767"/>
      </g>
     </g>
     <g id="text_14">
      <!-- 50 -->
      <g transform="translate(42.0375 135.156126)scale(0.21 -0.21)">
       <use xlink:href="#DejaVuSans-53"/>
       <use x="63.623047" xlink:href="#DejaVuSans-48"/>
      </g>
     </g>
    </g>
    <g id="ytick_4">
     <g id="line2d_15">
      <g>
       <use style="stroke:#000000;stroke-width:0.8;" x="75.76" xlink:href="#ma781064031" y="104.542938"/>
      </g>
     </g>
     <g id="text_15">
      <!-- 75 -->
      <defs>
       <path d="M 8.203125 72.90625 
L 55.078125 72.90625 
L 55.078125 68.703125 
L 28.609375 0 
L 18.3125 0 
L 43.21875 64.59375 
L 8.203125 64.59375 
z
" id="DejaVuSans-55"/>
      </defs>
      <g transform="translate(42.0375 112.521297)scale(0.21 -0.21)">
       <use xlink:href="#DejaVuSans-55"/>
       <use x="63.623047" xlink:href="#DejaVuSans-53"/>
      </g>
     </g>
    </g>
    <g id="ytick_5">
     <g id="line2d_16">
      <g>
       <use style="stroke:#000000;stroke-width:0.8;" x="75.76" xlink:href="#ma781064031" y="81.908109"/>
      </g>
     </g>
     <g id="text_16">
      <!-- 100 -->
      <g transform="translate(28.67625 89.886468)scale(0.21 -0.21)">
       <use xlink:href="#DejaVuSans-49"/>
       <use x="63.623047" xlink:href="#DejaVuSans-48"/>
       <use x="127.246094" xlink:href="#DejaVuSans-48"/>
      </g>
     </g>
    </g>
   </g>
   <g id="line2d_17">
    <path clip-path="url(#pdac0be6661)" d="M 75.76 149.812596 
L 1066.117639 149.812596 
" style="fill:none;stroke:#808080;stroke-dasharray:5.55,2.4;stroke-dashoffset:0;stroke-width:1.5;"/>
   </g>
   <g id="line2d_18">
    <path clip-path="url(#pdac0be6661)" d="M 75.76 127.177767 
L 1066.117639 127.177767 
" style="fill:none;stroke:#808080;stroke-dasharray:5.55,2.4;stroke-dashoffset:0;stroke-width:1.5;"/>
   </g>
   <g id="line2d_19">
    <path clip-path="url(#pdac0be6661)" d="M 75.76 104.542938 
L 1066.117639 104.542938 
" style="fill:none;stroke:#808080;stroke-dasharray:5.55,2.4;stroke-dashoffset:0;stroke-width:1.5;"/>
   </g>
   <g id="line2d_20">
    <path clip-path="url(#pdac0be6661)" d="M 75.76 81.908109 
L 1066.117639 81.908109 
" style="fill:none;stroke:#808080;stroke-dasharray:5.55,2.4;stroke-dashoffset:0;stroke-width:1.5;"/>
   </g>
   <g id="patch_58">
    <path d="M 75.76 172.447425 
L 75.76 59.27328 
" style="fill:none;stroke:#000000;stroke-linecap:square;stroke-linejoin:miter;stroke-width:0.8;"/>
   </g>
   <g id="patch_59">
    <path d="M 1066.117639 172.447425 
L 1066.117639 59.27328 
" style="fill:none;stroke:#000000;stroke-linecap:square;stroke-linejoin:miter;stroke-width:0.8;"/>
   </g>
   <g id="patch_60">
    <path d="M 75.76 172.447425 
L 1066.117639 172.447425 
" style="fill:none;stroke:#000000;stroke-linecap:square;stroke-linejoin:miter;stroke-width:0.8;"/>
   </g>
   <g id="patch_61">
    <path d="M 75.76 59.27328 
L 1066.117639 59.27328 
" style="fill:none;stroke:#000000;stroke-linecap:square;stroke-linejoin:miter;stroke-width:0.8;"/>
   </g>
   <g id="legend_1">
    <g id="patch_62">
     <path d="M 277.162526 55.734375 
L 825.100807 55.734375 
Q 828.100807 55.734375 828.100807 52.734375 
L 828.100807 10.2 
Q 828.100807 7.2 825.100807 7.2 
L 277.162526 7.2 
Q 274.162526 7.2 274.162526 10.2 
L 274.162526 52.734375 
Q 274.162526 55.734375 277.162526 55.734375 
z
" style="fill:#ffffff;opacity:0.8;stroke:#cccccc;stroke-linejoin:miter;"/>
    </g>
    <g id="patch_63">
     <path d="M 280.162526 24.597656 
L 310.162526 24.597656 
L 310.162526 14.097656 
L 280.162526 14.097656 
z
" style="fill:#b2182b;stroke:#000000;stroke-linejoin:miter;"/>
    </g>
    <g id="text_17">
     <!-- Dense(bsz=1) -->
     <defs>
      <path d="M 19.671875 64.796875 
L 19.671875 8.109375 
L 31.59375 8.109375 
Q 46.6875 8.109375 53.6875 14.9375 
Q 60.6875 21.78125 60.6875 36.53125 
Q 60.6875 51.171875 53.6875 57.984375 
Q 46.6875 64.796875 31.59375 64.796875 
z
M 9.8125 72.90625 
L 30.078125 72.90625 
Q 51.265625 72.90625 61.171875 64.09375 
Q 71.09375 55.28125 71.09375 36.53125 
Q 71.09375 17.671875 61.125 8.828125 
Q 51.171875 0 30.078125 0 
L 9.8125 0 
z
" id="DejaVuSans-68"/>
      <path d="M 48.6875 27.296875 
Q 48.6875 37.203125 44.609375 42.84375 
Q 40.53125 48.484375 33.40625 48.484375 
Q 26.265625 48.484375 22.1875 42.84375 
Q 18.109375 37.203125 18.109375 27.296875 
Q 18.109375 17.390625 22.1875 11.75 
Q 26.265625 6.109375 33.40625 6.109375 
Q 40.53125 6.109375 44.609375 11.75 
Q 48.6875 17.390625 48.6875 27.296875 
z
M 18.109375 46.390625 
Q 20.953125 51.265625 25.265625 53.625 
Q 29.59375 56 35.59375 56 
Q 45.5625 56 51.78125 48.09375 
Q 58.015625 40.1875 58.015625 27.296875 
Q 58.015625 14.40625 51.78125 6.484375 
Q 45.5625 -1.421875 35.59375 -1.421875 
Q 29.59375 -1.421875 25.265625 0.953125 
Q 20.953125 3.328125 18.109375 8.203125 
L 18.109375 0 
L 9.078125 0 
L 9.078125 75.984375 
L 18.109375 75.984375 
z
" id="DejaVuSans-98"/>
      <path d="M 5.515625 54.6875 
L 48.1875 54.6875 
L 48.1875 46.484375 
L 14.40625 7.171875 
L 48.1875 7.171875 
L 48.1875 0 
L 4.296875 0 
L 4.296875 8.203125 
L 38.09375 47.515625 
L 5.515625 47.515625 
z
" id="DejaVuSans-122"/>
      <path d="M 10.59375 45.40625 
L 73.1875 45.40625 
L 73.1875 37.203125 
L 10.59375 37.203125 
z
M 10.59375 25.484375 
L 73.1875 25.484375 
L 73.1875 17.1875 
L 10.59375 17.1875 
z
" id="DejaVuSans-61"/>
     </defs>
     <g transform="translate(322.162526 24.597656)scale(0.15 -0.15)">
      <use xlink:href="#DejaVuSans-68"/>
      <use x="77.001953" xlink:href="#DejaVuSans-101"/>
      <use x="138.525391" xlink:href="#DejaVuSans-110"/>
      <use x="201.904297" xlink:href="#DejaVuSans-115"/>
      <use x="254.003906" xlink:href="#DejaVuSans-101"/>
      <use x="315.527344" xlink:href="#DejaVuSans-40"/>
      <use x="354.541016" xlink:href="#DejaVuSans-98"/>
      <use x="418.017578" xlink:href="#DejaVuSans-115"/>
      <use x="470.117188" xlink:href="#DejaVuSans-122"/>
      <use x="522.607422" xlink:href="#DejaVuSans-61"/>
      <use x="606.396484" xlink:href="#DejaVuSans-49"/>
      <use x="670.019531" xlink:href="#DejaVuSans-41"/>
     </g>
    </g>
    <g id="patch_64">
     <path d="M 280.162526 46.614844 
L 310.162526 46.614844 
L 310.162526 36.114844 
L 280.162526 36.114844 
z
" style="fill:#f4a582;stroke:#000000;stroke-linejoin:miter;"/>
    </g>
    <g id="text_18">
     <!-- Dense(bsz=10) -->
     <g transform="translate(322.162526 46.614844)scale(0.15 -0.15)">
      <use xlink:href="#DejaVuSans-68"/>
      <use x="77.001953" xlink:href="#DejaVuSans-101"/>
      <use x="138.525391" xlink:href="#DejaVuSans-110"/>
      <use x="201.904297" xlink:href="#DejaVuSans-115"/>
      <use x="254.003906" xlink:href="#DejaVuSans-101"/>
      <use x="315.527344" xlink:href="#DejaVuSans-40"/>
      <use x="354.541016" xlink:href="#DejaVuSans-98"/>
      <use x="418.017578" xlink:href="#DejaVuSans-115"/>
      <use x="470.117188" xlink:href="#DejaVuSans-122"/>
      <use x="522.607422" xlink:href="#DejaVuSans-61"/>
      <use x="606.396484" xlink:href="#DejaVuSans-49"/>
      <use x="670.019531" xlink:href="#DejaVuSans-48"/>
      <use x="733.642578" xlink:href="#DejaVuSans-41"/>
     </g>
    </g>
    <g id="patch_65">
     <path d="M 468.063307 24.597656 
L 498.063307 24.597656 
L 498.063307 14.097656 
L 468.063307 14.097656 
z
" style="fill:#d1e5f0;stroke:#000000;stroke-linejoin:miter;"/>
    </g>
    <g id="text_19">
     <!-- Sparse(bsz=1) -->
     <defs>
      <path d="M 53.515625 70.515625 
L 53.515625 60.890625 
Q 47.90625 63.578125 42.921875 64.890625 
Q 37.9375 66.21875 33.296875 66.21875 
Q 25.25 66.21875 20.875 63.09375 
Q 16.5 59.96875 16.5 54.203125 
Q 16.5 49.359375 19.40625 46.890625 
Q 22.3125 44.4375 30.421875 42.921875 
L 36.375 41.703125 
Q 47.40625 39.59375 52.65625 34.296875 
Q 57.90625 29 57.90625 20.125 
Q 57.90625 9.515625 50.796875 4.046875 
Q 43.703125 -1.421875 29.984375 -1.421875 
Q 24.8125 -1.421875 18.96875 -0.25 
Q 13.140625 0.921875 6.890625 3.21875 
L 6.890625 13.375 
Q 12.890625 10.015625 18.65625 8.296875 
Q 24.421875 6.59375 29.984375 6.59375 
Q 38.421875 6.59375 43.015625 9.90625 
Q 47.609375 13.234375 47.609375 19.390625 
Q 47.609375 24.75 44.3125 27.78125 
Q 41.015625 30.8125 33.5 32.328125 
L 27.484375 33.5 
Q 16.453125 35.6875 11.515625 40.375 
Q 6.59375 45.0625 6.59375 53.421875 
Q 6.59375 63.09375 13.40625 68.65625 
Q 20.21875 74.21875 32.171875 74.21875 
Q 37.3125 74.21875 42.625 73.28125 
Q 47.953125 72.359375 53.515625 70.515625 
z
" id="DejaVuSans-83"/>
     </defs>
     <g transform="translate(510.063307 24.597656)scale(0.15 -0.15)">
      <use xlink:href="#DejaVuSans-83"/>
      <use x="63.476562" xlink:href="#DejaVuSans-112"/>
      <use x="126.953125" xlink:href="#DejaVuSans-97"/>
      <use x="188.232422" xlink:href="#DejaVuSans-114"/>
      <use x="229.345703" xlink:href="#DejaVuSans-115"/>
      <use x="281.445312" xlink:href="#DejaVuSans-101"/>
      <use x="342.96875" xlink:href="#DejaVuSans-40"/>
      <use x="381.982422" xlink:href="#DejaVuSans-98"/>
      <use x="445.458984" xlink:href="#DejaVuSans-115"/>
      <use x="497.558594" xlink:href="#DejaVuSans-122"/>
      <use x="550.048828" xlink:href="#DejaVuSans-61"/>
      <use x="633.837891" xlink:href="#DejaVuSans-49"/>
      <use x="697.460938" xlink:href="#DejaVuSans-41"/>
     </g>
    </g>
    <g id="patch_66">
     <path d="M 468.063307 46.614844 
L 498.063307 46.614844 
L 498.063307 36.114844 
L 468.063307 36.114844 
z
" style="fill:#4393c3;stroke:#000000;stroke-linejoin:miter;"/>
    </g>
    <g id="text_20">
     <!-- Sparse(bsz=10) -->
     <g transform="translate(510.063307 46.614844)scale(0.15 -0.15)">
      <use xlink:href="#DejaVuSans-83"/>
      <use x="63.476562" xlink:href="#DejaVuSans-112"/>
      <use x="126.953125" xlink:href="#DejaVuSans-97"/>
      <use x="188.232422" xlink:href="#DejaVuSans-114"/>
      <use x="229.345703" xlink:href="#DejaVuSans-115"/>
      <use x="281.445312" xlink:href="#DejaVuSans-101"/>
      <use x="342.96875" xlink:href="#DejaVuSans-40"/>
      <use x="381.982422" xlink:href="#DejaVuSans-98"/>
      <use x="445.458984" xlink:href="#DejaVuSans-115"/>
      <use x="497.558594" xlink:href="#DejaVuSans-122"/>
      <use x="550.048828" xlink:href="#DejaVuSans-61"/>
      <use x="633.837891" xlink:href="#DejaVuSans-49"/>
      <use x="697.460938" xlink:href="#DejaVuSans-48"/>
      <use x="761.083984" xlink:href="#DejaVuSans-41"/>
     </g>
    </g>
    <g id="patch_67">
     <path d="M 660.082057 24.597656 
L 690.082057 24.597656 
L 690.082057 14.097656 
L 660.082057 14.097656 
z
" style="fill:#2166ac;stroke:#000000;stroke-linejoin:miter;"/>
    </g>
    <g id="text_21">
     <!-- Sparse(bsz=32) -->
     <g transform="translate(702.082057 24.597656)scale(0.15 -0.15)">
      <use xlink:href="#DejaVuSans-83"/>
      <use x="63.476562" xlink:href="#DejaVuSans-112"/>
      <use x="126.953125" xlink:href="#DejaVuSans-97"/>
      <use x="188.232422" xlink:href="#DejaVuSans-114"/>
      <use x="229.345703" xlink:href="#DejaVuSans-115"/>
      <use x="281.445312" xlink:href="#DejaVuSans-101"/>
      <use x="342.96875" xlink:href="#DejaVuSans-40"/>
      <use x="381.982422" xlink:href="#DejaVuSans-98"/>
      <use x="445.458984" xlink:href="#DejaVuSans-115"/>
      <use x="497.558594" xlink:href="#DejaVuSans-122"/>
      <use x="550.048828" xlink:href="#DejaVuSans-61"/>
      <use x="633.837891" xlink:href="#DejaVuSans-51"/>
      <use x="697.460938" xlink:href="#DejaVuSans-50"/>
      <use x="761.083984" xlink:href="#DejaVuSans-41"/>
     </g>
    </g>
   </g>
  </g>
  <g id="axes_2">
   <g id="patch_68">
    <path d="M 75.76 398.112417 
L 1066.117639 398.112417 
L 1066.117639 284.938272 
L 75.76 284.938272 
z
" style="fill:#ffffff;"/>
   </g>
   <g id="patch_69">
    <path clip-path="url(#p00afde895f)" d="M 101.284681 398.112417 
L 118.301136 398.112417 
L 118.301136 352.514791 
L 101.284681 352.514791 
z
" style="fill:#b2182b;stroke:#000000;stroke-linejoin:miter;"/>
   </g>
   <g id="patch_70">
    <path clip-path="url(#p00afde895f)" d="M 220.399861 398.112417 
L 237.416316 398.112417 
L 237.416316 366.536896 
L 220.399861 366.536896 
z
" style="fill:#b2182b;stroke:#000000;stroke-linejoin:miter;"/>
   </g>
   <g id="patch_71">
    <path clip-path="url(#p00afde895f)" d="M 339.515041 398.112417 
L 356.531496 398.112417 
L 356.531496 364.824329 
L 339.515041 364.824329 
z
" style="fill:#b2182b;stroke:#000000;stroke-linejoin:miter;"/>
   </g>
   <g id="patch_72">
    <path clip-path="url(#p00afde895f)" d="M 458.630221 398.112417 
L 475.646675 398.112417 
L 475.646675 386.627171 
L 458.630221 386.627171 
z
" style="fill:#b2182b;stroke:#000000;stroke-linejoin:miter;"/>
   </g>
   <g id="patch_73">
    <path clip-path="url(#p00afde895f)" d="M 577.745401 398.112417 
L 594.761855 398.112417 
L 594.761855 394.620831 
L 577.745401 394.620831 
z
" style="fill:#b2182b;stroke:#000000;stroke-linejoin:miter;"/>
   </g>
   <g id="patch_74">
    <path clip-path="url(#p00afde895f)" d="M 696.860581 398.112417 
L 713.877035 398.112417 
L 713.877035 398.049039 
L 696.860581 398.049039 
z
" style="fill:#b2182b;stroke:#000000;stroke-linejoin:miter;"/>
   </g>
   <g id="patch_75">
    <path clip-path="url(#p00afde895f)" d="M 815.975761 398.112417 
L 832.992215 398.112417 
L 832.992215 396.584617 
L 815.975761 396.584617 
z
" style="fill:#b2182b;stroke:#000000;stroke-linejoin:miter;"/>
   </g>
   <g id="patch_76">
    <path clip-path="url(#p00afde895f)" d="M 962.317268 398.112417 
L 979.333722 398.112417 
L 979.333722 367.594003 
L 962.317268 367.594003 
z
" style="fill:#b2182b;stroke:#000000;stroke-linejoin:miter;"/>
   </g>
   <g id="patch_77">
    <path clip-path="url(#p00afde895f)" d="M 118.301136 398.112417 
L 135.31759 398.112417 
L 135.31759 324.328534 
L 118.301136 324.328534 
z
" style="fill:#f4a582;stroke:#000000;stroke-linejoin:miter;"/>
   </g>
   <g id="patch_78">
    <path clip-path="url(#p00afde895f)" d="M 237.416316 398.112417 
L 254.43277 398.112417 
L 254.43277 341.178947 
L 237.416316 341.178947 
z
" style="fill:#f4a582;stroke:#000000;stroke-linejoin:miter;"/>
   </g>
   <g id="patch_79">
    <path clip-path="url(#p00afde895f)" d="M 356.531496 398.112417 
L 373.54795 398.112417 
L 373.54795 329.514445 
L 356.531496 329.514445 
z
" style="fill:#f4a582;stroke:#000000;stroke-linejoin:miter;"/>
   </g>
   <g id="patch_80">
    <path clip-path="url(#p00afde895f)" d="M 475.646675 398.112417 
L 492.66313 398.112417 
L 492.66313 356.17032 
L 475.646675 356.17032 
z
" style="fill:#f4a582;stroke:#000000;stroke-linejoin:miter;"/>
   </g>
   <g id="patch_81">
    <path clip-path="url(#p00afde895f)" d="M 594.761855 398.112417 
L 611.77831 398.112417 
L 611.77831 358.814812 
L 594.761855 358.814812 
z
" style="fill:#f4a582;stroke:#000000;stroke-linejoin:miter;"/>
   </g>
   <g id="patch_82">
    <path clip-path="url(#p00afde895f)" d="M 713.877035 398.112417 
L 730.89349 398.112417 
L 730.89349 396.328481 
L 713.877035 396.328481 
z
" style="fill:#f4a582;stroke:#000000;stroke-linejoin:miter;"/>
   </g>
   <g id="patch_83">
    <path clip-path="url(#p00afde895f)" d="M 832.992215 398.112417 
L 850.008669 398.112417 
L 850.008669 376.327782 
L 832.992215 376.327782 
z
" style="fill:#f4a582;stroke:#000000;stroke-linejoin:miter;"/>
   </g>
   <g id="patch_84">
    <path clip-path="url(#p00afde895f)" d="M 979.333722 398.112417 
L 996.350176 398.112417 
L 996.350176 329.466519 
L 979.333722 329.466519 
z
" style="fill:#f4a582;stroke:#000000;stroke-linejoin:miter;"/>
   </g>
   <g id="patch_85">
    <path clip-path="url(#p00afde895f)" d="M 135.31759 398.112417 
L 152.334044 398.112417 
L 152.334044 372.539505 
L 135.31759 372.539505 
z
" style="fill:#d1e5f0;stroke:#000000;stroke-linejoin:miter;"/>
   </g>
   <g id="patch_86">
    <path clip-path="url(#p00afde895f)" d="M 254.43277 398.112417 
L 271.449224 398.112417 
L 271.449224 386.370745 
L 254.43277 386.370745 
z
" style="fill:#d1e5f0;stroke:#000000;stroke-linejoin:miter;"/>
   </g>
   <g id="patch_87">
    <path clip-path="url(#p00afde895f)" d="M 373.54795 398.112417 
L 390.564404 398.112417 
L 390.564404 373.589704 
L 373.54795 373.589704 
z
" style="fill:#d1e5f0;stroke:#000000;stroke-linejoin:miter;"/>
   </g>
   <g id="patch_88">
    <path clip-path="url(#p00afde895f)" d="M 492.66313 398.112417 
L 509.679584 398.112417 
L 509.679584 394.825844 
L 492.66313 394.825844 
z
" style="fill:#d1e5f0;stroke:#000000;stroke-linejoin:miter;"/>
   </g>
   <g id="patch_89">
    <path clip-path="url(#p00afde895f)" d="M 611.77831 398.112417 
L 628.794764 398.112417 
L 628.794764 394.485457 
L 611.77831 394.485457 
z
" style="fill:#d1e5f0;stroke:#000000;stroke-linejoin:miter;"/>
   </g>
   <g id="patch_90">
    <path clip-path="url(#p00afde895f)" d="M 730.89349 398.112417 
L 747.909944 398.112417 
L 747.909944 398.049039 
L 730.89349 398.049039 
z
" style="fill:#d1e5f0;stroke:#000000;stroke-linejoin:miter;"/>
   </g>
   <g id="patch_91">
    <path clip-path="url(#p00afde895f)" d="M 850.008669 398.112417 
L 867.025124 398.112417 
L 867.025124 396.585939 
L 850.008669 396.585939 
z
" style="fill:#d1e5f0;stroke:#000000;stroke-linejoin:miter;"/>
   </g>
   <g id="patch_92">
    <path clip-path="url(#p00afde895f)" d="M 996.350176 398.112417 
L 1013.36663 398.112417 
L 1013.36663 380.883425 
L 996.350176 380.883425 
z
" style="fill:#d1e5f0;stroke:#000000;stroke-linejoin:miter;"/>
   </g>
   <g id="patch_93">
    <path clip-path="url(#p00afde895f)" d="M 152.334044 398.112417 
L 169.350499 398.112417 
L 169.350499 329.056399 
L 152.334044 329.056399 
z
" style="fill:#4393c3;stroke:#000000;stroke-linejoin:miter;"/>
   </g>
   <g id="patch_94">
    <path clip-path="url(#p00afde895f)" d="M 271.449224 398.112417 
L 288.465678 398.112417 
L 288.465678 344.67822 
L 271.449224 344.67822 
z
" style="fill:#4393c3;stroke:#000000;stroke-linejoin:miter;"/>
   </g>
   <g id="patch_95">
    <path clip-path="url(#p00afde895f)" d="M 390.564404 398.112417 
L 407.580858 398.112417 
L 407.580858 338.293095 
L 390.564404 338.293095 
z
" style="fill:#4393c3;stroke:#000000;stroke-linejoin:miter;"/>
   </g>
   <g id="patch_96">
    <path clip-path="url(#p00afde895f)" d="M 509.679584 398.112417 
L 526.696038 398.112417 
L 526.696038 362.022675 
L 509.679584 362.022675 
z
" style="fill:#4393c3;stroke:#000000;stroke-linejoin:miter;"/>
   </g>
   <g id="patch_97">
    <path clip-path="url(#p00afde895f)" d="M 628.794764 398.112417 
L 645.811218 398.112417 
L 645.811218 357.638355 
L 628.794764 357.638355 
z
" style="fill:#4393c3;stroke:#000000;stroke-linejoin:miter;"/>
   </g>
   <g id="patch_98">
    <path clip-path="url(#p00afde895f)" d="M 747.909944 398.112417 
L 764.926398 398.112417 
L 764.926398 396.321861 
L 747.909944 396.321861 
z
" style="fill:#4393c3;stroke:#000000;stroke-linejoin:miter;"/>
   </g>
   <g id="patch_99">
    <path clip-path="url(#p00afde895f)" d="M 867.025124 398.112417 
L 884.041578 398.112417 
L 884.041578 376.268629 
L 867.025124 376.268629 
z
" style="fill:#4393c3;stroke:#000000;stroke-linejoin:miter;"/>
   </g>
   <g id="patch_100">
    <path clip-path="url(#p00afde895f)" d="M 1013.36663 398.112417 
L 1030.383085 398.112417 
L 1030.383085 338.782774 
L 1013.36663 338.782774 
z
" style="fill:#4393c3;stroke:#000000;stroke-linejoin:miter;"/>
   </g>
   <g id="patch_101">
    <path clip-path="url(#p00afde895f)" d="M 169.350499 398.112417 
L 186.366953 398.112417 
L 186.366953 325.273908 
L 169.350499 325.273908 
z
" style="fill:#2166ac;stroke:#000000;stroke-linejoin:miter;"/>
   </g>
   <g id="patch_102">
    <path clip-path="url(#p00afde895f)" d="M 288.465678 398.112417 
L 305.482133 398.112417 
L 305.482133 341.892058 
L 288.465678 341.892058 
z
" style="fill:#2166ac;stroke:#000000;stroke-linejoin:miter;"/>
   </g>
   <g id="patch_103">
    <path clip-path="url(#p00afde895f)" d="M 407.580858 398.112417 
L 424.597313 398.112417 
L 424.597313 326.760298 
L 407.580858 326.760298 
z
" style="fill:#2166ac;stroke:#000000;stroke-linejoin:miter;"/>
   </g>
   <g id="patch_104">
    <path clip-path="url(#p00afde895f)" d="M 526.696038 398.112417 
L 543.712493 398.112417 
L 543.712493 357.417878 
L 526.696038 357.417878 
z
" style="fill:#2166ac;stroke:#000000;stroke-linejoin:miter;"/>
   </g>
   <g id="patch_105">
    <path clip-path="url(#p00afde895f)" d="M 645.811218 398.112417 
L 662.827672 398.112417 
L 662.827672 350.476757 
L 645.811218 350.476757 
z
" style="fill:#2166ac;stroke:#000000;stroke-linejoin:miter;"/>
   </g>
   <g id="patch_106">
    <path clip-path="url(#p00afde895f)" d="M 764.926398 398.112417 
L 781.942852 398.112417 
L 781.942852 393.516354 
L 764.926398 393.516354 
z
" style="fill:#2166ac;stroke:#000000;stroke-linejoin:miter;"/>
   </g>
   <g id="patch_107">
    <path clip-path="url(#p00afde895f)" d="M 884.041578 398.112417 
L 901.058032 398.112417 
L 901.058032 372.947204 
L 884.041578 372.947204 
z
" style="fill:#2166ac;stroke:#000000;stroke-linejoin:miter;"/>
   </g>
   <g id="patch_108">
    <path clip-path="url(#p00afde895f)" d="M 1030.383085 398.112417 
L 1047.399539 398.112417 
L 1047.399539 333.680295 
L 1030.383085 333.680295 
z
" style="fill:#2166ac;stroke:#000000;stroke-linejoin:miter;"/>
   </g>
   <g id="matplotlib.axis_3">
    <g id="xtick_12">
     <g id="line2d_21">
      <g>
       <use style="stroke:#000000;stroke-width:0.8;" x="143.825817" xlink:href="#mae4a961e0e" y="398.112417"/>
      </g>
     </g>
     <g id="text_22">
      <!-- matmul(w1) -->
      <g transform="translate(97.839775 442.111869)rotate(-15)scale(0.16 -0.16)">
       <use xlink:href="#DejaVuSans-109"/>
       <use x="97.412109" xlink:href="#DejaVuSans-97"/>
       <use x="158.691406" xlink:href="#DejaVuSans-116"/>
       <use x="197.900391" xlink:href="#DejaVuSans-109"/>
       <use x="295.3125" xlink:href="#DejaVuSans-117"/>
       <use x="358.691406" xlink:href="#DejaVuSans-108"/>
       <use x="386.474609" xlink:href="#DejaVuSans-40"/>
       <use x="425.488281" xlink:href="#DejaVuSans-119"/>
       <use x="507.275391" xlink:href="#DejaVuSans-49"/>
       <use x="570.898438" xlink:href="#DejaVuSans-41"/>
      </g>
     </g>
    </g>
    <g id="xtick_13">
     <g id="line2d_22">
      <g>
       <use style="stroke:#000000;stroke-width:0.8;" x="262.940997" xlink:href="#mae4a961e0e" y="398.112417"/>
      </g>
     </g>
     <g id="text_23">
      <!-- gelu -->
      <g transform="translate(247.379203 425.807564)rotate(-15)scale(0.16 -0.16)">
       <use xlink:href="#DejaVuSans-103"/>
       <use x="63.476562" xlink:href="#DejaVuSans-101"/>
       <use x="125" xlink:href="#DejaVuSans-108"/>
       <use x="152.783203" xlink:href="#DejaVuSans-117"/>
      </g>
     </g>
    </g>
    <g id="xtick_14">
     <g id="line2d_23">
      <g>
       <use style="stroke:#000000;stroke-width:0.8;" x="382.056177" xlink:href="#mae4a961e0e" y="398.112417"/>
      </g>
     </g>
     <g id="text_24">
      <!-- matmul(w2) -->
      <g transform="translate(336.070135 442.111869)rotate(-15)scale(0.16 -0.16)">
       <use xlink:href="#DejaVuSans-109"/>
       <use x="97.412109" xlink:href="#DejaVuSans-97"/>
       <use x="158.691406" xlink:href="#DejaVuSans-116"/>
       <use x="197.900391" xlink:href="#DejaVuSans-109"/>
       <use x="295.3125" xlink:href="#DejaVuSans-117"/>
       <use x="358.691406" xlink:href="#DejaVuSans-108"/>
       <use x="386.474609" xlink:href="#DejaVuSans-40"/>
       <use x="425.488281" xlink:href="#DejaVuSans-119"/>
       <use x="507.275391" xlink:href="#DejaVuSans-50"/>
       <use x="570.898438" xlink:href="#DejaVuSans-41"/>
      </g>
     </g>
    </g>
    <g id="xtick_15">
     <g id="line2d_24">
      <g>
       <use style="stroke:#000000;stroke-width:0.8;" x="501.171357" xlink:href="#mae4a961e0e" y="398.112417"/>
      </g>
     </g>
     <g id="text_25">
      <!-- elementwise_mult -->
      <g transform="translate(431.681085 454.676887)rotate(-15)scale(0.16 -0.16)">
       <use xlink:href="#DejaVuSans-101"/>
       <use x="61.523438" xlink:href="#DejaVuSans-108"/>
       <use x="89.306641" xlink:href="#DejaVuSans-101"/>
       <use x="150.830078" xlink:href="#DejaVuSans-109"/>
       <use x="248.242188" xlink:href="#DejaVuSans-101"/>
       <use x="309.765625" xlink:href="#DejaVuSans-110"/>
       <use x="373.144531" xlink:href="#DejaVuSans-116"/>
       <use x="412.353516" xlink:href="#DejaVuSans-119"/>
       <use x="494.140625" xlink:href="#DejaVuSans-105"/>
       <use x="521.923828" xlink:href="#DejaVuSans-115"/>
       <use x="574.023438" xlink:href="#DejaVuSans-101"/>
       <use x="635.546875" xlink:href="#DejaVuSans-95"/>
       <use x="685.546875" xlink:href="#DejaVuSans-109"/>
       <use x="782.958984" xlink:href="#DejaVuSans-117"/>
       <use x="846.337891" xlink:href="#DejaVuSans-108"/>
       <use x="874.121094" xlink:href="#DejaVuSans-116"/>
      </g>
     </g>
    </g>
    <g id="xtick_16">
     <g id="line2d_25">
      <g>
       <use style="stroke:#000000;stroke-width:0.8;" x="620.286537" xlink:href="#mae4a961e0e" y="398.112417"/>
      </g>
     </g>
     <g id="text_26">
      <!-- top_k -->
      <g transform="translate(600.369993 428.110406)rotate(-15)scale(0.16 -0.16)">
       <use xlink:href="#DejaVuSans-116"/>
       <use x="39.208984" xlink:href="#DejaVuSans-111"/>
       <use x="100.390625" xlink:href="#DejaVuSans-112"/>
       <use x="163.867188" xlink:href="#DejaVuSans-95"/>
       <use x="213.867188" xlink:href="#DejaVuSans-107"/>
      </g>
     </g>
    </g>
    <g id="xtick_17">
     <g id="line2d_26">
      <g>
       <use style="stroke:#000000;stroke-width:0.8;" x="739.401717" xlink:href="#mae4a961e0e" y="398.112417"/>
      </g>
     </g>
     <g id="text_27">
      <!-- sigmoid -->
      <g transform="translate(710.158791 433.13926)rotate(-15)scale(0.16 -0.16)">
       <use xlink:href="#DejaVuSans-115"/>
       <use x="52.099609" xlink:href="#DejaVuSans-105"/>
       <use x="79.882812" xlink:href="#DejaVuSans-103"/>
       <use x="143.359375" xlink:href="#DejaVuSans-109"/>
       <use x="240.771484" xlink:href="#DejaVuSans-111"/>
       <use x="301.953125" xlink:href="#DejaVuSans-105"/>
       <use x="329.736328" xlink:href="#DejaVuSans-100"/>
      </g>
     </g>
    </g>
    <g id="xtick_18">
     <g id="line2d_27">
      <g>
       <use style="stroke:#000000;stroke-width:0.8;" x="858.516897" xlink:href="#mae4a961e0e" y="398.112417"/>
      </g>
     </g>
     <g id="text_28">
      <!-- matmul_(router) -->
      <g transform="translate(796.25658 450.802366)rotate(-15)scale(0.16 -0.16)">
       <use xlink:href="#DejaVuSans-109"/>
       <use x="97.412109" xlink:href="#DejaVuSans-97"/>
       <use x="158.691406" xlink:href="#DejaVuSans-116"/>
       <use x="197.900391" xlink:href="#DejaVuSans-109"/>
       <use x="295.3125" xlink:href="#DejaVuSans-117"/>
       <use x="358.691406" xlink:href="#DejaVuSans-108"/>
       <use x="386.474609" xlink:href="#DejaVuSans-95"/>
       <use x="436.474609" xlink:href="#DejaVuSans-40"/>
       <use x="475.488281" xlink:href="#DejaVuSans-114"/>
       <use x="514.351562" xlink:href="#DejaVuSans-111"/>
       <use x="575.533203" xlink:href="#DejaVuSans-117"/>
       <use x="638.912109" xlink:href="#DejaVuSans-116"/>
       <use x="678.121094" xlink:href="#DejaVuSans-101"/>
       <use x="739.644531" xlink:href="#DejaVuSans-114"/>
       <use x="780.757812" xlink:href="#DejaVuSans-41"/>
      </g>
     </g>
    </g>
    <g id="xtick_19">
     <g id="line2d_28">
      <g>
       <use style="stroke:#000000;stroke-width:0.8;" x="1004.858403" xlink:href="#mae4a961e0e" y="398.112417"/>
      </g>
     </g>
     <g id="text_29">
      <!-- time_weighted -->
      <g transform="translate(948.907997 447.420895)rotate(-15)scale(0.16 -0.16)">
       <use xlink:href="#DejaVuSans-116"/>
       <use x="39.208984" xlink:href="#DejaVuSans-105"/>
       <use x="66.992188" xlink:href="#DejaVuSans-109"/>
       <use x="164.404297" xlink:href="#DejaVuSans-101"/>
       <use x="225.927734" xlink:href="#DejaVuSans-95"/>
       <use x="275.927734" xlink:href="#DejaVuSans-119"/>
       <use x="357.714844" xlink:href="#DejaVuSans-101"/>
       <use x="419.238281" xlink:href="#DejaVuSans-105"/>
       <use x="447.021484" xlink:href="#DejaVuSans-103"/>
       <use x="510.498047" xlink:href="#DejaVuSans-104"/>
       <use x="573.876953" xlink:href="#DejaVuSans-116"/>
       <use x="613.085938" xlink:href="#DejaVuSans-101"/>
       <use x="674.609375" xlink:href="#DejaVuSans-100"/>
      </g>
     </g>
    </g>
   </g>
   <g id="matplotlib.axis_4">
    <g id="ytick_6">
     <g id="line2d_29">
      <g>
       <use style="stroke:#000000;stroke-width:0.8;" x="75.76" xlink:href="#ma781064031" y="398.112417"/>
      </g>
     </g>
     <g id="text_30">
      <!-- 0 -->
      <g transform="translate(55.39875 406.090776)scale(0.21 -0.21)">
       <use xlink:href="#DejaVuSans-48"/>
      </g>
     </g>
    </g>
    <g id="ytick_7">
     <g id="line2d_30">
      <g>
       <use style="stroke:#000000;stroke-width:0.8;" x="75.76" xlink:href="#ma781064031" y="375.477588"/>
      </g>
     </g>
     <g id="text_31">
      <!-- 25 -->
      <g transform="translate(42.0375 383.455947)scale(0.21 -0.21)">
       <use xlink:href="#DejaVuSans-50"/>
       <use x="63.623047" xlink:href="#DejaVuSans-53"/>
      </g>
     </g>
    </g>
    <g id="ytick_8">
     <g id="line2d_31">
      <g>
       <use style="stroke:#000000;stroke-width:0.8;" x="75.76" xlink:href="#ma781064031" y="352.842759"/>
      </g>
     </g>
     <g id="text_32">
      <!-- 50 -->
      <g transform="translate(42.0375 360.821118)scale(0.21 -0.21)">
       <use xlink:href="#DejaVuSans-53"/>
       <use x="63.623047" xlink:href="#DejaVuSans-48"/>
      </g>
     </g>
    </g>
    <g id="ytick_9">
     <g id="line2d_32">
      <g>
       <use style="stroke:#000000;stroke-width:0.8;" x="75.76" xlink:href="#ma781064031" y="330.20793"/>
      </g>
     </g>
     <g id="text_33">
      <!-- 75 -->
      <g transform="translate(42.0375 338.186289)scale(0.21 -0.21)">
       <use xlink:href="#DejaVuSans-55"/>
       <use x="63.623047" xlink:href="#DejaVuSans-53"/>
      </g>
     </g>
    </g>
    <g id="ytick_10">
     <g id="line2d_33">
      <g>
       <use style="stroke:#000000;stroke-width:0.8;" x="75.76" xlink:href="#ma781064031" y="307.573101"/>
      </g>
     </g>
     <g id="text_34">
      <!-- 100 -->
      <g transform="translate(28.67625 315.55146)scale(0.21 -0.21)">
       <use xlink:href="#DejaVuSans-49"/>
       <use x="63.623047" xlink:href="#DejaVuSans-48"/>
       <use x="127.246094" xlink:href="#DejaVuSans-48"/>
      </g>
     </g>
    </g>
   </g>
   <g id="line2d_34">
    <path clip-path="url(#p00afde895f)" d="M 75.76 375.477588 
L 1066.117639 375.477588 
" style="fill:none;stroke:#808080;stroke-dasharray:5.55,2.4;stroke-dashoffset:0;stroke-width:1.5;"/>
   </g>
   <g id="line2d_35">
    <path clip-path="url(#p00afde895f)" d="M 75.76 352.842759 
L 1066.117639 352.842759 
" style="fill:none;stroke:#808080;stroke-dasharray:5.55,2.4;stroke-dashoffset:0;stroke-width:1.5;"/>
   </g>
   <g id="line2d_36">
    <path clip-path="url(#p00afde895f)" d="M 75.76 330.20793 
L 1066.117639 330.20793 
" style="fill:none;stroke:#808080;stroke-dasharray:5.55,2.4;stroke-dashoffset:0;stroke-width:1.5;"/>
   </g>
   <g id="line2d_37">
    <path clip-path="url(#p00afde895f)" d="M 75.76 307.573101 
L 1066.117639 307.573101 
" style="fill:none;stroke:#808080;stroke-dasharray:5.55,2.4;stroke-dashoffset:0;stroke-width:1.5;"/>
   </g>
   <g id="line2d_38">
    <path clip-path="url(#p00afde895f)" d="M 75.76 284.938272 
L 1066.117639 284.938272 
" style="fill:none;stroke:#808080;stroke-dasharray:5.55,2.4;stroke-dashoffset:0;stroke-width:1.5;"/>
   </g>
   <g id="line2d_39">
    <path clip-path="url(#p00afde895f)" d="M 75.76 262.303443 
L 1066.117639 262.303443 
" style="fill:none;stroke:#808080;stroke-dasharray:5.55,2.4;stroke-dashoffset:0;stroke-width:1.5;"/>
   </g>
   <g id="line2d_40">
    <path clip-path="url(#p00afde895f)" d="M 75.76 239.668614 
L 1066.117639 239.668614 
" style="fill:none;stroke:#808080;stroke-dasharray:5.55,2.4;stroke-dashoffset:0;stroke-width:1.5;"/>
   </g>
   <g id="line2d_41">
    <path clip-path="url(#p00afde895f)" d="M 75.76 217.033785 
L 1066.117639 217.033785 
" style="fill:none;stroke:#808080;stroke-dasharray:5.55,2.4;stroke-dashoffset:0;stroke-width:1.5;"/>
   </g>
   <g id="line2d_42">
    <path clip-path="url(#p00afde895f)" d="M 75.76 194.398956 
L 1066.117639 194.398956 
" style="fill:none;stroke:#808080;stroke-dasharray:5.55,2.4;stroke-dashoffset:0;stroke-width:1.5;"/>
   </g>
   <g id="patch_109">
    <path d="M 75.76 398.112417 
L 75.76 284.938272 
" style="fill:none;stroke:#000000;stroke-linecap:square;stroke-linejoin:miter;stroke-width:0.8;"/>
   </g>
   <g id="patch_110">
    <path d="M 1066.117639 398.112417 
L 1066.117639 284.938272 
" style="fill:none;stroke:#000000;stroke-linecap:square;stroke-linejoin:miter;stroke-width:0.8;"/>
   </g>
   <g id="patch_111">
    <path d="M 75.76 398.112417 
L 1066.117639 398.112417 
" style="fill:none;stroke:#000000;stroke-linecap:square;stroke-linejoin:miter;stroke-width:0.8;"/>
   </g>
   <g id="patch_112">
    <path d="M 75.76 284.938272 
L 1066.117639 284.938272 
" style="fill:none;stroke:#000000;stroke-linecap:square;stroke-linejoin:miter;stroke-width:0.8;"/>
   </g>
   <g id="legend_2">
    <g id="patch_113">
     <path d="M 277.162526 281.399367 
L 825.100807 281.399367 
Q 828.100807 281.399367 828.100807 278.399367 
L 828.100807 235.864992 
Q 828.100807 232.864992 825.100807 232.864992 
L 277.162526 232.864992 
Q 274.162526 232.864992 274.162526 235.864992 
L 274.162526 278.399367 
Q 274.162526 281.399367 277.162526 281.399367 
z
" style="fill:#ffffff;opacity:0.8;stroke:#cccccc;stroke-linejoin:miter;"/>
    </g>
    <g id="patch_114">
     <path d="M 280.162526 250.262648 
L 310.162526 250.262648 
L 310.162526 239.762648 
L 280.162526 239.762648 
z
" style="fill:#b2182b;stroke:#000000;stroke-linejoin:miter;"/>
    </g>
    <g id="text_35">
     <!-- Dense(bsz=1) -->
     <g transform="translate(322.162526 250.262648)scale(0.15 -0.15)">
      <use xlink:href="#DejaVuSans-68"/>
      <use x="77.001953" xlink:href="#DejaVuSans-101"/>
      <use x="138.525391" xlink:href="#DejaVuSans-110"/>
      <use x="201.904297" xlink:href="#DejaVuSans-115"/>
      <use x="254.003906" xlink:href="#DejaVuSans-101"/>
      <use x="315.527344" xlink:href="#DejaVuSans-40"/>
      <use x="354.541016" xlink:href="#DejaVuSans-98"/>
      <use x="418.017578" xlink:href="#DejaVuSans-115"/>
      <use x="470.117188" xlink:href="#DejaVuSans-122"/>
      <use x="522.607422" xlink:href="#DejaVuSans-61"/>
      <use x="606.396484" xlink:href="#DejaVuSans-49"/>
      <use x="670.019531" xlink:href="#DejaVuSans-41"/>
     </g>
    </g>
    <g id="patch_115">
     <path d="M 280.162526 272.279836 
L 310.162526 272.279836 
L 310.162526 261.779836 
L 280.162526 261.779836 
z
" style="fill:#f4a582;stroke:#000000;stroke-linejoin:miter;"/>
    </g>
    <g id="text_36">
     <!-- Dense(bsz=30) -->
     <g transform="translate(322.162526 272.279836)scale(0.15 -0.15)">
      <use xlink:href="#DejaVuSans-68"/>
      <use x="77.001953" xlink:href="#DejaVuSans-101"/>
      <use x="138.525391" xlink:href="#DejaVuSans-110"/>
      <use x="201.904297" xlink:href="#DejaVuSans-115"/>
      <use x="254.003906" xlink:href="#DejaVuSans-101"/>
      <use x="315.527344" xlink:href="#DejaVuSans-40"/>
      <use x="354.541016" xlink:href="#DejaVuSans-98"/>
      <use x="418.017578" xlink:href="#DejaVuSans-115"/>
      <use x="470.117188" xlink:href="#DejaVuSans-122"/>
      <use x="522.607422" xlink:href="#DejaVuSans-61"/>
      <use x="606.396484" xlink:href="#DejaVuSans-51"/>
      <use x="670.019531" xlink:href="#DejaVuSans-48"/>
      <use x="733.642578" xlink:href="#DejaVuSans-41"/>
     </g>
    </g>
    <g id="patch_116">
     <path d="M 468.063307 250.262648 
L 498.063307 250.262648 
L 498.063307 239.762648 
L 468.063307 239.762648 
z
" style="fill:#d1e5f0;stroke:#000000;stroke-linejoin:miter;"/>
    </g>
    <g id="text_37">
     <!-- Sparse(bsz=1) -->
     <g transform="translate(510.063307 250.262648)scale(0.15 -0.15)">
      <use xlink:href="#DejaVuSans-83"/>
      <use x="63.476562" xlink:href="#DejaVuSans-112"/>
      <use x="126.953125" xlink:href="#DejaVuSans-97"/>
      <use x="188.232422" xlink:href="#DejaVuSans-114"/>
      <use x="229.345703" xlink:href="#DejaVuSans-115"/>
      <use x="281.445312" xlink:href="#DejaVuSans-101"/>
      <use x="342.96875" xlink:href="#DejaVuSans-40"/>
      <use x="381.982422" xlink:href="#DejaVuSans-98"/>
      <use x="445.458984" xlink:href="#DejaVuSans-115"/>
      <use x="497.558594" xlink:href="#DejaVuSans-122"/>
      <use x="550.048828" xlink:href="#DejaVuSans-61"/>
      <use x="633.837891" xlink:href="#DejaVuSans-49"/>
      <use x="697.460938" xlink:href="#DejaVuSans-41"/>
     </g>
    </g>
    <g id="patch_117">
     <path d="M 468.063307 272.279836 
L 498.063307 272.279836 
L 498.063307 261.779836 
L 468.063307 261.779836 
z
" style="fill:#4393c3;stroke:#000000;stroke-linejoin:miter;"/>
    </g>
    <g id="text_38">
     <!-- Sparse(bsz=30) -->
     <g transform="translate(510.063307 272.279836)scale(0.15 -0.15)">
      <use xlink:href="#DejaVuSans-83"/>
      <use x="63.476562" xlink:href="#DejaVuSans-112"/>
      <use x="126.953125" xlink:href="#DejaVuSans-97"/>
      <use x="188.232422" xlink:href="#DejaVuSans-114"/>
      <use x="229.345703" xlink:href="#DejaVuSans-115"/>
      <use x="281.445312" xlink:href="#DejaVuSans-101"/>
      <use x="342.96875" xlink:href="#DejaVuSans-40"/>
      <use x="381.982422" xlink:href="#DejaVuSans-98"/>
      <use x="445.458984" xlink:href="#DejaVuSans-115"/>
      <use x="497.558594" xlink:href="#DejaVuSans-122"/>
      <use x="550.048828" xlink:href="#DejaVuSans-61"/>
      <use x="633.837891" xlink:href="#DejaVuSans-51"/>
      <use x="697.460938" xlink:href="#DejaVuSans-48"/>
      <use x="761.083984" xlink:href="#DejaVuSans-41"/>
     </g>
    </g>
    <g id="patch_118">
     <path d="M 660.082057 250.262648 
L 690.082057 250.262648 
L 690.082057 239.762648 
L 660.082057 239.762648 
z
" style="fill:#2166ac;stroke:#000000;stroke-linejoin:miter;"/>
    </g>
    <g id="text_39">
     <!-- Sparse(bsz=84) -->
     <defs>
      <path d="M 31.78125 34.625 
Q 24.75 34.625 20.71875 30.859375 
Q 16.703125 27.09375 16.703125 20.515625 
Q 16.703125 13.921875 20.71875 10.15625 
Q 24.75 6.390625 31.78125 6.390625 
Q 38.8125 6.390625 42.859375 10.171875 
Q 46.921875 13.96875 46.921875 20.515625 
Q 46.921875 27.09375 42.890625 30.859375 
Q 38.875 34.625 31.78125 34.625 
z
M 21.921875 38.8125 
Q 15.578125 40.375 12.03125 44.71875 
Q 8.5 49.078125 8.5 55.328125 
Q 8.5 64.0625 14.71875 69.140625 
Q 20.953125 74.21875 31.78125 74.21875 
Q 42.671875 74.21875 48.875 69.140625 
Q 55.078125 64.0625 55.078125 55.328125 
Q 55.078125 49.078125 51.53125 44.71875 
Q 48 40.375 41.703125 38.8125 
Q 48.828125 37.15625 52.796875 32.3125 
Q 56.78125 27.484375 56.78125 20.515625 
Q 56.78125 9.90625 50.3125 4.234375 
Q 43.84375 -1.421875 31.78125 -1.421875 
Q 19.734375 -1.421875 13.25 4.234375 
Q 6.78125 9.90625 6.78125 20.515625 
Q 6.78125 27.484375 10.78125 32.3125 
Q 14.796875 37.15625 21.921875 38.8125 
z
M 18.3125 54.390625 
Q 18.3125 48.734375 21.84375 45.5625 
Q 25.390625 42.390625 31.78125 42.390625 
Q 38.140625 42.390625 41.71875 45.5625 
Q 45.3125 48.734375 45.3125 54.390625 
Q 45.3125 60.0625 41.71875 63.234375 
Q 38.140625 66.40625 31.78125 66.40625 
Q 25.390625 66.40625 21.84375 63.234375 
Q 18.3125 60.0625 18.3125 54.390625 
z
" id="DejaVuSans-56"/>
      <path d="M 37.796875 64.3125 
L 12.890625 25.390625 
L 37.796875 25.390625 
z
M 35.203125 72.90625 
L 47.609375 72.90625 
L 47.609375 25.390625 
L 58.015625 25.390625 
L 58.015625 17.1875 
L 47.609375 17.1875 
L 47.609375 0 
L 37.796875 0 
L 37.796875 17.1875 
L 4.890625 17.1875 
L 4.890625 26.703125 
z
" id="DejaVuSans-52"/>
     </defs>
     <g transform="translate(702.082057 250.262648)scale(0.15 -0.15)">
      <use xlink:href="#DejaVuSans-83"/>
      <use x="63.476562" xlink:href="#DejaVuSans-112"/>
      <use x="126.953125" xlink:href="#DejaVuSans-97"/>
      <use x="188.232422" xlink:href="#DejaVuSans-114"/>
      <use x="229.345703" xlink:href="#DejaVuSans-115"/>
      <use x="281.445312" xlink:href="#DejaVuSans-101"/>
      <use x="342.96875" xlink:href="#DejaVuSans-40"/>
      <use x="381.982422" xlink:href="#DejaVuSans-98"/>
      <use x="445.458984" xlink:href="#DejaVuSans-115"/>
      <use x="497.558594" xlink:href="#DejaVuSans-122"/>
      <use x="550.048828" xlink:href="#DejaVuSans-61"/>
      <use x="633.837891" xlink:href="#DejaVuSans-56"/>
      <use x="697.460938" xlink:href="#DejaVuSans-52"/>
      <use x="761.083984" xlink:href="#DejaVuSans-41"/>
     </g>
    </g>
   </g>
  </g>
  <g id="text_40">
   <!-- Mixtral -->
   <defs>
    <path d="M 9.1875 72.90625 
L 33.109375 72.90625 
L 49.703125 33.890625 
L 66.40625 72.90625 
L 90.28125 72.90625 
L 90.28125 0 
L 72.515625 0 
L 72.515625 53.328125 
L 55.71875 14.015625 
L 43.796875 14.015625 
L 27 53.328125 
L 27 0 
L 9.1875 0 
z
" id="DejaVuSans-Bold-77"/>
    <path d="M 8.40625 54.6875 
L 25.875 54.6875 
L 25.875 0 
L 8.40625 0 
z
M 8.40625 75.984375 
L 25.875 75.984375 
L 25.875 61.71875 
L 8.40625 61.71875 
z
" id="DejaVuSans-Bold-105"/>
    <path d="M 22.21875 27.984375 
L 2.484375 54.6875 
L 21 54.6875 
L 32.171875 38.484375 
L 43.5 54.6875 
L 62.015625 54.6875 
L 42.28125 28.078125 
L 62.984375 0 
L 44.484375 0 
L 32.171875 17.28125 
L 20.015625 0 
L 1.515625 0 
z
" id="DejaVuSans-Bold-120"/>
    <path d="M 27.484375 70.21875 
L 27.484375 54.6875 
L 45.515625 54.6875 
L 45.515625 42.1875 
L 27.484375 42.1875 
L 27.484375 19 
Q 27.484375 15.1875 29 13.84375 
Q 30.515625 12.5 35.015625 12.5 
L 44 12.5 
L 44 0 
L 29 0 
Q 18.65625 0 14.328125 4.3125 
Q 10.015625 8.640625 10.015625 19 
L 10.015625 42.1875 
L 1.3125 42.1875 
L 1.3125 54.6875 
L 10.015625 54.6875 
L 10.015625 70.21875 
z
" id="DejaVuSans-Bold-116"/>
    <path d="M 49.03125 39.796875 
Q 46.734375 40.875 44.453125 41.375 
Q 42.1875 41.890625 39.890625 41.890625 
Q 33.15625 41.890625 29.515625 37.5625 
Q 25.875 33.25 25.875 25.203125 
L 25.875 0 
L 8.40625 0 
L 8.40625 54.6875 
L 25.875 54.6875 
L 25.875 45.703125 
Q 29.25 51.078125 33.609375 53.53125 
Q 37.984375 56 44.09375 56 
Q 44.96875 56 45.984375 55.921875 
Q 47.015625 55.859375 48.96875 55.609375 
z
" id="DejaVuSans-Bold-114"/>
    <path d="M 32.90625 24.609375 
Q 27.4375 24.609375 24.671875 22.75 
Q 21.921875 20.90625 21.921875 17.28125 
Q 21.921875 13.96875 24.140625 12.078125 
Q 26.375 10.203125 30.328125 10.203125 
Q 35.25 10.203125 38.625 13.734375 
Q 42 17.28125 42 22.609375 
L 42 24.609375 
z
M 59.625 31.203125 
L 59.625 0 
L 42 0 
L 42 8.109375 
Q 38.484375 3.125 34.078125 0.84375 
Q 29.6875 -1.421875 23.390625 -1.421875 
Q 14.890625 -1.421875 9.59375 3.53125 
Q 4.296875 8.5 4.296875 16.40625 
Q 4.296875 26.03125 10.90625 30.515625 
Q 17.53125 35.015625 31.6875 35.015625 
L 42 35.015625 
L 42 36.375 
Q 42 40.53125 38.71875 42.453125 
Q 35.453125 44.390625 28.515625 44.390625 
Q 22.90625 44.390625 18.0625 43.265625 
Q 13.234375 42.140625 9.078125 39.890625 
L 9.078125 53.21875 
Q 14.703125 54.59375 20.359375 55.296875 
Q 26.03125 56 31.6875 56 
Q 46.484375 56 53.046875 50.171875 
Q 59.625 44.34375 59.625 31.203125 
z
" id="DejaVuSans-Bold-97"/>
    <path d="M 8.40625 75.984375 
L 25.875 75.984375 
L 25.875 0 
L 8.40625 0 
z
" id="DejaVuSans-Bold-108"/>
   </defs>
   <g transform="translate(80.64 76.58149)scale(0.17 -0.17)">
    <use xlink:href="#DejaVuSans-Bold-77"/>
    <use x="99.511719" xlink:href="#DejaVuSans-Bold-105"/>
    <use x="133.789062" xlink:href="#DejaVuSans-Bold-120"/>
    <use x="198.291016" xlink:href="#DejaVuSans-Bold-116"/>
    <use x="246.09375" xlink:href="#DejaVuSans-Bold-114"/>
    <use x="295.410156" xlink:href="#DejaVuSans-Bold-97"/>
    <use x="362.890625" xlink:href="#DejaVuSans-Bold-108"/>
   </g>
  </g>
  <g id="text_41">
   <!-- Mamba -->
   <defs>
    <path d="M 59.078125 45.609375 
Q 62.40625 50.6875 66.96875 53.34375 
Q 71.53125 56 77 56 
Q 86.421875 56 91.359375 50.1875 
Q 96.296875 44.390625 96.296875 33.296875 
L 96.296875 0 
L 78.71875 0 
L 78.71875 28.515625 
Q 78.765625 29.15625 78.78125 29.828125 
Q 78.8125 30.515625 78.8125 31.78125 
Q 78.8125 37.59375 77.09375 40.203125 
Q 75.390625 42.828125 71.578125 42.828125 
Q 66.609375 42.828125 63.890625 38.71875 
Q 61.1875 34.625 61.078125 26.859375 
L 61.078125 0 
L 43.5 0 
L 43.5 28.515625 
Q 43.5 37.59375 41.9375 40.203125 
Q 40.375 42.828125 36.375 42.828125 
Q 31.34375 42.828125 28.609375 38.703125 
Q 25.875 34.578125 25.875 26.90625 
L 25.875 0 
L 8.296875 0 
L 8.296875 54.6875 
L 25.875 54.6875 
L 25.875 46.6875 
Q 29.109375 51.3125 33.28125 53.65625 
Q 37.453125 56 42.484375 56 
Q 48.140625 56 52.484375 53.265625 
Q 56.84375 50.53125 59.078125 45.609375 
z
" id="DejaVuSans-Bold-109"/>
    <path d="M 37.5 11.28125 
Q 43.109375 11.28125 46.0625 15.375 
Q 49.03125 19.484375 49.03125 27.296875 
Q 49.03125 35.109375 46.0625 39.203125 
Q 43.109375 43.3125 37.5 43.3125 
Q 31.890625 43.3125 28.875 39.1875 
Q 25.875 35.0625 25.875 27.296875 
Q 25.875 19.53125 28.875 15.40625 
Q 31.890625 11.28125 37.5 11.28125 
z
M 25.875 46.6875 
Q 29.5 51.46875 33.890625 53.734375 
Q 38.28125 56 44 56 
Q 54.109375 56 60.59375 47.96875 
Q 67.09375 39.9375 67.09375 27.296875 
Q 67.09375 14.65625 60.59375 6.609375 
Q 54.109375 -1.421875 44 -1.421875 
Q 38.28125 -1.421875 33.890625 0.84375 
Q 29.5 3.125 25.875 7.90625 
L 25.875 0 
L 8.40625 0 
L 8.40625 75.984375 
L 25.875 75.984375 
z
" id="DejaVuSans-Bold-98"/>
   </defs>
   <g transform="translate(80.64 302.62549)scale(0.17 -0.17)">
    <use xlink:href="#DejaVuSans-Bold-77"/>
    <use x="99.511719" xlink:href="#DejaVuSans-Bold-97"/>
    <use x="166.992188" xlink:href="#DejaVuSans-Bold-109"/>
    <use x="271.191406" xlink:href="#DejaVuSans-Bold-98"/>
    <use x="342.773438" xlink:href="#DejaVuSans-Bold-97"/>
   </g>
  </g>
  <g id="text_42">
   <!--       SM Utilization (%) -->
   <defs>
    <path id="DejaVuSans-32"/>
    <path d="M 9.8125 72.90625 
L 24.515625 72.90625 
L 43.109375 23.296875 
L 61.8125 72.90625 
L 76.515625 72.90625 
L 76.515625 0 
L 66.890625 0 
L 66.890625 64.015625 
L 48.09375 14.015625 
L 38.1875 14.015625 
L 19.390625 64.015625 
L 19.390625 0 
L 9.8125 0 
z
" id="DejaVuSans-77"/>
    <path d="M 8.6875 72.90625 
L 18.609375 72.90625 
L 18.609375 28.609375 
Q 18.609375 16.890625 22.84375 11.734375 
Q 27.09375 6.59375 36.625 6.59375 
Q 46.09375 6.59375 50.34375 11.734375 
Q 54.59375 16.890625 54.59375 28.609375 
L 54.59375 72.90625 
L 64.5 72.90625 
L 64.5 27.390625 
Q 64.5 13.140625 57.4375 5.859375 
Q 50.390625 -1.421875 36.625 -1.421875 
Q 22.796875 -1.421875 15.734375 5.859375 
Q 8.6875 13.140625 8.6875 27.390625 
z
" id="DejaVuSans-85"/>
    <path d="M 72.703125 32.078125 
Q 68.453125 32.078125 66.03125 28.46875 
Q 63.625 24.859375 63.625 18.40625 
Q 63.625 12.0625 66.03125 8.421875 
Q 68.453125 4.78125 72.703125 4.78125 
Q 76.859375 4.78125 79.265625 8.421875 
Q 81.6875 12.0625 81.6875 18.40625 
Q 81.6875 24.8125 79.265625 28.4375 
Q 76.859375 32.078125 72.703125 32.078125 
z
M 72.703125 38.28125 
Q 80.421875 38.28125 84.953125 32.90625 
Q 89.5 27.546875 89.5 18.40625 
Q 89.5 9.28125 84.9375 3.921875 
Q 80.375 -1.421875 72.703125 -1.421875 
Q 64.890625 -1.421875 60.34375 3.921875 
Q 55.8125 9.28125 55.8125 18.40625 
Q 55.8125 27.59375 60.375 32.9375 
Q 64.9375 38.28125 72.703125 38.28125 
z
M 22.3125 68.015625 
Q 18.109375 68.015625 15.6875 64.375 
Q 13.28125 60.75 13.28125 54.390625 
Q 13.28125 47.953125 15.671875 44.328125 
Q 18.0625 40.71875 22.3125 40.71875 
Q 26.5625 40.71875 28.96875 44.328125 
Q 31.390625 47.953125 31.390625 54.390625 
Q 31.390625 60.6875 28.953125 64.34375 
Q 26.515625 68.015625 22.3125 68.015625 
z
M 66.40625 74.21875 
L 74.21875 74.21875 
L 28.609375 -1.421875 
L 20.796875 -1.421875 
z
M 22.3125 74.21875 
Q 30.03125 74.21875 34.609375 68.875 
Q 39.203125 63.53125 39.203125 54.390625 
Q 39.203125 45.171875 34.640625 39.84375 
Q 30.078125 34.515625 22.3125 34.515625 
Q 14.546875 34.515625 10.03125 39.859375 
Q 5.515625 45.21875 5.515625 54.390625 
Q 5.515625 63.484375 10.046875 68.84375 
Q 14.59375 74.21875 22.3125 74.21875 
z
" id="DejaVuSans-37"/>
   </defs>
   <g transform="translate(24.676406 366.693131)rotate(-90)scale(0.23 -0.23)">
    <use xlink:href="#DejaVuSans-32"/>
    <use x="31.787109" xlink:href="#DejaVuSans-32"/>
    <use x="63.574219" xlink:href="#DejaVuSans-32"/>
    <use x="95.361328" xlink:href="#DejaVuSans-32"/>
    <use x="127.148438" xlink:href="#DejaVuSans-32"/>
    <use x="158.935547" xlink:href="#DejaVuSans-32"/>
    <use x="190.722656" xlink:href="#DejaVuSans-83"/>
    <use x="254.199219" xlink:href="#DejaVuSans-77"/>
    <use x="340.478516" xlink:href="#DejaVuSans-32"/>
    <use x="372.265625" xlink:href="#DejaVuSans-85"/>
    <use x="445.458984" xlink:href="#DejaVuSans-116"/>
    <use x="484.667969" xlink:href="#DejaVuSans-105"/>
    <use x="512.451172" xlink:href="#DejaVuSans-108"/>
    <use x="540.234375" xlink:href="#DejaVuSans-105"/>
    <use x="568.017578" xlink:href="#DejaVuSans-122"/>
    <use x="620.507812" xlink:href="#DejaVuSans-97"/>
    <use x="681.787109" xlink:href="#DejaVuSans-116"/>
    <use x="720.996094" xlink:href="#DejaVuSans-105"/>
    <use x="748.779297" xlink:href="#DejaVuSans-111"/>
    <use x="809.960938" xlink:href="#DejaVuSans-110"/>
    <use x="873.339844" xlink:href="#DejaVuSans-32"/>
    <use x="905.126953" xlink:href="#DejaVuSans-40"/>
    <use x="944.140625" xlink:href="#DejaVuSans-37"/>
    <use x="1039.160156" xlink:href="#DejaVuSans-41"/>
   </g>
  </g>
 </g>
 <defs>
  <clipPath id="pdac0be6661">
   <rect height="113.174145" width="990.357639" x="75.76" y="59.27328"/>
  </clipPath>
  <clipPath id="p00afde895f">
   <rect height="113.174145" width="990.357639" x="75.76" y="284.938272"/>
  </clipPath>
 </defs>
</svg>
