<?xml version="1.0" encoding="utf-8" standalone="no"?>
<!DOCTYPE svg PUBLIC "-//W3C//DTD SVG 1.1//EN"
  "http://www.w3.org/Graphics/SVG/1.1/DTD/svg11.dtd">
<!-- Created with matplotlib (https://matplotlib.org/) -->
<svg height="538.345909pt" version="1.1" viewBox="0 0 1113.09821 538.345909" width="1113.09821pt" xmlns="http://www.w3.org/2000/svg" xmlns:xlink="http://www.w3.org/1999/xlink">
 <defs>
  <style type="text/css">
*{stroke-linecap:butt;stroke-linejoin:round;}
  </style>
 </defs>
 <g id="figure_1">
  <g id="patch_1">
   <path d="M -0 538.345909 
L 1113.09821 538.345909 
L 1113.09821 0 
L -0 0 
z
" style="fill:#ffffff;"/>
  </g>
  <g id="axes_1">
   <g id="patch_2">
    <path d="M 106.38 239.109659 
L 1100.117231 239.109659 
L 1100.117231 45.790064 
L 106.38 45.790064 
z
" style="fill:#ffffff;"/>
   </g>
   <g id="patch_3">
    <path clip-path="url(#p8e4800d30c)" d="M 151.549874 239.109659 
L 233.676918 239.109659 
L 233.676918 238.55426 
L 151.549874 238.55426 
z
" style="fill:#b2182b;stroke:#000000;stroke-linejoin:miter;"/>
   </g>
   <g id="patch_4">
    <path clip-path="url(#p8e4800d30c)" d="M 356.867484 239.109659 
L 438.994528 239.109659 
L 438.994528 238.152733 
L 356.867484 238.152733 
z
" style="fill:#b2182b;stroke:#000000;stroke-linejoin:miter;"/>
   </g>
   <g id="patch_5">
    <path clip-path="url(#p8e4800d30c)" d="M 562.185094 239.109659 
L 644.312138 239.109659 
L 644.312138 238.406224 
L 562.185094 238.406224 
z
" style="fill:#b2182b;stroke:#000000;stroke-linejoin:miter;"/>
   </g>
   <g id="patch_6">
    <path clip-path="url(#p8e4800d30c)" d="M 767.502704 239.109659 
L 849.629747 239.109659 
L 849.629747 238.162581 
L 767.502704 238.162581 
z
" style="fill:#b2182b;stroke:#000000;stroke-linejoin:miter;"/>
   </g>
   <g id="patch_7">
    <path clip-path="url(#p8e4800d30c)" d="M 972.820313 239.109659 
L 1054.947357 239.109659 
L 1054.947357 236.386984 
L 972.820313 236.386984 
z
" style="fill:#b2182b;stroke:#000000;stroke-linejoin:miter;"/>
   </g>
   <g id="patch_8">
    <path clip-path="url(#p8e4800d30c)" d="M 151.549874 238.55426 
L 233.676918 238.55426 
L 233.676918 234.167885 
L 151.549874 234.167885 
z
" style="fill:#f4a582;stroke:#000000;stroke-linejoin:miter;"/>
   </g>
   <g id="patch_9">
    <path clip-path="url(#p8e4800d30c)" d="M 356.867484 238.152733 
L 438.994528 238.152733 
L 438.994528 231.02885 
L 356.867484 231.02885 
z
" style="fill:#f4a582;stroke:#000000;stroke-linejoin:miter;"/>
   </g>
   <g id="patch_10">
    <path clip-path="url(#p8e4800d30c)" d="M 562.185094 238.406224 
L 644.312138 238.406224 
L 644.312138 234.214752 
L 562.185094 234.214752 
z
" style="fill:#f4a582;stroke:#000000;stroke-linejoin:miter;"/>
   </g>
   <g id="patch_11">
    <path clip-path="url(#p8e4800d30c)" d="M 767.502704 238.162581 
L 849.629747 238.162581 
L 849.629747 231.177476 
L 767.502704 231.177476 
z
" style="fill:#f4a582;stroke:#000000;stroke-linejoin:miter;"/>
   </g>
   <g id="patch_12">
    <path clip-path="url(#p8e4800d30c)" d="M 972.820313 236.386984 
L 1054.947357 236.386984 
L 1054.947357 220.002223 
L 972.820313 220.002223 
z
" style="fill:#f4a582;stroke:#000000;stroke-linejoin:miter;"/>
   </g>
   <g id="patch_13">
    <path clip-path="url(#p8e4800d30c)" d="M 151.549874 234.167885 
L 233.676918 234.167885 
L 233.676918 233.609747 
L 151.549874 233.609747 
z
" style="fill:#d1e5f0;stroke:#000000;stroke-linejoin:miter;"/>
   </g>
   <g id="patch_14">
    <path clip-path="url(#p8e4800d30c)" d="M 356.867484 231.02885 
L 438.994528 231.02885 
L 438.994528 230.071361 
L 356.867484 230.071361 
z
" style="fill:#d1e5f0;stroke:#000000;stroke-linejoin:miter;"/>
   </g>
   <g id="patch_15">
    <path clip-path="url(#p8e4800d30c)" d="M 562.185094 234.214752 
L 644.312138 234.214752 
L 644.312138 233.284598 
L 562.185094 233.284598 
z
" style="fill:#d1e5f0;stroke:#000000;stroke-linejoin:miter;"/>
   </g>
   <g id="patch_16">
    <path clip-path="url(#p8e4800d30c)" d="M 767.502704 231.177476 
L 849.629747 231.177476 
L 849.629747 230.227803 
L 767.502704 230.227803 
z
" style="fill:#d1e5f0;stroke:#000000;stroke-linejoin:miter;"/>
   </g>
   <g id="patch_17">
    <path clip-path="url(#p8e4800d30c)" d="M 972.820313 220.002223 
L 1054.947357 220.002223 
L 1054.947357 217.281787 
L 972.820313 217.281787 
z
" style="fill:#d1e5f0;stroke:#000000;stroke-linejoin:miter;"/>
   </g>
   <g id="patch_18">
    <path clip-path="url(#p8e4800d30c)" d="M 151.549874 233.609747 
L 233.676918 233.609747 
L 233.676918 162.623427 
L 151.549874 162.623427 
z
" style="fill:#4393c3;stroke:#000000;stroke-linejoin:miter;"/>
   </g>
   <g id="patch_19">
    <path clip-path="url(#p8e4800d30c)" d="M 356.867484 230.071361 
L 438.994528 230.071361 
L 438.994528 60.754974 
L 356.867484 60.754974 
z
" style="fill:#4393c3;stroke:#000000;stroke-linejoin:miter;"/>
   </g>
   <g id="patch_20">
    <path clip-path="url(#p8e4800d30c)" d="M 562.185094 233.284598 
L 644.312138 233.284598 
L 644.312138 165.86457 
L 562.185094 165.86457 
z
" style="fill:#4393c3;stroke:#000000;stroke-linejoin:miter;"/>
   </g>
   <g id="patch_21">
    <path clip-path="url(#p8e4800d30c)" d="M 767.502704 230.227803 
L 849.629747 230.227803 
L 849.629747 139.597732 
L 767.502704 139.597732 
z
" style="fill:#4393c3;stroke:#000000;stroke-linejoin:miter;"/>
   </g>
   <g id="patch_22">
    <path clip-path="url(#p8e4800d30c)" d="M 972.820313 217.281787 
L 1054.947357 217.281787 
L 1054.947357 62.387116 
L 972.820313 62.387116 
z
" style="fill:#4393c3;stroke:#000000;stroke-linejoin:miter;"/>
   </g>
   <g id="matplotlib.axis_1">
    <g id="xtick_1">
     <g id="line2d_1">
      <defs>
       <path d="M 0 0 
L 0 3.5 
" id="m1c2471ce85" style="stroke:#000000;stroke-width:0.8;"/>
      </defs>
      <g>
       <use style="stroke:#000000;stroke-width:0.8;" x="192.613396" xlink:href="#m1c2471ce85" y="239.109659"/>
      </g>
     </g>
     <g id="text_1">
      <!-- Dense(bsz=1) -->
      <defs>
       <path d="M 19.671875 64.796875 
L 19.671875 8.109375 
L 31.59375 8.109375 
Q 46.6875 8.109375 53.6875 14.9375 
Q 60.6875 21.78125 60.6875 36.53125 
Q 60.6875 51.171875 53.6875 57.984375 
Q 46.6875 64.796875 31.59375 64.796875 
z
M 9.8125 72.90625 
L 30.078125 72.90625 
Q 51.265625 72.90625 61.171875 64.09375 
Q 71.09375 55.28125 71.09375 36.53125 
Q 71.09375 17.671875 61.125 8.828125 
Q 51.171875 0 30.078125 0 
L 9.8125 0 
z
" id="DejaVuSans-68"/>
       <path d="M 56.203125 29.59375 
L 56.203125 25.203125 
L 14.890625 25.203125 
Q 15.484375 15.921875 20.484375 11.0625 
Q 25.484375 6.203125 34.421875 6.203125 
Q 39.59375 6.203125 44.453125 7.46875 
Q 49.3125 8.734375 54.109375 11.28125 
L 54.109375 2.78125 
Q 49.265625 0.734375 44.1875 -0.34375 
Q 39.109375 -1.421875 33.890625 -1.421875 
Q 20.796875 -1.421875 13.15625 6.1875 
Q 5.515625 13.8125 5.515625 26.8125 
Q 5.515625 40.234375 12.765625 48.109375 
Q 20.015625 56 32.328125 56 
Q 43.359375 56 49.78125 48.890625 
Q 56.203125 41.796875 56.203125 29.59375 
z
M 47.21875 32.234375 
Q 47.125 39.59375 43.09375 43.984375 
Q 39.0625 48.390625 32.421875 48.390625 
Q 24.90625 48.390625 20.390625 44.140625 
Q 15.875 39.890625 15.1875 32.171875 
z
" id="DejaVuSans-101"/>
       <path d="M 54.890625 33.015625 
L 54.890625 0 
L 45.90625 0 
L 45.90625 32.71875 
Q 45.90625 40.484375 42.875 44.328125 
Q 39.84375 48.1875 33.796875 48.1875 
Q 26.515625 48.1875 22.3125 43.546875 
Q 18.109375 38.921875 18.109375 30.90625 
L 18.109375 0 
L 9.078125 0 
L 9.078125 54.6875 
L 18.109375 54.6875 
L 18.109375 46.1875 
Q 21.34375 51.125 25.703125 53.5625 
Q 30.078125 56 35.796875 56 
Q 45.21875 56 50.046875 50.171875 
Q 54.890625 44.34375 54.890625 33.015625 
z
" id="DejaVuSans-110"/>
       <path d="M 44.28125 53.078125 
L 44.28125 44.578125 
Q 40.484375 46.53125 36.375 47.5 
Q 32.28125 48.484375 27.875 48.484375 
Q 21.1875 48.484375 17.84375 46.4375 
Q 14.5 44.390625 14.5 40.28125 
Q 14.5 37.15625 16.890625 35.375 
Q 19.28125 33.59375 26.515625 31.984375 
L 29.59375 31.296875 
Q 39.15625 29.25 43.1875 25.515625 
Q 47.21875 21.78125 47.21875 15.09375 
Q 47.21875 7.46875 41.1875 3.015625 
Q 35.15625 -1.421875 24.609375 -1.421875 
Q 20.21875 -1.421875 15.453125 -0.5625 
Q 10.6875 0.296875 5.421875 2 
L 5.421875 11.28125 
Q 10.40625 8.6875 15.234375 7.390625 
Q 20.0625 6.109375 24.8125 6.109375 
Q 31.15625 6.109375 34.5625 8.28125 
Q 37.984375 10.453125 37.984375 14.40625 
Q 37.984375 18.0625 35.515625 20.015625 
Q 33.0625 21.96875 24.703125 23.78125 
L 21.578125 24.515625 
Q 13.234375 26.265625 9.515625 29.90625 
Q 5.8125 33.546875 5.8125 39.890625 
Q 5.8125 47.609375 11.28125 51.796875 
Q 16.75 56 26.8125 56 
Q 31.78125 56 36.171875 55.265625 
Q 40.578125 54.546875 44.28125 53.078125 
z
" id="DejaVuSans-115"/>
       <path d="M 31 75.875 
Q 24.46875 64.65625 21.28125 53.65625 
Q 18.109375 42.671875 18.109375 31.390625 
Q 18.109375 20.125 21.3125 9.0625 
Q 24.515625 -2 31 -13.1875 
L 23.1875 -13.1875 
Q 15.875 -1.703125 12.234375 9.375 
Q 8.59375 20.453125 8.59375 31.390625 
Q 8.59375 42.28125 12.203125 53.3125 
Q 15.828125 64.359375 23.1875 75.875 
z
" id="DejaVuSans-40"/>
       <path d="M 48.6875 27.296875 
Q 48.6875 37.203125 44.609375 42.84375 
Q 40.53125 48.484375 33.40625 48.484375 
Q 26.265625 48.484375 22.1875 42.84375 
Q 18.109375 37.203125 18.109375 27.296875 
Q 18.109375 17.390625 22.1875 11.75 
Q 26.265625 6.109375 33.40625 6.109375 
Q 40.53125 6.109375 44.609375 11.75 
Q 48.6875 17.390625 48.6875 27.296875 
z
M 18.109375 46.390625 
Q 20.953125 51.265625 25.265625 53.625 
Q 29.59375 56 35.59375 56 
Q 45.5625 56 51.78125 48.09375 
Q 58.015625 40.1875 58.015625 27.296875 
Q 58.015625 14.40625 51.78125 6.484375 
Q 45.5625 -1.421875 35.59375 -1.421875 
Q 29.59375 -1.421875 25.265625 0.953125 
Q 20.953125 3.328125 18.109375 8.203125 
L 18.109375 0 
L 9.078125 0 
L 9.078125 75.984375 
L 18.109375 75.984375 
z
" id="DejaVuSans-98"/>
       <path d="M 5.515625 54.6875 
L 48.1875 54.6875 
L 48.1875 46.484375 
L 14.40625 7.171875 
L 48.1875 7.171875 
L 48.1875 0 
L 4.296875 0 
L 4.296875 8.203125 
L 38.09375 47.515625 
L 5.515625 47.515625 
z
" id="DejaVuSans-122"/>
       <path d="M 10.59375 45.40625 
L 73.1875 45.40625 
L 73.1875 37.203125 
L 10.59375 37.203125 
z
M 10.59375 25.484375 
L 73.1875 25.484375 
L 73.1875 17.1875 
L 10.59375 17.1875 
z
" id="DejaVuSans-61"/>
       <path d="M 12.40625 8.296875 
L 28.515625 8.296875 
L 28.515625 63.921875 
L 10.984375 60.40625 
L 10.984375 69.390625 
L 28.421875 72.90625 
L 38.28125 72.90625 
L 38.28125 8.296875 
L 54.390625 8.296875 
L 54.390625 0 
L 12.40625 0 
z
" id="DejaVuSans-49"/>
       <path d="M 8.015625 75.875 
L 15.828125 75.875 
Q 23.140625 64.359375 26.78125 53.3125 
Q 30.421875 42.28125 30.421875 31.390625 
Q 30.421875 20.453125 26.78125 9.375 
Q 23.140625 -1.703125 15.828125 -13.1875 
L 8.015625 -13.1875 
Q 14.5 -2 17.703125 9.0625 
Q 20.90625 20.125 20.90625 31.390625 
Q 20.90625 42.671875 17.703125 53.65625 
Q 14.5 64.65625 8.015625 75.875 
z
" id="DejaVuSans-41"/>
      </defs>
      <g transform="translate(111.073005 263.586065)scale(0.23 -0.23)">
       <use xlink:href="#DejaVuSans-68"/>
       <use x="77.001953" xlink:href="#DejaVuSans-101"/>
       <use x="138.525391" xlink:href="#DejaVuSans-110"/>
       <use x="201.904297" xlink:href="#DejaVuSans-115"/>
       <use x="254.003906" xlink:href="#DejaVuSans-101"/>
       <use x="315.527344" xlink:href="#DejaVuSans-40"/>
       <use x="354.541016" xlink:href="#DejaVuSans-98"/>
       <use x="418.017578" xlink:href="#DejaVuSans-115"/>
       <use x="470.117188" xlink:href="#DejaVuSans-122"/>
       <use x="522.607422" xlink:href="#DejaVuSans-61"/>
       <use x="606.396484" xlink:href="#DejaVuSans-49"/>
       <use x="670.019531" xlink:href="#DejaVuSans-41"/>
      </g>
     </g>
    </g>
    <g id="xtick_2">
     <g id="line2d_2">
      <g>
       <use style="stroke:#000000;stroke-width:0.8;" x="397.931006" xlink:href="#m1c2471ce85" y="239.109659"/>
      </g>
     </g>
     <g id="text_2">
      <!-- Dense(bsz=10) -->
      <defs>
       <path d="M 31.78125 66.40625 
Q 24.171875 66.40625 20.328125 58.90625 
Q 16.5 51.421875 16.5 36.375 
Q 16.5 21.390625 20.328125 13.890625 
Q 24.171875 6.390625 31.78125 6.390625 
Q 39.453125 6.390625 43.28125 13.890625 
Q 47.125 21.390625 47.125 36.375 
Q 47.125 51.421875 43.28125 58.90625 
Q 39.453125 66.40625 31.78125 66.40625 
z
M 31.78125 74.21875 
Q 44.046875 74.21875 50.515625 64.515625 
Q 56.984375 54.828125 56.984375 36.375 
Q 56.984375 17.96875 50.515625 8.265625 
Q 44.046875 -1.421875 31.78125 -1.421875 
Q 19.53125 -1.421875 13.0625 8.265625 
Q 6.59375 17.96875 6.59375 36.375 
Q 6.59375 54.828125 13.0625 64.515625 
Q 19.53125 74.21875 31.78125 74.21875 
z
" id="DejaVuSans-48"/>
      </defs>
      <g transform="translate(309.07374 263.586065)scale(0.23 -0.23)">
       <use xlink:href="#DejaVuSans-68"/>
       <use x="77.001953" xlink:href="#DejaVuSans-101"/>
       <use x="138.525391" xlink:href="#DejaVuSans-110"/>
       <use x="201.904297" xlink:href="#DejaVuSans-115"/>
       <use x="254.003906" xlink:href="#DejaVuSans-101"/>
       <use x="315.527344" xlink:href="#DejaVuSans-40"/>
       <use x="354.541016" xlink:href="#DejaVuSans-98"/>
       <use x="418.017578" xlink:href="#DejaVuSans-115"/>
       <use x="470.117188" xlink:href="#DejaVuSans-122"/>
       <use x="522.607422" xlink:href="#DejaVuSans-61"/>
       <use x="606.396484" xlink:href="#DejaVuSans-49"/>
       <use x="670.019531" xlink:href="#DejaVuSans-48"/>
       <use x="733.642578" xlink:href="#DejaVuSans-41"/>
      </g>
     </g>
    </g>
    <g id="xtick_3">
     <g id="line2d_3">
      <g>
       <use style="stroke:#000000;stroke-width:0.8;" x="603.248616" xlink:href="#m1c2471ce85" y="239.109659"/>
      </g>
     </g>
     <g id="text_3">
      <!-- Sparse(bsz=1) -->
      <defs>
       <path d="M 53.515625 70.515625 
L 53.515625 60.890625 
Q 47.90625 63.578125 42.921875 64.890625 
Q 37.9375 66.21875 33.296875 66.21875 
Q 25.25 66.21875 20.875 63.09375 
Q 16.5 59.96875 16.5 54.203125 
Q 16.5 49.359375 19.40625 46.890625 
Q 22.3125 44.4375 30.421875 42.921875 
L 36.375 41.703125 
Q 47.40625 39.59375 52.65625 34.296875 
Q 57.90625 29 57.90625 20.125 
Q 57.90625 9.515625 50.796875 4.046875 
Q 43.703125 -1.421875 29.984375 -1.421875 
Q 24.8125 -1.421875 18.96875 -0.25 
Q 13.140625 0.921875 6.890625 3.21875 
L 6.890625 13.375 
Q 12.890625 10.015625 18.65625 8.296875 
Q 24.421875 6.59375 29.984375 6.59375 
Q 38.421875 6.59375 43.015625 9.90625 
Q 47.609375 13.234375 47.609375 19.390625 
Q 47.609375 24.75 44.3125 27.78125 
Q 41.015625 30.8125 33.5 32.328125 
L 27.484375 33.5 
Q 16.453125 35.6875 11.515625 40.375 
Q 6.59375 45.0625 6.59375 53.421875 
Q 6.59375 63.09375 13.40625 68.65625 
Q 20.21875 74.21875 32.171875 74.21875 
Q 37.3125 74.21875 42.625 73.28125 
Q 47.953125 72.359375 53.515625 70.515625 
z
" id="DejaVuSans-83"/>
       <path d="M 18.109375 8.203125 
L 18.109375 -20.796875 
L 9.078125 -20.796875 
L 9.078125 54.6875 
L 18.109375 54.6875 
L 18.109375 46.390625 
Q 20.953125 51.265625 25.265625 53.625 
Q 29.59375 56 35.59375 56 
Q 45.5625 56 51.78125 48.09375 
Q 58.015625 40.1875 58.015625 27.296875 
Q 58.015625 14.40625 51.78125 6.484375 
Q 45.5625 -1.421875 35.59375 -1.421875 
Q 29.59375 -1.421875 25.265625 0.953125 
Q 20.953125 3.328125 18.109375 8.203125 
z
M 48.6875 27.296875 
Q 48.6875 37.203125 44.609375 42.84375 
Q 40.53125 48.484375 33.40625 48.484375 
Q 26.265625 48.484375 22.1875 42.84375 
Q 18.109375 37.203125 18.109375 27.296875 
Q 18.109375 17.390625 22.1875 11.75 
Q 26.265625 6.109375 33.40625 6.109375 
Q 40.53125 6.109375 44.609375 11.75 
Q 48.6875 17.390625 48.6875 27.296875 
z
" id="DejaVuSans-112"/>
       <path d="M 34.28125 27.484375 
Q 23.390625 27.484375 19.1875 25 
Q 14.984375 22.515625 14.984375 16.5 
Q 14.984375 11.71875 18.140625 8.90625 
Q 21.296875 6.109375 26.703125 6.109375 
Q 34.1875 6.109375 38.703125 11.40625 
Q 43.21875 16.703125 43.21875 25.484375 
L 43.21875 27.484375 
z
M 52.203125 31.203125 
L 52.203125 0 
L 43.21875 0 
L 43.21875 8.296875 
Q 40.140625 3.328125 35.546875 0.953125 
Q 30.953125 -1.421875 24.3125 -1.421875 
Q 15.921875 -1.421875 10.953125 3.296875 
Q 6 8.015625 6 15.921875 
Q 6 25.140625 12.171875 29.828125 
Q 18.359375 34.515625 30.609375 34.515625 
L 43.21875 34.515625 
L 43.21875 35.40625 
Q 43.21875 41.609375 39.140625 45 
Q 35.0625 48.390625 27.6875 48.390625 
Q 23 48.390625 18.546875 47.265625 
Q 14.109375 46.140625 10.015625 43.890625 
L 10.015625 52.203125 
Q 14.9375 54.109375 19.578125 55.046875 
Q 24.21875 56 28.609375 56 
Q 40.484375 56 46.34375 49.84375 
Q 52.203125 43.703125 52.203125 31.203125 
z
" id="DejaVuSans-97"/>
       <path d="M 41.109375 46.296875 
Q 39.59375 47.171875 37.8125 47.578125 
Q 36.03125 48 33.890625 48 
Q 26.265625 48 22.1875 43.046875 
Q 18.109375 38.09375 18.109375 28.8125 
L 18.109375 0 
L 9.078125 0 
L 9.078125 54.6875 
L 18.109375 54.6875 
L 18.109375 46.1875 
Q 20.953125 51.171875 25.484375 53.578125 
Q 30.03125 56 36.53125 56 
Q 37.453125 56 38.578125 55.875 
Q 39.703125 55.765625 41.0625 55.515625 
z
" id="DejaVuSans-114"/>
      </defs>
      <g transform="translate(518.551116 263.586065)scale(0.23 -0.23)">
       <use xlink:href="#DejaVuSans-83"/>
       <use x="63.476562" xlink:href="#DejaVuSans-112"/>
       <use x="126.953125" xlink:href="#DejaVuSans-97"/>
       <use x="188.232422" xlink:href="#DejaVuSans-114"/>
       <use x="229.345703" xlink:href="#DejaVuSans-115"/>
       <use x="281.445312" xlink:href="#DejaVuSans-101"/>
       <use x="342.96875" xlink:href="#DejaVuSans-40"/>
       <use x="381.982422" xlink:href="#DejaVuSans-98"/>
       <use x="445.458984" xlink:href="#DejaVuSans-115"/>
       <use x="497.558594" xlink:href="#DejaVuSans-122"/>
       <use x="550.048828" xlink:href="#DejaVuSans-61"/>
       <use x="633.837891" xlink:href="#DejaVuSans-49"/>
       <use x="697.460938" xlink:href="#DejaVuSans-41"/>
      </g>
     </g>
    </g>
    <g id="xtick_4">
     <g id="line2d_4">
      <g>
       <use style="stroke:#000000;stroke-width:0.8;" x="808.566225" xlink:href="#m1c2471ce85" y="239.109659"/>
      </g>
     </g>
     <g id="text_4">
      <!-- Sparse(bsz=10) -->
      <g transform="translate(716.55185 263.586065)scale(0.23 -0.23)">
       <use xlink:href="#DejaVuSans-83"/>
       <use x="63.476562" xlink:href="#DejaVuSans-112"/>
       <use x="126.953125" xlink:href="#DejaVuSans-97"/>
       <use x="188.232422" xlink:href="#DejaVuSans-114"/>
       <use x="229.345703" xlink:href="#DejaVuSans-115"/>
       <use x="281.445312" xlink:href="#DejaVuSans-101"/>
       <use x="342.96875" xlink:href="#DejaVuSans-40"/>
       <use x="381.982422" xlink:href="#DejaVuSans-98"/>
       <use x="445.458984" xlink:href="#DejaVuSans-115"/>
       <use x="497.558594" xlink:href="#DejaVuSans-122"/>
       <use x="550.048828" xlink:href="#DejaVuSans-61"/>
       <use x="633.837891" xlink:href="#DejaVuSans-49"/>
       <use x="697.460938" xlink:href="#DejaVuSans-48"/>
       <use x="761.083984" xlink:href="#DejaVuSans-41"/>
      </g>
     </g>
    </g>
    <g id="xtick_5">
     <g id="line2d_5">
      <g>
       <use style="stroke:#000000;stroke-width:0.8;" x="1013.883835" xlink:href="#m1c2471ce85" y="239.109659"/>
      </g>
     </g>
     <g id="text_5">
      <!-- Sparse(bsz=32) -->
      <defs>
       <path d="M 40.578125 39.3125 
Q 47.65625 37.796875 51.625 33 
Q 55.609375 28.21875 55.609375 21.1875 
Q 55.609375 10.40625 48.1875 4.484375 
Q 40.765625 -1.421875 27.09375 -1.421875 
Q 22.515625 -1.421875 17.65625 -0.515625 
Q 12.796875 0.390625 7.625 2.203125 
L 7.625 11.71875 
Q 11.71875 9.328125 16.59375 8.109375 
Q 21.484375 6.890625 26.8125 6.890625 
Q 36.078125 6.890625 40.9375 10.546875 
Q 45.796875 14.203125 45.796875 21.1875 
Q 45.796875 27.640625 41.28125 31.265625 
Q 36.765625 34.90625 28.71875 34.90625 
L 20.21875 34.90625 
L 20.21875 43.015625 
L 29.109375 43.015625 
Q 36.375 43.015625 40.234375 45.921875 
Q 44.09375 48.828125 44.09375 54.296875 
Q 44.09375 59.90625 40.109375 62.90625 
Q 36.140625 65.921875 28.71875 65.921875 
Q 24.65625 65.921875 20.015625 65.03125 
Q 15.375 64.15625 9.8125 62.3125 
L 9.8125 71.09375 
Q 15.4375 72.65625 20.34375 73.4375 
Q 25.25 74.21875 29.59375 74.21875 
Q 40.828125 74.21875 47.359375 69.109375 
Q 53.90625 64.015625 53.90625 55.328125 
Q 53.90625 49.265625 50.4375 45.09375 
Q 46.96875 40.921875 40.578125 39.3125 
z
" id="DejaVuSans-51"/>
       <path d="M 19.1875 8.296875 
L 53.609375 8.296875 
L 53.609375 0 
L 7.328125 0 
L 7.328125 8.296875 
Q 12.9375 14.109375 22.625 23.890625 
Q 32.328125 33.6875 34.8125 36.53125 
Q 39.546875 41.84375 41.421875 45.53125 
Q 43.3125 49.21875 43.3125 52.78125 
Q 43.3125 58.59375 39.234375 62.25 
Q 35.15625 65.921875 28.609375 65.921875 
Q 23.96875 65.921875 18.8125 64.3125 
Q 13.671875 62.703125 7.8125 59.421875 
L 7.8125 69.390625 
Q 13.765625 71.78125 18.9375 73 
Q 24.125 74.21875 28.421875 74.21875 
Q 39.75 74.21875 46.484375 68.546875 
Q 53.21875 62.890625 53.21875 53.421875 
Q 53.21875 48.921875 51.53125 44.890625 
Q 49.859375 40.875 45.40625 35.40625 
Q 44.1875 33.984375 37.640625 27.21875 
Q 31.109375 20.453125 19.1875 8.296875 
z
" id="DejaVuSans-50"/>
      </defs>
      <g transform="translate(921.86946 263.586065)scale(0.23 -0.23)">
       <use xlink:href="#DejaVuSans-83"/>
       <use x="63.476562" xlink:href="#DejaVuSans-112"/>
       <use x="126.953125" xlink:href="#DejaVuSans-97"/>
       <use x="188.232422" xlink:href="#DejaVuSans-114"/>
       <use x="229.345703" xlink:href="#DejaVuSans-115"/>
       <use x="281.445312" xlink:href="#DejaVuSans-101"/>
       <use x="342.96875" xlink:href="#DejaVuSans-40"/>
       <use x="381.982422" xlink:href="#DejaVuSans-98"/>
       <use x="445.458984" xlink:href="#DejaVuSans-115"/>
       <use x="497.558594" xlink:href="#DejaVuSans-122"/>
       <use x="550.048828" xlink:href="#DejaVuSans-61"/>
       <use x="633.837891" xlink:href="#DejaVuSans-51"/>
       <use x="697.460938" xlink:href="#DejaVuSans-50"/>
       <use x="761.083984" xlink:href="#DejaVuSans-41"/>
      </g>
     </g>
    </g>
   </g>
   <g id="matplotlib.axis_2">
    <g id="ytick_1">
     <g id="line2d_6">
      <defs>
       <path d="M 0 0 
L -3.5 0 
" id="mc687d32e34" style="stroke:#000000;stroke-width:0.8;"/>
      </defs>
      <g>
       <use style="stroke:#000000;stroke-width:0.8;" x="106.38" xlink:href="#mc687d32e34" y="239.109659"/>
      </g>
     </g>
     <g id="text_6">
      <!-- 0.0 -->
      <defs>
       <path d="M 10.6875 12.40625 
L 21 12.40625 
L 21 0 
L 10.6875 0 
z
" id="DejaVuSans-46"/>
      </defs>
      <g transform="translate(62.802812 247.847862)scale(0.23 -0.23)">
       <use xlink:href="#DejaVuSans-48"/>
       <use x="63.623047" xlink:href="#DejaVuSans-46"/>
       <use x="95.410156" xlink:href="#DejaVuSans-48"/>
      </g>
     </g>
    </g>
    <g id="ytick_2">
     <g id="line2d_7">
      <g>
       <use style="stroke:#000000;stroke-width:0.8;" x="106.38" xlink:href="#mc687d32e34" y="201.932814"/>
      </g>
     </g>
     <g id="text_7">
      <!-- 1.0 -->
      <g transform="translate(62.802812 210.671017)scale(0.23 -0.23)">
       <use xlink:href="#DejaVuSans-49"/>
       <use x="63.623047" xlink:href="#DejaVuSans-46"/>
       <use x="95.410156" xlink:href="#DejaVuSans-48"/>
      </g>
     </g>
    </g>
    <g id="ytick_3">
     <g id="line2d_8">
      <g>
       <use style="stroke:#000000;stroke-width:0.8;" x="106.38" xlink:href="#mc687d32e34" y="164.755969"/>
      </g>
     </g>
     <g id="text_8">
      <!-- 2.0 -->
      <g transform="translate(62.802812 173.494172)scale(0.23 -0.23)">
       <use xlink:href="#DejaVuSans-50"/>
       <use x="63.623047" xlink:href="#DejaVuSans-46"/>
       <use x="95.410156" xlink:href="#DejaVuSans-48"/>
      </g>
     </g>
    </g>
    <g id="ytick_4">
     <g id="line2d_9">
      <g>
       <use style="stroke:#000000;stroke-width:0.8;" x="106.38" xlink:href="#mc687d32e34" y="127.579123"/>
      </g>
     </g>
     <g id="text_9">
      <!-- 3.0 -->
      <g transform="translate(62.802812 136.317327)scale(0.23 -0.23)">
       <use xlink:href="#DejaVuSans-51"/>
       <use x="63.623047" xlink:href="#DejaVuSans-46"/>
       <use x="95.410156" xlink:href="#DejaVuSans-48"/>
      </g>
     </g>
    </g>
    <g id="ytick_5">
     <g id="line2d_10">
      <g>
       <use style="stroke:#000000;stroke-width:0.8;" x="106.38" xlink:href="#mc687d32e34" y="90.402278"/>
      </g>
     </g>
     <g id="text_10">
      <!-- 4.0 -->
      <defs>
       <path d="M 37.796875 64.3125 
L 12.890625 25.390625 
L 37.796875 25.390625 
z
M 35.203125 72.90625 
L 47.609375 72.90625 
L 47.609375 25.390625 
L 58.015625 25.390625 
L 58.015625 17.1875 
L 47.609375 17.1875 
L 47.609375 0 
L 37.796875 0 
L 37.796875 17.1875 
L 4.890625 17.1875 
L 4.890625 26.703125 
z
" id="DejaVuSans-52"/>
      </defs>
      <g transform="translate(62.802812 99.140481)scale(0.23 -0.23)">
       <use xlink:href="#DejaVuSans-52"/>
       <use x="63.623047" xlink:href="#DejaVuSans-46"/>
       <use x="95.410156" xlink:href="#DejaVuSans-48"/>
      </g>
     </g>
    </g>
    <g id="ytick_6">
     <g id="line2d_11">
      <g>
       <use style="stroke:#000000;stroke-width:0.8;" x="106.38" xlink:href="#mc687d32e34" y="53.225433"/>
      </g>
     </g>
     <g id="text_11">
      <!-- 5.0 -->
      <defs>
       <path d="M 10.796875 72.90625 
L 49.515625 72.90625 
L 49.515625 64.59375 
L 19.828125 64.59375 
L 19.828125 46.734375 
Q 21.96875 47.46875 24.109375 47.828125 
Q 26.265625 48.1875 28.421875 48.1875 
Q 40.625 48.1875 47.75 41.5 
Q 54.890625 34.8125 54.890625 23.390625 
Q 54.890625 11.625 47.5625 5.09375 
Q 40.234375 -1.421875 26.90625 -1.421875 
Q 22.3125 -1.421875 17.546875 -0.640625 
Q 12.796875 0.140625 7.71875 1.703125 
L 7.71875 11.625 
Q 12.109375 9.234375 16.796875 8.0625 
Q 21.484375 6.890625 26.703125 6.890625 
Q 35.15625 6.890625 40.078125 11.328125 
Q 45.015625 15.765625 45.015625 23.390625 
Q 45.015625 31 40.078125 35.4375 
Q 35.15625 39.890625 26.703125 39.890625 
Q 22.75 39.890625 18.8125 39.015625 
Q 14.890625 38.140625 10.796875 36.28125 
z
" id="DejaVuSans-53"/>
      </defs>
      <g transform="translate(62.802812 61.963636)scale(0.23 -0.23)">
       <use xlink:href="#DejaVuSans-53"/>
       <use x="63.623047" xlink:href="#DejaVuSans-46"/>
       <use x="95.410156" xlink:href="#DejaVuSans-48"/>
      </g>
     </g>
    </g>
   </g>
   <g id="line2d_12">
    <path clip-path="url(#p8e4800d30c)" d="M 106.38 201.932814 
L 1100.117231 201.932814 
" style="fill:none;stroke:#808080;stroke-dasharray:5.55,2.4;stroke-dashoffset:0;stroke-width:1.5;"/>
   </g>
   <g id="line2d_13">
    <path clip-path="url(#p8e4800d30c)" d="M 106.38 164.755969 
L 1100.117231 164.755969 
" style="fill:none;stroke:#808080;stroke-dasharray:5.55,2.4;stroke-dashoffset:0;stroke-width:1.5;"/>
   </g>
   <g id="line2d_14">
    <path clip-path="url(#p8e4800d30c)" d="M 106.38 127.579123 
L 1100.117231 127.579123 
" style="fill:none;stroke:#808080;stroke-dasharray:5.55,2.4;stroke-dashoffset:0;stroke-width:1.5;"/>
   </g>
   <g id="line2d_15">
    <path clip-path="url(#p8e4800d30c)" d="M 106.38 90.402278 
L 1100.117231 90.402278 
" style="fill:none;stroke:#808080;stroke-dasharray:5.55,2.4;stroke-dashoffset:0;stroke-width:1.5;"/>
   </g>
   <g id="line2d_16">
    <path clip-path="url(#p8e4800d30c)" d="M 106.38 53.225433 
L 1100.117231 53.225433 
" style="fill:none;stroke:#808080;stroke-dasharray:5.55,2.4;stroke-dashoffset:0;stroke-width:1.5;"/>
   </g>
   <g id="patch_23">
    <path d="M 106.38 239.109659 
L 106.38 45.790064 
" style="fill:none;stroke:#000000;stroke-linecap:square;stroke-linejoin:miter;stroke-width:0.8;"/>
   </g>
   <g id="patch_24">
    <path d="M 1100.117231 239.109659 
L 1100.117231 45.790064 
" style="fill:none;stroke:#000000;stroke-linecap:square;stroke-linejoin:miter;stroke-width:0.8;"/>
   </g>
   <g id="patch_25">
    <path d="M 106.38 239.109659 
L 1100.117231 239.109659 
" style="fill:none;stroke:#000000;stroke-linecap:square;stroke-linejoin:miter;stroke-width:0.8;"/>
   </g>
   <g id="patch_26">
    <path d="M 106.38 45.790064 
L 1100.117231 45.790064 
" style="fill:none;stroke:#000000;stroke-linecap:square;stroke-linejoin:miter;stroke-width:0.8;"/>
   </g>
   <g id="legend_1">
    <g id="patch_27">
     <path d="M 140.539496 42.55625 
L 1026.208246 42.55625 
Q 1030.208246 42.55625 1030.208246 38.55625 
L 1030.208246 11.2 
Q 1030.208246 7.2 1026.208246 7.2 
L 140.539496 7.2 
Q 136.539496 7.2 136.539496 11.2 
L 136.539496 38.55625 
Q 136.539496 42.55625 140.539496 42.55625 
z
" style="fill:#ffffff;opacity:0.8;stroke:#cccccc;stroke-linejoin:miter;"/>
    </g>
    <g id="patch_28">
     <path d="M 144.539496 30.396875 
L 184.539496 30.396875 
L 184.539496 16.396875 
L 144.539496 16.396875 
z
" style="fill:#b2182b;stroke:#000000;stroke-linejoin:miter;"/>
    </g>
    <g id="text_12">
     <!-- Input normalization -->
     <defs>
      <path d="M 9.8125 72.90625 
L 19.671875 72.90625 
L 19.671875 0 
L 9.8125 0 
z
" id="DejaVuSans-73"/>
      <path d="M 8.5 21.578125 
L 8.5 54.6875 
L 17.484375 54.6875 
L 17.484375 21.921875 
Q 17.484375 14.15625 20.5 10.265625 
Q 23.53125 6.390625 29.59375 6.390625 
Q 36.859375 6.390625 41.078125 11.03125 
Q 45.3125 15.671875 45.3125 23.6875 
L 45.3125 54.6875 
L 54.296875 54.6875 
L 54.296875 0 
L 45.3125 0 
L 45.3125 8.40625 
Q 42.046875 3.421875 37.71875 1 
Q 33.40625 -1.421875 27.6875 -1.421875 
Q 18.265625 -1.421875 13.375 4.4375 
Q 8.5 10.296875 8.5 21.578125 
z
M 31.109375 56 
z
" id="DejaVuSans-117"/>
      <path d="M 18.3125 70.21875 
L 18.3125 54.6875 
L 36.8125 54.6875 
L 36.8125 47.703125 
L 18.3125 47.703125 
L 18.3125 18.015625 
Q 18.3125 11.328125 20.140625 9.421875 
Q 21.96875 7.515625 27.59375 7.515625 
L 36.8125 7.515625 
L 36.8125 0 
L 27.59375 0 
Q 17.1875 0 13.234375 3.875 
Q 9.28125 7.765625 9.28125 18.015625 
L 9.28125 47.703125 
L 2.6875 47.703125 
L 2.6875 54.6875 
L 9.28125 54.6875 
L 9.28125 70.21875 
z
" id="DejaVuSans-116"/>
      <path id="DejaVuSans-32"/>
      <path d="M 30.609375 48.390625 
Q 23.390625 48.390625 19.1875 42.75 
Q 14.984375 37.109375 14.984375 27.296875 
Q 14.984375 17.484375 19.15625 11.84375 
Q 23.34375 6.203125 30.609375 6.203125 
Q 37.796875 6.203125 41.984375 11.859375 
Q 46.1875 17.53125 46.1875 27.296875 
Q 46.1875 37.015625 41.984375 42.703125 
Q 37.796875 48.390625 30.609375 48.390625 
z
M 30.609375 56 
Q 42.328125 56 49.015625 48.375 
Q 55.71875 40.765625 55.71875 27.296875 
Q 55.71875 13.875 49.015625 6.21875 
Q 42.328125 -1.421875 30.609375 -1.421875 
Q 18.84375 -1.421875 12.171875 6.21875 
Q 5.515625 13.875 5.515625 27.296875 
Q 5.515625 40.765625 12.171875 48.375 
Q 18.84375 56 30.609375 56 
z
" id="DejaVuSans-111"/>
      <path d="M 52 44.1875 
Q 55.375 50.25 60.0625 53.125 
Q 64.75 56 71.09375 56 
Q 79.640625 56 84.28125 50.015625 
Q 88.921875 44.046875 88.921875 33.015625 
L 88.921875 0 
L 79.890625 0 
L 79.890625 32.71875 
Q 79.890625 40.578125 77.09375 44.375 
Q 74.3125 48.1875 68.609375 48.1875 
Q 61.625 48.1875 57.5625 43.546875 
Q 53.515625 38.921875 53.515625 30.90625 
L 53.515625 0 
L 44.484375 0 
L 44.484375 32.71875 
Q 44.484375 40.625 41.703125 44.40625 
Q 38.921875 48.1875 33.109375 48.1875 
Q 26.21875 48.1875 22.15625 43.53125 
Q 18.109375 38.875 18.109375 30.90625 
L 18.109375 0 
L 9.078125 0 
L 9.078125 54.6875 
L 18.109375 54.6875 
L 18.109375 46.1875 
Q 21.1875 51.21875 25.484375 53.609375 
Q 29.78125 56 35.6875 56 
Q 41.65625 56 45.828125 52.96875 
Q 50 49.953125 52 44.1875 
z
" id="DejaVuSans-109"/>
      <path d="M 9.421875 75.984375 
L 18.40625 75.984375 
L 18.40625 0 
L 9.421875 0 
z
" id="DejaVuSans-108"/>
      <path d="M 9.421875 54.6875 
L 18.40625 54.6875 
L 18.40625 0 
L 9.421875 0 
z
M 9.421875 75.984375 
L 18.40625 75.984375 
L 18.40625 64.59375 
L 9.421875 64.59375 
z
" id="DejaVuSans-105"/>
     </defs>
     <g transform="translate(200.539496 30.396875)scale(0.2 -0.2)">
      <use xlink:href="#DejaVuSans-73"/>
      <use x="29.492188" xlink:href="#DejaVuSans-110"/>
      <use x="92.871094" xlink:href="#DejaVuSans-112"/>
      <use x="156.347656" xlink:href="#DejaVuSans-117"/>
      <use x="219.726562" xlink:href="#DejaVuSans-116"/>
      <use x="258.935547" xlink:href="#DejaVuSans-32"/>
      <use x="290.722656" xlink:href="#DejaVuSans-110"/>
      <use x="354.101562" xlink:href="#DejaVuSans-111"/>
      <use x="415.283203" xlink:href="#DejaVuSans-114"/>
      <use x="454.646484" xlink:href="#DejaVuSans-109"/>
      <use x="552.058594" xlink:href="#DejaVuSans-97"/>
      <use x="613.337891" xlink:href="#DejaVuSans-108"/>
      <use x="641.121094" xlink:href="#DejaVuSans-105"/>
      <use x="668.904297" xlink:href="#DejaVuSans-122"/>
      <use x="721.394531" xlink:href="#DejaVuSans-97"/>
      <use x="782.673828" xlink:href="#DejaVuSans-116"/>
      <use x="821.882812" xlink:href="#DejaVuSans-105"/>
      <use x="849.666016" xlink:href="#DejaVuSans-111"/>
      <use x="910.847656" xlink:href="#DejaVuSans-110"/>
     </g>
    </g>
    <g id="patch_29">
     <path d="M 435.380121 30.396875 
L 475.380121 30.396875 
L 475.380121 16.396875 
L 435.380121 16.396875 
z
" style="fill:#f4a582;stroke:#000000;stroke-linejoin:miter;"/>
    </g>
    <g id="text_13">
     <!-- Attention -->
     <defs>
      <path d="M 34.1875 63.1875 
L 20.796875 26.90625 
L 47.609375 26.90625 
z
M 28.609375 72.90625 
L 39.796875 72.90625 
L 67.578125 0 
L 57.328125 0 
L 50.6875 18.703125 
L 17.828125 18.703125 
L 11.1875 0 
L 0.78125 0 
z
" id="DejaVuSans-65"/>
     </defs>
     <g transform="translate(491.380121 30.396875)scale(0.2 -0.2)">
      <use xlink:href="#DejaVuSans-65"/>
      <use x="66.658203" xlink:href="#DejaVuSans-116"/>
      <use x="105.867188" xlink:href="#DejaVuSans-116"/>
      <use x="145.076172" xlink:href="#DejaVuSans-101"/>
      <use x="206.599609" xlink:href="#DejaVuSans-110"/>
      <use x="269.978516" xlink:href="#DejaVuSans-116"/>
      <use x="309.1875" xlink:href="#DejaVuSans-105"/>
      <use x="336.970703" xlink:href="#DejaVuSans-111"/>
      <use x="398.152344" xlink:href="#DejaVuSans-110"/>
     </g>
    </g>
    <g id="patch_30">
     <path d="M 623.683246 30.396875 
L 663.683246 30.396875 
L 663.683246 16.396875 
L 623.683246 16.396875 
z
" style="fill:#d1e5f0;stroke:#000000;stroke-linejoin:miter;"/>
    </g>
    <g id="text_14">
     <!-- Post attention norm. -->
     <defs>
      <path d="M 19.671875 64.796875 
L 19.671875 37.40625 
L 32.078125 37.40625 
Q 38.96875 37.40625 42.71875 40.96875 
Q 46.484375 44.53125 46.484375 51.125 
Q 46.484375 57.671875 42.71875 61.234375 
Q 38.96875 64.796875 32.078125 64.796875 
z
M 9.8125 72.90625 
L 32.078125 72.90625 
Q 44.34375 72.90625 50.609375 67.359375 
Q 56.890625 61.8125 56.890625 51.125 
Q 56.890625 40.328125 50.609375 34.8125 
Q 44.34375 29.296875 32.078125 29.296875 
L 19.671875 29.296875 
L 19.671875 0 
L 9.8125 0 
z
" id="DejaVuSans-80"/>
     </defs>
     <g transform="translate(679.683246 30.396875)scale(0.2 -0.2)">
      <use xlink:href="#DejaVuSans-80"/>
      <use x="56.677734" xlink:href="#DejaVuSans-111"/>
      <use x="117.859375" xlink:href="#DejaVuSans-115"/>
      <use x="169.958984" xlink:href="#DejaVuSans-116"/>
      <use x="209.167969" xlink:href="#DejaVuSans-32"/>
      <use x="240.955078" xlink:href="#DejaVuSans-97"/>
      <use x="302.234375" xlink:href="#DejaVuSans-116"/>
      <use x="341.443359" xlink:href="#DejaVuSans-116"/>
      <use x="380.652344" xlink:href="#DejaVuSans-101"/>
      <use x="442.175781" xlink:href="#DejaVuSans-110"/>
      <use x="505.554688" xlink:href="#DejaVuSans-116"/>
      <use x="544.763672" xlink:href="#DejaVuSans-105"/>
      <use x="572.546875" xlink:href="#DejaVuSans-111"/>
      <use x="633.728516" xlink:href="#DejaVuSans-110"/>
      <use x="697.107422" xlink:href="#DejaVuSans-32"/>
      <use x="728.894531" xlink:href="#DejaVuSans-110"/>
      <use x="792.273438" xlink:href="#DejaVuSans-111"/>
      <use x="853.455078" xlink:href="#DejaVuSans-114"/>
      <use x="892.818359" xlink:href="#DejaVuSans-109"/>
      <use x="990.230469" xlink:href="#DejaVuSans-46"/>
     </g>
    </g>
    <g id="patch_31">
     <path d="M 924.076996 30.396875 
L 964.076996 30.396875 
L 964.076996 16.396875 
L 924.076996 16.396875 
z
" style="fill:#4393c3;stroke:#000000;stroke-linejoin:miter;"/>
    </g>
    <g id="text_15">
     <!-- MoE -->
     <defs>
      <path d="M 9.8125 72.90625 
L 24.515625 72.90625 
L 43.109375 23.296875 
L 61.8125 72.90625 
L 76.515625 72.90625 
L 76.515625 0 
L 66.890625 0 
L 66.890625 64.015625 
L 48.09375 14.015625 
L 38.1875 14.015625 
L 19.390625 64.015625 
L 19.390625 0 
L 9.8125 0 
z
" id="DejaVuSans-77"/>
      <path d="M 9.8125 72.90625 
L 55.90625 72.90625 
L 55.90625 64.59375 
L 19.671875 64.59375 
L 19.671875 43.015625 
L 54.390625 43.015625 
L 54.390625 34.71875 
L 19.671875 34.71875 
L 19.671875 8.296875 
L 56.78125 8.296875 
L 56.78125 0 
L 9.8125 0 
z
" id="DejaVuSans-69"/>
     </defs>
     <g transform="translate(980.076996 30.396875)scale(0.2 -0.2)">
      <use xlink:href="#DejaVuSans-77"/>
      <use x="86.279297" xlink:href="#DejaVuSans-111"/>
      <use x="147.460938" xlink:href="#DejaVuSans-69"/>
     </g>
    </g>
   </g>
  </g>
  <g id="axes_2">
   <g id="patch_32">
    <path d="M 106.38 504.789659 
L 1100.117231 504.789659 
L 1100.117231 311.470064 
L 106.38 311.470064 
z
" style="fill:#ffffff;"/>
   </g>
   <g id="patch_33">
    <path clip-path="url(#pf662dac3d4)" d="M 151.549874 504.789659 
L 233.676918 504.789659 
L 233.676918 503.877587 
L 151.549874 503.877587 
z
" style="fill:#33a02c;stroke:#000000;stroke-linejoin:miter;"/>
   </g>
   <g id="patch_34">
    <path clip-path="url(#pf662dac3d4)" d="M 356.867484 504.789659 
L 438.994528 504.789659 
L 438.994528 502.851506 
L 356.867484 502.851506 
z
" style="fill:#33a02c;stroke:#000000;stroke-linejoin:miter;"/>
   </g>
   <g id="patch_35">
    <path clip-path="url(#pf662dac3d4)" d="M 562.185094 504.789659 
L 644.312138 504.789659 
L 644.312138 503.893697 
L 562.185094 503.893697 
z
" style="fill:#33a02c;stroke:#000000;stroke-linejoin:miter;"/>
   </g>
   <g id="patch_36">
    <path clip-path="url(#pf662dac3d4)" d="M 767.502704 504.789659 
L 849.629747 504.789659 
L 849.629747 503.523168 
L 767.502704 503.523168 
z
" style="fill:#33a02c;stroke:#000000;stroke-linejoin:miter;"/>
   </g>
   <g id="patch_37">
    <path clip-path="url(#pf662dac3d4)" d="M 972.820313 504.789659 
L 1054.947357 504.789659 
L 1054.947357 502.100534 
L 972.820313 502.100534 
z
" style="fill:#33a02c;stroke:#000000;stroke-linejoin:miter;"/>
   </g>
   <g id="patch_38">
    <path clip-path="url(#pf662dac3d4)" d="M 151.549874 503.877587 
L 233.676918 503.877587 
L 233.676918 500.944334 
L 151.549874 500.944334 
z
" style="fill:#b2df8a;stroke:#000000;stroke-linejoin:miter;"/>
   </g>
   <g id="patch_39">
    <path clip-path="url(#pf662dac3d4)" d="M 356.867484 502.851506 
L 438.994528 502.851506 
L 438.994528 489.729319 
L 356.867484 489.729319 
z
" style="fill:#b2df8a;stroke:#000000;stroke-linejoin:miter;"/>
   </g>
   <g id="patch_40">
    <path clip-path="url(#pf662dac3d4)" d="M 562.185094 503.893697 
L 644.312138 503.893697 
L 644.312138 500.865023 
L 562.185094 500.865023 
z
" style="fill:#b2df8a;stroke:#000000;stroke-linejoin:miter;"/>
   </g>
   <g id="patch_41">
    <path clip-path="url(#pf662dac3d4)" d="M 767.502704 503.523168 
L 849.629747 503.523168 
L 849.629747 490.672371 
L 767.502704 490.672371 
z
" style="fill:#b2df8a;stroke:#000000;stroke-linejoin:miter;"/>
   </g>
   <g id="patch_42">
    <path clip-path="url(#pf662dac3d4)" d="M 972.820313 502.100534 
L 1054.947357 502.100534 
L 1054.947357 484.035065 
L 972.820313 484.035065 
z
" style="fill:#b2df8a;stroke:#000000;stroke-linejoin:miter;"/>
   </g>
   <g id="patch_43">
    <path clip-path="url(#pf662dac3d4)" d="M 151.549874 500.944334 
L 233.676918 500.944334 
L 233.676918 488.791223 
L 151.549874 488.791223 
z
" style="fill:#4393c3;stroke:#000000;stroke-linejoin:miter;"/>
   </g>
   <g id="patch_44">
    <path clip-path="url(#pf662dac3d4)" d="M 356.867484 489.729319 
L 438.994528 489.729319 
L 438.994528 378.242156 
L 356.867484 378.242156 
z
" style="fill:#4393c3;stroke:#000000;stroke-linejoin:miter;"/>
   </g>
   <g id="patch_45">
    <path clip-path="url(#pf662dac3d4)" d="M 562.185094 500.865023 
L 644.312138 500.865023 
L 644.312138 489.840849 
L 562.185094 489.840849 
z
" style="fill:#4393c3;stroke:#000000;stroke-linejoin:miter;"/>
   </g>
   <g id="patch_46">
    <path clip-path="url(#pf662dac3d4)" d="M 767.502704 490.672371 
L 849.629747 490.672371 
L 849.629747 453.279901 
L 767.502704 453.279901 
z
" style="fill:#4393c3;stroke:#000000;stroke-linejoin:miter;"/>
   </g>
   <g id="patch_47">
    <path clip-path="url(#pf662dac3d4)" d="M 972.820313 484.035065 
L 1054.947357 484.035065 
L 1054.947357 419.240781 
L 972.820313 419.240781 
z
" style="fill:#4393c3;stroke:#000000;stroke-linejoin:miter;"/>
   </g>
   <g id="matplotlib.axis_3">
    <g id="xtick_6">
     <g id="line2d_17">
      <g>
       <use style="stroke:#000000;stroke-width:0.8;" x="192.613396" xlink:href="#m1c2471ce85" y="504.789659"/>
      </g>
     </g>
     <g id="text_16">
      <!-- Dense(bsz=1) -->
      <g transform="translate(121.708709 526.986534)scale(0.2 -0.2)">
       <use xlink:href="#DejaVuSans-68"/>
       <use x="77.001953" xlink:href="#DejaVuSans-101"/>
       <use x="138.525391" xlink:href="#DejaVuSans-110"/>
       <use x="201.904297" xlink:href="#DejaVuSans-115"/>
       <use x="254.003906" xlink:href="#DejaVuSans-101"/>
       <use x="315.527344" xlink:href="#DejaVuSans-40"/>
       <use x="354.541016" xlink:href="#DejaVuSans-98"/>
       <use x="418.017578" xlink:href="#DejaVuSans-115"/>
       <use x="470.117188" xlink:href="#DejaVuSans-122"/>
       <use x="522.607422" xlink:href="#DejaVuSans-61"/>
       <use x="606.396484" xlink:href="#DejaVuSans-49"/>
       <use x="670.019531" xlink:href="#DejaVuSans-41"/>
      </g>
     </g>
    </g>
    <g id="xtick_7">
     <g id="line2d_18">
      <g>
       <use style="stroke:#000000;stroke-width:0.8;" x="397.931006" xlink:href="#m1c2471ce85" y="504.789659"/>
      </g>
     </g>
     <g id="text_17">
      <!-- Dense(bsz=30) -->
      <g transform="translate(320.663818 526.986534)scale(0.2 -0.2)">
       <use xlink:href="#DejaVuSans-68"/>
       <use x="77.001953" xlink:href="#DejaVuSans-101"/>
       <use x="138.525391" xlink:href="#DejaVuSans-110"/>
       <use x="201.904297" xlink:href="#DejaVuSans-115"/>
       <use x="254.003906" xlink:href="#DejaVuSans-101"/>
       <use x="315.527344" xlink:href="#DejaVuSans-40"/>
       <use x="354.541016" xlink:href="#DejaVuSans-98"/>
       <use x="418.017578" xlink:href="#DejaVuSans-115"/>
       <use x="470.117188" xlink:href="#DejaVuSans-122"/>
       <use x="522.607422" xlink:href="#DejaVuSans-61"/>
       <use x="606.396484" xlink:href="#DejaVuSans-51"/>
       <use x="670.019531" xlink:href="#DejaVuSans-48"/>
       <use x="733.642578" xlink:href="#DejaVuSans-41"/>
      </g>
     </g>
    </g>
    <g id="xtick_8">
     <g id="line2d_19">
      <g>
       <use style="stroke:#000000;stroke-width:0.8;" x="603.248616" xlink:href="#m1c2471ce85" y="504.789659"/>
      </g>
     </g>
     <g id="text_18">
      <!-- Sparse(bsz=1) -->
      <g transform="translate(529.598616 526.986534)scale(0.2 -0.2)">
       <use xlink:href="#DejaVuSans-83"/>
       <use x="63.476562" xlink:href="#DejaVuSans-112"/>
       <use x="126.953125" xlink:href="#DejaVuSans-97"/>
       <use x="188.232422" xlink:href="#DejaVuSans-114"/>
       <use x="229.345703" xlink:href="#DejaVuSans-115"/>
       <use x="281.445312" xlink:href="#DejaVuSans-101"/>
       <use x="342.96875" xlink:href="#DejaVuSans-40"/>
       <use x="381.982422" xlink:href="#DejaVuSans-98"/>
       <use x="445.458984" xlink:href="#DejaVuSans-115"/>
       <use x="497.558594" xlink:href="#DejaVuSans-122"/>
       <use x="550.048828" xlink:href="#DejaVuSans-61"/>
       <use x="633.837891" xlink:href="#DejaVuSans-49"/>
       <use x="697.460938" xlink:href="#DejaVuSans-41"/>
      </g>
     </g>
    </g>
    <g id="xtick_9">
     <g id="line2d_20">
      <g>
       <use style="stroke:#000000;stroke-width:0.8;" x="808.566225" xlink:href="#m1c2471ce85" y="504.789659"/>
      </g>
     </g>
     <g id="text_19">
      <!-- Sparse(bsz=30) -->
      <g transform="translate(728.553725 526.986534)scale(0.2 -0.2)">
       <use xlink:href="#DejaVuSans-83"/>
       <use x="63.476562" xlink:href="#DejaVuSans-112"/>
       <use x="126.953125" xlink:href="#DejaVuSans-97"/>
       <use x="188.232422" xlink:href="#DejaVuSans-114"/>
       <use x="229.345703" xlink:href="#DejaVuSans-115"/>
       <use x="281.445312" xlink:href="#DejaVuSans-101"/>
       <use x="342.96875" xlink:href="#DejaVuSans-40"/>
       <use x="381.982422" xlink:href="#DejaVuSans-98"/>
       <use x="445.458984" xlink:href="#DejaVuSans-115"/>
       <use x="497.558594" xlink:href="#DejaVuSans-122"/>
       <use x="550.048828" xlink:href="#DejaVuSans-61"/>
       <use x="633.837891" xlink:href="#DejaVuSans-51"/>
       <use x="697.460938" xlink:href="#DejaVuSans-48"/>
       <use x="761.083984" xlink:href="#DejaVuSans-41"/>
      </g>
     </g>
    </g>
    <g id="xtick_10">
     <g id="line2d_21">
      <g>
       <use style="stroke:#000000;stroke-width:0.8;" x="1013.883835" xlink:href="#m1c2471ce85" y="504.789659"/>
      </g>
     </g>
     <g id="text_20">
      <!-- Sparse(bsz=84) -->
      <defs>
       <path d="M 31.78125 34.625 
Q 24.75 34.625 20.71875 30.859375 
Q 16.703125 27.09375 16.703125 20.515625 
Q 16.703125 13.921875 20.71875 10.15625 
Q 24.75 6.390625 31.78125 6.390625 
Q 38.8125 6.390625 42.859375 10.171875 
Q 46.921875 13.96875 46.921875 20.515625 
Q 46.921875 27.09375 42.890625 30.859375 
Q 38.875 34.625 31.78125 34.625 
z
M 21.921875 38.8125 
Q 15.578125 40.375 12.03125 44.71875 
Q 8.5 49.078125 8.5 55.328125 
Q 8.5 64.0625 14.71875 69.140625 
Q 20.953125 74.21875 31.78125 74.21875 
Q 42.671875 74.21875 48.875 69.140625 
Q 55.078125 64.0625 55.078125 55.328125 
Q 55.078125 49.078125 51.53125 44.71875 
Q 48 40.375 41.703125 38.8125 
Q 48.828125 37.15625 52.796875 32.3125 
Q 56.78125 27.484375 56.78125 20.515625 
Q 56.78125 9.90625 50.3125 4.234375 
Q 43.84375 -1.421875 31.78125 -1.421875 
Q 19.734375 -1.421875 13.25 4.234375 
Q 6.78125 9.90625 6.78125 20.515625 
Q 6.78125 27.484375 10.78125 32.3125 
Q 14.796875 37.15625 21.921875 38.8125 
z
M 18.3125 54.390625 
Q 18.3125 48.734375 21.84375 45.5625 
Q 25.390625 42.390625 31.78125 42.390625 
Q 38.140625 42.390625 41.71875 45.5625 
Q 45.3125 48.734375 45.3125 54.390625 
Q 45.3125 60.0625 41.71875 63.234375 
Q 38.140625 66.40625 31.78125 66.40625 
Q 25.390625 66.40625 21.84375 63.234375 
Q 18.3125 60.0625 18.3125 54.390625 
z
" id="DejaVuSans-56"/>
      </defs>
      <g transform="translate(933.871335 526.986534)scale(0.2 -0.2)">
       <use xlink:href="#DejaVuSans-83"/>
       <use x="63.476562" xlink:href="#DejaVuSans-112"/>
       <use x="126.953125" xlink:href="#DejaVuSans-97"/>
       <use x="188.232422" xlink:href="#DejaVuSans-114"/>
       <use x="229.345703" xlink:href="#DejaVuSans-115"/>
       <use x="281.445312" xlink:href="#DejaVuSans-101"/>
       <use x="342.96875" xlink:href="#DejaVuSans-40"/>
       <use x="381.982422" xlink:href="#DejaVuSans-98"/>
       <use x="445.458984" xlink:href="#DejaVuSans-115"/>
       <use x="497.558594" xlink:href="#DejaVuSans-122"/>
       <use x="550.048828" xlink:href="#DejaVuSans-61"/>
       <use x="633.837891" xlink:href="#DejaVuSans-56"/>
       <use x="697.460938" xlink:href="#DejaVuSans-52"/>
       <use x="761.083984" xlink:href="#DejaVuSans-41"/>
      </g>
     </g>
    </g>
   </g>
   <g id="matplotlib.axis_4">
    <g id="ytick_7">
     <g id="line2d_22">
      <g>
       <use style="stroke:#000000;stroke-width:0.8;" x="106.38" xlink:href="#mc687d32e34" y="504.789659"/>
      </g>
     </g>
     <g id="text_21">
      <!-- 0.0 -->
      <g transform="translate(62.802812 513.527862)scale(0.23 -0.23)">
       <use xlink:href="#DejaVuSans-48"/>
       <use x="63.623047" xlink:href="#DejaVuSans-46"/>
       <use x="95.410156" xlink:href="#DejaVuSans-48"/>
      </g>
     </g>
    </g>
    <g id="ytick_8">
     <g id="line2d_23">
      <g>
       <use style="stroke:#000000;stroke-width:0.8;" x="106.38" xlink:href="#mc687d32e34" y="442.82825"/>
      </g>
     </g>
     <g id="text_22">
      <!-- 0.5 -->
      <g transform="translate(62.802812 451.566453)scale(0.23 -0.23)">
       <use xlink:href="#DejaVuSans-48"/>
       <use x="63.623047" xlink:href="#DejaVuSans-46"/>
       <use x="95.410156" xlink:href="#DejaVuSans-53"/>
      </g>
     </g>
    </g>
    <g id="ytick_9">
     <g id="line2d_24">
      <g>
       <use style="stroke:#000000;stroke-width:0.8;" x="106.38" xlink:href="#mc687d32e34" y="380.866842"/>
      </g>
     </g>
     <g id="text_23">
      <!-- 1.0 -->
      <g transform="translate(62.802812 389.605045)scale(0.23 -0.23)">
       <use xlink:href="#DejaVuSans-49"/>
       <use x="63.623047" xlink:href="#DejaVuSans-46"/>
       <use x="95.410156" xlink:href="#DejaVuSans-48"/>
      </g>
     </g>
    </g>
    <g id="ytick_10">
     <g id="line2d_25">
      <g>
       <use style="stroke:#000000;stroke-width:0.8;" x="106.38" xlink:href="#mc687d32e34" y="318.905433"/>
      </g>
     </g>
     <g id="text_24">
      <!-- 1.5 -->
      <g transform="translate(62.802812 327.643636)scale(0.23 -0.23)">
       <use xlink:href="#DejaVuSans-49"/>
       <use x="63.623047" xlink:href="#DejaVuSans-46"/>
       <use x="95.410156" xlink:href="#DejaVuSans-53"/>
      </g>
     </g>
    </g>
   </g>
   <g id="line2d_26">
    <path clip-path="url(#pf662dac3d4)" d="M 106.38 442.82825 
L 1100.117231 442.82825 
" style="fill:none;stroke:#808080;stroke-dasharray:5.55,2.4;stroke-dashoffset:0;stroke-width:1.5;"/>
   </g>
   <g id="line2d_27">
    <path clip-path="url(#pf662dac3d4)" d="M 106.38 380.866842 
L 1100.117231 380.866842 
" style="fill:none;stroke:#808080;stroke-dasharray:5.55,2.4;stroke-dashoffset:0;stroke-width:1.5;"/>
   </g>
   <g id="line2d_28">
    <path clip-path="url(#pf662dac3d4)" d="M 106.38 318.905433 
L 1100.117231 318.905433 
" style="fill:none;stroke:#808080;stroke-dasharray:5.55,2.4;stroke-dashoffset:0;stroke-width:1.5;"/>
   </g>
   <g id="line2d_29">
    <path clip-path="url(#pf662dac3d4)" d="M 106.38 256.944025 
L 1100.117231 256.944025 
" style="fill:none;stroke:#808080;stroke-dasharray:5.55,2.4;stroke-dashoffset:0;stroke-width:1.5;"/>
   </g>
   <g id="line2d_30">
    <path clip-path="url(#pf662dac3d4)" d="M 106.38 194.982616 
L 1100.117231 194.982616 
" style="fill:none;stroke:#808080;stroke-dasharray:5.55,2.4;stroke-dashoffset:0;stroke-width:1.5;"/>
   </g>
   <g id="line2d_31">
    <path clip-path="url(#pf662dac3d4)" d="M 106.38 133.021208 
L 1100.117231 133.021208 
" style="fill:none;stroke:#808080;stroke-dasharray:5.55,2.4;stroke-dashoffset:0;stroke-width:1.5;"/>
   </g>
   <g id="line2d_32">
    <path clip-path="url(#pf662dac3d4)" d="M 106.38 71.059799 
L 1100.117231 71.059799 
" style="fill:none;stroke:#808080;stroke-dasharray:5.55,2.4;stroke-dashoffset:0;stroke-width:1.5;"/>
   </g>
   <g id="line2d_33">
    <path clip-path="url(#pf662dac3d4)" d="M 106.38 9.098391 
L 1100.117231 9.098391 
" style="fill:none;stroke:#808080;stroke-dasharray:5.55,2.4;stroke-dashoffset:0;stroke-width:1.5;"/>
   </g>
   <g id="line2d_34">
    <path clip-path="url(#pf662dac3d4)" style="fill:none;stroke:#808080;stroke-dasharray:5.55,2.4;stroke-dashoffset:0;stroke-width:1.5;"/>
   </g>
   <g id="patch_48">
    <path d="M 106.38 504.789659 
L 106.38 311.470064 
" style="fill:none;stroke:#000000;stroke-linecap:square;stroke-linejoin:miter;stroke-width:0.8;"/>
   </g>
   <g id="patch_49">
    <path d="M 1100.117231 504.789659 
L 1100.117231 311.470064 
" style="fill:none;stroke:#000000;stroke-linecap:square;stroke-linejoin:miter;stroke-width:0.8;"/>
   </g>
   <g id="patch_50">
    <path d="M 106.38 504.789659 
L 1100.117231 504.789659 
" style="fill:none;stroke:#000000;stroke-linecap:square;stroke-linejoin:miter;stroke-width:0.8;"/>
   </g>
   <g id="patch_51">
    <path d="M 106.38 311.470064 
L 1100.117231 311.470064 
" style="fill:none;stroke:#000000;stroke-linecap:square;stroke-linejoin:miter;stroke-width:0.8;"/>
   </g>
   <g id="legend_2">
    <g id="patch_52">
     <path d="M 321.184809 308.23625 
L 845.562934 308.23625 
Q 849.562934 308.23625 849.562934 304.23625 
L 849.562934 276.88 
Q 849.562934 272.88 845.562934 272.88 
L 321.184809 272.88 
Q 317.184809 272.88 317.184809 276.88 
L 317.184809 304.23625 
Q 317.184809 308.23625 321.184809 308.23625 
z
" style="fill:#ffffff;opacity:0.8;stroke:#cccccc;stroke-linejoin:miter;"/>
    </g>
    <g id="patch_53">
     <path d="M 325.184809 296.076875 
L 365.184809 296.076875 
L 365.184809 282.076875 
L 325.184809 282.076875 
z
" style="fill:#33a02c;stroke:#000000;stroke-linejoin:miter;"/>
    </g>
    <g id="text_25">
     <!-- RMS layernorm -->
     <defs>
      <path d="M 44.390625 34.1875 
Q 47.5625 33.109375 50.5625 29.59375 
Q 53.5625 26.078125 56.59375 19.921875 
L 66.609375 0 
L 56 0 
L 46.6875 18.703125 
Q 43.0625 26.03125 39.671875 28.421875 
Q 36.28125 30.8125 30.421875 30.8125 
L 19.671875 30.8125 
L 19.671875 0 
L 9.8125 0 
L 9.8125 72.90625 
L 32.078125 72.90625 
Q 44.578125 72.90625 50.734375 67.671875 
Q 56.890625 62.453125 56.890625 51.90625 
Q 56.890625 45.015625 53.6875 40.46875 
Q 50.484375 35.9375 44.390625 34.1875 
z
M 19.671875 64.796875 
L 19.671875 38.921875 
L 32.078125 38.921875 
Q 39.203125 38.921875 42.84375 42.21875 
Q 46.484375 45.515625 46.484375 51.90625 
Q 46.484375 58.296875 42.84375 61.546875 
Q 39.203125 64.796875 32.078125 64.796875 
z
" id="DejaVuSans-82"/>
      <path d="M 32.171875 -5.078125 
Q 28.375 -14.84375 24.75 -17.8125 
Q 21.140625 -20.796875 15.09375 -20.796875 
L 7.90625 -20.796875 
L 7.90625 -13.28125 
L 13.1875 -13.28125 
Q 16.890625 -13.28125 18.9375 -11.515625 
Q 21 -9.765625 23.484375 -3.21875 
L 25.09375 0.875 
L 2.984375 54.6875 
L 12.5 54.6875 
L 29.59375 11.921875 
L 46.6875 54.6875 
L 56.203125 54.6875 
z
" id="DejaVuSans-121"/>
     </defs>
     <g transform="translate(381.184809 296.076875)scale(0.2 -0.2)">
      <use xlink:href="#DejaVuSans-82"/>
      <use x="69.482422" xlink:href="#DejaVuSans-77"/>
      <use x="155.761719" xlink:href="#DejaVuSans-83"/>
      <use x="219.238281" xlink:href="#DejaVuSans-32"/>
      <use x="251.025391" xlink:href="#DejaVuSans-108"/>
      <use x="278.808594" xlink:href="#DejaVuSans-97"/>
      <use x="340.087891" xlink:href="#DejaVuSans-121"/>
      <use x="399.267578" xlink:href="#DejaVuSans-101"/>
      <use x="460.791016" xlink:href="#DejaVuSans-114"/>
      <use x="500.154297" xlink:href="#DejaVuSans-110"/>
      <use x="563.533203" xlink:href="#DejaVuSans-111"/>
      <use x="624.714844" xlink:href="#DejaVuSans-114"/>
      <use x="664.078125" xlink:href="#DejaVuSans-109"/>
     </g>
    </g>
    <g id="patch_54">
     <path d="M 573.484809 296.076875 
L 613.484809 296.076875 
L 613.484809 282.076875 
L 573.484809 282.076875 
z
" style="fill:#b2df8a;stroke:#000000;stroke-linejoin:miter;"/>
    </g>
    <g id="text_26">
     <!-- Mamba -->
     <g transform="translate(629.484809 296.076875)scale(0.2 -0.2)">
      <use xlink:href="#DejaVuSans-77"/>
      <use x="86.279297" xlink:href="#DejaVuSans-97"/>
      <use x="147.558594" xlink:href="#DejaVuSans-109"/>
      <use x="244.970703" xlink:href="#DejaVuSans-98"/>
      <use x="308.447266" xlink:href="#DejaVuSans-97"/>
     </g>
    </g>
    <g id="patch_55">
     <path d="M 743.431684 296.076875 
L 783.431684 296.076875 
L 783.431684 282.076875 
L 743.431684 282.076875 
z
" style="fill:#4393c3;stroke:#000000;stroke-linejoin:miter;"/>
    </g>
    <g id="text_27">
     <!-- MoE -->
     <g transform="translate(799.431684 296.076875)scale(0.2 -0.2)">
      <use xlink:href="#DejaVuSans-77"/>
      <use x="86.279297" xlink:href="#DejaVuSans-111"/>
      <use x="147.460938" xlink:href="#DejaVuSans-69"/>
     </g>
    </g>
   </g>
  </g>
  <g id="text_28">
   <!--     Execution Time -->
   <defs>
    <path d="M 54.890625 54.6875 
L 35.109375 28.078125 
L 55.90625 0 
L 45.3125 0 
L 29.390625 21.484375 
L 13.484375 0 
L 2.875 0 
L 24.125 28.609375 
L 4.6875 54.6875 
L 15.28125 54.6875 
L 29.78125 35.203125 
L 44.28125 54.6875 
z
" id="DejaVuSans-120"/>
    <path d="M 48.78125 52.59375 
L 48.78125 44.1875 
Q 44.96875 46.296875 41.140625 47.34375 
Q 37.3125 48.390625 33.40625 48.390625 
Q 24.65625 48.390625 19.8125 42.84375 
Q 14.984375 37.3125 14.984375 27.296875 
Q 14.984375 17.28125 19.8125 11.734375 
Q 24.65625 6.203125 33.40625 6.203125 
Q 37.3125 6.203125 41.140625 7.25 
Q 44.96875 8.296875 48.78125 10.40625 
L 48.78125 2.09375 
Q 45.015625 0.34375 40.984375 -0.53125 
Q 36.96875 -1.421875 32.421875 -1.421875 
Q 20.0625 -1.421875 12.78125 6.34375 
Q 5.515625 14.109375 5.515625 27.296875 
Q 5.515625 40.671875 12.859375 48.328125 
Q 20.21875 56 33.015625 56 
Q 37.15625 56 41.109375 55.140625 
Q 45.0625 54.296875 48.78125 52.59375 
z
" id="DejaVuSans-99"/>
    <path d="M -0.296875 72.90625 
L 61.375 72.90625 
L 61.375 64.59375 
L 35.5 64.59375 
L 35.5 0 
L 25.59375 0 
L 25.59375 64.59375 
L -0.296875 64.59375 
z
" id="DejaVuSans-84"/>
   </defs>
   <g transform="translate(26.196094 407.321924)rotate(-90)scale(0.25 -0.25)">
    <use xlink:href="#DejaVuSans-32"/>
    <use x="31.787109" xlink:href="#DejaVuSans-32"/>
    <use x="63.574219" xlink:href="#DejaVuSans-32"/>
    <use x="95.361328" xlink:href="#DejaVuSans-32"/>
    <use x="127.148438" xlink:href="#DejaVuSans-69"/>
    <use x="190.332031" xlink:href="#DejaVuSans-120"/>
    <use x="246.386719" xlink:href="#DejaVuSans-101"/>
    <use x="307.910156" xlink:href="#DejaVuSans-99"/>
    <use x="362.890625" xlink:href="#DejaVuSans-117"/>
    <use x="426.269531" xlink:href="#DejaVuSans-116"/>
    <use x="465.478516" xlink:href="#DejaVuSans-105"/>
    <use x="493.261719" xlink:href="#DejaVuSans-111"/>
    <use x="554.443359" xlink:href="#DejaVuSans-110"/>
    <use x="617.822266" xlink:href="#DejaVuSans-32"/>
    <use x="649.609375" xlink:href="#DejaVuSans-84"/>
    <use x="707.568359" xlink:href="#DejaVuSans-105"/>
    <use x="735.351562" xlink:href="#DejaVuSans-109"/>
    <use x="832.763672" xlink:href="#DejaVuSans-101"/>
   </g>
   <!-- Breakdown (seconds) -->
   <defs>
    <path d="M 19.671875 34.8125 
L 19.671875 8.109375 
L 35.5 8.109375 
Q 43.453125 8.109375 47.28125 11.40625 
Q 51.125 14.703125 51.125 21.484375 
Q 51.125 28.328125 47.28125 31.5625 
Q 43.453125 34.8125 35.5 34.8125 
z
M 19.671875 64.796875 
L 19.671875 42.828125 
L 34.28125 42.828125 
Q 41.5 42.828125 45.03125 45.53125 
Q 48.578125 48.25 48.578125 53.8125 
Q 48.578125 59.328125 45.03125 62.0625 
Q 41.5 64.796875 34.28125 64.796875 
z
M 9.8125 72.90625 
L 35.015625 72.90625 
Q 46.296875 72.90625 52.390625 68.21875 
Q 58.5 63.53125 58.5 54.890625 
Q 58.5 48.1875 55.375 44.234375 
Q 52.25 40.28125 46.1875 39.3125 
Q 53.46875 37.75 57.5 32.78125 
Q 61.53125 27.828125 61.53125 20.40625 
Q 61.53125 10.640625 54.890625 5.3125 
Q 48.25 0 35.984375 0 
L 9.8125 0 
z
" id="DejaVuSans-66"/>
    <path d="M 9.078125 75.984375 
L 18.109375 75.984375 
L 18.109375 31.109375 
L 44.921875 54.6875 
L 56.390625 54.6875 
L 27.390625 29.109375 
L 57.625 0 
L 45.90625 0 
L 18.109375 26.703125 
L 18.109375 0 
L 9.078125 0 
z
" id="DejaVuSans-107"/>
    <path d="M 45.40625 46.390625 
L 45.40625 75.984375 
L 54.390625 75.984375 
L 54.390625 0 
L 45.40625 0 
L 45.40625 8.203125 
Q 42.578125 3.328125 38.25 0.953125 
Q 33.9375 -1.421875 27.875 -1.421875 
Q 17.96875 -1.421875 11.734375 6.484375 
Q 5.515625 14.40625 5.515625 27.296875 
Q 5.515625 40.1875 11.734375 48.09375 
Q 17.96875 56 27.875 56 
Q 33.9375 56 38.25 53.625 
Q 42.578125 51.265625 45.40625 46.390625 
z
M 14.796875 27.296875 
Q 14.796875 17.390625 18.875 11.75 
Q 22.953125 6.109375 30.078125 6.109375 
Q 37.203125 6.109375 41.296875 11.75 
Q 45.40625 17.390625 45.40625 27.296875 
Q 45.40625 37.203125 41.296875 42.84375 
Q 37.203125 48.484375 30.078125 48.484375 
Q 22.953125 48.484375 18.875 42.84375 
Q 14.796875 37.203125 14.796875 27.296875 
z
" id="DejaVuSans-100"/>
    <path d="M 4.203125 54.6875 
L 13.1875 54.6875 
L 24.421875 12.015625 
L 35.59375 54.6875 
L 46.1875 54.6875 
L 57.421875 12.015625 
L 68.609375 54.6875 
L 77.59375 54.6875 
L 63.28125 0 
L 52.6875 0 
L 40.921875 44.828125 
L 29.109375 0 
L 18.5 0 
z
" id="DejaVuSans-119"/>
   </defs>
   <g transform="translate(54.190625 407.321924)rotate(-90)scale(0.25 -0.25)">
    <use xlink:href="#DejaVuSans-66"/>
    <use x="68.603516" xlink:href="#DejaVuSans-114"/>
    <use x="107.466797" xlink:href="#DejaVuSans-101"/>
    <use x="168.990234" xlink:href="#DejaVuSans-97"/>
    <use x="230.269531" xlink:href="#DejaVuSans-107"/>
    <use x="288.179688" xlink:href="#DejaVuSans-100"/>
    <use x="351.65625" xlink:href="#DejaVuSans-111"/>
    <use x="412.837891" xlink:href="#DejaVuSans-119"/>
    <use x="494.625" xlink:href="#DejaVuSans-110"/>
    <use x="558.003906" xlink:href="#DejaVuSans-32"/>
    <use x="589.791016" xlink:href="#DejaVuSans-40"/>
    <use x="628.804688" xlink:href="#DejaVuSans-115"/>
    <use x="680.904297" xlink:href="#DejaVuSans-101"/>
    <use x="742.427734" xlink:href="#DejaVuSans-99"/>
    <use x="797.408203" xlink:href="#DejaVuSans-111"/>
    <use x="858.589844" xlink:href="#DejaVuSans-110"/>
    <use x="921.96875" xlink:href="#DejaVuSans-100"/>
    <use x="985.445312" xlink:href="#DejaVuSans-115"/>
    <use x="1037.544922" xlink:href="#DejaVuSans-41"/>
   </g>
  </g>
  <g id="text_29">
   <!-- Mixtral -->
   <defs>
    <path d="M 9.1875 72.90625 
L 33.109375 72.90625 
L 49.703125 33.890625 
L 66.40625 72.90625 
L 90.28125 72.90625 
L 90.28125 0 
L 72.515625 0 
L 72.515625 53.328125 
L 55.71875 14.015625 
L 43.796875 14.015625 
L 27 53.328125 
L 27 0 
L 9.1875 0 
z
" id="DejaVuSans-Bold-77"/>
    <path d="M 8.40625 54.6875 
L 25.875 54.6875 
L 25.875 0 
L 8.40625 0 
z
M 8.40625 75.984375 
L 25.875 75.984375 
L 25.875 61.71875 
L 8.40625 61.71875 
z
" id="DejaVuSans-Bold-105"/>
    <path d="M 22.21875 27.984375 
L 2.484375 54.6875 
L 21 54.6875 
L 32.171875 38.484375 
L 43.5 54.6875 
L 62.015625 54.6875 
L 42.28125 28.078125 
L 62.984375 0 
L 44.484375 0 
L 32.171875 17.28125 
L 20.015625 0 
L 1.515625 0 
z
" id="DejaVuSans-Bold-120"/>
    <path d="M 27.484375 70.21875 
L 27.484375 54.6875 
L 45.515625 54.6875 
L 45.515625 42.1875 
L 27.484375 42.1875 
L 27.484375 19 
Q 27.484375 15.1875 29 13.84375 
Q 30.515625 12.5 35.015625 12.5 
L 44 12.5 
L 44 0 
L 29 0 
Q 18.65625 0 14.328125 4.3125 
Q 10.015625 8.640625 10.015625 19 
L 10.015625 42.1875 
L 1.3125 42.1875 
L 1.3125 54.6875 
L 10.015625 54.6875 
L 10.015625 70.21875 
z
" id="DejaVuSans-Bold-116"/>
    <path d="M 49.03125 39.796875 
Q 46.734375 40.875 44.453125 41.375 
Q 42.1875 41.890625 39.890625 41.890625 
Q 33.15625 41.890625 29.515625 37.5625 
Q 25.875 33.25 25.875 25.203125 
L 25.875 0 
L 8.40625 0 
L 8.40625 54.6875 
L 25.875 54.6875 
L 25.875 45.703125 
Q 29.25 51.078125 33.609375 53.53125 
Q 37.984375 56 44.09375 56 
Q 44.96875 56 45.984375 55.921875 
Q 47.015625 55.859375 48.96875 55.609375 
z
" id="DejaVuSans-Bold-114"/>
    <path d="M 32.90625 24.609375 
Q 27.4375 24.609375 24.671875 22.75 
Q 21.921875 20.90625 21.921875 17.28125 
Q 21.921875 13.96875 24.140625 12.078125 
Q 26.375 10.203125 30.328125 10.203125 
Q 35.25 10.203125 38.625 13.734375 
Q 42 17.28125 42 22.609375 
L 42 24.609375 
z
M 59.625 31.203125 
L 59.625 0 
L 42 0 
L 42 8.109375 
Q 38.484375 3.125 34.078125 0.84375 
Q 29.6875 -1.421875 23.390625 -1.421875 
Q 14.890625 -1.421875 9.59375 3.53125 
Q 4.296875 8.5 4.296875 16.40625 
Q 4.296875 26.03125 10.90625 30.515625 
Q 17.53125 35.015625 31.6875 35.015625 
L 42 35.015625 
L 42 36.375 
Q 42 40.53125 38.71875 42.453125 
Q 35.453125 44.390625 28.515625 44.390625 
Q 22.90625 44.390625 18.0625 43.265625 
Q 13.234375 42.140625 9.078125 39.890625 
L 9.078125 53.21875 
Q 14.703125 54.59375 20.359375 55.296875 
Q 26.03125 56 31.6875 56 
Q 46.484375 56 53.046875 50.171875 
Q 59.625 44.34375 59.625 31.203125 
z
" id="DejaVuSans-Bold-97"/>
    <path d="M 8.40625 75.984375 
L 25.875 75.984375 
L 25.875 0 
L 8.40625 0 
z
" id="DejaVuSans-Bold-108"/>
   </defs>
   <g transform="translate(113.04 72.546221)scale(0.23 -0.23)">
    <use xlink:href="#DejaVuSans-Bold-77"/>
    <use x="99.511719" xlink:href="#DejaVuSans-Bold-105"/>
    <use x="133.789062" xlink:href="#DejaVuSans-Bold-120"/>
    <use x="198.291016" xlink:href="#DejaVuSans-Bold-116"/>
    <use x="246.09375" xlink:href="#DejaVuSans-Bold-114"/>
    <use x="295.410156" xlink:href="#DejaVuSans-Bold-97"/>
    <use x="362.890625" xlink:href="#DejaVuSans-Bold-108"/>
   </g>
  </g>
  <g id="text_30">
   <!-- Mamba -->
   <defs>
    <path d="M 59.078125 45.609375 
Q 62.40625 50.6875 66.96875 53.34375 
Q 71.53125 56 77 56 
Q 86.421875 56 91.359375 50.1875 
Q 96.296875 44.390625 96.296875 33.296875 
L 96.296875 0 
L 78.71875 0 
L 78.71875 28.515625 
Q 78.765625 29.15625 78.78125 29.828125 
Q 78.8125 30.515625 78.8125 31.78125 
Q 78.8125 37.59375 77.09375 40.203125 
Q 75.390625 42.828125 71.578125 42.828125 
Q 66.609375 42.828125 63.890625 38.71875 
Q 61.1875 34.625 61.078125 26.859375 
L 61.078125 0 
L 43.5 0 
L 43.5 28.515625 
Q 43.5 37.59375 41.9375 40.203125 
Q 40.375 42.828125 36.375 42.828125 
Q 31.34375 42.828125 28.609375 38.703125 
Q 25.875 34.578125 25.875 26.90625 
L 25.875 0 
L 8.296875 0 
L 8.296875 54.6875 
L 25.875 54.6875 
L 25.875 46.6875 
Q 29.109375 51.3125 33.28125 53.65625 
Q 37.453125 56 42.484375 56 
Q 48.140625 56 52.484375 53.265625 
Q 56.84375 50.53125 59.078125 45.609375 
z
" id="DejaVuSans-Bold-109"/>
    <path d="M 37.5 11.28125 
Q 43.109375 11.28125 46.0625 15.375 
Q 49.03125 19.484375 49.03125 27.296875 
Q 49.03125 35.109375 46.0625 39.203125 
Q 43.109375 43.3125 37.5 43.3125 
Q 31.890625 43.3125 28.875 39.1875 
Q 25.875 35.0625 25.875 27.296875 
Q 25.875 19.53125 28.875 15.40625 
Q 31.890625 11.28125 37.5 11.28125 
z
M 25.875 46.6875 
Q 29.5 51.46875 33.890625 53.734375 
Q 38.28125 56 44 56 
Q 54.109375 56 60.59375 47.96875 
Q 67.09375 39.9375 67.09375 27.296875 
Q 67.09375 14.65625 60.59375 6.609375 
Q 54.109375 -1.421875 44 -1.421875 
Q 38.28125 -1.421875 33.890625 0.84375 
Q 29.5 3.125 25.875 7.90625 
L 25.875 0 
L 8.40625 0 
L 8.40625 75.984375 
L 25.875 75.984375 
z
" id="DejaVuSans-Bold-98"/>
   </defs>
   <g transform="translate(113.04 343.896221)scale(0.23 -0.23)">
    <use xlink:href="#DejaVuSans-Bold-77"/>
    <use x="99.511719" xlink:href="#DejaVuSans-Bold-97"/>
    <use x="166.992188" xlink:href="#DejaVuSans-Bold-109"/>
    <use x="271.191406" xlink:href="#DejaVuSans-Bold-98"/>
    <use x="342.773438" xlink:href="#DejaVuSans-Bold-97"/>
   </g>
  </g>
 </g>
 <defs>
  <clipPath id="p8e4800d30c">
   <rect height="193.319595" width="993.737231" x="106.38" y="45.790064"/>
  </clipPath>
  <clipPath id="pf662dac3d4">
   <rect height="193.319595" width="993.737231" x="106.38" y="311.470064"/>
  </clipPath>
 </defs>
</svg>
