<?xml version="1.0" encoding="utf-8" standalone="no"?>
<!DOCTYPE svg PUBLIC "-//W3C//DTD SVG 1.1//EN"
  "http://www.w3.org/Graphics/SVG/1.1/DTD/svg11.dtd">
<!-- Created with matplotlib (https://matplotlib.org/) -->
<svg height="535.76822pt" version="1.1" viewBox="0 0 1087.658458 535.76822" width="1087.658458pt" xmlns="http://www.w3.org/2000/svg" xmlns:xlink="http://www.w3.org/1999/xlink">
 <defs>
  <style type="text/css">
*{stroke-linecap:butt;stroke-linejoin:round;}
  </style>
 </defs>
 <g id="figure_1">
  <g id="patch_1">
   <path d="M 0 535.76822 
L 1087.658458 535.76822 
L 1087.658458 0 
L 0 0 
z
" style="fill:#ffffff;"/>
  </g>
  <g id="axes_1">
   <g id="patch_2">
    <path d="M 97.36 251.97197 
L 1073.117231 251.97197 
L 1073.117231 107.318374 
L 97.36 107.318374 
z
" style="fill:#ffffff;"/>
   </g>
   <g id="patch_3">
    <path clip-path="url(#pa9bd1f91c8)" d="M 141.712601 251.97197 
L 222.353695 251.97197 
L 222.353695 246.567665 
L 141.712601 246.567665 
z
" style="fill:#b2182b;stroke:#000000;stroke-linejoin:miter;"/>
   </g>
   <g id="patch_4">
    <path clip-path="url(#pa9bd1f91c8)" d="M 343.315335 251.97197 
L 423.956429 251.97197 
L 423.956429 218.449073 
L 343.315335 218.449073 
z
" style="fill:#b2182b;stroke:#000000;stroke-linejoin:miter;"/>
   </g>
   <g id="patch_5">
    <path clip-path="url(#pa9bd1f91c8)" d="M 544.918069 251.97197 
L 625.559162 251.97197 
L 625.559162 246.86409 
L 544.918069 246.86409 
z
" style="fill:#b2182b;stroke:#000000;stroke-linejoin:miter;"/>
   </g>
   <g id="patch_6">
    <path clip-path="url(#pa9bd1f91c8)" d="M 746.520803 251.97197 
L 827.161896 251.97197 
L 827.161896 239.583709 
L 746.520803 239.583709 
z
" style="fill:#b2182b;stroke:#000000;stroke-linejoin:miter;"/>
   </g>
   <g id="patch_7">
    <path clip-path="url(#pa9bd1f91c8)" d="M 948.123536 251.97197 
L 1028.76463 251.97197 
L 1028.76463 221.924471 
L 948.123536 221.924471 
z
" style="fill:#b2182b;stroke:#000000;stroke-linejoin:miter;"/>
   </g>
   <g id="patch_8">
    <path clip-path="url(#pa9bd1f91c8)" d="M 141.712601 246.567665 
L 222.353695 246.567665 
L 222.353695 238.338253 
L 141.712601 238.338253 
z
" style="fill:#d6604d;stroke:#000000;stroke-linejoin:miter;"/>
   </g>
   <g id="patch_9">
    <path clip-path="url(#pa9bd1f91c8)" d="M 343.315335 218.449073 
L 423.956429 218.449073 
L 423.956429 210.211165 
L 343.315335 210.211165 
z
" style="fill:#d6604d;stroke:#000000;stroke-linejoin:miter;"/>
   </g>
   <g id="patch_10">
    <path clip-path="url(#pa9bd1f91c8)" d="M 544.918069 246.86409 
L 625.559162 246.86409 
L 625.559162 238.625724 
L 544.918069 238.625724 
z
" style="fill:#d6604d;stroke:#000000;stroke-linejoin:miter;"/>
   </g>
   <g id="patch_11">
    <path clip-path="url(#pa9bd1f91c8)" d="M 746.520803 239.583709 
L 827.161896 239.583709 
L 827.161896 231.345544 
L 746.520803 231.345544 
z
" style="fill:#d6604d;stroke:#000000;stroke-linejoin:miter;"/>
   </g>
   <g id="patch_12">
    <path clip-path="url(#pa9bd1f91c8)" d="M 948.123536 221.924471 
L 1028.76463 221.924471 
L 1028.76463 213.687286 
L 948.123536 213.687286 
z
" style="fill:#d6604d;stroke:#000000;stroke-linejoin:miter;"/>
   </g>
   <g id="patch_13">
    <path clip-path="url(#pa9bd1f91c8)" d="M 141.712601 238.338253 
L 222.353695 238.338253 
L 222.353695 232.366815 
L 141.712601 232.366815 
z
" style="fill:#f4a582;stroke:#000000;stroke-linejoin:miter;"/>
   </g>
   <g id="patch_14">
    <path clip-path="url(#pa9bd1f91c8)" d="M 343.315335 210.211165 
L 423.956429 210.211165 
L 423.956429 175.999442 
L 343.315335 175.999442 
z
" style="fill:#f4a582;stroke:#000000;stroke-linejoin:miter;"/>
   </g>
   <g id="patch_15">
    <path clip-path="url(#pa9bd1f91c8)" d="M 544.918069 238.625724 
L 625.559162 238.625724 
L 625.559162 233.153226 
L 544.918069 233.153226 
z
" style="fill:#f4a582;stroke:#000000;stroke-linejoin:miter;"/>
   </g>
   <g id="patch_16">
    <path clip-path="url(#pa9bd1f91c8)" d="M 746.520803 231.345544 
L 827.161896 231.345544 
L 827.161896 220.21224 
L 746.520803 220.21224 
z
" style="fill:#f4a582;stroke:#000000;stroke-linejoin:miter;"/>
   </g>
   <g id="patch_17">
    <path clip-path="url(#pa9bd1f91c8)" d="M 948.123536 213.687286 
L 1028.76463 213.687286 
L 1028.76463 184.729636 
L 948.123536 184.729636 
z
" style="fill:#f4a582;stroke:#000000;stroke-linejoin:miter;"/>
   </g>
   <g id="patch_18">
    <path clip-path="url(#pa9bd1f91c8)" d="M 141.712601 232.366815 
L 222.353695 232.366815 
L 222.353695 224.133012 
L 141.712601 224.133012 
z
" style="fill:#fddbc7;stroke:#000000;stroke-linejoin:miter;"/>
   </g>
   <g id="patch_19">
    <path clip-path="url(#pa9bd1f91c8)" d="M 343.315335 175.999442 
L 423.956429 175.999442 
L 423.956429 167.757914 
L 343.315335 167.757914 
z
" style="fill:#fddbc7;stroke:#000000;stroke-linejoin:miter;"/>
   </g>
   <g id="patch_20">
    <path clip-path="url(#pa9bd1f91c8)" d="M 544.918069 233.153226 
L 625.559162 233.153226 
L 625.559162 224.910941 
L 544.918069 224.910941 
z
" style="fill:#fddbc7;stroke:#000000;stroke-linejoin:miter;"/>
   </g>
   <g id="patch_21">
    <path clip-path="url(#pa9bd1f91c8)" d="M 746.520803 220.21224 
L 827.161896 220.21224 
L 827.161896 211.970113 
L 746.520803 211.970113 
z
" style="fill:#fddbc7;stroke:#000000;stroke-linejoin:miter;"/>
   </g>
   <g id="patch_22">
    <path clip-path="url(#pa9bd1f91c8)" d="M 948.123536 184.729636 
L 1028.76463 184.729636 
L 1028.76463 176.488294 
L 948.123536 176.488294 
z
" style="fill:#fddbc7;stroke:#000000;stroke-linejoin:miter;"/>
   </g>
   <g id="patch_23">
    <path clip-path="url(#pa9bd1f91c8)" d="M 141.712601 224.133012 
L 222.353695 224.133012 
L 222.353695 218.15548 
L 141.712601 218.15548 
z
" style="fill:#f7f7f7;stroke:#000000;stroke-linejoin:miter;"/>
   </g>
   <g id="patch_24">
    <path clip-path="url(#pa9bd1f91c8)" d="M 343.315335 167.757914 
L 423.956429 167.757914 
L 423.956429 133.54619 
L 343.315335 133.54619 
z
" style="fill:#f7f7f7;stroke:#000000;stroke-linejoin:miter;"/>
   </g>
   <g id="patch_25">
    <path clip-path="url(#pa9bd1f91c8)" d="M 544.918069 224.910941 
L 625.559162 224.910941 
L 625.559162 219.418324 
L 544.918069 219.418324 
z
" style="fill:#f7f7f7;stroke:#000000;stroke-linejoin:miter;"/>
   </g>
   <g id="patch_26">
    <path clip-path="url(#pa9bd1f91c8)" d="M 746.520803 211.970113 
L 827.161896 211.970113 
L 827.161896 200.824534 
L 746.520803 200.824534 
z
" style="fill:#f7f7f7;stroke:#000000;stroke-linejoin:miter;"/>
   </g>
   <g id="patch_27">
    <path clip-path="url(#pa9bd1f91c8)" d="M 948.123536 176.488294 
L 1028.76463 176.488294 
L 1028.76463 147.516255 
L 948.123536 147.516255 
z
" style="fill:#f7f7f7;stroke:#000000;stroke-linejoin:miter;"/>
   </g>
   <g id="patch_28">
    <path clip-path="url(#pa9bd1f91c8)" d="M 141.712601 218.15548 
L 222.353695 218.15548 
L 222.353695 209.922184 
L 141.712601 209.922184 
z
" style="fill:#d1e5f0;stroke:#000000;stroke-linejoin:miter;"/>
   </g>
   <g id="patch_29">
    <path clip-path="url(#pa9bd1f91c8)" d="M 343.315335 133.54619 
L 423.956429 133.54619 
L 423.956429 125.304508 
L 343.315335 125.304508 
z
" style="fill:#d1e5f0;stroke:#000000;stroke-linejoin:miter;"/>
   </g>
   <g id="patch_30">
    <path clip-path="url(#pa9bd1f91c8)" d="M 544.918069 219.418324 
L 625.559162 219.418324 
L 625.559162 211.1758 
L 544.918069 211.1758 
z
" style="fill:#d1e5f0;stroke:#000000;stroke-linejoin:miter;"/>
   </g>
   <g id="patch_31">
    <path clip-path="url(#pa9bd1f91c8)" d="M 746.520803 200.824534 
L 827.161896 200.824534 
L 827.161896 192.582848 
L 746.520803 192.582848 
z
" style="fill:#d1e5f0;stroke:#000000;stroke-linejoin:miter;"/>
   </g>
   <g id="patch_32">
    <path clip-path="url(#pa9bd1f91c8)" d="M 948.123536 147.516255 
L 1028.76463 147.516255 
L 1028.76463 139.275047 
L 948.123536 139.275047 
z
" style="fill:#d1e5f0;stroke:#000000;stroke-linejoin:miter;"/>
   </g>
   <g id="patch_33">
    <path clip-path="url(#pa9bd1f91c8)" d="M 141.712601 209.922184 
L 222.353695 209.922184 
L 222.353695 209.849857 
L 141.712601 209.849857 
z
" style="fill:#92c5de;stroke:#000000;stroke-linejoin:miter;"/>
   </g>
   <g id="patch_34">
    <path clip-path="url(#pa9bd1f91c8)" d="M 343.315335 125.304508 
L 423.956429 125.304508 
L 423.956429 125.23155 
L 343.315335 125.23155 
z
" style="fill:#92c5de;stroke:#000000;stroke-linejoin:miter;"/>
   </g>
   <g id="patch_35">
    <path clip-path="url(#pa9bd1f91c8)" d="M 544.918069 211.1758 
L 625.559162 211.1758 
L 625.559162 211.104621 
L 544.918069 211.104621 
z
" style="fill:#92c5de;stroke:#000000;stroke-linejoin:miter;"/>
   </g>
   <g id="patch_36">
    <path clip-path="url(#pa9bd1f91c8)" d="M 746.520803 192.582848 
L 827.161896 192.582848 
L 827.161896 192.510291 
L 746.520803 192.510291 
z
" style="fill:#92c5de;stroke:#000000;stroke-linejoin:miter;"/>
   </g>
   <g id="patch_37">
    <path clip-path="url(#pa9bd1f91c8)" d="M 948.123536 139.275047 
L 1028.76463 139.275047 
L 1028.76463 139.197496 
L 948.123536 139.197496 
z
" style="fill:#92c5de;stroke:#000000;stroke-linejoin:miter;"/>
   </g>
   <g id="patch_38">
    <path clip-path="url(#pa9bd1f91c8)" d="M 141.712601 209.849857 
L 222.353695 209.849857 
L 222.353695 209.586151 
L 141.712601 209.586151 
z
" style="fill:#4393c3;stroke:#000000;stroke-linejoin:miter;"/>
   </g>
   <g id="patch_39">
    <path clip-path="url(#pa9bd1f91c8)" d="M 343.315335 125.23155 
L 423.956429 125.23155 
L 423.956429 124.868768 
L 343.315335 124.868768 
z
" style="fill:#4393c3;stroke:#000000;stroke-linejoin:miter;"/>
   </g>
   <g id="patch_40">
    <path clip-path="url(#pa9bd1f91c8)" d="M 544.918069 211.104621 
L 625.559162 211.104621 
L 625.559162 210.790172 
L 544.918069 210.790172 
z
" style="fill:#4393c3;stroke:#000000;stroke-linejoin:miter;"/>
   </g>
   <g id="patch_41">
    <path clip-path="url(#pa9bd1f91c8)" d="M 746.520803 192.510291 
L 827.161896 192.510291 
L 827.161896 192.149289 
L 746.520803 192.149289 
z
" style="fill:#4393c3;stroke:#000000;stroke-linejoin:miter;"/>
   </g>
   <g id="patch_42">
    <path clip-path="url(#pa9bd1f91c8)" d="M 948.123536 139.197496 
L 1028.76463 139.197496 
L 1028.76463 138.520093 
L 948.123536 138.520093 
z
" style="fill:#4393c3;stroke:#000000;stroke-linejoin:miter;"/>
   </g>
   <g id="patch_43">
    <path clip-path="url(#pa9bd1f91c8)" d="M 141.712601 209.586151 
L 222.353695 209.586151 
L 222.353695 209.411036 
L 141.712601 209.411036 
z
" style="fill:#2166ac;stroke:#000000;stroke-linejoin:miter;"/>
   </g>
   <g id="patch_44">
    <path clip-path="url(#pa9bd1f91c8)" d="M 343.315335 124.868768 
L 423.956429 124.868768 
L 423.956429 124.306686 
L 343.315335 124.306686 
z
" style="fill:#2166ac;stroke:#000000;stroke-linejoin:miter;"/>
   </g>
   <g id="patch_45">
    <path clip-path="url(#pa9bd1f91c8)" d="M 544.918069 210.790172 
L 625.559162 210.790172 
L 625.559162 210.612608 
L 544.918069 210.612608 
z
" style="fill:#2166ac;stroke:#000000;stroke-linejoin:miter;"/>
   </g>
   <g id="patch_46">
    <path clip-path="url(#pa9bd1f91c8)" d="M 746.520803 192.149289 
L 827.161896 192.149289 
L 827.161896 191.589196 
L 746.520803 191.589196 
z
" style="fill:#2166ac;stroke:#000000;stroke-linejoin:miter;"/>
   </g>
   <g id="patch_47">
    <path clip-path="url(#pa9bd1f91c8)" d="M 948.123536 138.520093 
L 1028.76463 138.520093 
L 1028.76463 137.00896 
L 948.123536 137.00896 
z
" style="fill:#2166ac;stroke:#000000;stroke-linejoin:miter;"/>
   </g>
   <g id="patch_48">
    <path clip-path="url(#pa9bd1f91c8)" d="M 141.712601 209.411036 
L 222.353695 209.411036 
L 222.353695 209.247937 
L 141.712601 209.247937 
z
" style="fill:#66c2a5;stroke:#000000;stroke-linejoin:miter;"/>
   </g>
   <g id="patch_49">
    <path clip-path="url(#pa9bd1f91c8)" d="M 343.315335 124.306686 
L 423.956429 124.306686 
L 423.956429 124.143089 
L 343.315335 124.143089 
z
" style="fill:#66c2a5;stroke:#000000;stroke-linejoin:miter;"/>
   </g>
   <g id="patch_50">
    <path clip-path="url(#pa9bd1f91c8)" d="M 544.918069 210.612608 
L 625.559162 210.612608 
L 625.559162 210.447519 
L 544.918069 210.447519 
z
" style="fill:#66c2a5;stroke:#000000;stroke-linejoin:miter;"/>
   </g>
   <g id="patch_51">
    <path clip-path="url(#pa9bd1f91c8)" d="M 746.520803 191.589196 
L 827.161896 191.589196 
L 827.161896 191.425906 
L 746.520803 191.425906 
z
" style="fill:#66c2a5;stroke:#000000;stroke-linejoin:miter;"/>
   </g>
   <g id="patch_52">
    <path clip-path="url(#pa9bd1f91c8)" d="M 948.123536 137.00896 
L 1028.76463 137.00896 
L 1028.76463 136.845096 
L 948.123536 136.845096 
z
" style="fill:#66c2a5;stroke:#000000;stroke-linejoin:miter;"/>
   </g>
   <g id="matplotlib.axis_1">
    <g id="xtick_1">
     <g id="line2d_1">
      <defs>
       <path d="M 0 0 
L 0 3.5 
" id="m5163a2a3d0" style="stroke:#000000;stroke-width:0.8;"/>
      </defs>
      <g>
       <use style="stroke:#000000;stroke-width:0.8;" x="182.033148" xlink:href="#m5163a2a3d0" y="251.97197"/>
      </g>
     </g>
     <g id="text_1">
      <!-- Dense(bsz=1) -->
      <defs>
       <path d="M 19.671875 64.796875 
L 19.671875 8.109375 
L 31.59375 8.109375 
Q 46.6875 8.109375 53.6875 14.9375 
Q 60.6875 21.78125 60.6875 36.53125 
Q 60.6875 51.171875 53.6875 57.984375 
Q 46.6875 64.796875 31.59375 64.796875 
z
M 9.8125 72.90625 
L 30.078125 72.90625 
Q 51.265625 72.90625 61.171875 64.09375 
Q 71.09375 55.28125 71.09375 36.53125 
Q 71.09375 17.671875 61.125 8.828125 
Q 51.171875 0 30.078125 0 
L 9.8125 0 
z
" id="DejaVuSans-68"/>
       <path d="M 56.203125 29.59375 
L 56.203125 25.203125 
L 14.890625 25.203125 
Q 15.484375 15.921875 20.484375 11.0625 
Q 25.484375 6.203125 34.421875 6.203125 
Q 39.59375 6.203125 44.453125 7.46875 
Q 49.3125 8.734375 54.109375 11.28125 
L 54.109375 2.78125 
Q 49.265625 0.734375 44.1875 -0.34375 
Q 39.109375 -1.421875 33.890625 -1.421875 
Q 20.796875 -1.421875 13.15625 6.1875 
Q 5.515625 13.8125 5.515625 26.8125 
Q 5.515625 40.234375 12.765625 48.109375 
Q 20.015625 56 32.328125 56 
Q 43.359375 56 49.78125 48.890625 
Q 56.203125 41.796875 56.203125 29.59375 
z
M 47.21875 32.234375 
Q 47.125 39.59375 43.09375 43.984375 
Q 39.0625 48.390625 32.421875 48.390625 
Q 24.90625 48.390625 20.390625 44.140625 
Q 15.875 39.890625 15.1875 32.171875 
z
" id="DejaVuSans-101"/>
       <path d="M 54.890625 33.015625 
L 54.890625 0 
L 45.90625 0 
L 45.90625 32.71875 
Q 45.90625 40.484375 42.875 44.328125 
Q 39.84375 48.1875 33.796875 48.1875 
Q 26.515625 48.1875 22.3125 43.546875 
Q 18.109375 38.921875 18.109375 30.90625 
L 18.109375 0 
L 9.078125 0 
L 9.078125 54.6875 
L 18.109375 54.6875 
L 18.109375 46.1875 
Q 21.34375 51.125 25.703125 53.5625 
Q 30.078125 56 35.796875 56 
Q 45.21875 56 50.046875 50.171875 
Q 54.890625 44.34375 54.890625 33.015625 
z
" id="DejaVuSans-110"/>
       <path d="M 44.28125 53.078125 
L 44.28125 44.578125 
Q 40.484375 46.53125 36.375 47.5 
Q 32.28125 48.484375 27.875 48.484375 
Q 21.1875 48.484375 17.84375 46.4375 
Q 14.5 44.390625 14.5 40.28125 
Q 14.5 37.15625 16.890625 35.375 
Q 19.28125 33.59375 26.515625 31.984375 
L 29.59375 31.296875 
Q 39.15625 29.25 43.1875 25.515625 
Q 47.21875 21.78125 47.21875 15.09375 
Q 47.21875 7.46875 41.1875 3.015625 
Q 35.15625 -1.421875 24.609375 -1.421875 
Q 20.21875 -1.421875 15.453125 -0.5625 
Q 10.6875 0.296875 5.421875 2 
L 5.421875 11.28125 
Q 10.40625 8.6875 15.234375 7.390625 
Q 20.0625 6.109375 24.8125 6.109375 
Q 31.15625 6.109375 34.5625 8.28125 
Q 37.984375 10.453125 37.984375 14.40625 
Q 37.984375 18.0625 35.515625 20.015625 
Q 33.0625 21.96875 24.703125 23.78125 
L 21.578125 24.515625 
Q 13.234375 26.265625 9.515625 29.90625 
Q 5.8125 33.546875 5.8125 39.890625 
Q 5.8125 47.609375 11.28125 51.796875 
Q 16.75 56 26.8125 56 
Q 31.78125 56 36.171875 55.265625 
Q 40.578125 54.546875 44.28125 53.078125 
z
" id="DejaVuSans-115"/>
       <path d="M 31 75.875 
Q 24.46875 64.65625 21.28125 53.65625 
Q 18.109375 42.671875 18.109375 31.390625 
Q 18.109375 20.125 21.3125 9.0625 
Q 24.515625 -2 31 -13.1875 
L 23.1875 -13.1875 
Q 15.875 -1.703125 12.234375 9.375 
Q 8.59375 20.453125 8.59375 31.390625 
Q 8.59375 42.28125 12.203125 53.3125 
Q 15.828125 64.359375 23.1875 75.875 
z
" id="DejaVuSans-40"/>
       <path d="M 48.6875 27.296875 
Q 48.6875 37.203125 44.609375 42.84375 
Q 40.53125 48.484375 33.40625 48.484375 
Q 26.265625 48.484375 22.1875 42.84375 
Q 18.109375 37.203125 18.109375 27.296875 
Q 18.109375 17.390625 22.1875 11.75 
Q 26.265625 6.109375 33.40625 6.109375 
Q 40.53125 6.109375 44.609375 11.75 
Q 48.6875 17.390625 48.6875 27.296875 
z
M 18.109375 46.390625 
Q 20.953125 51.265625 25.265625 53.625 
Q 29.59375 56 35.59375 56 
Q 45.5625 56 51.78125 48.09375 
Q 58.015625 40.1875 58.015625 27.296875 
Q 58.015625 14.40625 51.78125 6.484375 
Q 45.5625 -1.421875 35.59375 -1.421875 
Q 29.59375 -1.421875 25.265625 0.953125 
Q 20.953125 3.328125 18.109375 8.203125 
L 18.109375 0 
L 9.078125 0 
L 9.078125 75.984375 
L 18.109375 75.984375 
z
" id="DejaVuSans-98"/>
       <path d="M 5.515625 54.6875 
L 48.1875 54.6875 
L 48.1875 46.484375 
L 14.40625 7.171875 
L 48.1875 7.171875 
L 48.1875 0 
L 4.296875 0 
L 4.296875 8.203125 
L 38.09375 47.515625 
L 5.515625 47.515625 
z
" id="DejaVuSans-122"/>
       <path d="M 10.59375 45.40625 
L 73.1875 45.40625 
L 73.1875 37.203125 
L 10.59375 37.203125 
z
M 10.59375 25.484375 
L 73.1875 25.484375 
L 73.1875 17.1875 
L 10.59375 17.1875 
z
" id="DejaVuSans-61"/>
       <path d="M 12.40625 8.296875 
L 28.515625 8.296875 
L 28.515625 63.921875 
L 10.984375 60.40625 
L 10.984375 69.390625 
L 28.421875 72.90625 
L 38.28125 72.90625 
L 38.28125 8.296875 
L 54.390625 8.296875 
L 54.390625 0 
L 12.40625 0 
z
" id="DejaVuSans-49"/>
       <path d="M 8.015625 75.875 
L 15.828125 75.875 
Q 23.140625 64.359375 26.78125 53.3125 
Q 30.421875 42.28125 30.421875 31.390625 
Q 30.421875 20.453125 26.78125 9.375 
Q 23.140625 -1.703125 15.828125 -13.1875 
L 8.015625 -13.1875 
Q 14.5 -2 17.703125 9.0625 
Q 20.90625 20.125 20.90625 31.390625 
Q 20.90625 42.671875 17.703125 53.65625 
Q 14.5 64.65625 8.015625 75.875 
z
" id="DejaVuSans-41"/>
      </defs>
      <g transform="translate(100.492758 276.448376)scale(0.23 -0.23)">
       <use xlink:href="#DejaVuSans-68"/>
       <use x="77.001953" xlink:href="#DejaVuSans-101"/>
       <use x="138.525391" xlink:href="#DejaVuSans-110"/>
       <use x="201.904297" xlink:href="#DejaVuSans-115"/>
       <use x="254.003906" xlink:href="#DejaVuSans-101"/>
       <use x="315.527344" xlink:href="#DejaVuSans-40"/>
       <use x="354.541016" xlink:href="#DejaVuSans-98"/>
       <use x="418.017578" xlink:href="#DejaVuSans-115"/>
       <use x="470.117188" xlink:href="#DejaVuSans-122"/>
       <use x="522.607422" xlink:href="#DejaVuSans-61"/>
       <use x="606.396484" xlink:href="#DejaVuSans-49"/>
       <use x="670.019531" xlink:href="#DejaVuSans-41"/>
      </g>
     </g>
    </g>
    <g id="xtick_2">
     <g id="line2d_2">
      <g>
       <use style="stroke:#000000;stroke-width:0.8;" x="383.635882" xlink:href="#m5163a2a3d0" y="251.97197"/>
      </g>
     </g>
     <g id="text_2">
      <!-- Dense(bsz=10) -->
      <defs>
       <path d="M 31.78125 66.40625 
Q 24.171875 66.40625 20.328125 58.90625 
Q 16.5 51.421875 16.5 36.375 
Q 16.5 21.390625 20.328125 13.890625 
Q 24.171875 6.390625 31.78125 6.390625 
Q 39.453125 6.390625 43.28125 13.890625 
Q 47.125 21.390625 47.125 36.375 
Q 47.125 51.421875 43.28125 58.90625 
Q 39.453125 66.40625 31.78125 66.40625 
z
M 31.78125 74.21875 
Q 44.046875 74.21875 50.515625 64.515625 
Q 56.984375 54.828125 56.984375 36.375 
Q 56.984375 17.96875 50.515625 8.265625 
Q 44.046875 -1.421875 31.78125 -1.421875 
Q 19.53125 -1.421875 13.0625 8.265625 
Q 6.59375 17.96875 6.59375 36.375 
Q 6.59375 54.828125 13.0625 64.515625 
Q 19.53125 74.21875 31.78125 74.21875 
z
" id="DejaVuSans-48"/>
      </defs>
      <g transform="translate(294.778616 276.448376)scale(0.23 -0.23)">
       <use xlink:href="#DejaVuSans-68"/>
       <use x="77.001953" xlink:href="#DejaVuSans-101"/>
       <use x="138.525391" xlink:href="#DejaVuSans-110"/>
       <use x="201.904297" xlink:href="#DejaVuSans-115"/>
       <use x="254.003906" xlink:href="#DejaVuSans-101"/>
       <use x="315.527344" xlink:href="#DejaVuSans-40"/>
       <use x="354.541016" xlink:href="#DejaVuSans-98"/>
       <use x="418.017578" xlink:href="#DejaVuSans-115"/>
       <use x="470.117188" xlink:href="#DejaVuSans-122"/>
       <use x="522.607422" xlink:href="#DejaVuSans-61"/>
       <use x="606.396484" xlink:href="#DejaVuSans-49"/>
       <use x="670.019531" xlink:href="#DejaVuSans-48"/>
       <use x="733.642578" xlink:href="#DejaVuSans-41"/>
      </g>
     </g>
    </g>
    <g id="xtick_3">
     <g id="line2d_3">
      <g>
       <use style="stroke:#000000;stroke-width:0.8;" x="585.238616" xlink:href="#m5163a2a3d0" y="251.97197"/>
      </g>
     </g>
     <g id="text_3">
      <!-- Sparse(bsz=1) -->
      <defs>
       <path d="M 53.515625 70.515625 
L 53.515625 60.890625 
Q 47.90625 63.578125 42.921875 64.890625 
Q 37.9375 66.21875 33.296875 66.21875 
Q 25.25 66.21875 20.875 63.09375 
Q 16.5 59.96875 16.5 54.203125 
Q 16.5 49.359375 19.40625 46.890625 
Q 22.3125 44.4375 30.421875 42.921875 
L 36.375 41.703125 
Q 47.40625 39.59375 52.65625 34.296875 
Q 57.90625 29 57.90625 20.125 
Q 57.90625 9.515625 50.796875 4.046875 
Q 43.703125 -1.421875 29.984375 -1.421875 
Q 24.8125 -1.421875 18.96875 -0.25 
Q 13.140625 0.921875 6.890625 3.21875 
L 6.890625 13.375 
Q 12.890625 10.015625 18.65625 8.296875 
Q 24.421875 6.59375 29.984375 6.59375 
Q 38.421875 6.59375 43.015625 9.90625 
Q 47.609375 13.234375 47.609375 19.390625 
Q 47.609375 24.75 44.3125 27.78125 
Q 41.015625 30.8125 33.5 32.328125 
L 27.484375 33.5 
Q 16.453125 35.6875 11.515625 40.375 
Q 6.59375 45.0625 6.59375 53.421875 
Q 6.59375 63.09375 13.40625 68.65625 
Q 20.21875 74.21875 32.171875 74.21875 
Q 37.3125 74.21875 42.625 73.28125 
Q 47.953125 72.359375 53.515625 70.515625 
z
" id="DejaVuSans-83"/>
       <path d="M 18.109375 8.203125 
L 18.109375 -20.796875 
L 9.078125 -20.796875 
L 9.078125 54.6875 
L 18.109375 54.6875 
L 18.109375 46.390625 
Q 20.953125 51.265625 25.265625 53.625 
Q 29.59375 56 35.59375 56 
Q 45.5625 56 51.78125 48.09375 
Q 58.015625 40.1875 58.015625 27.296875 
Q 58.015625 14.40625 51.78125 6.484375 
Q 45.5625 -1.421875 35.59375 -1.421875 
Q 29.59375 -1.421875 25.265625 0.953125 
Q 20.953125 3.328125 18.109375 8.203125 
z
M 48.6875 27.296875 
Q 48.6875 37.203125 44.609375 42.84375 
Q 40.53125 48.484375 33.40625 48.484375 
Q 26.265625 48.484375 22.1875 42.84375 
Q 18.109375 37.203125 18.109375 27.296875 
Q 18.109375 17.390625 22.1875 11.75 
Q 26.265625 6.109375 33.40625 6.109375 
Q 40.53125 6.109375 44.609375 11.75 
Q 48.6875 17.390625 48.6875 27.296875 
z
" id="DejaVuSans-112"/>
       <path d="M 34.28125 27.484375 
Q 23.390625 27.484375 19.1875 25 
Q 14.984375 22.515625 14.984375 16.5 
Q 14.984375 11.71875 18.140625 8.90625 
Q 21.296875 6.109375 26.703125 6.109375 
Q 34.1875 6.109375 38.703125 11.40625 
Q 43.21875 16.703125 43.21875 25.484375 
L 43.21875 27.484375 
z
M 52.203125 31.203125 
L 52.203125 0 
L 43.21875 0 
L 43.21875 8.296875 
Q 40.140625 3.328125 35.546875 0.953125 
Q 30.953125 -1.421875 24.3125 -1.421875 
Q 15.921875 -1.421875 10.953125 3.296875 
Q 6 8.015625 6 15.921875 
Q 6 25.140625 12.171875 29.828125 
Q 18.359375 34.515625 30.609375 34.515625 
L 43.21875 34.515625 
L 43.21875 35.40625 
Q 43.21875 41.609375 39.140625 45 
Q 35.0625 48.390625 27.6875 48.390625 
Q 23 48.390625 18.546875 47.265625 
Q 14.109375 46.140625 10.015625 43.890625 
L 10.015625 52.203125 
Q 14.9375 54.109375 19.578125 55.046875 
Q 24.21875 56 28.609375 56 
Q 40.484375 56 46.34375 49.84375 
Q 52.203125 43.703125 52.203125 31.203125 
z
" id="DejaVuSans-97"/>
       <path d="M 41.109375 46.296875 
Q 39.59375 47.171875 37.8125 47.578125 
Q 36.03125 48 33.890625 48 
Q 26.265625 48 22.1875 43.046875 
Q 18.109375 38.09375 18.109375 28.8125 
L 18.109375 0 
L 9.078125 0 
L 9.078125 54.6875 
L 18.109375 54.6875 
L 18.109375 46.1875 
Q 20.953125 51.171875 25.484375 53.578125 
Q 30.03125 56 36.53125 56 
Q 37.453125 56 38.578125 55.875 
Q 39.703125 55.765625 41.0625 55.515625 
z
" id="DejaVuSans-114"/>
      </defs>
      <g transform="translate(500.541116 276.448376)scale(0.23 -0.23)">
       <use xlink:href="#DejaVuSans-83"/>
       <use x="63.476562" xlink:href="#DejaVuSans-112"/>
       <use x="126.953125" xlink:href="#DejaVuSans-97"/>
       <use x="188.232422" xlink:href="#DejaVuSans-114"/>
       <use x="229.345703" xlink:href="#DejaVuSans-115"/>
       <use x="281.445312" xlink:href="#DejaVuSans-101"/>
       <use x="342.96875" xlink:href="#DejaVuSans-40"/>
       <use x="381.982422" xlink:href="#DejaVuSans-98"/>
       <use x="445.458984" xlink:href="#DejaVuSans-115"/>
       <use x="497.558594" xlink:href="#DejaVuSans-122"/>
       <use x="550.048828" xlink:href="#DejaVuSans-61"/>
       <use x="633.837891" xlink:href="#DejaVuSans-49"/>
       <use x="697.460938" xlink:href="#DejaVuSans-41"/>
      </g>
     </g>
    </g>
    <g id="xtick_4">
     <g id="line2d_4">
      <g>
       <use style="stroke:#000000;stroke-width:0.8;" x="786.841349" xlink:href="#m5163a2a3d0" y="251.97197"/>
      </g>
     </g>
     <g id="text_4">
      <!-- Sparse(bsz=10) -->
      <g transform="translate(694.826974 276.448376)scale(0.23 -0.23)">
       <use xlink:href="#DejaVuSans-83"/>
       <use x="63.476562" xlink:href="#DejaVuSans-112"/>
       <use x="126.953125" xlink:href="#DejaVuSans-97"/>
       <use x="188.232422" xlink:href="#DejaVuSans-114"/>
       <use x="229.345703" xlink:href="#DejaVuSans-115"/>
       <use x="281.445312" xlink:href="#DejaVuSans-101"/>
       <use x="342.96875" xlink:href="#DejaVuSans-40"/>
       <use x="381.982422" xlink:href="#DejaVuSans-98"/>
       <use x="445.458984" xlink:href="#DejaVuSans-115"/>
       <use x="497.558594" xlink:href="#DejaVuSans-122"/>
       <use x="550.048828" xlink:href="#DejaVuSans-61"/>
       <use x="633.837891" xlink:href="#DejaVuSans-49"/>
       <use x="697.460938" xlink:href="#DejaVuSans-48"/>
       <use x="761.083984" xlink:href="#DejaVuSans-41"/>
      </g>
     </g>
    </g>
    <g id="xtick_5">
     <g id="line2d_5">
      <g>
       <use style="stroke:#000000;stroke-width:0.8;" x="988.444083" xlink:href="#m5163a2a3d0" y="251.97197"/>
      </g>
     </g>
     <g id="text_5">
      <!-- Sparse(bsz=32) -->
      <defs>
       <path d="M 40.578125 39.3125 
Q 47.65625 37.796875 51.625 33 
Q 55.609375 28.21875 55.609375 21.1875 
Q 55.609375 10.40625 48.1875 4.484375 
Q 40.765625 -1.421875 27.09375 -1.421875 
Q 22.515625 -1.421875 17.65625 -0.515625 
Q 12.796875 0.390625 7.625 2.203125 
L 7.625 11.71875 
Q 11.71875 9.328125 16.59375 8.109375 
Q 21.484375 6.890625 26.8125 6.890625 
Q 36.078125 6.890625 40.9375 10.546875 
Q 45.796875 14.203125 45.796875 21.1875 
Q 45.796875 27.640625 41.28125 31.265625 
Q 36.765625 34.90625 28.71875 34.90625 
L 20.21875 34.90625 
L 20.21875 43.015625 
L 29.109375 43.015625 
Q 36.375 43.015625 40.234375 45.921875 
Q 44.09375 48.828125 44.09375 54.296875 
Q 44.09375 59.90625 40.109375 62.90625 
Q 36.140625 65.921875 28.71875 65.921875 
Q 24.65625 65.921875 20.015625 65.03125 
Q 15.375 64.15625 9.8125 62.3125 
L 9.8125 71.09375 
Q 15.4375 72.65625 20.34375 73.4375 
Q 25.25 74.21875 29.59375 74.21875 
Q 40.828125 74.21875 47.359375 69.109375 
Q 53.90625 64.015625 53.90625 55.328125 
Q 53.90625 49.265625 50.4375 45.09375 
Q 46.96875 40.921875 40.578125 39.3125 
z
" id="DejaVuSans-51"/>
       <path d="M 19.1875 8.296875 
L 53.609375 8.296875 
L 53.609375 0 
L 7.328125 0 
L 7.328125 8.296875 
Q 12.9375 14.109375 22.625 23.890625 
Q 32.328125 33.6875 34.8125 36.53125 
Q 39.546875 41.84375 41.421875 45.53125 
Q 43.3125 49.21875 43.3125 52.78125 
Q 43.3125 58.59375 39.234375 62.25 
Q 35.15625 65.921875 28.609375 65.921875 
Q 23.96875 65.921875 18.8125 64.3125 
Q 13.671875 62.703125 7.8125 59.421875 
L 7.8125 69.390625 
Q 13.765625 71.78125 18.9375 73 
Q 24.125 74.21875 28.421875 74.21875 
Q 39.75 74.21875 46.484375 68.546875 
Q 53.21875 62.890625 53.21875 53.421875 
Q 53.21875 48.921875 51.53125 44.890625 
Q 49.859375 40.875 45.40625 35.40625 
Q 44.1875 33.984375 37.640625 27.21875 
Q 31.109375 20.453125 19.1875 8.296875 
z
" id="DejaVuSans-50"/>
      </defs>
      <g transform="translate(896.429708 276.448376)scale(0.23 -0.23)">
       <use xlink:href="#DejaVuSans-83"/>
       <use x="63.476562" xlink:href="#DejaVuSans-112"/>
       <use x="126.953125" xlink:href="#DejaVuSans-97"/>
       <use x="188.232422" xlink:href="#DejaVuSans-114"/>
       <use x="229.345703" xlink:href="#DejaVuSans-115"/>
       <use x="281.445312" xlink:href="#DejaVuSans-101"/>
       <use x="342.96875" xlink:href="#DejaVuSans-40"/>
       <use x="381.982422" xlink:href="#DejaVuSans-98"/>
       <use x="445.458984" xlink:href="#DejaVuSans-115"/>
       <use x="497.558594" xlink:href="#DejaVuSans-122"/>
       <use x="550.048828" xlink:href="#DejaVuSans-61"/>
       <use x="633.837891" xlink:href="#DejaVuSans-51"/>
       <use x="697.460938" xlink:href="#DejaVuSans-50"/>
       <use x="761.083984" xlink:href="#DejaVuSans-41"/>
      </g>
     </g>
    </g>
   </g>
   <g id="matplotlib.axis_2">
    <g id="ytick_1">
     <g id="line2d_6">
      <defs>
       <path d="M 0 0 
L -3.5 0 
" id="mc2059b4bb2" style="stroke:#000000;stroke-width:0.8;"/>
      </defs>
      <g>
       <use style="stroke:#000000;stroke-width:0.8;" x="97.36" xlink:href="#mc2059b4bb2" y="251.97197"/>
      </g>
     </g>
     <g id="text_6">
      <!-- 0 -->
      <g transform="translate(76.3625 260.330251)scale(0.22 -0.22)">
       <use xlink:href="#DejaVuSans-48"/>
      </g>
     </g>
    </g>
    <g id="ytick_2">
     <g id="line2d_7">
      <g>
       <use style="stroke:#000000;stroke-width:0.8;" x="97.36" xlink:href="#mc2059b4bb2" y="206.050193"/>
      </g>
     </g>
     <g id="text_7">
      <!-- 2000 -->
      <g transform="translate(34.37 214.408475)scale(0.22 -0.22)">
       <use xlink:href="#DejaVuSans-50"/>
       <use x="63.623047" xlink:href="#DejaVuSans-48"/>
       <use x="127.246094" xlink:href="#DejaVuSans-48"/>
       <use x="190.869141" xlink:href="#DejaVuSans-48"/>
      </g>
     </g>
    </g>
    <g id="ytick_3">
     <g id="line2d_8">
      <g>
       <use style="stroke:#000000;stroke-width:0.8;" x="97.36" xlink:href="#mc2059b4bb2" y="160.128417"/>
      </g>
     </g>
     <g id="text_8">
      <!-- 4000 -->
      <defs>
       <path d="M 37.796875 64.3125 
L 12.890625 25.390625 
L 37.796875 25.390625 
z
M 35.203125 72.90625 
L 47.609375 72.90625 
L 47.609375 25.390625 
L 58.015625 25.390625 
L 58.015625 17.1875 
L 47.609375 17.1875 
L 47.609375 0 
L 37.796875 0 
L 37.796875 17.1875 
L 4.890625 17.1875 
L 4.890625 26.703125 
z
" id="DejaVuSans-52"/>
      </defs>
      <g transform="translate(34.37 168.486698)scale(0.22 -0.22)">
       <use xlink:href="#DejaVuSans-52"/>
       <use x="63.623047" xlink:href="#DejaVuSans-48"/>
       <use x="127.246094" xlink:href="#DejaVuSans-48"/>
       <use x="190.869141" xlink:href="#DejaVuSans-48"/>
      </g>
     </g>
    </g>
    <g id="ytick_4">
     <g id="line2d_9">
      <g>
       <use style="stroke:#000000;stroke-width:0.8;" x="97.36" xlink:href="#mc2059b4bb2" y="114.206641"/>
      </g>
     </g>
     <g id="text_9">
      <!-- 6000 -->
      <defs>
       <path d="M 33.015625 40.375 
Q 26.375 40.375 22.484375 35.828125 
Q 18.609375 31.296875 18.609375 23.390625 
Q 18.609375 15.53125 22.484375 10.953125 
Q 26.375 6.390625 33.015625 6.390625 
Q 39.65625 6.390625 43.53125 10.953125 
Q 47.40625 15.53125 47.40625 23.390625 
Q 47.40625 31.296875 43.53125 35.828125 
Q 39.65625 40.375 33.015625 40.375 
z
M 52.59375 71.296875 
L 52.59375 62.3125 
Q 48.875 64.0625 45.09375 64.984375 
Q 41.3125 65.921875 37.59375 65.921875 
Q 27.828125 65.921875 22.671875 59.328125 
Q 17.53125 52.734375 16.796875 39.40625 
Q 19.671875 43.65625 24.015625 45.921875 
Q 28.375 48.1875 33.59375 48.1875 
Q 44.578125 48.1875 50.953125 41.515625 
Q 57.328125 34.859375 57.328125 23.390625 
Q 57.328125 12.15625 50.6875 5.359375 
Q 44.046875 -1.421875 33.015625 -1.421875 
Q 20.359375 -1.421875 13.671875 8.265625 
Q 6.984375 17.96875 6.984375 36.375 
Q 6.984375 53.65625 15.1875 63.9375 
Q 23.390625 74.21875 37.203125 74.21875 
Q 40.921875 74.21875 44.703125 73.484375 
Q 48.484375 72.75 52.59375 71.296875 
z
" id="DejaVuSans-54"/>
      </defs>
      <g transform="translate(34.37 122.564922)scale(0.22 -0.22)">
       <use xlink:href="#DejaVuSans-54"/>
       <use x="63.623047" xlink:href="#DejaVuSans-48"/>
       <use x="127.246094" xlink:href="#DejaVuSans-48"/>
       <use x="190.869141" xlink:href="#DejaVuSans-48"/>
      </g>
     </g>
    </g>
   </g>
   <g id="line2d_10">
    <path clip-path="url(#pa9bd1f91c8)" d="M 97.36 206.050193 
L 1073.117231 206.050193 
" style="fill:none;stroke:#808080;stroke-dasharray:5.55,2.4;stroke-dashoffset:0;stroke-width:1.5;"/>
   </g>
   <g id="line2d_11">
    <path clip-path="url(#pa9bd1f91c8)" d="M 97.36 160.128417 
L 1073.117231 160.128417 
" style="fill:none;stroke:#808080;stroke-dasharray:5.55,2.4;stroke-dashoffset:0;stroke-width:1.5;"/>
   </g>
   <g id="line2d_12">
    <path clip-path="url(#pa9bd1f91c8)" d="M 97.36 114.206641 
L 1073.117231 114.206641 
" style="fill:none;stroke:#808080;stroke-dasharray:5.55,2.4;stroke-dashoffset:0;stroke-width:1.5;"/>
   </g>
   <g id="patch_53">
    <path d="M 97.36 251.97197 
L 97.36 107.318374 
" style="fill:none;stroke:#000000;stroke-linecap:square;stroke-linejoin:miter;stroke-width:0.8;"/>
   </g>
   <g id="patch_54">
    <path d="M 1073.117231 251.97197 
L 1073.117231 107.318374 
" style="fill:none;stroke:#000000;stroke-linecap:square;stroke-linejoin:miter;stroke-width:0.8;"/>
   </g>
   <g id="patch_55">
    <path d="M 97.36 251.97197 
L 1073.117231 251.97197 
" style="fill:none;stroke:#000000;stroke-linecap:square;stroke-linejoin:miter;stroke-width:0.8;"/>
   </g>
   <g id="patch_56">
    <path d="M 97.36 107.318374 
L 1073.117231 107.318374 
" style="fill:none;stroke:#000000;stroke-linecap:square;stroke-linejoin:miter;stroke-width:0.8;"/>
   </g>
   <g id="legend_1">
    <g id="patch_57">
     <path d="M 150.014096 102.38125 
L 981.432846 102.38125 
Q 985.432846 102.38125 985.432846 98.38125 
L 985.432846 11.2 
Q 985.432846 7.2 981.432846 7.2 
L 150.014096 7.2 
Q 146.014096 7.2 146.014096 11.2 
L 146.014096 98.38125 
Q 146.014096 102.38125 150.014096 102.38125 
z
" style="fill:#ffffff;opacity:0.8;stroke:#cccccc;stroke-linejoin:miter;"/>
    </g>
    <g id="patch_58">
     <path d="M 154.014096 30.396875 
L 194.014096 30.396875 
L 194.014096 16.396875 
L 154.014096 16.396875 
z
" style="fill:#b2182b;stroke:#000000;stroke-linejoin:miter;"/>
    </g>
    <g id="text_10">
     <!-- matmul(w2) -->
     <defs>
      <path d="M 52 44.1875 
Q 55.375 50.25 60.0625 53.125 
Q 64.75 56 71.09375 56 
Q 79.640625 56 84.28125 50.015625 
Q 88.921875 44.046875 88.921875 33.015625 
L 88.921875 0 
L 79.890625 0 
L 79.890625 32.71875 
Q 79.890625 40.578125 77.09375 44.375 
Q 74.3125 48.1875 68.609375 48.1875 
Q 61.625 48.1875 57.5625 43.546875 
Q 53.515625 38.921875 53.515625 30.90625 
L 53.515625 0 
L 44.484375 0 
L 44.484375 32.71875 
Q 44.484375 40.625 41.703125 44.40625 
Q 38.921875 48.1875 33.109375 48.1875 
Q 26.21875 48.1875 22.15625 43.53125 
Q 18.109375 38.875 18.109375 30.90625 
L 18.109375 0 
L 9.078125 0 
L 9.078125 54.6875 
L 18.109375 54.6875 
L 18.109375 46.1875 
Q 21.1875 51.21875 25.484375 53.609375 
Q 29.78125 56 35.6875 56 
Q 41.65625 56 45.828125 52.96875 
Q 50 49.953125 52 44.1875 
z
" id="DejaVuSans-109"/>
      <path d="M 18.3125 70.21875 
L 18.3125 54.6875 
L 36.8125 54.6875 
L 36.8125 47.703125 
L 18.3125 47.703125 
L 18.3125 18.015625 
Q 18.3125 11.328125 20.140625 9.421875 
Q 21.96875 7.515625 27.59375 7.515625 
L 36.8125 7.515625 
L 36.8125 0 
L 27.59375 0 
Q 17.1875 0 13.234375 3.875 
Q 9.28125 7.765625 9.28125 18.015625 
L 9.28125 47.703125 
L 2.6875 47.703125 
L 2.6875 54.6875 
L 9.28125 54.6875 
L 9.28125 70.21875 
z
" id="DejaVuSans-116"/>
      <path d="M 8.5 21.578125 
L 8.5 54.6875 
L 17.484375 54.6875 
L 17.484375 21.921875 
Q 17.484375 14.15625 20.5 10.265625 
Q 23.53125 6.390625 29.59375 6.390625 
Q 36.859375 6.390625 41.078125 11.03125 
Q 45.3125 15.671875 45.3125 23.6875 
L 45.3125 54.6875 
L 54.296875 54.6875 
L 54.296875 0 
L 45.3125 0 
L 45.3125 8.40625 
Q 42.046875 3.421875 37.71875 1 
Q 33.40625 -1.421875 27.6875 -1.421875 
Q 18.265625 -1.421875 13.375 4.4375 
Q 8.5 10.296875 8.5 21.578125 
z
M 31.109375 56 
z
" id="DejaVuSans-117"/>
      <path d="M 9.421875 75.984375 
L 18.40625 75.984375 
L 18.40625 0 
L 9.421875 0 
z
" id="DejaVuSans-108"/>
      <path d="M 4.203125 54.6875 
L 13.1875 54.6875 
L 24.421875 12.015625 
L 35.59375 54.6875 
L 46.1875 54.6875 
L 57.421875 12.015625 
L 68.609375 54.6875 
L 77.59375 54.6875 
L 63.28125 0 
L 52.6875 0 
L 40.921875 44.828125 
L 29.109375 0 
L 18.5 0 
z
" id="DejaVuSans-119"/>
     </defs>
     <g transform="translate(210.014096 30.396875)scale(0.2 -0.2)">
      <use xlink:href="#DejaVuSans-109"/>
      <use x="97.412109" xlink:href="#DejaVuSans-97"/>
      <use x="158.691406" xlink:href="#DejaVuSans-116"/>
      <use x="197.900391" xlink:href="#DejaVuSans-109"/>
      <use x="295.3125" xlink:href="#DejaVuSans-117"/>
      <use x="358.691406" xlink:href="#DejaVuSans-108"/>
      <use x="386.474609" xlink:href="#DejaVuSans-40"/>
      <use x="425.488281" xlink:href="#DejaVuSans-119"/>
      <use x="507.275391" xlink:href="#DejaVuSans-50"/>
      <use x="570.898438" xlink:href="#DejaVuSans-41"/>
     </g>
    </g>
    <g id="patch_59">
     <path d="M 154.014096 59.753125 
L 194.014096 59.753125 
L 194.014096 45.753125 
L 154.014096 45.753125 
z
" style="fill:#d6604d;stroke:#000000;stroke-linejoin:miter;"/>
    </g>
    <g id="text_11">
     <!-- w2_dequant -->
     <defs>
      <path d="M 50.984375 -16.609375 
L 50.984375 -23.578125 
L -0.984375 -23.578125 
L -0.984375 -16.609375 
z
" id="DejaVuSans-95"/>
      <path d="M 45.40625 46.390625 
L 45.40625 75.984375 
L 54.390625 75.984375 
L 54.390625 0 
L 45.40625 0 
L 45.40625 8.203125 
Q 42.578125 3.328125 38.25 0.953125 
Q 33.9375 -1.421875 27.875 -1.421875 
Q 17.96875 -1.421875 11.734375 6.484375 
Q 5.515625 14.40625 5.515625 27.296875 
Q 5.515625 40.1875 11.734375 48.09375 
Q 17.96875 56 27.875 56 
Q 33.9375 56 38.25 53.625 
Q 42.578125 51.265625 45.40625 46.390625 
z
M 14.796875 27.296875 
Q 14.796875 17.390625 18.875 11.75 
Q 22.953125 6.109375 30.078125 6.109375 
Q 37.203125 6.109375 41.296875 11.75 
Q 45.40625 17.390625 45.40625 27.296875 
Q 45.40625 37.203125 41.296875 42.84375 
Q 37.203125 48.484375 30.078125 48.484375 
Q 22.953125 48.484375 18.875 42.84375 
Q 14.796875 37.203125 14.796875 27.296875 
z
" id="DejaVuSans-100"/>
      <path d="M 14.796875 27.296875 
Q 14.796875 17.390625 18.875 11.75 
Q 22.953125 6.109375 30.078125 6.109375 
Q 37.203125 6.109375 41.296875 11.75 
Q 45.40625 17.390625 45.40625 27.296875 
Q 45.40625 37.203125 41.296875 42.84375 
Q 37.203125 48.484375 30.078125 48.484375 
Q 22.953125 48.484375 18.875 42.84375 
Q 14.796875 37.203125 14.796875 27.296875 
z
M 45.40625 8.203125 
Q 42.578125 3.328125 38.25 0.953125 
Q 33.9375 -1.421875 27.875 -1.421875 
Q 17.96875 -1.421875 11.734375 6.484375 
Q 5.515625 14.40625 5.515625 27.296875 
Q 5.515625 40.1875 11.734375 48.09375 
Q 17.96875 56 27.875 56 
Q 33.9375 56 38.25 53.625 
Q 42.578125 51.265625 45.40625 46.390625 
L 45.40625 54.6875 
L 54.390625 54.6875 
L 54.390625 -20.796875 
L 45.40625 -20.796875 
z
" id="DejaVuSans-113"/>
     </defs>
     <g transform="translate(210.014096 59.753125)scale(0.2 -0.2)">
      <use xlink:href="#DejaVuSans-119"/>
      <use x="81.787109" xlink:href="#DejaVuSans-50"/>
      <use x="145.410156" xlink:href="#DejaVuSans-95"/>
      <use x="195.410156" xlink:href="#DejaVuSans-100"/>
      <use x="258.886719" xlink:href="#DejaVuSans-101"/>
      <use x="320.410156" xlink:href="#DejaVuSans-113"/>
      <use x="383.886719" xlink:href="#DejaVuSans-117"/>
      <use x="447.265625" xlink:href="#DejaVuSans-97"/>
      <use x="508.544922" xlink:href="#DejaVuSans-110"/>
      <use x="571.923828" xlink:href="#DejaVuSans-116"/>
     </g>
    </g>
    <g id="patch_60">
     <path d="M 154.014096 89.665625 
L 194.014096 89.665625 
L 194.014096 75.665625 
L 154.014096 75.665625 
z
" style="fill:#f4a582;stroke:#000000;stroke-linejoin:miter;"/>
    </g>
    <g id="text_12">
     <!-- matmul(w3) -->
     <g transform="translate(210.014096 89.665625)scale(0.2 -0.2)">
      <use xlink:href="#DejaVuSans-109"/>
      <use x="97.412109" xlink:href="#DejaVuSans-97"/>
      <use x="158.691406" xlink:href="#DejaVuSans-116"/>
      <use x="197.900391" xlink:href="#DejaVuSans-109"/>
      <use x="295.3125" xlink:href="#DejaVuSans-117"/>
      <use x="358.691406" xlink:href="#DejaVuSans-108"/>
      <use x="386.474609" xlink:href="#DejaVuSans-40"/>
      <use x="425.488281" xlink:href="#DejaVuSans-119"/>
      <use x="507.275391" xlink:href="#DejaVuSans-51"/>
      <use x="570.898438" xlink:href="#DejaVuSans-41"/>
     </g>
    </g>
    <g id="patch_61">
     <path d="M 372.242221 30.396875 
L 412.242221 30.396875 
L 412.242221 16.396875 
L 372.242221 16.396875 
z
" style="fill:#fddbc7;stroke:#000000;stroke-linejoin:miter;"/>
    </g>
    <g id="text_13">
     <!-- w3_dequant -->
     <g transform="translate(428.242221 30.396875)scale(0.2 -0.2)">
      <use xlink:href="#DejaVuSans-119"/>
      <use x="81.787109" xlink:href="#DejaVuSans-51"/>
      <use x="145.410156" xlink:href="#DejaVuSans-95"/>
      <use x="195.410156" xlink:href="#DejaVuSans-100"/>
      <use x="258.886719" xlink:href="#DejaVuSans-101"/>
      <use x="320.410156" xlink:href="#DejaVuSans-113"/>
      <use x="383.886719" xlink:href="#DejaVuSans-117"/>
      <use x="447.265625" xlink:href="#DejaVuSans-97"/>
      <use x="508.544922" xlink:href="#DejaVuSans-110"/>
      <use x="571.923828" xlink:href="#DejaVuSans-116"/>
     </g>
    </g>
    <g id="patch_62">
     <path d="M 372.242221 60.309375 
L 412.242221 60.309375 
L 412.242221 46.309375 
L 372.242221 46.309375 
z
" style="fill:#f7f7f7;stroke:#000000;stroke-linejoin:miter;"/>
    </g>
    <g id="text_14">
     <!-- matmul(w1) -->
     <g transform="translate(428.242221 60.309375)scale(0.2 -0.2)">
      <use xlink:href="#DejaVuSans-109"/>
      <use x="97.412109" xlink:href="#DejaVuSans-97"/>
      <use x="158.691406" xlink:href="#DejaVuSans-116"/>
      <use x="197.900391" xlink:href="#DejaVuSans-109"/>
      <use x="295.3125" xlink:href="#DejaVuSans-117"/>
      <use x="358.691406" xlink:href="#DejaVuSans-108"/>
      <use x="386.474609" xlink:href="#DejaVuSans-40"/>
      <use x="425.488281" xlink:href="#DejaVuSans-119"/>
      <use x="507.275391" xlink:href="#DejaVuSans-49"/>
      <use x="570.898438" xlink:href="#DejaVuSans-41"/>
     </g>
    </g>
    <g id="patch_63">
     <path d="M 372.242221 89.665625 
L 412.242221 89.665625 
L 412.242221 75.665625 
L 372.242221 75.665625 
z
" style="fill:#d1e5f0;stroke:#000000;stroke-linejoin:miter;"/>
    </g>
    <g id="text_15">
     <!-- w1_dequant -->
     <g transform="translate(428.242221 89.665625)scale(0.2 -0.2)">
      <use xlink:href="#DejaVuSans-119"/>
      <use x="81.787109" xlink:href="#DejaVuSans-49"/>
      <use x="145.410156" xlink:href="#DejaVuSans-95"/>
      <use x="195.410156" xlink:href="#DejaVuSans-100"/>
      <use x="258.886719" xlink:href="#DejaVuSans-101"/>
      <use x="320.410156" xlink:href="#DejaVuSans-113"/>
      <use x="383.886719" xlink:href="#DejaVuSans-117"/>
      <use x="447.265625" xlink:href="#DejaVuSans-97"/>
      <use x="508.544922" xlink:href="#DejaVuSans-110"/>
      <use x="571.923828" xlink:href="#DejaVuSans-116"/>
     </g>
    </g>
    <g id="patch_64">
     <path d="M 590.470346 30.396875 
L 630.470346 30.396875 
L 630.470346 16.396875 
L 590.470346 16.396875 
z
" style="fill:#92c5de;stroke:#000000;stroke-linejoin:miter;"/>
    </g>
    <g id="text_16">
     <!-- softmax -->
     <defs>
      <path d="M 30.609375 48.390625 
Q 23.390625 48.390625 19.1875 42.75 
Q 14.984375 37.109375 14.984375 27.296875 
Q 14.984375 17.484375 19.15625 11.84375 
Q 23.34375 6.203125 30.609375 6.203125 
Q 37.796875 6.203125 41.984375 11.859375 
Q 46.1875 17.53125 46.1875 27.296875 
Q 46.1875 37.015625 41.984375 42.703125 
Q 37.796875 48.390625 30.609375 48.390625 
z
M 30.609375 56 
Q 42.328125 56 49.015625 48.375 
Q 55.71875 40.765625 55.71875 27.296875 
Q 55.71875 13.875 49.015625 6.21875 
Q 42.328125 -1.421875 30.609375 -1.421875 
Q 18.84375 -1.421875 12.171875 6.21875 
Q 5.515625 13.875 5.515625 27.296875 
Q 5.515625 40.765625 12.171875 48.375 
Q 18.84375 56 30.609375 56 
z
" id="DejaVuSans-111"/>
      <path d="M 37.109375 75.984375 
L 37.109375 68.5 
L 28.515625 68.5 
Q 23.6875 68.5 21.796875 66.546875 
Q 19.921875 64.59375 19.921875 59.515625 
L 19.921875 54.6875 
L 34.71875 54.6875 
L 34.71875 47.703125 
L 19.921875 47.703125 
L 19.921875 0 
L 10.890625 0 
L 10.890625 47.703125 
L 2.296875 47.703125 
L 2.296875 54.6875 
L 10.890625 54.6875 
L 10.890625 58.5 
Q 10.890625 67.625 15.140625 71.796875 
Q 19.390625 75.984375 28.609375 75.984375 
z
" id="DejaVuSans-102"/>
      <path d="M 54.890625 54.6875 
L 35.109375 28.078125 
L 55.90625 0 
L 45.3125 0 
L 29.390625 21.484375 
L 13.484375 0 
L 2.875 0 
L 24.125 28.609375 
L 4.6875 54.6875 
L 15.28125 54.6875 
L 29.78125 35.203125 
L 44.28125 54.6875 
z
" id="DejaVuSans-120"/>
     </defs>
     <g transform="translate(646.470346 30.396875)scale(0.2 -0.2)">
      <use xlink:href="#DejaVuSans-115"/>
      <use x="52.099609" xlink:href="#DejaVuSans-111"/>
      <use x="113.28125" xlink:href="#DejaVuSans-102"/>
      <use x="146.736328" xlink:href="#DejaVuSans-116"/>
      <use x="185.945312" xlink:href="#DejaVuSans-109"/>
      <use x="283.357422" xlink:href="#DejaVuSans-97"/>
      <use x="344.636719" xlink:href="#DejaVuSans-120"/>
     </g>
    </g>
    <g id="patch_65">
     <path d="M 590.470346 59.753125 
L 630.470346 59.753125 
L 630.470346 45.753125 
L 590.470346 45.753125 
z
" style="fill:#4393c3;stroke:#000000;stroke-linejoin:miter;"/>
    </g>
    <g id="text_17">
     <!-- topk -->
     <defs>
      <path d="M 9.078125 75.984375 
L 18.109375 75.984375 
L 18.109375 31.109375 
L 44.921875 54.6875 
L 56.390625 54.6875 
L 27.390625 29.109375 
L 57.625 0 
L 45.90625 0 
L 18.109375 26.703125 
L 18.109375 0 
L 9.078125 0 
z
" id="DejaVuSans-107"/>
     </defs>
     <g transform="translate(646.470346 59.753125)scale(0.2 -0.2)">
      <use xlink:href="#DejaVuSans-116"/>
      <use x="39.208984" xlink:href="#DejaVuSans-111"/>
      <use x="100.390625" xlink:href="#DejaVuSans-112"/>
      <use x="163.867188" xlink:href="#DejaVuSans-107"/>
     </g>
    </g>
    <g id="patch_66">
     <path d="M 767.232846 30.396875 
L 807.232846 30.396875 
L 807.232846 16.396875 
L 767.232846 16.396875 
z
" style="fill:#2166ac;stroke:#000000;stroke-linejoin:miter;"/>
    </g>
    <g id="text_18">
     <!-- matmul(router) -->
     <g transform="translate(823.232846 30.396875)scale(0.2 -0.2)">
      <use xlink:href="#DejaVuSans-109"/>
      <use x="97.412109" xlink:href="#DejaVuSans-97"/>
      <use x="158.691406" xlink:href="#DejaVuSans-116"/>
      <use x="197.900391" xlink:href="#DejaVuSans-109"/>
      <use x="295.3125" xlink:href="#DejaVuSans-117"/>
      <use x="358.691406" xlink:href="#DejaVuSans-108"/>
      <use x="386.474609" xlink:href="#DejaVuSans-40"/>
      <use x="425.488281" xlink:href="#DejaVuSans-114"/>
      <use x="464.351562" xlink:href="#DejaVuSans-111"/>
      <use x="525.533203" xlink:href="#DejaVuSans-117"/>
      <use x="588.912109" xlink:href="#DejaVuSans-116"/>
      <use x="628.121094" xlink:href="#DejaVuSans-101"/>
      <use x="689.644531" xlink:href="#DejaVuSans-114"/>
      <use x="730.757812" xlink:href="#DejaVuSans-41"/>
     </g>
    </g>
    <g id="patch_67">
     <path d="M 767.232846 59.753125 
L 807.232846 59.753125 
L 807.232846 45.753125 
L 767.232846 45.753125 
z
" style="fill:#66c2a5;stroke:#000000;stroke-linejoin:miter;"/>
    </g>
    <g id="text_19">
     <!-- router_dequant -->
     <g transform="translate(823.232846 59.753125)scale(0.2 -0.2)">
      <use xlink:href="#DejaVuSans-114"/>
      <use x="38.863281" xlink:href="#DejaVuSans-111"/>
      <use x="100.044922" xlink:href="#DejaVuSans-117"/>
      <use x="163.423828" xlink:href="#DejaVuSans-116"/>
      <use x="202.632812" xlink:href="#DejaVuSans-101"/>
      <use x="264.15625" xlink:href="#DejaVuSans-114"/>
      <use x="305.269531" xlink:href="#DejaVuSans-95"/>
      <use x="355.269531" xlink:href="#DejaVuSans-100"/>
      <use x="418.746094" xlink:href="#DejaVuSans-101"/>
      <use x="480.269531" xlink:href="#DejaVuSans-113"/>
      <use x="543.746094" xlink:href="#DejaVuSans-117"/>
      <use x="607.125" xlink:href="#DejaVuSans-97"/>
      <use x="668.404297" xlink:href="#DejaVuSans-110"/>
      <use x="731.783203" xlink:href="#DejaVuSans-116"/>
     </g>
    </g>
   </g>
  </g>
  <g id="axes_2">
   <g id="patch_68">
    <path d="M 97.36 502.21197 
L 1073.117231 502.21197 
L 1073.117231 357.558374 
L 97.36 357.558374 
z
" style="fill:#ffffff;"/>
   </g>
   <g id="patch_69">
    <path clip-path="url(#p7d592cb7cb)" d="M 141.712601 502.21197 
L 222.353695 502.21197 
L 222.353695 498.264304 
L 141.712601 498.264304 
z
" style="fill:#b2182b;stroke:#000000;stroke-linejoin:miter;"/>
   </g>
   <g id="patch_70">
    <path clip-path="url(#p7d592cb7cb)" d="M 343.315335 502.21197 
L 423.956429 502.21197 
L 423.956429 433.97198 
L 343.315335 433.97198 
z
" style="fill:#b2182b;stroke:#000000;stroke-linejoin:miter;"/>
   </g>
   <g id="patch_71">
    <path clip-path="url(#p7d592cb7cb)" d="M 544.918069 502.21197 
L 625.559162 502.21197 
L 625.559162 498.794012 
L 544.918069 498.794012 
z
" style="fill:#b2182b;stroke:#000000;stroke-linejoin:miter;"/>
   </g>
   <g id="patch_72">
    <path clip-path="url(#p7d592cb7cb)" d="M 746.520803 502.21197 
L 827.161896 502.21197 
L 827.161896 483.023326 
L 746.520803 483.023326 
z
" style="fill:#b2182b;stroke:#000000;stroke-linejoin:miter;"/>
   </g>
   <g id="patch_73">
    <path clip-path="url(#p7d592cb7cb)" d="M 948.123536 502.21197 
L 1028.76463 502.21197 
L 1028.76463 474.029316 
L 948.123536 474.029316 
z
" style="fill:#b2182b;stroke:#000000;stroke-linejoin:miter;"/>
   </g>
   <g id="patch_74">
    <path clip-path="url(#p7d592cb7cb)" d="M 141.712601 498.264304 
L 222.353695 498.264304 
L 222.353695 497.723575 
L 141.712601 497.723575 
z
" style="fill:#d6604d;stroke:#000000;stroke-linejoin:miter;"/>
   </g>
   <g id="patch_75">
    <path clip-path="url(#p7d592cb7cb)" d="M 343.315335 433.97198 
L 423.956429 433.97198 
L 423.956429 425.562096 
L 343.315335 425.562096 
z
" style="fill:#d6604d;stroke:#000000;stroke-linejoin:miter;"/>
   </g>
   <g id="patch_76">
    <path clip-path="url(#p7d592cb7cb)" d="M 544.918069 498.794012 
L 625.559162 498.794012 
L 625.559162 498.404136 
L 544.918069 498.404136 
z
" style="fill:#d6604d;stroke:#000000;stroke-linejoin:miter;"/>
   </g>
   <g id="patch_77">
    <path clip-path="url(#p7d592cb7cb)" d="M 746.520803 483.023326 
L 827.161896 483.023326 
L 827.161896 480.662717 
L 746.520803 480.662717 
z
" style="fill:#d6604d;stroke:#000000;stroke-linejoin:miter;"/>
   </g>
   <g id="patch_78">
    <path clip-path="url(#p7d592cb7cb)" d="M 948.123536 474.029316 
L 1028.76463 474.029316 
L 1028.76463 468.029636 
L 948.123536 468.029636 
z
" style="fill:#d6604d;stroke:#000000;stroke-linejoin:miter;"/>
   </g>
   <g id="patch_79">
    <path clip-path="url(#p7d592cb7cb)" d="M 141.712601 497.723575 
L 222.353695 497.723575 
L 222.353695 495.158385 
L 141.712601 495.158385 
z
" style="fill:#f4a582;stroke:#000000;stroke-linejoin:miter;"/>
   </g>
   <g id="patch_80">
    <path clip-path="url(#p7d592cb7cb)" d="M 343.315335 425.562096 
L 423.956429 425.562096 
L 423.956429 387.730359 
L 343.315335 387.730359 
z
" style="fill:#f4a582;stroke:#000000;stroke-linejoin:miter;"/>
   </g>
   <g id="patch_81">
    <path clip-path="url(#p7d592cb7cb)" d="M 544.918069 498.404136 
L 625.559162 498.404136 
L 625.559162 495.999442 
L 544.918069 495.999442 
z
" style="fill:#f4a582;stroke:#000000;stroke-linejoin:miter;"/>
   </g>
   <g id="patch_82">
    <path clip-path="url(#p7d592cb7cb)" d="M 746.520803 480.662717 
L 827.161896 480.662717 
L 827.161896 469.044967 
L 746.520803 469.044967 
z
" style="fill:#f4a582;stroke:#000000;stroke-linejoin:miter;"/>
   </g>
   <g id="patch_83">
    <path clip-path="url(#p7d592cb7cb)" d="M 948.123536 468.029636 
L 1028.76463 468.029636 
L 1028.76463 447.999246 
L 948.123536 447.999246 
z
" style="fill:#f4a582;stroke:#000000;stroke-linejoin:miter;"/>
   </g>
   <g id="patch_84">
    <path clip-path="url(#p7d592cb7cb)" d="M 141.712601 495.158385 
L 222.353695 495.158385 
L 222.353695 494.777324 
L 141.712601 494.777324 
z
" style="fill:#fddbc7;stroke:#000000;stroke-linejoin:miter;"/>
   </g>
   <g id="patch_85">
    <path clip-path="url(#p7d592cb7cb)" d="M 343.315335 387.730359 
L 423.956429 387.730359 
L 423.956429 384.574098 
L 343.315335 384.574098 
z
" style="fill:#fddbc7;stroke:#000000;stroke-linejoin:miter;"/>
   </g>
   <g id="patch_86">
    <path clip-path="url(#p7d592cb7cb)" d="M 544.918069 495.999442 
L 625.559162 495.999442 
L 625.559162 495.637582 
L 544.918069 495.637582 
z
" style="fill:#fddbc7;stroke:#000000;stroke-linejoin:miter;"/>
   </g>
   <g id="patch_87">
    <path clip-path="url(#p7d592cb7cb)" d="M 746.520803 469.044967 
L 827.161896 469.044967 
L 827.161896 468.022271 
L 746.520803 468.022271 
z
" style="fill:#fddbc7;stroke:#000000;stroke-linejoin:miter;"/>
   </g>
   <g id="patch_88">
    <path clip-path="url(#p7d592cb7cb)" d="M 948.123536 447.999246 
L 1028.76463 447.999246 
L 1028.76463 445.670491 
L 948.123536 445.670491 
z
" style="fill:#fddbc7;stroke:#000000;stroke-linejoin:miter;"/>
   </g>
   <g id="patch_89">
    <path clip-path="url(#p7d592cb7cb)" d="M 141.712601 494.777324 
L 222.353695 494.777324 
L 222.353695 494.126727 
L 141.712601 494.126727 
z
" style="fill:#f7f7f7;stroke:#000000;stroke-linejoin:miter;"/>
   </g>
   <g id="patch_90">
    <path clip-path="url(#p7d592cb7cb)" d="M 343.315335 384.574098 
L 423.956429 384.574098 
L 423.956429 382.915145 
L 343.315335 382.915145 
z
" style="fill:#f7f7f7;stroke:#000000;stroke-linejoin:miter;"/>
   </g>
   <g id="patch_91">
    <path clip-path="url(#p7d592cb7cb)" d="M 544.918069 495.637582 
L 625.559162 495.637582 
L 625.559162 494.994715 
L 544.918069 494.994715 
z
" style="fill:#f7f7f7;stroke:#000000;stroke-linejoin:miter;"/>
   </g>
   <g id="patch_92">
    <path clip-path="url(#p7d592cb7cb)" d="M 746.520803 468.022271 
L 827.161896 468.022271 
L 827.161896 466.361548 
L 746.520803 466.361548 
z
" style="fill:#f7f7f7;stroke:#000000;stroke-linejoin:miter;"/>
   </g>
   <g id="patch_93">
    <path clip-path="url(#p7d592cb7cb)" d="M 948.123536 445.670491 
L 1028.76463 445.670491 
L 1028.76463 441.842834 
L 948.123536 441.842834 
z
" style="fill:#f7f7f7;stroke:#000000;stroke-linejoin:miter;"/>
   </g>
   <g id="patch_94">
    <path clip-path="url(#p7d592cb7cb)" d="M 141.712601 494.126727 
L 222.353695 494.126727 
L 222.353695 493.906561 
L 141.712601 493.906561 
z
" style="fill:#d1e5f0;stroke:#000000;stroke-linejoin:miter;"/>
   </g>
   <g id="patch_95">
    <path clip-path="url(#p7d592cb7cb)" d="M 343.315335 382.915145 
L 423.956429 382.915145 
L 423.956429 382.669492 
L 343.315335 382.669492 
z
" style="fill:#d1e5f0;stroke:#000000;stroke-linejoin:miter;"/>
   </g>
   <g id="patch_96">
    <path clip-path="url(#p7d592cb7cb)" d="M 544.918069 494.994715 
L 625.559162 494.994715 
L 625.559162 494.776166 
L 544.918069 494.776166 
z
" style="fill:#d1e5f0;stroke:#000000;stroke-linejoin:miter;"/>
   </g>
   <g id="patch_97">
    <path clip-path="url(#p7d592cb7cb)" d="M 746.520803 466.361548 
L 827.161896 466.361548 
L 827.161896 466.11116 
L 746.520803 466.11116 
z
" style="fill:#d1e5f0;stroke:#000000;stroke-linejoin:miter;"/>
   </g>
   <g id="patch_98">
    <path clip-path="url(#p7d592cb7cb)" d="M 948.123536 441.842834 
L 1028.76463 441.842834 
L 1028.76463 441.551154 
L 948.123536 441.551154 
z
" style="fill:#d1e5f0;stroke:#000000;stroke-linejoin:miter;"/>
   </g>
   <g id="patch_99">
    <path clip-path="url(#p7d592cb7cb)" d="M 141.712601 493.906561 
L 222.353695 493.906561 
L 222.353695 492.676316 
L 141.712601 492.676316 
z
" style="fill:#92c5de;stroke:#000000;stroke-linejoin:miter;"/>
   </g>
   <g id="patch_100">
    <path clip-path="url(#p7d592cb7cb)" d="M 343.315335 382.669492 
L 423.956429 382.669492 
L 423.956429 380.51622 
L 343.315335 380.51622 
z
" style="fill:#92c5de;stroke:#000000;stroke-linejoin:miter;"/>
   </g>
   <g id="patch_101">
    <path clip-path="url(#p7d592cb7cb)" d="M 544.918069 494.776166 
L 625.559162 494.776166 
L 625.559162 493.09628 
L 544.918069 493.09628 
z
" style="fill:#92c5de;stroke:#000000;stroke-linejoin:miter;"/>
   </g>
   <g id="patch_102">
    <path clip-path="url(#p7d592cb7cb)" d="M 746.520803 466.11116 
L 827.161896 466.11116 
L 827.161896 463.205459 
L 746.520803 463.205459 
z
" style="fill:#92c5de;stroke:#000000;stroke-linejoin:miter;"/>
   </g>
   <g id="patch_103">
    <path clip-path="url(#p7d592cb7cb)" d="M 948.123536 441.551154 
L 1028.76463 441.551154 
L 1028.76463 436.731932 
L 948.123536 436.731932 
z
" style="fill:#92c5de;stroke:#000000;stroke-linejoin:miter;"/>
   </g>
   <g id="matplotlib.axis_3">
    <g id="xtick_6">
     <g id="line2d_13">
      <g>
       <use style="stroke:#000000;stroke-width:0.8;" x="182.033148" xlink:href="#m5163a2a3d0" y="502.21197"/>
      </g>
     </g>
     <g id="text_20">
      <!-- Dense(bsz=1) -->
      <g transform="translate(111.128461 524.408845)scale(0.2 -0.2)">
       <use xlink:href="#DejaVuSans-68"/>
       <use x="77.001953" xlink:href="#DejaVuSans-101"/>
       <use x="138.525391" xlink:href="#DejaVuSans-110"/>
       <use x="201.904297" xlink:href="#DejaVuSans-115"/>
       <use x="254.003906" xlink:href="#DejaVuSans-101"/>
       <use x="315.527344" xlink:href="#DejaVuSans-40"/>
       <use x="354.541016" xlink:href="#DejaVuSans-98"/>
       <use x="418.017578" xlink:href="#DejaVuSans-115"/>
       <use x="470.117188" xlink:href="#DejaVuSans-122"/>
       <use x="522.607422" xlink:href="#DejaVuSans-61"/>
       <use x="606.396484" xlink:href="#DejaVuSans-49"/>
       <use x="670.019531" xlink:href="#DejaVuSans-41"/>
      </g>
     </g>
    </g>
    <g id="xtick_7">
     <g id="line2d_14">
      <g>
       <use style="stroke:#000000;stroke-width:0.8;" x="383.635882" xlink:href="#m5163a2a3d0" y="502.21197"/>
      </g>
     </g>
     <g id="text_21">
      <!-- Dense(bsz=30) -->
      <g transform="translate(306.368694 524.408845)scale(0.2 -0.2)">
       <use xlink:href="#DejaVuSans-68"/>
       <use x="77.001953" xlink:href="#DejaVuSans-101"/>
       <use x="138.525391" xlink:href="#DejaVuSans-110"/>
       <use x="201.904297" xlink:href="#DejaVuSans-115"/>
       <use x="254.003906" xlink:href="#DejaVuSans-101"/>
       <use x="315.527344" xlink:href="#DejaVuSans-40"/>
       <use x="354.541016" xlink:href="#DejaVuSans-98"/>
       <use x="418.017578" xlink:href="#DejaVuSans-115"/>
       <use x="470.117188" xlink:href="#DejaVuSans-122"/>
       <use x="522.607422" xlink:href="#DejaVuSans-61"/>
       <use x="606.396484" xlink:href="#DejaVuSans-51"/>
       <use x="670.019531" xlink:href="#DejaVuSans-48"/>
       <use x="733.642578" xlink:href="#DejaVuSans-41"/>
      </g>
     </g>
    </g>
    <g id="xtick_8">
     <g id="line2d_15">
      <g>
       <use style="stroke:#000000;stroke-width:0.8;" x="585.238616" xlink:href="#m5163a2a3d0" y="502.21197"/>
      </g>
     </g>
     <g id="text_22">
      <!-- Sparse(bsz=1) -->
      <g transform="translate(511.588616 524.408845)scale(0.2 -0.2)">
       <use xlink:href="#DejaVuSans-83"/>
       <use x="63.476562" xlink:href="#DejaVuSans-112"/>
       <use x="126.953125" xlink:href="#DejaVuSans-97"/>
       <use x="188.232422" xlink:href="#DejaVuSans-114"/>
       <use x="229.345703" xlink:href="#DejaVuSans-115"/>
       <use x="281.445312" xlink:href="#DejaVuSans-101"/>
       <use x="342.96875" xlink:href="#DejaVuSans-40"/>
       <use x="381.982422" xlink:href="#DejaVuSans-98"/>
       <use x="445.458984" xlink:href="#DejaVuSans-115"/>
       <use x="497.558594" xlink:href="#DejaVuSans-122"/>
       <use x="550.048828" xlink:href="#DejaVuSans-61"/>
       <use x="633.837891" xlink:href="#DejaVuSans-49"/>
       <use x="697.460938" xlink:href="#DejaVuSans-41"/>
      </g>
     </g>
    </g>
    <g id="xtick_9">
     <g id="line2d_16">
      <g>
       <use style="stroke:#000000;stroke-width:0.8;" x="786.841349" xlink:href="#m5163a2a3d0" y="502.21197"/>
      </g>
     </g>
     <g id="text_23">
      <!-- Sparse(bsz=30) -->
      <g transform="translate(706.828849 524.408845)scale(0.2 -0.2)">
       <use xlink:href="#DejaVuSans-83"/>
       <use x="63.476562" xlink:href="#DejaVuSans-112"/>
       <use x="126.953125" xlink:href="#DejaVuSans-97"/>
       <use x="188.232422" xlink:href="#DejaVuSans-114"/>
       <use x="229.345703" xlink:href="#DejaVuSans-115"/>
       <use x="281.445312" xlink:href="#DejaVuSans-101"/>
       <use x="342.96875" xlink:href="#DejaVuSans-40"/>
       <use x="381.982422" xlink:href="#DejaVuSans-98"/>
       <use x="445.458984" xlink:href="#DejaVuSans-115"/>
       <use x="497.558594" xlink:href="#DejaVuSans-122"/>
       <use x="550.048828" xlink:href="#DejaVuSans-61"/>
       <use x="633.837891" xlink:href="#DejaVuSans-51"/>
       <use x="697.460938" xlink:href="#DejaVuSans-48"/>
       <use x="761.083984" xlink:href="#DejaVuSans-41"/>
      </g>
     </g>
    </g>
    <g id="xtick_10">
     <g id="line2d_17">
      <g>
       <use style="stroke:#000000;stroke-width:0.8;" x="988.444083" xlink:href="#m5163a2a3d0" y="502.21197"/>
      </g>
     </g>
     <g id="text_24">
      <!-- Sparse(bsz=84) -->
      <defs>
       <path d="M 31.78125 34.625 
Q 24.75 34.625 20.71875 30.859375 
Q 16.703125 27.09375 16.703125 20.515625 
Q 16.703125 13.921875 20.71875 10.15625 
Q 24.75 6.390625 31.78125 6.390625 
Q 38.8125 6.390625 42.859375 10.171875 
Q 46.921875 13.96875 46.921875 20.515625 
Q 46.921875 27.09375 42.890625 30.859375 
Q 38.875 34.625 31.78125 34.625 
z
M 21.921875 38.8125 
Q 15.578125 40.375 12.03125 44.71875 
Q 8.5 49.078125 8.5 55.328125 
Q 8.5 64.0625 14.71875 69.140625 
Q 20.953125 74.21875 31.78125 74.21875 
Q 42.671875 74.21875 48.875 69.140625 
Q 55.078125 64.0625 55.078125 55.328125 
Q 55.078125 49.078125 51.53125 44.71875 
Q 48 40.375 41.703125 38.8125 
Q 48.828125 37.15625 52.796875 32.3125 
Q 56.78125 27.484375 56.78125 20.515625 
Q 56.78125 9.90625 50.3125 4.234375 
Q 43.84375 -1.421875 31.78125 -1.421875 
Q 19.734375 -1.421875 13.25 4.234375 
Q 6.78125 9.90625 6.78125 20.515625 
Q 6.78125 27.484375 10.78125 32.3125 
Q 14.796875 37.15625 21.921875 38.8125 
z
M 18.3125 54.390625 
Q 18.3125 48.734375 21.84375 45.5625 
Q 25.390625 42.390625 31.78125 42.390625 
Q 38.140625 42.390625 41.71875 45.5625 
Q 45.3125 48.734375 45.3125 54.390625 
Q 45.3125 60.0625 41.71875 63.234375 
Q 38.140625 66.40625 31.78125 66.40625 
Q 25.390625 66.40625 21.84375 63.234375 
Q 18.3125 60.0625 18.3125 54.390625 
z
" id="DejaVuSans-56"/>
      </defs>
      <g transform="translate(908.431583 524.408845)scale(0.2 -0.2)">
       <use xlink:href="#DejaVuSans-83"/>
       <use x="63.476562" xlink:href="#DejaVuSans-112"/>
       <use x="126.953125" xlink:href="#DejaVuSans-97"/>
       <use x="188.232422" xlink:href="#DejaVuSans-114"/>
       <use x="229.345703" xlink:href="#DejaVuSans-115"/>
       <use x="281.445312" xlink:href="#DejaVuSans-101"/>
       <use x="342.96875" xlink:href="#DejaVuSans-40"/>
       <use x="381.982422" xlink:href="#DejaVuSans-98"/>
       <use x="445.458984" xlink:href="#DejaVuSans-115"/>
       <use x="497.558594" xlink:href="#DejaVuSans-122"/>
       <use x="550.048828" xlink:href="#DejaVuSans-61"/>
       <use x="633.837891" xlink:href="#DejaVuSans-56"/>
       <use x="697.460938" xlink:href="#DejaVuSans-52"/>
       <use x="761.083984" xlink:href="#DejaVuSans-41"/>
      </g>
     </g>
    </g>
   </g>
   <g id="matplotlib.axis_4">
    <g id="ytick_5">
     <g id="line2d_18">
      <g>
       <use style="stroke:#000000;stroke-width:0.8;" x="97.36" xlink:href="#mc2059b4bb2" y="502.21197"/>
      </g>
     </g>
     <g id="text_25">
      <!-- 0 -->
      <g transform="translate(76.3625 510.570251)scale(0.22 -0.22)">
       <use xlink:href="#DejaVuSans-48"/>
      </g>
     </g>
    </g>
    <g id="ytick_6">
     <g id="line2d_19">
      <g>
       <use style="stroke:#000000;stroke-width:0.8;" x="97.36" xlink:href="#mc2059b4bb2" y="474.658904"/>
      </g>
     </g>
     <g id="text_26">
      <!-- 400 -->
      <g transform="translate(48.3675 483.017185)scale(0.22 -0.22)">
       <use xlink:href="#DejaVuSans-52"/>
       <use x="63.623047" xlink:href="#DejaVuSans-48"/>
       <use x="127.246094" xlink:href="#DejaVuSans-48"/>
      </g>
     </g>
    </g>
    <g id="ytick_7">
     <g id="line2d_20">
      <g>
       <use style="stroke:#000000;stroke-width:0.8;" x="97.36" xlink:href="#mc2059b4bb2" y="447.105838"/>
      </g>
     </g>
     <g id="text_27">
      <!-- 800 -->
      <g transform="translate(48.3675 455.464119)scale(0.22 -0.22)">
       <use xlink:href="#DejaVuSans-56"/>
       <use x="63.623047" xlink:href="#DejaVuSans-48"/>
       <use x="127.246094" xlink:href="#DejaVuSans-48"/>
      </g>
     </g>
    </g>
    <g id="ytick_8">
     <g id="line2d_21">
      <g>
       <use style="stroke:#000000;stroke-width:0.8;" x="97.36" xlink:href="#mc2059b4bb2" y="419.552772"/>
      </g>
     </g>
     <g id="text_28">
      <!-- 1200 -->
      <g transform="translate(34.37 427.911053)scale(0.22 -0.22)">
       <use xlink:href="#DejaVuSans-49"/>
       <use x="63.623047" xlink:href="#DejaVuSans-50"/>
       <use x="127.246094" xlink:href="#DejaVuSans-48"/>
       <use x="190.869141" xlink:href="#DejaVuSans-48"/>
      </g>
     </g>
    </g>
    <g id="ytick_9">
     <g id="line2d_22">
      <g>
       <use style="stroke:#000000;stroke-width:0.8;" x="97.36" xlink:href="#mc2059b4bb2" y="391.999706"/>
      </g>
     </g>
     <g id="text_29">
      <!-- 1600 -->
      <g transform="translate(34.37 400.357988)scale(0.22 -0.22)">
       <use xlink:href="#DejaVuSans-49"/>
       <use x="63.623047" xlink:href="#DejaVuSans-54"/>
       <use x="127.246094" xlink:href="#DejaVuSans-48"/>
       <use x="190.869141" xlink:href="#DejaVuSans-48"/>
      </g>
     </g>
    </g>
    <g id="ytick_10">
     <g id="line2d_23">
      <g>
       <use style="stroke:#000000;stroke-width:0.8;" x="97.36" xlink:href="#mc2059b4bb2" y="364.446641"/>
      </g>
     </g>
     <g id="text_30">
      <!-- 2000 -->
      <g transform="translate(34.37 372.804922)scale(0.22 -0.22)">
       <use xlink:href="#DejaVuSans-50"/>
       <use x="63.623047" xlink:href="#DejaVuSans-48"/>
       <use x="127.246094" xlink:href="#DejaVuSans-48"/>
       <use x="190.869141" xlink:href="#DejaVuSans-48"/>
      </g>
     </g>
    </g>
   </g>
   <g id="line2d_24">
    <path clip-path="url(#p7d592cb7cb)" d="M 97.36 474.658904 
L 1073.117231 474.658904 
" style="fill:none;stroke:#808080;stroke-dasharray:5.55,2.4;stroke-dashoffset:0;stroke-width:1.5;"/>
   </g>
   <g id="line2d_25">
    <path clip-path="url(#p7d592cb7cb)" d="M 97.36 447.105838 
L 1073.117231 447.105838 
" style="fill:none;stroke:#808080;stroke-dasharray:5.55,2.4;stroke-dashoffset:0;stroke-width:1.5;"/>
   </g>
   <g id="line2d_26">
    <path clip-path="url(#p7d592cb7cb)" d="M 97.36 419.552772 
L 1073.117231 419.552772 
" style="fill:none;stroke:#808080;stroke-dasharray:5.55,2.4;stroke-dashoffset:0;stroke-width:1.5;"/>
   </g>
   <g id="line2d_27">
    <path clip-path="url(#p7d592cb7cb)" d="M 97.36 391.999706 
L 1073.117231 391.999706 
" style="fill:none;stroke:#808080;stroke-dasharray:5.55,2.4;stroke-dashoffset:0;stroke-width:1.5;"/>
   </g>
   <g id="line2d_28">
    <path clip-path="url(#p7d592cb7cb)" d="M 97.36 364.446641 
L 1073.117231 364.446641 
" style="fill:none;stroke:#808080;stroke-dasharray:5.55,2.4;stroke-dashoffset:0;stroke-width:1.5;"/>
   </g>
   <g id="patch_104">
    <path d="M 97.36 502.21197 
L 97.36 357.558374 
" style="fill:none;stroke:#000000;stroke-linecap:square;stroke-linejoin:miter;stroke-width:0.8;"/>
   </g>
   <g id="patch_105">
    <path d="M 1073.117231 502.21197 
L 1073.117231 357.558374 
" style="fill:none;stroke:#000000;stroke-linecap:square;stroke-linejoin:miter;stroke-width:0.8;"/>
   </g>
   <g id="patch_106">
    <path d="M 97.36 502.21197 
L 1073.117231 502.21197 
" style="fill:none;stroke:#000000;stroke-linecap:square;stroke-linejoin:miter;stroke-width:0.8;"/>
   </g>
   <g id="patch_107">
    <path d="M 97.36 357.558374 
L 1073.117231 357.558374 
" style="fill:none;stroke:#000000;stroke-linecap:square;stroke-linejoin:miter;stroke-width:0.8;"/>
   </g>
   <g id="legend_2">
    <g id="patch_108">
     <path d="M 121.106284 352.62125 
L 1010.340659 352.62125 
Q 1014.340659 352.62125 1014.340659 348.62125 
L 1014.340659 291.3525 
Q 1014.340659 287.3525 1010.340659 287.3525 
L 121.106284 287.3525 
Q 117.106284 287.3525 117.106284 291.3525 
L 117.106284 348.62125 
Q 117.106284 352.62125 121.106284 352.62125 
z
" style="fill:#ffffff;opacity:0.8;stroke:#cccccc;stroke-linejoin:miter;"/>
    </g>
    <g id="patch_109">
     <path d="M 125.106284 310.549375 
L 165.106284 310.549375 
L 165.106284 296.549375 
L 125.106284 296.549375 
z
" style="fill:#b2182b;stroke:#000000;stroke-linejoin:miter;"/>
    </g>
    <g id="text_31">
     <!-- matmul(w1) -->
     <g transform="translate(181.106284 310.549375)scale(0.2 -0.2)">
      <use xlink:href="#DejaVuSans-109"/>
      <use x="97.412109" xlink:href="#DejaVuSans-97"/>
      <use x="158.691406" xlink:href="#DejaVuSans-116"/>
      <use x="197.900391" xlink:href="#DejaVuSans-109"/>
      <use x="295.3125" xlink:href="#DejaVuSans-117"/>
      <use x="358.691406" xlink:href="#DejaVuSans-108"/>
      <use x="386.474609" xlink:href="#DejaVuSans-40"/>
      <use x="425.488281" xlink:href="#DejaVuSans-119"/>
      <use x="507.275391" xlink:href="#DejaVuSans-49"/>
      <use x="570.898438" xlink:href="#DejaVuSans-41"/>
     </g>
    </g>
    <g id="patch_110">
     <path d="M 125.106284 339.905625 
L 165.106284 339.905625 
L 165.106284 325.905625 
L 125.106284 325.905625 
z
" style="fill:#d6604d;stroke:#000000;stroke-linejoin:miter;"/>
    </g>
    <g id="text_32">
     <!-- gelu -->
     <defs>
      <path d="M 45.40625 27.984375 
Q 45.40625 37.75 41.375 43.109375 
Q 37.359375 48.484375 30.078125 48.484375 
Q 22.859375 48.484375 18.828125 43.109375 
Q 14.796875 37.75 14.796875 27.984375 
Q 14.796875 18.265625 18.828125 12.890625 
Q 22.859375 7.515625 30.078125 7.515625 
Q 37.359375 7.515625 41.375 12.890625 
Q 45.40625 18.265625 45.40625 27.984375 
z
M 54.390625 6.78125 
Q 54.390625 -7.171875 48.1875 -13.984375 
Q 42 -20.796875 29.203125 -20.796875 
Q 24.46875 -20.796875 20.265625 -20.09375 
Q 16.0625 -19.390625 12.109375 -17.921875 
L 12.109375 -9.1875 
Q 16.0625 -11.328125 19.921875 -12.34375 
Q 23.78125 -13.375 27.78125 -13.375 
Q 36.625 -13.375 41.015625 -8.765625 
Q 45.40625 -4.15625 45.40625 5.171875 
L 45.40625 9.625 
Q 42.625 4.78125 38.28125 2.390625 
Q 33.9375 0 27.875 0 
Q 17.828125 0 11.671875 7.65625 
Q 5.515625 15.328125 5.515625 27.984375 
Q 5.515625 40.671875 11.671875 48.328125 
Q 17.828125 56 27.875 56 
Q 33.9375 56 38.28125 53.609375 
Q 42.625 51.21875 45.40625 46.390625 
L 45.40625 54.6875 
L 54.390625 54.6875 
z
" id="DejaVuSans-103"/>
     </defs>
     <g transform="translate(181.106284 339.905625)scale(0.2 -0.2)">
      <use xlink:href="#DejaVuSans-103"/>
      <use x="63.476562" xlink:href="#DejaVuSans-101"/>
      <use x="125" xlink:href="#DejaVuSans-108"/>
      <use x="152.783203" xlink:href="#DejaVuSans-117"/>
     </g>
    </g>
    <g id="patch_111">
     <path d="M 343.084409 310.549375 
L 383.084409 310.549375 
L 383.084409 296.549375 
L 343.084409 296.549375 
z
" style="fill:#f4a582;stroke:#000000;stroke-linejoin:miter;"/>
    </g>
    <g id="text_33">
     <!-- matmul(w2) -->
     <g transform="translate(399.084409 310.549375)scale(0.2 -0.2)">
      <use xlink:href="#DejaVuSans-109"/>
      <use x="97.412109" xlink:href="#DejaVuSans-97"/>
      <use x="158.691406" xlink:href="#DejaVuSans-116"/>
      <use x="197.900391" xlink:href="#DejaVuSans-109"/>
      <use x="295.3125" xlink:href="#DejaVuSans-117"/>
      <use x="358.691406" xlink:href="#DejaVuSans-108"/>
      <use x="386.474609" xlink:href="#DejaVuSans-40"/>
      <use x="425.488281" xlink:href="#DejaVuSans-119"/>
      <use x="507.275391" xlink:href="#DejaVuSans-50"/>
      <use x="570.898438" xlink:href="#DejaVuSans-41"/>
     </g>
    </g>
    <g id="patch_112">
     <path d="M 343.084409 339.905625 
L 383.084409 339.905625 
L 383.084409 325.905625 
L 343.084409 325.905625 
z
" style="fill:#fddbc7;stroke:#000000;stroke-linejoin:miter;"/>
    </g>
    <g id="text_34">
     <!-- elementwise_mult -->
     <defs>
      <path d="M 9.421875 54.6875 
L 18.40625 54.6875 
L 18.40625 0 
L 9.421875 0 
z
M 9.421875 75.984375 
L 18.40625 75.984375 
L 18.40625 64.59375 
L 9.421875 64.59375 
z
" id="DejaVuSans-105"/>
     </defs>
     <g transform="translate(399.084409 339.905625)scale(0.2 -0.2)">
      <use xlink:href="#DejaVuSans-101"/>
      <use x="61.523438" xlink:href="#DejaVuSans-108"/>
      <use x="89.306641" xlink:href="#DejaVuSans-101"/>
      <use x="150.830078" xlink:href="#DejaVuSans-109"/>
      <use x="248.242188" xlink:href="#DejaVuSans-101"/>
      <use x="309.765625" xlink:href="#DejaVuSans-110"/>
      <use x="373.144531" xlink:href="#DejaVuSans-116"/>
      <use x="412.353516" xlink:href="#DejaVuSans-119"/>
      <use x="494.140625" xlink:href="#DejaVuSans-105"/>
      <use x="521.923828" xlink:href="#DejaVuSans-115"/>
      <use x="574.023438" xlink:href="#DejaVuSans-101"/>
      <use x="635.546875" xlink:href="#DejaVuSans-95"/>
      <use x="685.546875" xlink:href="#DejaVuSans-109"/>
      <use x="782.958984" xlink:href="#DejaVuSans-117"/>
      <use x="846.337891" xlink:href="#DejaVuSans-108"/>
      <use x="874.121094" xlink:href="#DejaVuSans-116"/>
     </g>
    </g>
    <g id="patch_113">
     <path d="M 621.746909 310.549375 
L 661.746909 310.549375 
L 661.746909 296.549375 
L 621.746909 296.549375 
z
" style="fill:#f7f7f7;stroke:#000000;stroke-linejoin:miter;"/>
    </g>
    <g id="text_35">
     <!-- top_k -->
     <g transform="translate(677.746909 310.549375)scale(0.2 -0.2)">
      <use xlink:href="#DejaVuSans-116"/>
      <use x="39.208984" xlink:href="#DejaVuSans-111"/>
      <use x="100.390625" xlink:href="#DejaVuSans-112"/>
      <use x="163.867188" xlink:href="#DejaVuSans-95"/>
      <use x="213.867188" xlink:href="#DejaVuSans-107"/>
     </g>
    </g>
    <g id="patch_114">
     <path d="M 621.746909 340.461875 
L 661.746909 340.461875 
L 661.746909 326.461875 
L 621.746909 326.461875 
z
" style="fill:#d1e5f0;stroke:#000000;stroke-linejoin:miter;"/>
    </g>
    <g id="text_36">
     <!-- sigmoid -->
     <g transform="translate(677.746909 340.461875)scale(0.2 -0.2)">
      <use xlink:href="#DejaVuSans-115"/>
      <use x="52.099609" xlink:href="#DejaVuSans-105"/>
      <use x="79.882812" xlink:href="#DejaVuSans-103"/>
      <use x="143.359375" xlink:href="#DejaVuSans-109"/>
      <use x="240.771484" xlink:href="#DejaVuSans-111"/>
      <use x="301.953125" xlink:href="#DejaVuSans-105"/>
      <use x="329.736328" xlink:href="#DejaVuSans-100"/>
     </g>
    </g>
    <g id="patch_115">
     <path d="M 796.390659 310.549375 
L 836.390659 310.549375 
L 836.390659 296.549375 
L 796.390659 296.549375 
z
" style="fill:#92c5de;stroke:#000000;stroke-linejoin:miter;"/>
    </g>
    <g id="text_37">
     <!-- matmul(router) -->
     <g transform="translate(852.390659 310.549375)scale(0.2 -0.2)">
      <use xlink:href="#DejaVuSans-109"/>
      <use x="97.412109" xlink:href="#DejaVuSans-97"/>
      <use x="158.691406" xlink:href="#DejaVuSans-116"/>
      <use x="197.900391" xlink:href="#DejaVuSans-109"/>
      <use x="295.3125" xlink:href="#DejaVuSans-117"/>
      <use x="358.691406" xlink:href="#DejaVuSans-108"/>
      <use x="386.474609" xlink:href="#DejaVuSans-40"/>
      <use x="425.488281" xlink:href="#DejaVuSans-114"/>
      <use x="464.351562" xlink:href="#DejaVuSans-111"/>
      <use x="525.533203" xlink:href="#DejaVuSans-117"/>
      <use x="588.912109" xlink:href="#DejaVuSans-116"/>
      <use x="628.121094" xlink:href="#DejaVuSans-101"/>
      <use x="689.644531" xlink:href="#DejaVuSans-114"/>
      <use x="730.757812" xlink:href="#DejaVuSans-41"/>
     </g>
    </g>
   </g>
  </g>
  <g id="text_38">
   <!--     Execution Time Breakdown (s) -->
   <defs>
    <path id="DejaVuSans-32"/>
    <path d="M 9.8125 72.90625 
L 55.90625 72.90625 
L 55.90625 64.59375 
L 19.671875 64.59375 
L 19.671875 43.015625 
L 54.390625 43.015625 
L 54.390625 34.71875 
L 19.671875 34.71875 
L 19.671875 8.296875 
L 56.78125 8.296875 
L 56.78125 0 
L 9.8125 0 
z
" id="DejaVuSans-69"/>
    <path d="M 48.78125 52.59375 
L 48.78125 44.1875 
Q 44.96875 46.296875 41.140625 47.34375 
Q 37.3125 48.390625 33.40625 48.390625 
Q 24.65625 48.390625 19.8125 42.84375 
Q 14.984375 37.3125 14.984375 27.296875 
Q 14.984375 17.28125 19.8125 11.734375 
Q 24.65625 6.203125 33.40625 6.203125 
Q 37.3125 6.203125 41.140625 7.25 
Q 44.96875 8.296875 48.78125 10.40625 
L 48.78125 2.09375 
Q 45.015625 0.34375 40.984375 -0.53125 
Q 36.96875 -1.421875 32.421875 -1.421875 
Q 20.0625 -1.421875 12.78125 6.34375 
Q 5.515625 14.109375 5.515625 27.296875 
Q 5.515625 40.671875 12.859375 48.328125 
Q 20.21875 56 33.015625 56 
Q 37.15625 56 41.109375 55.140625 
Q 45.0625 54.296875 48.78125 52.59375 
z
" id="DejaVuSans-99"/>
    <path d="M -0.296875 72.90625 
L 61.375 72.90625 
L 61.375 64.59375 
L 35.5 64.59375 
L 35.5 0 
L 25.59375 0 
L 25.59375 64.59375 
L -0.296875 64.59375 
z
" id="DejaVuSans-84"/>
    <path d="M 19.671875 34.8125 
L 19.671875 8.109375 
L 35.5 8.109375 
Q 43.453125 8.109375 47.28125 11.40625 
Q 51.125 14.703125 51.125 21.484375 
Q 51.125 28.328125 47.28125 31.5625 
Q 43.453125 34.8125 35.5 34.8125 
z
M 19.671875 64.796875 
L 19.671875 42.828125 
L 34.28125 42.828125 
Q 41.5 42.828125 45.03125 45.53125 
Q 48.578125 48.25 48.578125 53.8125 
Q 48.578125 59.328125 45.03125 62.0625 
Q 41.5 64.796875 34.28125 64.796875 
z
M 9.8125 72.90625 
L 35.015625 72.90625 
Q 46.296875 72.90625 52.390625 68.21875 
Q 58.5 63.53125 58.5 54.890625 
Q 58.5 48.1875 55.375 44.234375 
Q 52.25 40.28125 46.1875 39.3125 
Q 53.46875 37.75 57.5 32.78125 
Q 61.53125 27.828125 61.53125 20.40625 
Q 61.53125 10.640625 54.890625 5.3125 
Q 48.25 0 35.984375 0 
L 9.8125 0 
z
" id="DejaVuSans-66"/>
    <path d="M 8.5 -20.796875 
L 8.5 54.6875 
L 17.484375 54.6875 
L 17.484375 20.703125 
Q 17.484375 13.625 20.84375 10 
Q 24.21875 6.390625 30.8125 6.390625 
Q 38.03125 6.390625 41.671875 10.484375 
Q 45.3125 14.59375 45.3125 22.796875 
L 45.3125 54.6875 
L 54.296875 54.6875 
L 54.296875 12.59375 
Q 54.296875 9.671875 55.140625 8.28125 
Q 56 6.890625 57.8125 6.890625 
Q 58.25 6.890625 59.03125 7.15625 
Q 59.8125 7.421875 61.1875 8.015625 
L 61.1875 0.78125 
Q 59.1875 -0.34375 57.390625 -0.875 
Q 55.609375 -1.421875 53.90625 -1.421875 
Q 50.53125 -1.421875 48.53125 0.484375 
Q 46.53125 2.390625 45.796875 6.296875 
Q 43.359375 2.4375 39.8125 0.5 
Q 36.28125 -1.421875 31.5 -1.421875 
Q 26.515625 -1.421875 23.015625 0.484375 
Q 19.53125 2.390625 17.484375 6.203125 
L 17.484375 -20.796875 
z
" id="DejaVuSans-956"/>
   </defs>
   <g transform="translate(26.196094 500.071188)rotate(-90)scale(0.25 -0.25)">
    <use xlink:href="#DejaVuSans-32"/>
    <use x="31.787109" xlink:href="#DejaVuSans-32"/>
    <use x="63.574219" xlink:href="#DejaVuSans-32"/>
    <use x="95.361328" xlink:href="#DejaVuSans-32"/>
    <use x="127.148438" xlink:href="#DejaVuSans-69"/>
    <use x="190.332031" xlink:href="#DejaVuSans-120"/>
    <use x="246.386719" xlink:href="#DejaVuSans-101"/>
    <use x="307.910156" xlink:href="#DejaVuSans-99"/>
    <use x="362.890625" xlink:href="#DejaVuSans-117"/>
    <use x="426.269531" xlink:href="#DejaVuSans-116"/>
    <use x="465.478516" xlink:href="#DejaVuSans-105"/>
    <use x="493.261719" xlink:href="#DejaVuSans-111"/>
    <use x="554.443359" xlink:href="#DejaVuSans-110"/>
    <use x="617.822266" xlink:href="#DejaVuSans-32"/>
    <use x="649.609375" xlink:href="#DejaVuSans-84"/>
    <use x="707.568359" xlink:href="#DejaVuSans-105"/>
    <use x="735.351562" xlink:href="#DejaVuSans-109"/>
    <use x="832.763672" xlink:href="#DejaVuSans-101"/>
    <use x="894.287109" xlink:href="#DejaVuSans-32"/>
    <use x="926.074219" xlink:href="#DejaVuSans-66"/>
    <use x="994.677734" xlink:href="#DejaVuSans-114"/>
    <use x="1033.541016" xlink:href="#DejaVuSans-101"/>
    <use x="1095.064453" xlink:href="#DejaVuSans-97"/>
    <use x="1156.34375" xlink:href="#DejaVuSans-107"/>
    <use x="1214.253906" xlink:href="#DejaVuSans-100"/>
    <use x="1277.730469" xlink:href="#DejaVuSans-111"/>
    <use x="1338.912109" xlink:href="#DejaVuSans-119"/>
    <use x="1420.699219" xlink:href="#DejaVuSans-110"/>
    <use x="1484.078125" xlink:href="#DejaVuSans-32"/>
    <use x="1515.865234" xlink:href="#DejaVuSans-40"/>
    <use x="1554.878906" xlink:href="#DejaVuSans-956"/>
    <use x="1618.501953" xlink:href="#DejaVuSans-115"/>
    <use x="1670.601562" xlink:href="#DejaVuSans-41"/>
   </g>
  </g>
  <g id="text_39">
   <!-- Mixtral -->
   <defs>
    <path d="M 9.1875 72.90625 
L 33.109375 72.90625 
L 49.703125 33.890625 
L 66.40625 72.90625 
L 90.28125 72.90625 
L 90.28125 0 
L 72.515625 0 
L 72.515625 53.328125 
L 55.71875 14.015625 
L 43.796875 14.015625 
L 27 53.328125 
L 27 0 
L 9.1875 0 
z
" id="DejaVuSans-Bold-77"/>
    <path d="M 8.40625 54.6875 
L 25.875 54.6875 
L 25.875 0 
L 8.40625 0 
z
M 8.40625 75.984375 
L 25.875 75.984375 
L 25.875 61.71875 
L 8.40625 61.71875 
z
" id="DejaVuSans-Bold-105"/>
    <path d="M 22.21875 27.984375 
L 2.484375 54.6875 
L 21 54.6875 
L 32.171875 38.484375 
L 43.5 54.6875 
L 62.015625 54.6875 
L 42.28125 28.078125 
L 62.984375 0 
L 44.484375 0 
L 32.171875 17.28125 
L 20.015625 0 
L 1.515625 0 
z
" id="DejaVuSans-Bold-120"/>
    <path d="M 27.484375 70.21875 
L 27.484375 54.6875 
L 45.515625 54.6875 
L 45.515625 42.1875 
L 27.484375 42.1875 
L 27.484375 19 
Q 27.484375 15.1875 29 13.84375 
Q 30.515625 12.5 35.015625 12.5 
L 44 12.5 
L 44 0 
L 29 0 
Q 18.65625 0 14.328125 4.3125 
Q 10.015625 8.640625 10.015625 19 
L 10.015625 42.1875 
L 1.3125 42.1875 
L 1.3125 54.6875 
L 10.015625 54.6875 
L 10.015625 70.21875 
z
" id="DejaVuSans-Bold-116"/>
    <path d="M 49.03125 39.796875 
Q 46.734375 40.875 44.453125 41.375 
Q 42.1875 41.890625 39.890625 41.890625 
Q 33.15625 41.890625 29.515625 37.5625 
Q 25.875 33.25 25.875 25.203125 
L 25.875 0 
L 8.40625 0 
L 8.40625 54.6875 
L 25.875 54.6875 
L 25.875 45.703125 
Q 29.25 51.078125 33.609375 53.53125 
Q 37.984375 56 44.09375 56 
Q 44.96875 56 45.984375 55.921875 
Q 47.015625 55.859375 48.96875 55.609375 
z
" id="DejaVuSans-Bold-114"/>
    <path d="M 32.90625 24.609375 
Q 27.4375 24.609375 24.671875 22.75 
Q 21.921875 20.90625 21.921875 17.28125 
Q 21.921875 13.96875 24.140625 12.078125 
Q 26.375 10.203125 30.328125 10.203125 
Q 35.25 10.203125 38.625 13.734375 
Q 42 17.28125 42 22.609375 
L 42 24.609375 
z
M 59.625 31.203125 
L 59.625 0 
L 42 0 
L 42 8.109375 
Q 38.484375 3.125 34.078125 0.84375 
Q 29.6875 -1.421875 23.390625 -1.421875 
Q 14.890625 -1.421875 9.59375 3.53125 
Q 4.296875 8.5 4.296875 16.40625 
Q 4.296875 26.03125 10.90625 30.515625 
Q 17.53125 35.015625 31.6875 35.015625 
L 42 35.015625 
L 42 36.375 
Q 42 40.53125 38.71875 42.453125 
Q 35.453125 44.390625 28.515625 44.390625 
Q 22.90625 44.390625 18.0625 43.265625 
Q 13.234375 42.140625 9.078125 39.890625 
L 9.078125 53.21875 
Q 14.703125 54.59375 20.359375 55.296875 
Q 26.03125 56 31.6875 56 
Q 46.484375 56 53.046875 50.171875 
Q 59.625 44.34375 59.625 31.203125 
z
" id="DejaVuSans-Bold-97"/>
    <path d="M 8.40625 75.984375 
L 25.875 75.984375 
L 25.875 0 
L 8.40625 0 
z
" id="DejaVuSans-Bold-108"/>
   </defs>
   <g transform="translate(101.16 133.418532)scale(0.23 -0.23)">
    <use xlink:href="#DejaVuSans-Bold-77"/>
    <use x="99.511719" xlink:href="#DejaVuSans-Bold-105"/>
    <use x="133.789062" xlink:href="#DejaVuSans-Bold-120"/>
    <use x="198.291016" xlink:href="#DejaVuSans-Bold-116"/>
    <use x="246.09375" xlink:href="#DejaVuSans-Bold-114"/>
    <use x="295.410156" xlink:href="#DejaVuSans-Bold-97"/>
    <use x="362.890625" xlink:href="#DejaVuSans-Bold-108"/>
   </g>
  </g>
  <g id="text_40">
   <!-- Mamba -->
   <defs>
    <path d="M 59.078125 45.609375 
Q 62.40625 50.6875 66.96875 53.34375 
Q 71.53125 56 77 56 
Q 86.421875 56 91.359375 50.1875 
Q 96.296875 44.390625 96.296875 33.296875 
L 96.296875 0 
L 78.71875 0 
L 78.71875 28.515625 
Q 78.765625 29.15625 78.78125 29.828125 
Q 78.8125 30.515625 78.8125 31.78125 
Q 78.8125 37.59375 77.09375 40.203125 
Q 75.390625 42.828125 71.578125 42.828125 
Q 66.609375 42.828125 63.890625 38.71875 
Q 61.1875 34.625 61.078125 26.859375 
L 61.078125 0 
L 43.5 0 
L 43.5 28.515625 
Q 43.5 37.59375 41.9375 40.203125 
Q 40.375 42.828125 36.375 42.828125 
Q 31.34375 42.828125 28.609375 38.703125 
Q 25.875 34.578125 25.875 26.90625 
L 25.875 0 
L 8.296875 0 
L 8.296875 54.6875 
L 25.875 54.6875 
L 25.875 46.6875 
Q 29.109375 51.3125 33.28125 53.65625 
Q 37.453125 56 42.484375 56 
Q 48.140625 56 52.484375 53.265625 
Q 56.84375 50.53125 59.078125 45.609375 
z
" id="DejaVuSans-Bold-109"/>
    <path d="M 37.5 11.28125 
Q 43.109375 11.28125 46.0625 15.375 
Q 49.03125 19.484375 49.03125 27.296875 
Q 49.03125 35.109375 46.0625 39.203125 
Q 43.109375 43.3125 37.5 43.3125 
Q 31.890625 43.3125 28.875 39.1875 
Q 25.875 35.0625 25.875 27.296875 
Q 25.875 19.53125 28.875 15.40625 
Q 31.890625 11.28125 37.5 11.28125 
z
M 25.875 46.6875 
Q 29.5 51.46875 33.890625 53.734375 
Q 38.28125 56 44 56 
Q 54.109375 56 60.59375 47.96875 
Q 67.09375 39.9375 67.09375 27.296875 
Q 67.09375 14.65625 60.59375 6.609375 
Q 54.109375 -1.421875 44 -1.421875 
Q 38.28125 -1.421875 33.890625 0.84375 
Q 29.5 3.125 25.875 7.90625 
L 25.875 0 
L 8.40625 0 
L 8.40625 75.984375 
L 25.875 75.984375 
z
" id="DejaVuSans-Bold-98"/>
   </defs>
   <g transform="translate(101.16 380.468532)scale(0.23 -0.23)">
    <use xlink:href="#DejaVuSans-Bold-77"/>
    <use x="99.511719" xlink:href="#DejaVuSans-Bold-97"/>
    <use x="166.992188" xlink:href="#DejaVuSans-Bold-109"/>
    <use x="271.191406" xlink:href="#DejaVuSans-Bold-98"/>
    <use x="342.773438" xlink:href="#DejaVuSans-Bold-97"/>
   </g>
  </g>
 </g>
 <defs>
  <clipPath id="pa9bd1f91c8">
   <rect height="144.653596" width="975.757231" x="97.36" y="107.318374"/>
  </clipPath>
  <clipPath id="p7d592cb7cb">
   <rect height="144.653596" width="975.757231" x="97.36" y="357.558374"/>
  </clipPath>
 </defs>
</svg>
